<svg id="Camada_1" data-name="Camada 1" xmlns="http://www.w3.org/2000/svg" xmlns:xlink="http://www.w3.org/1999/xlink" viewBox="0 0 163.1 301.76"><defs><style>.cls-1{fill:url(#Gradiente_sem_nome_63);}.cls-2{fill:#4d352d;}.cls-3{fill:#70b9d6;}.cls-4{fill:url(#Gradiente_sem_nome_154);}.cls-5{fill:url(#Gradiente_sem_nome_159);}</style><linearGradient id="Gradiente_sem_nome_63" x1="23.55" y1="77.21" x2="115.16" y2="-1.88" gradientUnits="userSpaceOnUse"><stop offset="0" stop-color="#489dd7"/><stop offset="0.61" stop-color="#70b9d6"/></linearGradient><linearGradient id="Gradiente_sem_nome_154" x1="86.56" y1="123.2" x2="151.63" y2="67.02" gradientUnits="userSpaceOnUse"><stop offset="0" stop-color="#f07f19"/><stop offset="0" stop-color="#f0811b"/><stop offset="0.06" stop-color="#f19836"/><stop offset="0.12" stop-color="#f2ab4c"/><stop offset="0.19" stop-color="#f3ba5d"/><stop offset="0.28" stop-color="#f4c468"/><stop offset="0.41" stop-color="#f4ca6f"/><stop offset="0.76" stop-color="#f4cc71"/></linearGradient><linearGradient id="Gradiente_sem_nome_159" x1="9.24" y1="173.18" x2="56.32" y2="132.53" gradientUnits="userSpaceOnUse"><stop offset="0" stop-color="#aa1733"/><stop offset="0.01" stop-color="#af203d"/><stop offset="0.06" stop-color="#be3c5d"/><stop offset="0.12" stop-color="#cb547a"/><stop offset="0.18" stop-color="#d56890"/><stop offset="0.25" stop-color="#dd77a2"/><stop offset="0.34" stop-color="#e381ae"/><stop offset="0.46" stop-color="#e687b5"/><stop offset="0.76" stop-color="#e789b7"/></linearGradient></defs><title>boneca</title><path class="cls-1" d="M81.07,22.3C85.59,17,96.46,4.05,109.52,5.52A24.77,24.77,0,0,1,121.8,11a21.9,21.9,0,0,1,6.57,10.59A22.53,22.53,0,0,1,128.48,32c-5.42,26.46-47.59,73.46-54.13,79.71a7.38,7.38,0,0,1-3.68,2,8.21,8.21,0,0,1-4.45-.67c-6.75-3-60.57-62.85-58.13-92.23A21.38,21.38,0,0,1,12.17,9.18c4.18-5.45,10.33-7,12.66-7.6C27,1,35.07-.73,43,3.38,47.79,5.84,51.29,9.77,55.5,17.9A108.2,108.2,0,0,1,66.75,56.44C67.69,48.49,70.64,34.67,81.07,22.3Z"/><path class="cls-2" d="M82.6,22.7c4.29-5.08,8.92-10.06,14.75-13.4a21.18,21.18,0,0,1,10.92-3.15A20.09,20.09,0,0,1,119,10.06a20.49,20.49,0,0,1,8.46,16.69c0,6.12-2.46,12.17-5,17.63-6,12.72-14.26,24.38-22.76,35.5C92.51,89.2,85,98.26,77,106.89c-1.06,1.15-2.14,2.3-3.24,3.43-1.37,1.38-2.94,2.93-5,2.71a6.35,6.35,0,0,1-1.65-.47c-.26-.1.24.13.09,0s-.32-.19-.48-.3a9.62,9.62,0,0,1-1-.73c-1.11-.91-2.17-1.89-3.2-2.88A226.68,226.68,0,0,1,42,85.58,235.53,235.53,0,0,1,19.62,52.7a104.15,104.15,0,0,1-7.4-16.28A39.89,39.89,0,0,1,9.65,22.06,23.14,23.14,0,0,1,12,12.18a19,19,0,0,1,9.34-8.46C27.42,1.07,34.73.56,40.83,3.25,48,6.4,51.9,13.61,55.14,20.32a105,105,0,0,1,7.5,21.29,118.24,118.24,0,0,1,2.49,14.61c.11,1,3.11,1.47,3.24.45a64.64,64.64,0,0,1,14.23-34c.64-.76-2.41-1.59-3.06-.81A65.52,65.52,0,0,0,65.13,56.22l3.24.45a115.82,115.82,0,0,0-6.49-27.91c-2.63-7-5.89-14.4-10.75-20.16C45.52,2,36.7-.68,28.21.15,21.65.79,14.75,3.41,10.64,8.77,2.88,18.85,7.16,32.85,11.78,43.25c5.55,12.52,13.29,24.08,21.44,35a275,275,0,0,0,23.16,27.5,60.13,60.13,0,0,0,7.42,6.85,10.63,10.63,0,0,0,6.42,1.9,9.06,9.06,0,0,0,6.35-3.11A286.76,286.76,0,0,0,96.83,88.17c9.29-11.55,18.23-23.59,25.38-36.6a78.44,78.44,0,0,0,7.38-17.22A24.88,24.88,0,0,0,130,21.59a22.15,22.15,0,0,0-5.88-10,24.93,24.93,0,0,0-17.87-6.9c-8.07.32-15,5.11-20.62,10.58-2.14,2.09-4.11,4.33-6,6.62C78.91,22.64,82,23.48,82.6,22.7Z"/><path class="cls-3" d="M65.77,114.12c-1.16.57-.11,2.49-1.55,5.21-.54,1-.71,2.2-1.27,3.2a.9.9,0,0,0-.12.69,1,1,0,0,0,.4.41,8,8,0,0,0,3.4,1.58c.85.09,1.71-.09,2.57-.08,2.1,0,2.35.58,3.56.4s2.74-.88,3.13-2.12-.56-1.59-1.23-3.87c-.83-2.84,0-4.06-.94-4.76s-2,.53-4.72.19C67,114.71,66.57,113.73,65.77,114.12Z"/><path class="cls-2" d="M66,113.61a4.22,4.22,0,0,0-2.05,1.86,7,7,0,0,0-.22,1.77A8,8,0,0,1,62.9,120c-.46.94-.69,2-1.12,2.9-.14.32-.4.66-.35,1s.62.73,1,1a7.33,7.33,0,0,0,2.72,1.22,23.51,23.51,0,0,0,3.14,0,11.61,11.61,0,0,1,2,.33c1.55.36,3.21-.42,4.49-1.22s3-2,2.46-3.61c-.19-.62-.57-1.18-.82-1.78a10.3,10.3,0,0,1-.75-2.83c-.1-.89.24-2.48-.63-3.08a2,2,0,0,0-1.61-.14,9.68,9.68,0,0,1-2.39.37,6.48,6.48,0,0,1-2.73-.68,1.84,1.84,0,0,0-1.72-.13,6,6,0,0,0-1.94,1.25c-.36.37-.31.66.27.41.21-.09-.16-.09,0,0s.2,0,.26.06a4.72,4.72,0,0,1,.61.27,6.28,6.28,0,0,0,1.93.6,7,7,0,0,0,2.15,0c.54-.08,1.07-.27,1.6-.35.86-.12,1.3.47,1.36,1.27a15.87,15.87,0,0,0,.59,4.1,13,13,0,0,0,.77,1.76,2.48,2.48,0,0,1,.39,1.23,1.84,1.84,0,0,1-.27.74c-.07.15-.31.27,0,0,0,0,.33-.22.33-.22a5.08,5.08,0,0,1-1.42.19c-.44,0-.86-.2-1.29-.28a9.43,9.43,0,0,0-2.43-.08,6.57,6.57,0,0,1-2.5-.16,9,9,0,0,1-2.44-1.34c-.4-.31-.48-.53-.27-1s.37-.83.53-1.27c.33-1,.77-1.86,1.13-2.81a8.82,8.82,0,0,0,.47-2.38c0-.32,0-.64.08-1,.15-.9.56-.54-1,.29a6.16,6.16,0,0,0,1-.71c.09-.07.52-.41.52-.58C67.15,112.92,66.05,113.55,66,113.61Z"/><path class="cls-2" d="M67,126.53c5.11,14.55,5.94,30.38,1,45.1-2.14,6.39-4.66,12.59-5.91,19.25a68.29,68.29,0,0,0-1,17.07,95.23,95.23,0,0,0,6.11,26.84c.68,1.83,5.63,1.44,4.84-.69-5-13.28-7.57-27.61-5.24-41.73,1.06-6.47,3.42-12.5,5.56-18.65a68.5,68.5,0,0,0,3.93-23.52,77.59,77.59,0,0,0-4.51-24.36c-.65-1.84-5.6-1.47-4.84.69Z"/><path class="cls-2" d="M116.83,149.53c5.11,14.55,5.94,30.38,1,45.11-2.14,6.39-4.66,12.58-5.91,19.24A68.29,68.29,0,0,0,111,231a95.23,95.23,0,0,0,6.11,26.84c.68,1.83,5.63,1.45,4.84-.68-5-13.29-7.57-27.62-5.24-41.74,1.07-6.47,3.42-12.49,5.56-18.65a68.49,68.49,0,0,0,3.93-23.51,77.31,77.31,0,0,0-4.51-24.36c-.65-1.84-5.6-1.47-4.84.68Z"/><path class="cls-4" d="M127.42,84.2c3.2-3.8,10.93-13,20.2-11.92a17.54,17.54,0,0,1,8.72,3.87A15.53,15.53,0,0,1,161,83.67a16,16,0,0,1,.08,7.41c-3.85,18.79-33.8,52.17-38.45,56.62a5.24,5.24,0,0,1-2.62,1.44,5.74,5.74,0,0,1-3.15-.48c-4.8-2.13-43-44.64-41.29-65.51a15.18,15.18,0,0,1,2.89-8.27c3-3.87,7.34-5,9-5.4a18.83,18.83,0,0,1,12.93,1.28c3.39,1.75,5.87,4.54,8.86,10.31a77.09,77.09,0,0,1,8,27.38A45.89,45.89,0,0,1,127.42,84.2Z"/><path class="cls-2" d="M129,84.62c3.07-3.63,6.38-7.2,10.57-9.55a12.07,12.07,0,0,1,14.67.79,14.5,14.5,0,0,1,5.5,12.39c-.29,4.2-2,8.31-3.77,12.07-4.26,8.85-10,17-16,24.77-5,6.54-10.29,12.9-15.87,19-1.18,1.29-3.46,4.5-5.39,4.36a3,3,0,0,1-.92-.26c-.2-.08.35.19.15.07a3.37,3.37,0,0,1-.32-.19,7.37,7.37,0,0,1-.65-.48c-.78-.65-1.53-1.33-2.26-2a160.57,160.57,0,0,1-14.56-16.38,167,167,0,0,1-15.71-23c-3.57-6.45-7.38-14-7.25-21.59.1-5.57,2.63-10.64,7.8-13.1a16.57,16.57,0,0,1,13.57-.54c4.91,2.2,7.62,7.26,9.86,11.89a73.63,73.63,0,0,1,5.26,14.82,85.47,85.47,0,0,1,1.85,10.64c.11,1,3.26,1.55,3.39.48A45.93,45.93,0,0,1,129,84.62c.67-.79-2.53-1.67-3.21-.85a46.76,46.76,0,0,0-10.26,24.44l3.39.48a82.39,82.39,0,0,0-4.63-19.9c-1.88-5-4.22-10.32-7.72-14.43-4.08-4.78-10.51-6.67-16.65-6.17-4.72.39-9.75,2.2-12.82,5.94-5.86,7.14-2.82,17.33.49,24.84,4,9,9.56,17.31,15.43,25.18a192.81,192.81,0,0,0,16.57,19.63,39.52,39.52,0,0,0,5.24,4.78,8.6,8.6,0,0,0,5,1.4,6.87,6.87,0,0,0,4.88-2.27,201.31,201.31,0,0,0,14.45-16.58c6.67-8.29,13.09-16.93,18.18-26.29a53.93,53.93,0,0,0,5.17-12.23c1.49-5.84.28-11.83-4.11-16.12a18.62,18.62,0,0,0-13.19-5c-5.9.2-11,3.61-15.07,7.61-1.53,1.49-2.93,3.09-4.31,4.72C125.14,84.56,128.33,85.44,129,84.62Z"/><path class="cls-2" d="M30.68,192.33c5.11,14.55,5.94,30.38,1,45.1C29.55,243.82,27,250,25.78,256.67a68.4,68.4,0,0,0-1,17.08,95.39,95.39,0,0,0,6.11,26.84c.68,1.83,5.63,1.44,4.84-.69-5-13.28-7.57-27.61-5.24-41.74,1.06-6.46,3.42-12.49,5.56-18.65A68.41,68.41,0,0,0,40,216a77.59,77.59,0,0,0-4.51-24.36c-.65-1.84-5.6-1.47-4.84.69Z"/><path class="cls-5" d="M38.8,145c2.32-2.75,7.91-9.37,14.62-8.62a12.63,12.63,0,0,1,6.31,2.8,11.22,11.22,0,0,1,3.38,5.44,11.57,11.57,0,0,1,.06,5.36c-2.79,13.6-24.46,37.76-27.82,41a3.82,3.82,0,0,1-1.9,1,4.17,4.17,0,0,1-2.28-.35C27.7,190.06,0,159.3,1.29,144.19a11,11,0,0,1,2.09-6,11.52,11.52,0,0,1,6.51-3.91,13.67,13.67,0,0,1,9.36.93c2.45,1.26,4.24,3.28,6.4,7.46a55.63,55.63,0,0,1,5.79,19.82A33.25,33.25,0,0,1,38.8,145Z"/><path class="cls-2" d="M40,145.26a29.19,29.19,0,0,1,7.47-6.81,10,10,0,0,1,5.9-1.58A10,10,0,0,1,58.29,139a10.5,10.5,0,0,1,3.88,9.12,25,25,0,0,1-2.79,8.68,105.86,105.86,0,0,1-11.55,17.84c-3.61,4.71-7.41,9.28-11.42,13.64-.89,1-2.57,3.34-4,3.14a2.8,2.8,0,0,1-1.26-.73c-.57-.47-1.12-1-1.65-1.5a118.55,118.55,0,0,1-10.42-11.75A121.82,121.82,0,0,1,7.79,160.9c-2.59-4.66-5.35-10.13-5.31-15.6,0-4,1.76-7.64,5.4-9.49a12,12,0,0,1,10.24-.42c3.49,1.66,5.42,5.33,7,8.67a54.13,54.13,0,0,1,3.76,10.65,61.59,61.59,0,0,1,1.31,7.62c.09.75,2.38,1.13,2.48.35A33.24,33.24,0,0,1,40,145.26c.48-.58-1.85-1.22-2.35-.62a33.93,33.93,0,0,0-7.43,17.69l2.48.35a59.83,59.83,0,0,0-3.37-14.47c-1.37-3.65-3.08-7.5-5.65-10.46-4.91-5.68-15.74-6.14-20.94-.46-4.61,5-2.48,12.59-.08,18.1a94,94,0,0,0,11.14,18.3A138.3,138.3,0,0,0,26,188.16a25.49,25.49,0,0,0,3.77,3.42,5.52,5.52,0,0,0,7-.62,141.15,141.15,0,0,0,10.56-12.1A127.66,127.66,0,0,0,60.7,159.42a36.32,36.32,0,0,0,3.61-8.89,11.61,11.61,0,0,0-3.37-11.43,13.6,13.6,0,0,0-9.32-3.38c-4.15.14-7.75,2.5-10.66,5.3a45.62,45.62,0,0,0-3.33,3.62C37.14,145.22,39.47,145.86,40,145.26Z"/></svg>