<svg id="Camada_1" data-name="Camada 1" xmlns="http://www.w3.org/2000/svg" viewBox="0 0 140 155"><defs><style>.cls-1{fill:#9cd7d3;}.cls-1,.cls-3,.cls-4{stroke:#4d352d;stroke-miterlimit:10;stroke-width:3px;}.cls-2{fill:#4d352d;}.cls-3{fill:#fdafbc;}.cls-4{fill:#ffba56;}.cls-5{fill:#95c581;}</style></defs><title>app valente</title><ellipse class="cls-1" cx="28.74" cy="115.13" rx="29.63" ry="20.01" transform="translate(-57.57 33.7) rotate(-32.65)"/><path class="cls-2" d="M6.77,136.34A15.41,15.41,0,0,1,2.53,132C-.66,127.06-.84,120.66,2,114c2.78-6.48,8.11-12.5,15-16.94C31.5,87.73,48.51,88.29,55,98.27h0c6.45,10-.06,25.66-14.52,35C28.5,140.92,14.8,141.87,6.77,136.34ZM48.89,96.39c-7-4.82-19.3-3.76-30.17,3.23-6.39,4.12-11.31,9.64-13.85,15.57-2.45,5.71-2.35,11.08.26,15.13,5.53,8.55,20.61,8.69,33.64.32s19.12-22.15,13.59-30.7h0A12.61,12.61,0,0,0,48.89,96.39Z"/><ellipse class="cls-1" cx="78.93" cy="125.78" rx="20.03" ry="29.59" transform="translate(-50.94 53.79) rotate(-28.89)"/><path class="cls-2" d="M72.39,150.2A41.17,41.17,0,0,1,60,136.14c-4-7.2-5.77-15-5.11-22,.67-7.24,3.89-12.78,9-15.61,10.43-5.71,25.65,1.89,33.92,16.93s6.51,31.94-3.93,37.65c-5.16,2.82-11.57,2.54-18.05-.78A31.25,31.25,0,0,1,72.39,150.2Zm11.28-46.35c-6.21-4.27-13-5.53-18.25-2.65-4.23,2.31-6.87,7-7.45,13.18-.6,6.41,1.09,13.61,4.75,20.27s8.84,11.95,14.58,14.89c5.54,2.84,10.92,3.13,15.14.82,9-4.89,10.16-19.9,2.71-33.45A38.24,38.24,0,0,0,83.67,103.85Z"/><ellipse class="cls-3" cx="32.21" cy="70.05" rx="20.33" ry="40.73" transform="translate(-30.05 24.57) rotate(-29.16)"/><path class="cls-2" d="M32.62,103.41c-6.94-4.79-13.94-12.69-19.54-22.75C1.54,60,.91,39.07,11.63,33.12c5.29-2.93,12.4-1.68,20,3.52,7.31,5,14.29,13.09,19.7,22.8s8.61,19.92,9,28.73c.41,9.2-2.27,15.88-7.56,18.82C47.27,110.05,40,108.47,32.62,103.41ZM30,39.27l-.11-.08c-6.59-4.51-12.54-5.71-16.75-3.37C4.23,40.76,5.45,60.6,15.78,79.16s26.6,30.07,35.5,25.13c4.21-2.34,6.33-8,6-16-.37-8.35-3.43-18.07-8.61-27.37S36.87,44,30,39.27Z"/><ellipse class="cls-3" cx="97.41" cy="84.5" rx="40.78" ry="20.31" transform="translate(-30.11 65.32) rotate(-32.39)"/><path class="cls-2" d="M65.12,110.72a12.3,12.3,0,0,1-3.44-3.53h0C58.43,102.1,59.26,95,64,87.06c4.56-7.56,12.24-15,21.63-21,20-12.73,40.9-14.6,47.49-4.28s-3.94,28.4-24,41.12c-9.4,6-19.41,9.76-28.21,10.68C74.28,114.3,68.84,113.29,65.12,110.72ZM128,60.85c-7.63-5.26-24.85-2.21-40.65,7.83-9,5.72-16.33,12.81-20.65,20-4.12,6.84-5,12.83-2.38,16.89h0c2.59,4,8.39,5.82,16.34,5,8.33-.87,17.88-4.5,26.87-10.21,18-11.41,28.5-28.28,23-36.86A9.17,9.17,0,0,0,128,60.85Z"/><ellipse class="cls-4" cx="59.63" cy="99.32" rx="31.76" ry="7.96" transform="translate(-51.71 131.32) rotate(-75.06)"/><path class="cls-2" d="M49.75,130.63c-2.06-1.67-3-5.57-2.81-11.85A100.9,100.9,0,0,1,50.71,96a96,96,0,0,1,8.23-21.13c3.49-6.11,6.57-8.57,9.42-7.5,7,2.63,3.2,24.22.18,35.28h0c-3,11-10.6,31.26-17.65,28.63A4.05,4.05,0,0,1,49.75,130.63ZM67.87,70.15a.89.89,0,0,0-.23-.13c-.51-.19-2.72.59-6.07,6.48a92.67,92.67,0,0,0-8,20.56,98.63,98.63,0,0,0-3.69,22.17c-.18,7.08,1.23,9.21,1.74,9.4,2.05.77,8.88-8.09,14.07-27h0C70.67,83.34,69.78,71.7,67.87,70.15Z"/><path class="cls-2" d="M64,69.23a53.45,53.45,0,0,0-1.37-25.34C56.3,23.23,39.29,13,32.26,9.62l1.36-2.78C41,10.44,58.91,21.17,65.56,43A56.61,56.61,0,0,1,67,69.78Z"/><path class="cls-2" d="M26.4,11.69a6.42,6.42,0,1,1,9.87-6.94,6.33,6.33,0,0,1-.64,4.87A6.45,6.45,0,0,1,26.85,12Z"/><path class="cls-5" d="M32,3.68l-.23-.14A3.3,3.3,0,0,0,29.2,3.2a3.39,3.39,0,0,0-2,1.56,3.33,3.33,0,0,0,3.76,4.87,3.29,3.29,0,0,0,2-1.55A3.33,3.33,0,0,0,32,3.68Z"/><path class="cls-2" d="M66.34,68.9a56.84,56.84,0,0,1,17-20.81c18.24-13.75,39.05-11.92,47.14-10.5l-.53,3c-7.7-1.35-27.47-3.09-44.74,9.93a53.59,53.59,0,0,0-16,19.68Z"/><path class="cls-2" d="M129.92,44.62a6.42,6.42,0,0,1-2.74-6h0a6.4,6.4,0,1,1,2.74,6Z"/><path class="cls-5" d="M130.25,39a3.33,3.33,0,0,0,3,3.66,3.35,3.35,0,0,0,3.67-3,3.34,3.34,0,0,0-6.64-.71Z"/></svg>