<svg id="Camada_1" data-name="Camada 1" xmlns="http://www.w3.org/2000/svg" viewBox="0 0 317.12 348"><defs><style>.cls-1{fill:#4d352d;}.cls-2{fill:#65b6db;}.cls-3{fill:#f7c36e;}</style></defs><title>boneca</title><path class="cls-1" d="M16.88,162.24c.33-1.76.55-3.54,1-5.26,2-7.91,6.24-14.3,13.35-18.56,4-2.4,8.49-3.22,13.07-3.5a98.91,98.91,0,0,1,28.79,2.54c.15,0,.31,0,.72.08-.7-.75-1.24-1.34-1.8-1.92A64,64,0,0,1,55.2,102.67c-2-10.62,1.09-19.57,10-26s19.39-6,27.87,1c1.11.91,2.16,1.89,3.49,3.06-.69-1.69-1.28-3.06-1.81-4.45A37.23,37.23,0,0,1,92,63.37c-.08-8.82,3.6-15.5,11.7-19.28,8.87-4.14,17.88-4.41,26.81,0,4.36,2.16,7.47,5.69,10.13,9.65A99.85,99.85,0,0,1,152.9,79.67c.09.3.19.61.29.91,0,.06.09.11.21.25.52-1.69,1-3.34,1.53-5a64.11,64.11,0,0,1,21-29.77,24,24,0,0,1,14.34-5.42c10.19-.32,21.61,5.7,24.48,17.27,1.06,4.31.58,8.57-.4,12.82-.09.36-.16.74-.21,1,2.31-2.59,4.54-5.3,7-7.78a24.69,24.69,0,0,1,13.22-7.33c6.53-1.17,12.16.9,17.11,5a30,30,0,0,1,11.06,19.68,25.91,25.91,0,0,1-2.67,14.53,98.13,98.13,0,0,1-16.7,24.47l-1,1.13c.6-.12.92-.17,1.22-.25a64.87,64.87,0,0,1,39.24,1.93,24.62,24.62,0,0,1,13.78,11.66c4.59,8.55,3.89,19.24-1.81,26.36-3.31,4.13-7.8,6.38-12.73,7.89a3.85,3.85,0,0,0-1.37.64c1.5.22,3,.4,4.48.65a35.48,35.48,0,0,1,13.7,4.78c5.26,3.37,8.63,8,9.41,14.32a6,6,0,0,0,.22.8v4.32c-.49,2.21-.8,4.48-1.5,6.63-2.74,8.38-7.79,14.81-16.16,18.18-4.33,1.74-8.94,2-13.54,2.07a100.31,100.31,0,0,1-24.49-2.6c-.31-.07-.63-.11-1.25-.21,1,1.06,1.82,1.89,2.62,2.75a64.29,64.29,0,0,1,16,31.69c2.19,11-1,20.19-10.33,26.8-8.48,6-18.76,5.63-26.92-.81-1.28-1-2.48-2.13-3.9-3.14.15.36.29.73.44,1.09a47.59,47.59,0,0,1,3.74,12.7c1.53,11.54-4,20.34-15.1,23.89-8.07,2.58-16,2.32-23.58-1.71-5-2.65-8.25-7-11.16-11.64a101.55,101.55,0,0,1-10.83-23.81c-.11-.33-.23-.67-.42-1.22-.66,2.11-1.2,4-1.87,5.92a64.71,64.71,0,0,1-19.56,28.09c-5.08,4.29-11,6.69-17.76,6.25-9.59-.63-18.62-6.3-21.72-15.65-1.57-4.76-1.19-9.53-.06-14.31.08-.35.17-.7.24-1.05a1.41,1.41,0,0,0-.07-.32c-1,1.24-1.88,2.45-2.83,3.62a39.65,39.65,0,0,1-9,8.37c-8.07,5.24-16.94,4.95-24.53-1-6.9-5.38-11.14-12.34-12.05-21.15-.55-5.35,1-10.28,3.34-15A99.37,99.37,0,0,1,82,235.94l1-1.18c-2.43.51-4.68,1-6.94,1.44a60.69,60.69,0,0,1-19.21.31A57.94,57.94,0,0,1,42.28,233c-8.86-3.66-14.45-10-16.08-19.61-2-11.75,4-21.79,15.46-25.64,1.05-.36,2.1-.69,3.28-1.07-3.07-.57-6-1-8.9-1.68-5.4-1.31-10.35-3.56-14.15-7.81a18.35,18.35,0,0,1-4.78-10.76,7.75,7.75,0,0,0-.23-1Zm230.29,5.95c6.34-.35,11.78-.52,17.19-1a73.21,73.21,0,0,0,16.47-3c5.84-1.89,10.67-5,13.55-10.69,3.71-7.28,3.41-18.33-7.1-23.9a43.28,43.28,0,0,0-12.06-4.18c-8.63-1.7-17.27-2.16-26-.37a70.83,70.83,0,0,0-16.62,5.69,2.11,2.11,0,0,1-1.44.24c-1.69-.7-2.1-3.89-.72-5.06a108.85,108.85,0,0,0,15.65-16.18,85.63,85.63,0,0,0,12-19.72,19.75,19.75,0,0,0,1.5-11.37c-1.26-6.6-5.29-11.26-10.82-14.72a17.27,17.27,0,0,0-15.41-1.77,28.66,28.66,0,0,0-12,8.29c-5.82,6.44-10.14,13.87-13.92,21.61-8.79,18-15,36.91-19.53,56.37-.75,3.19-1.22,6.44-1.73,9.67-.35,2.28.45,3.44,2.66,4.13a11.34,11.34,0,0,0,2,.45c9.35,1.24,18.67,2.71,28,3.61C228.58,167.23,238.33,167.62,247.17,168.19ZM60,182.66c3.25-.26,9.77-.57,16.23-1.33a274.07,274.07,0,0,0,43.27-8.88c4.71-1.35,9.32-3.08,13.92-4.8,2.28-.85,2.79-2.1,2.17-4.47-.36-1.35-.85-2.66-1.34-4a373.84,373.84,0,0,0-17.68-39.6,177.83,177.83,0,0,0-16.39-26.89c-3.47-4.56-7.08-9-11.79-12.37-5-3.61-10.55-5-16.57-3.49C65.57,78.47,60.8,82,58.9,88.55a22,22,0,0,0-.34,10.11,64,64,0,0,0,27.92,42.49,2.15,2.15,0,0,1,.94,1c.41,1.65-2.16,3.93-3.75,3.37a113,113,0,0,0-21.57-5.47,85.89,85.89,0,0,0-23.53-.58c-5,.67-9.42,2.51-12.75,6.46a23.08,23.08,0,0,0-5.25,14.25A17.38,17.38,0,0,0,25.83,174a26,26,0,0,0,10.8,6.23C43.2,182.2,50,182.61,60,182.66Zm168,109.9.29-.05c-.48-2.67-.76-5.38-1.47-8-2-7.52-5.7-14.32-9.85-20.84-11.3-17.76-25.2-33.33-40.38-47.8-2.75-2.61-5.73-5-8.7-7.35-1.8-1.42-3.11-1.23-4.78.35A11.7,11.7,0,0,0,162,210.2c-5.06,6.5-10.28,12.88-15.11,19.54C138,242,129.6,254.47,122.91,268c-3.18,6.46-6,13.06-7.5,20.17-1.29,6.27-.62,12.22,3.38,17.43s9.11,8,15.73,7.52c4.37-.34,8.08-2.53,11.36-5.28a64.28,64.28,0,0,0,17.36-23.1,63.62,63.62,0,0,0,5.34-22,2.51,2.51,0,0,1,.46-1.53c1.29-1.22,4.49,0,4.8,1.72a107.84,107.84,0,0,0,6.56,22.63c3,7.13,6.41,14.05,11.35,20.08s11.08,8.38,18.64,7C220.15,310.94,228.26,304.73,228.08,292.56Zm47.6-75c3.54-.22,7.1-.27,10.62-.69,4.79-.57,9.15-2.25,12.53-5.91a22.56,22.56,0,0,0,5.46-11.67c1.49-8.27-1.51-15.25-8.54-19.83a28.85,28.85,0,0,0-9.34-4,72.28,72.28,0,0,0-20.83-1.73c-6.54.37-13.1.73-19.59,1.58a270.06,270.06,0,0,0-42.25,9.06c-4.2,1.26-8.3,2.85-12.4,4.42-1.77.68-2.27,1.81-1.89,3.65a26.33,26.33,0,0,0,1.13,3.77,356.29,356.29,0,0,0,15.59,35.68,213.35,213.35,0,0,0,15.45,27c3.89,5.58,7.95,11,13.19,15.47s11.15,6.66,18,5.1c6.66-1.52,11.66-5.16,13.55-12.1a22.9,22.9,0,0,0,.23-10.12,65.1,65.1,0,0,0-9.7-24.08,63.45,63.45,0,0,0-18.06-18c-.41-.28-1.11-.83-1-1a13.62,13.62,0,0,1,1.53-3,1.68,1.68,0,0,1,2.14-.52c1.91.7,3.85,1.34,5.8,1.93A113.1,113.1,0,0,0,275.68,217.53ZM210.34,62A18.85,18.85,0,0,0,203,47.12c-3.86-3.1-8.31-4.81-13.4-3.87a22,22,0,0,0-9.92,4.87,63.93,63.93,0,0,0-23.12,45.77,1.82,1.82,0,0,1-.5,1.24c-1.51,1.1-4.42-.09-4.74-1.89a108.78,108.78,0,0,0-4.61-17.49c-3.08-8.62-6.95-16.86-12.52-24.18-5.72-7.51-13.08-9.88-22.08-7.38-9.82,2.72-15,9.56-15,19.76a34.44,34.44,0,0,0,2.7,12.46c3.31,8.57,8.12,16.31,13.39,23.76a272.11,272.11,0,0,0,33.5,38.49c3.35,3.25,7,6.18,10.63,9.14,1.71,1.39,3,1.19,4.59-.33a29.54,29.54,0,0,0,2.26-2.48A371.56,371.56,0,0,0,193,104.76a152.26,152.26,0,0,0,14-27.5A43.49,43.49,0,0,0,210.34,62ZM80.12,188.15c-6.51.28-12.14.47-17.77.77-2.11.11-4.22.41-6.31.7a57.05,57.05,0,0,0-14.62,3.57,20.24,20.24,0,0,0-11.67,12c-2.17,6-1.42,14.54,4.9,19.23a25.11,25.11,0,0,0,5,3.07c11.25,4.83,23,5.86,35,3.92a63.47,63.47,0,0,0,17.81-5.86,2.15,2.15,0,0,1,1.43-.33c1.7.58,2.25,3.89.9,5a110.91,110.91,0,0,0-15.14,15.5A86.36,86.36,0,0,0,67,266.5a19.28,19.28,0,0,0-1.44,10.91c1.33,7.22,5.79,12.15,12,15.59a17,17,0,0,0,15,.84,30,30,0,0,0,11.69-8.55c6-6.86,10.42-14.73,14.32-22.91a268.19,268.19,0,0,0,18.19-52.56c1-4,1.57-8.07,2.18-12.13.28-1.93-.48-2.89-2.34-3.51a15.24,15.24,0,0,0-2.91-.7c-8.71-1.16-17.4-2.52-26.14-3.38C98.18,189.18,88.71,188.74,80.12,188.15ZM166.59,149a8.83,8.83,0,0,1,.59,1.78,13.74,13.74,0,0,0,1.7,5.31,2.89,2.89,0,0,1,0,2.34c-1.18,2.35-5.57,4.43-8.16,4.12a8.4,8.4,0,0,0-2.74,0,6.87,6.87,0,0,1-4.91-1,1.16,1.16,0,0,1-.63-1.65,31.35,31.35,0,0,0,1.54-5.63c.21-1.55.23-3,1.74-3.74-1.91-1.38-3.81-2.58-5.5-4A251.79,251.79,0,0,1,122,117.77l-1-1.18c-.31-.36-.63-.7-1-1,7.07,14.68,14.16,29.28,19.28,44.55a6.56,6.56,0,0,1,1.79.33,11,11,0,0,0,5.56,1.19,2.15,2.15,0,0,1,2,1.21c1.32,2.36,1,7.07-.67,9.25a8.24,8.24,0,0,0-1.24,2.17,6.89,6.89,0,0,1-3.33,3.77,1.24,1.24,0,0,1-1.85-.31,26.45,26.45,0,0,0-3.85-3.92c-1.31-1-2.64-1.77-2.59-3.38-15.51,6.75-31.87,10.14-48.28,13.37,16.25,1.13,32.49,2.27,48.46,5.5a5.86,5.86,0,0,1,1.06-1.34,11.71,11.71,0,0,0,3.9-4.31,1.87,1.87,0,0,1,2.08-1.11c3.22.72,6.24,1.79,7.66,5.21a7.51,7.51,0,0,0,1.2,2.05,7.22,7.22,0,0,1,1.65,4.64c0,1-.3,1.44-1.34,1.68-2.24.52-4.59.68-6.61,2a3.52,3.52,0,0,1-1.83.17,4.6,4.6,0,0,1-1.07-.24c-.28,2.41-.4,4.72-.82,7a245.48,245.48,0,0,1-9.82,36c-.61,1.78-1.23,3.55-1.85,5.33,9.18-13.48,18.3-26.93,29-39.06a6.6,6.6,0,0,1-.56-1.57,14.06,14.06,0,0,0-1.73-5.55,2.58,2.58,0,0,1,0-2.3c2-2.46,4.41-4.27,7.81-4.17a30.36,30.36,0,0,0,3.57,0,7.28,7.28,0,0,1,4.23,1,1.34,1.34,0,0,1,.76,1.91c-.7,2.24-1.71,4.39-1.6,6.84,0,.58-.53,1.2-.89,1.75a2.47,2.47,0,0,1-.6.58c13.65,10,24.69,22.5,35.71,35-7.18-14.62-14.27-29.26-19.44-44.6a8.46,8.46,0,0,1-1.91-.4,11.22,11.22,0,0,0-5.45-1.16,1.91,1.91,0,0,1-2.12-1.41c-.85-3.17-1.43-6.34.9-9.23a6.14,6.14,0,0,0,1.06-1.86,7,7,0,0,1,3.38-3.88,1.23,1.23,0,0,1,1.83.32,30.33,30.33,0,0,0,3.94,4c1.27,1,2.61,1.7,2.43,3.76,4-2.58,8.21-3.76,12.38-5.09a270.09,270.09,0,0,1,35-8.44c.3-.05.58-.18,1.17-.36-16.58-1-32.78-2.23-48.6-5.41a7.79,7.79,0,0,1-1.23,1.39,11.36,11.36,0,0,0-3.74,4.14,2.16,2.16,0,0,1-2.15,1.21c-2.74-.07-6.56-2.62-7.62-5.1a8.49,8.49,0,0,0-1.32-2.26,7.21,7.21,0,0,1-1.56-4.79c0-.8.26-1.2,1.12-1.37a28.6,28.6,0,0,0,5.21-1.31c1.56-.63,3-1.58,4.55-.57.24-2.35.34-4.58.73-6.77a237.41,237.41,0,0,1,8.6-32.63c1-3,2.07-6,3.11-9C186.39,123.39,177.3,136.85,166.59,149Zm-28.11,20.17c.71.81,1.45,1.7,2.24,2.55,1.8,2,2.34,1.93,4.21-.06a4.47,4.47,0,0,0,.64-.86c.67-1.3,1.31-2.62,2.09-4.2-2.59.37-4.86-.48-7.13-1.35-.23-.09-.89.44-1.05.81A30.6,30.6,0,0,0,138.48,169.15Zm39,20.52a12.51,12.51,0,0,1,6.71,1.29,1,1,0,0,0,1.51-.66c1.09-3,1.1-3-1-5.4l-.32-.36c-1.69-1.85-2.37-1.86-4.12,0a4.73,4.73,0,0,0-.76,1.07C178.89,186.89,178.27,188.17,177.52,189.67Zm2.22-19.16c1.6-1.56,3.23-3.17,4.86-4.77.45-.43.65-.85.19-1.45-1.94-2.49-2.33-2.65-5.42-1.94l-.23.07c-2.57.62-3,1.45-2,4a6,6,0,0,0,.57,1.05C178.42,168.55,179.15,169.63,179.74,170.51Zm-34.3,15.23c-1.61,1.6-3.3,3.24-4.95,4.92-.21.22-.41.77-.3.92.77,1,1.61,2,2.46,2.9.08.08.37,0,.56,0,1.44-.31,2.87-.66,4.32-.93.7-.13.88-.5.89-1.15a6,6,0,0,0-1.2-3.92C146.54,187.53,146,186.54,145.44,185.74Zm19.14-26.26c-.55-2-1.08-4.06-1.61-6.08-.06-.23,0-.55-.18-.68-.35-.29-.81-.73-1.16-.68-3.25.45-3.33.55-4.33,3.73-.05.16-.1.31-.14.46-.66,2.22-.49,2.55,1.76,3.25a4.68,4.68,0,0,0,1.52.27C161.9,159.7,163.36,159.57,164.58,159.48Zm-4.32,37.34a28.41,28.41,0,0,1,1.4,3.17c.35,1.14.38,2.37.73,3.5a1.46,1.46,0,0,0,1.22.71c3.21-.4,3.2-.43,4.21-3.51a1.15,1.15,0,0,0,.1-.35c0-.88,1.24-1.78.18-2.59a9.48,9.48,0,0,0-2.71-1.14,3.59,3.59,0,0,0-1.31,0Z"/><path class="cls-2" d="M247.17,168.19c-8.84-.57-18.59-1-28.29-1.9-9.37-.9-18.69-2.37-28-3.61a11.34,11.34,0,0,1-2-.45c-2.21-.69-3-1.85-2.66-4.13.51-3.23,1-6.48,1.73-9.67,4.55-19.46,10.74-38.38,19.53-56.37,3.78-7.74,8.1-15.17,13.92-21.61a28.66,28.66,0,0,1,12-8.29,17.27,17.27,0,0,1,15.41,1.77c5.53,3.46,9.56,8.12,10.82,14.72A19.75,19.75,0,0,1,258.11,90a85.63,85.63,0,0,1-12,19.72,108.85,108.85,0,0,1-15.65,16.18c-1.38,1.17-1,4.36.72,5.06a2.11,2.11,0,0,0,1.44-.24,70.83,70.83,0,0,1,16.62-5.69c8.69-1.79,17.33-1.33,26,.37a43.28,43.28,0,0,1,12.06,4.18c10.51,5.57,10.81,16.62,7.1,23.9-2.88,5.65-7.71,8.8-13.55,10.69a73.21,73.21,0,0,1-16.47,3C259,167.67,253.51,167.84,247.17,168.19Z"/><path class="cls-2" d="M60,182.66c-10.07,0-16.84-.46-23.41-2.46A26,26,0,0,1,25.83,174a17.38,17.38,0,0,1-5.26-13.79,23.08,23.08,0,0,1,5.25-14.25c3.33-4,7.78-5.79,12.75-6.46a85.89,85.89,0,0,1,23.53.58,113,113,0,0,1,21.57,5.47c1.59.56,4.16-1.72,3.75-3.37a2.15,2.15,0,0,0-.94-1A64,64,0,0,1,58.56,98.66a22,22,0,0,1,.34-10.11c1.9-6.55,6.67-10.08,13-11.69,6-1.53,11.56-.12,16.57,3.49,4.71,3.38,8.32,7.81,11.79,12.37a177.83,177.83,0,0,1,16.39,26.89,373.84,373.84,0,0,1,17.68,39.6c.49,1.31,1,2.62,1.34,4,.62,2.37.11,3.62-2.17,4.47-4.6,1.72-9.21,3.45-13.92,4.8a274.07,274.07,0,0,1-43.27,8.88C69.81,182.09,63.29,182.4,60,182.66Z"/><path class="cls-2" d="M228.08,292.56c.18,12.17-7.93,18.38-17.69,20.12-7.56,1.35-13.8-1.13-18.64-7s-8.36-12.95-11.35-20.08a107.84,107.84,0,0,1-6.56-22.63c-.31-1.75-3.51-2.94-4.8-1.72a2.51,2.51,0,0,0-.46,1.53,63.62,63.62,0,0,1-5.34,22,64.28,64.28,0,0,1-17.36,23.1c-3.28,2.75-7,4.94-11.36,5.28-6.62.51-11.79-2.38-15.73-7.52s-4.67-11.16-3.38-17.43c1.46-7.11,4.32-13.71,7.5-20.17,6.69-13.56,15.1-26.07,23.94-38.29,4.83-6.66,10.05-13,15.11-19.54a11.7,11.7,0,0,1,1.23-1.31c1.67-1.58,3-1.77,4.78-.35,3,2.36,5.95,4.74,8.7,7.35,15.18,14.47,29.08,30,40.38,47.8,4.15,6.52,7.82,13.32,9.85,20.84.71,2.6,1,5.31,1.47,8Z"/><path class="cls-2" d="M275.68,217.53a113.1,113.1,0,0,1-28.43-4.9c-1.95-.59-3.89-1.23-5.8-1.93a1.68,1.68,0,0,0-2.14.52,13.62,13.62,0,0,0-1.53,3c-.07.19.63.74,1,1a63.45,63.45,0,0,1,18.06,18,65.1,65.1,0,0,1,9.7,24.08,22.9,22.9,0,0,1-.23,10.12c-1.89,6.94-6.89,10.58-13.55,12.1-6.84,1.56-12.77-.67-18-5.1s-9.3-9.89-13.19-15.47a213.35,213.35,0,0,1-15.45-27,356.29,356.29,0,0,1-15.59-35.68,26.33,26.33,0,0,1-1.13-3.77c-.38-1.84.12-3,1.89-3.65,4.1-1.57,8.2-3.16,12.4-4.42A270.06,270.06,0,0,1,246,175.33c6.49-.85,13.05-1.21,19.59-1.58a72.28,72.28,0,0,1,20.83,1.73,28.85,28.85,0,0,1,9.34,4c7,4.58,10,11.56,8.54,19.83a22.56,22.56,0,0,1-5.46,11.67c-3.38,3.66-7.74,5.34-12.53,5.91C282.78,217.26,279.22,217.31,275.68,217.53Z"/><path class="cls-2" d="M210.34,62A43.49,43.49,0,0,1,207,77.26a152.26,152.26,0,0,1-14,27.5A371.56,371.56,0,0,1,164.15,145a29.54,29.54,0,0,1-2.26,2.48c-1.61,1.52-2.88,1.72-4.59.33-3.62-3-7.28-5.89-10.63-9.14a272.11,272.11,0,0,1-33.5-38.49C107.9,92.72,103.09,85,99.78,76.41A34.44,34.44,0,0,1,97.08,64c0-10.2,5.2-17,15-19.76,9-2.5,16.36-.13,22.08,7.38,5.57,7.32,9.44,15.56,12.52,24.18a108.78,108.78,0,0,1,4.61,17.49c.32,1.8,3.23,3,4.74,1.89a1.82,1.82,0,0,0,.5-1.24,63.93,63.93,0,0,1,23.12-45.77,22,22,0,0,1,9.92-4.87c5.09-.94,9.54.77,13.4,3.87A18.85,18.85,0,0,1,210.34,62Z"/><path class="cls-2" d="M80.12,188.15c8.59.59,18.06,1,27.47,1.95,8.74.86,17.43,2.22,26.14,3.38a15.24,15.24,0,0,1,2.91.7c1.86.62,2.62,1.58,2.34,3.51-.61,4.06-1.21,8.15-2.18,12.13a268.19,268.19,0,0,1-18.19,52.56c-3.9,8.18-8.32,16.05-14.32,22.91a30,30,0,0,1-11.69,8.55,17,17,0,0,1-15-.84c-6.22-3.44-10.68-8.37-12-15.59A19.28,19.28,0,0,1,67,266.5a86.36,86.36,0,0,1,12.65-20.71,110.91,110.91,0,0,1,15.14-15.5c1.35-1.15.8-4.46-.9-5a2.15,2.15,0,0,0-1.43.33,63.47,63.47,0,0,1-17.81,5.86c-12,1.94-23.75.91-35-3.92a25.11,25.11,0,0,1-5-3.07c-6.32-4.69-7.07-13.27-4.9-19.23a20.24,20.24,0,0,1,11.67-12A57.05,57.05,0,0,1,56,189.62c2.09-.29,4.2-.59,6.31-.7C68,188.62,73.61,188.43,80.12,188.15Z"/><path class="cls-2" d="M138.48,169.15a30.6,30.6,0,0,1,1-3.11c.16-.37.82-.9,1.05-.81,2.27.87,4.54,1.72,7.13,1.35-.78,1.58-1.42,2.9-2.09,4.2a4.47,4.47,0,0,1-.64.86c-1.87,2-2.41,2-4.21.06C139.93,170.85,139.19,170,138.48,169.15Z"/><path class="cls-2" d="M177.52,189.67c.75-1.5,1.37-2.78,2-4a4.73,4.73,0,0,1,.76-1.07c1.75-1.88,2.43-1.87,4.12,0l.32.36c2.1,2.39,2.09,2.39,1,5.4a1,1,0,0,1-1.51.66A12.51,12.51,0,0,0,177.52,189.67Z"/><path class="cls-2" d="M179.74,170.51c-.59-.88-1.32-2-2-3a6,6,0,0,1-.57-1.05c-1-2.54-.57-3.37,2-4l.23-.07c3.09-.71,3.48-.55,5.42,1.94.46.6.26,1-.19,1.45C183,167.34,181.34,169,179.74,170.51Z"/><path class="cls-2" d="M145.44,185.74c.52.8,1.1,1.79,1.78,2.71a6,6,0,0,1,1.2,3.92c0,.65-.19,1-.89,1.15-1.45.27-2.88.62-4.32.93-.19,0-.48.11-.56,0-.85-.94-1.69-1.89-2.46-2.9-.11-.15.09-.7.3-.92C142.14,189,143.83,187.34,145.44,185.74Z"/><path class="cls-2" d="M164.58,159.48c-1.22.09-2.68.22-4.14.27a4.68,4.68,0,0,1-1.52-.27c-2.25-.7-2.42-1-1.76-3.25,0-.15.09-.3.14-.46,1-3.18,1.08-3.28,4.33-3.73.35,0,.81.39,1.16.68.15.13.12.45.18.68C163.5,155.42,164,157.43,164.58,159.48Z"/><path class="cls-2" d="M160.26,196.82l3.82-.24a3.59,3.59,0,0,1,1.31,0,9.48,9.48,0,0,1,2.71,1.14c1.06.81-.2,1.71-.18,2.59a1.15,1.15,0,0,1-.1.35c-1,3.08-1,3.11-4.21,3.51a1.46,1.46,0,0,1-1.22-.71c-.35-1.13-.38-2.36-.73-3.5A28.41,28.41,0,0,0,160.26,196.82Z"/><path class="cls-1" d="M146,0a9.41,9.41,0,0,0,.91.25,6.26,6.26,0,0,1,4.57,3c1.08,1.9,1.94,3.92,2.88,5.9a8.39,8.39,0,0,1,.37,1c1.5-1.92,2.89-3.95,4.52-5.75A9.93,9.93,0,0,1,165.35,1c4.81-.65,8.34,3.47,6.88,8.36a26.82,26.82,0,0,1-3.56,7.53c-3.25,4.67-6.85,9.12-10.37,13.6a1.61,1.61,0,0,0-.25,1.74,2.42,2.42,0,0,1-2.21,3.06c-.23,0-.47,0-.71,0-1.81-.06-1.88-.17-1.36-1.86.17-.57.27-1.15.34-1.46-2.16-2.22-4.28-4.22-6.18-6.42-3.64-4.2-7.05-8.59-9.25-13.76a14.75,14.75,0,0,1-1-3.55c-.65-4.37,1.53-7.24,5.91-8,.34-.06.68-.17,1-.26Zm-1.35,1.23a4.8,4.8,0,0,0-4.88,4.33,10.69,10.69,0,0,0,1.25,6c3.46,7.06,8.43,13,14,18.43a1,1,0,0,0,1.64,0c4.29-4.87,8.46-9.84,11.41-15.67a25.64,25.64,0,0,0,2.16-5.8,5.08,5.08,0,0,0-2.77-5.82c-2-1-3.68-.71-5.75,1.21A17.51,17.51,0,0,0,156,14.83a1.44,1.44,0,0,1-1.54,1.45c-1,0-.93-.78-1-1.43a27.42,27.42,0,0,0-4.12-11A5.59,5.59,0,0,0,144.66,1.23Z"/><path class="cls-1" d="M171.45,348a3.31,3.31,0,0,0-.68-.2,6.75,6.75,0,0,1-5.56-3.67c-1-1.75-1.68-3.61-2.5-5.42-.16-.36-.27-.74-.48-1.31a18.73,18.73,0,0,1-4.81,6.71,11.2,11.2,0,0,1-5.11,2.73,6.27,6.27,0,0,1-7.62-7.52,23.51,23.51,0,0,1,4.3-9.15c3.15-4.36,6.58-8.53,9.84-12.81a2,2,0,0,0,.22-1.59,2.48,2.48,0,0,1,2.43-3.11c.27,0,.55,0,.83,0,1.37,0,1.57.35,1.14,1.67-.19.6-.32,1.23-.45,1.74,6.21,5.72,11.57,12,15.23,19.59a15.12,15.12,0,0,1,1.3,4.09c.68,4.26-1.67,7.3-6,8-.38.05-.76.17-1.14.26Zm6-7.07a23,23,0,0,0-1.12-3.89c-3.38-7.39-8.54-13.47-14.29-19.1a1,1,0,0,0-1.64.07c-4.15,4.72-8.21,9.53-11.12,15.15a30.18,30.18,0,0,0-2.45,6.32,5.12,5.12,0,0,0,2.71,5.77c1.89,1.05,3.58.8,5.57-1a17.33,17.33,0,0,0,5.48-8.7,22.6,22.6,0,0,0,.53-2.7c.12-1,.8-1.11,1.54-1.19s.83.53,1,1.09c.43,1.87.77,3.77,1.38,5.58a16.47,16.47,0,0,0,3.67,6.8,5.24,5.24,0,0,0,5.87,1.13C176.62,345.39,177.34,343.65,177.49,340.93Z"/><path class="cls-1" d="M37.85,249.16c-1.07,3.41-2.05,6.86-3.25,10.23a45.67,45.67,0,0,1-6.26,12.48,18.91,18.91,0,0,1-4,3.9,5.57,5.57,0,0,1-6.54,0c-4.25-2.61-5.49-7.34-2.92-11.59,1.09-1.8,2.44-3.43,3.66-5.12-1.74-.12-3.56-.13-5.34-.39a13.13,13.13,0,0,1-6.55-2.75,6.71,6.71,0,0,1-2.44-7c.51-2.47,2.3-3.73,4.57-4.43a26.34,26.34,0,0,1,9.27-.78,95.82,95.82,0,0,1,16.6,2.2c.39.1,1-.31,1.37-.66a2.55,2.55,0,0,1,3.87.45c.19.35.4.69.56,1,.44,1,.22,1.35-.83,1.57-.35.07-.69.15-1,.25s-.67.23-1,.34Zm-20.11-3.58a19.7,19.7,0,0,0-3.35,0,26.4,26.4,0,0,0-5.87,1.45c-2.09.9-2.89,2.86-2.73,5.16.16,2.14,1.51,3.26,3.38,3.9a15.57,15.57,0,0,0,7.3.95,39.61,39.61,0,0,0,5.67-1.35,1.49,1.49,0,0,1,1.91.72c.5.74-.14,1-.55,1.44-2.09,2.2-4.24,4.34-6.16,6.66a11.09,11.09,0,0,0-1.92,3.82,4.94,4.94,0,0,0,1.82,5.56,4.4,4.4,0,0,0,5.48.21,13.73,13.73,0,0,0,3.65-3.39c4.64-6.54,7.3-14,9.27-21.67a1,1,0,0,0-.92-1.46A81.58,81.58,0,0,0,17.74,245.58Z"/><path class="cls-1" d="M284,241.26a61.35,61.35,0,0,1,14.14-3.15,39.34,39.34,0,0,1,12.3,0l.12,0c4.55.91,6.88,3.5,6.55,7.29-.4,4.72-3.62,7.95-8.13,7.92-2.26,0-4.51-.39-6.85-.61l.63,1a16.61,16.61,0,0,1,2.85,9.73,6.93,6.93,0,0,1-4.66,6.62c-2.92,1-5.14-.29-7.05-2.31a31.32,31.32,0,0,1-5.79-9.33c-1.85-4.27-3.44-8.67-5.22-13a2.26,2.26,0,0,0-1.34-1,2.54,2.54,0,0,1-1.51-3.5c.14-.24.3-.47.45-.7.8-1.34,1.12-1.37,2.15-.21.11.12.2.25.32.36Zm20.53-1.62c-3.46.4-7,.69-10.51,1.25-2.83.45-5.62,1.18-8.41,1.86-1.56.37-1.68.68-1.16,2.16.36,1,.69,2,1.05,3.06a62.35,62.35,0,0,0,7.72,15.76,16.3,16.3,0,0,0,3.8,3.75c1.8,1.26,3.8,1,5.63-.23s2.11-2.8,1.8-4.72a14.76,14.76,0,0,0-.39-1.75,17.41,17.41,0,0,0-6.3-9.38,1.46,1.46,0,0,1-.55-2.05c.5-1,1.2-.41,1.83-.22,1.46.42,2.88,1,4.36,1.3,2.81.62,5.68,1.1,8.54.35a5.17,5.17,0,0,0,3.91-4.53,4.91,4.91,0,0,0-2.85-4.86,7.6,7.6,0,0,0-2.21-.87C308.73,240.16,306.67,239.94,304.51,239.64Z"/><path class="cls-1" d="M33.38,106.89c-3.16.76-6,1.56-9,2.13a56.64,56.64,0,0,1-14.16,1.27,22.2,22.2,0,0,1-5.06-.83C.67,108.12-1,104.69.57,100.21c1.44-4.14,4.63-6,9.32-5.51,1.69.19,3.38.43,4.83.61-.88-2.14-1.93-4.32-2.68-6.6a10.48,10.48,0,0,1-.15-6.27,6.27,6.27,0,0,1,10.53-3,20.51,20.51,0,0,1,3.39,4.15,80.94,80.94,0,0,1,8.3,18.65,1.68,1.68,0,0,0,1.43,1.35,2.51,2.51,0,0,1,1.79,3,7.35,7.35,0,0,1-1.19,1.91c-.39.48-.84.45-1.28-.09S33.74,107.25,33.38,106.89ZM12,108.27c2.61-.21,4.79-.21,6.91-.58,4.32-.74,8.61-1.63,12.9-2.54,1.35-.29,1.44-.64,1-2-.59-1.7-1.16-3.41-1.8-5.09-2-5.2-4.22-10.29-7.67-14.71a12.76,12.76,0,0,0-3.69-3.13c-1.84-1-3.75-.53-5.38.73a4.28,4.28,0,0,0-1.49,4.63,18.07,18.07,0,0,0,6.59,11,2.13,2.13,0,0,1,.86,1.18c.13,1.18-.65,1.64-1.82,1.21-3.93-1.44-8-2.46-12.18-2a5.5,5.5,0,0,0-4.83,4.5c-.36,2.15.87,4.2,3.23,5.33a6.55,6.55,0,0,0,1.79.66C8.37,107.8,10.38,108.05,12,108.27Z"/><path class="cls-1" d="M298.47,89.1a17.38,17.38,0,0,1,8.23,1,17.69,17.69,0,0,1,4.12,2.36c3.27,2.64,3.56,9.29-2.36,11a24.22,24.22,0,0,1-9.61.75c-5.39-.61-10.75-1.43-16.13-2.09a2.24,2.24,0,0,0-1.61.6,2.53,2.53,0,0,1-3.86-.44c-.15-.28-.3-.56-.44-.85-.59-1.13-.37-1.55.84-1.79.66-.14,1.29-.37,1.72-.49,2-8.49,4.76-16.53,9.86-23.58a14.81,14.81,0,0,1,3.54-3.34,5.64,5.64,0,0,1,6.34-.12,8.16,8.16,0,0,1,3.15,11.71C301.17,85.58,299.82,87.22,298.47,89.1Zm1.08,13.32c1,0,2,.06,3,0a13.69,13.69,0,0,0,6.12-1.44,5.21,5.21,0,0,0,2.7-5.11c-.13-2.13-1.45-3.28-3.31-4-.45-.16-.91-.31-1.37-.43a17.42,17.42,0,0,0-11.61.76,1.42,1.42,0,0,1-2-.7c-.55-.85.25-1.1.67-1.51a41,41,0,0,0,4.09-4,30.84,30.84,0,0,0,3.69-5.83A5.09,5.09,0,0,0,299.88,74a4.61,4.61,0,0,0-6,.16A20.45,20.45,0,0,0,289.61,79a67.8,67.8,0,0,0-8.08,19.76c-.26,1,0,1.49,1,1.7A82.32,82.32,0,0,0,299.55,102.42Z"/><path class="cls-2" d="M144.66,1.23a5.59,5.59,0,0,1,4.65,2.59,27.42,27.42,0,0,1,4.12,11c.11.65,0,1.48,1,1.43A1.44,1.44,0,0,0,156,14.83a17.51,17.51,0,0,1,5.72-10.92c2.07-1.92,3.79-2.25,5.75-1.21a5.08,5.08,0,0,1,2.77,5.82,25.64,25.64,0,0,1-2.16,5.8c-3,5.83-7.12,10.8-11.41,15.67A1,1,0,0,1,155,30c-5.58-5.45-10.55-11.37-14-18.43a10.69,10.69,0,0,1-1.25-6A4.8,4.8,0,0,1,144.66,1.23Z"/><path class="cls-2" d="M177.49,340.93c-.15,2.72-.87,4.46-2.91,5.37a5.24,5.24,0,0,1-5.87-1.13,16.47,16.47,0,0,1-3.67-6.8c-.61-1.81-.95-3.71-1.38-5.58-.13-.56-.16-1.17-1-1.09s-1.42.23-1.54,1.19a22.6,22.6,0,0,1-.53,2.7,17.33,17.33,0,0,1-5.48,8.7c-2,1.76-3.68,2-5.57,1a5.12,5.12,0,0,1-2.71-5.77,30.18,30.18,0,0,1,2.45-6.32c2.91-5.62,7-10.43,11.12-15.15a1,1,0,0,1,1.64-.07c5.75,5.63,10.91,11.71,14.29,19.1A23,23,0,0,1,177.49,340.93Z"/><path class="cls-2" d="M17.74,245.58a81.58,81.58,0,0,1,17,2,1,1,0,0,1,.92,1.46c-2,7.7-4.63,15.13-9.27,21.67a13.73,13.73,0,0,1-3.65,3.39,4.4,4.4,0,0,1-5.48-.21,4.94,4.94,0,0,1-1.82-5.56,11.09,11.09,0,0,1,1.92-3.82c1.92-2.32,4.07-4.46,6.16-6.66.41-.43,1.05-.7.55-1.44a1.49,1.49,0,0,0-1.91-.72,39.61,39.61,0,0,1-5.67,1.35,15.57,15.57,0,0,1-7.3-.95c-1.87-.64-3.22-1.76-3.38-3.9-.16-2.3.64-4.26,2.73-5.16a26.4,26.4,0,0,1,5.87-1.45A19.7,19.7,0,0,1,17.74,245.58Z"/><path class="cls-2" d="M304.51,239.64c2.16.3,4.22.52,6.26.88a7.6,7.6,0,0,1,2.21.87,4.91,4.91,0,0,1,2.85,4.86,5.17,5.17,0,0,1-3.91,4.53c-2.86.75-5.73.27-8.54-.35-1.48-.33-2.9-.88-4.36-1.3-.63-.19-1.33-.81-1.83.22a1.46,1.46,0,0,0,.55,2.05,17.41,17.41,0,0,1,6.3,9.38,14.76,14.76,0,0,1,.39,1.75c.31,1.92-.07,3.59-1.8,4.72s-3.83,1.49-5.63.23a16.3,16.3,0,0,1-3.8-3.75A62.35,62.35,0,0,1,285.48,248c-.36-1-.69-2-1.05-3.06-.52-1.48-.4-1.79,1.16-2.16,2.79-.68,5.58-1.41,8.41-1.86C297.5,240.33,301.05,240,304.51,239.64Z"/><path class="cls-2" d="M12,108.27c-1.58-.22-3.59-.47-5.6-.8a6.55,6.55,0,0,1-1.79-.66c-2.36-1.13-3.59-3.18-3.23-5.33A5.5,5.5,0,0,1,6.17,97c4.23-.5,8.25.52,12.18,2,1.17.43,1.95,0,1.82-1.21a2.13,2.13,0,0,0-.86-1.18,18.07,18.07,0,0,1-6.59-11A4.28,4.28,0,0,1,14.21,81c1.63-1.26,3.54-1.77,5.38-.73a12.76,12.76,0,0,1,3.69,3.13C26.73,87.79,29,92.88,31,98.08c.64,1.68,1.21,3.39,1.8,5.09.46,1.34.37,1.69-1,2-4.29.91-8.58,1.8-12.9,2.54C16.75,108.06,14.57,108.06,12,108.27Z"/><path class="cls-2" d="M299.55,102.42a82.32,82.32,0,0,1-17-2c-1-.21-1.3-.73-1-1.7A67.8,67.8,0,0,1,289.61,79a20.45,20.45,0,0,1,4.29-4.76,4.61,4.61,0,0,1,6-.16,5.09,5.09,0,0,1,1.66,6.12A30.84,30.84,0,0,1,297.85,86a41,41,0,0,1-4.09,4c-.42.41-1.22.66-.67,1.51a1.42,1.42,0,0,0,2,.7,17.42,17.42,0,0,1,11.61-.76c.46.12.92.27,1.37.43,1.86.69,3.18,1.84,3.31,4a5.21,5.21,0,0,1-2.7,5.11,13.69,13.69,0,0,1-6.12,1.44C301.55,102.48,300.55,102.42,299.55,102.42Z"/><path class="cls-1" d="M157.81,128.79c.27-1,.47-1.83.7-2.61a22.57,22.57,0,0,1,5.1-8.86,8.42,8.42,0,0,1,10.59-1.85c3.65,1.83,5.36,5.36,4.57,9.62a48.27,48.27,0,0,1-5.52,14.37c-2.35,4.31-4.93,8.49-7.47,12.7-.61,1,0,1.75.35,2.52.56,1.22.48,1.82-.79,2.16a23.58,23.58,0,0,1-4.36.59c-.84.07-1.19-.44-1-1.32s.33-1.83.46-2.6c-3.25-2.68-6.62-5.29-9.81-8.11a59,59,0,0,1-11.33-12.64,24.19,24.19,0,0,1-2.87-6.27c-1.27-4.61,1.54-8.58,6.28-9.34a9.89,9.89,0,0,1,9.87,3.57,81.67,81.67,0,0,1,4.55,6.87C157.34,127.91,157.5,128.25,157.81,128.79Zm18.71-5.28c.18-4.06-.9-6.13-3.06-7.12-2.51-1.14-5.19-.47-7.53,2.07a21.63,21.63,0,0,0-6.05,15.1,5.86,5.86,0,0,1-.39,1.49,14.64,14.64,0,0,1-1.85-1c-.24-.17-.27-.65-.38-1a36.91,36.91,0,0,0-6.2-12.09c-2.14-2.72-4.81-3.31-8-2s-4.85,3.84-4.5,7.23a15.16,15.16,0,0,0,3.24,7.38,82.54,82.54,0,0,0,18.59,18.06c1.47,1.07,2.15,1,3.14-.57a113,113,0,0,0,10.05-18C175,129.69,176.38,126.19,176.52,123.51ZM163,154l-.28,0a8.78,8.78,0,0,0-.25,1.24c0,.4-.09,1,.11,1.16a4,4,0,0,0,1.57.16Z"/><path class="cls-1" d="M166.32,227.9c-.52,1.3-.93,2.5-1.47,3.64a21.56,21.56,0,0,1-6,7.79,7.91,7.91,0,0,1-8.56,1.13c-3.12-1.34-5.33-3.6-5.49-7.08a15.83,15.83,0,0,1,1-5.82c2-5.63,5.17-10.62,8.57-15.47,1.94-2.78,4-5.48,6.06-8.18.71-.93.19-1.74-.11-2.55-.46-1.27-.35-1.82,1-2.06a23.07,23.07,0,0,1,4.4-.23c.79,0,1.17.54.85,1.43s-.5,1.79-.78,2.82a80.1,80.1,0,0,1,11.05,10.77,61.25,61.25,0,0,1,8.54,12,16.22,16.22,0,0,1,2.14,6.93,7.19,7.19,0,0,1-6.36,7.72c-4,.63-7.5-.42-9.89-3.72a73,73,0,0,1-4.33-7.69A12.27,12.27,0,0,1,166.32,227.9Zm-1.42-6.44a11.47,11.47,0,0,1,1.16.36c.95.41,1,1.32,1.23,2.18a33.52,33.52,0,0,0,5.59,13c1.73,2.3,4.23,2.86,7.24,1.95,2.81-.86,4.64-2.6,5-5.61a10.62,10.62,0,0,0-1.24-6.38c-4.57-8.89-11.19-16.1-18.71-22.55-.94-.81-1.74-.29-2.38.45-.86,1-1.63,2.07-2.43,3.12-4.65,6-9,12.27-11.9,19.35a15.81,15.81,0,0,0-1.54,7.32,5.22,5.22,0,0,0,5.21,4.94,7.4,7.4,0,0,0,5.34-2.36,21.61,21.61,0,0,0,6.61-11.18C164.46,224.61,164.62,223.14,164.9,221.46Zm-1.57-19.12.26,0a10,10,0,0,0,.37-1.09c.07-.4.23-1.07.06-1.17a5.09,5.09,0,0,0-1.67-.38Z"/><path class="cls-1" d="M142.84,191.41a89.05,89.05,0,0,1-8.24,23.77c-1.75,3.42-3.76,6.72-7,9a7.19,7.19,0,0,1-10.11-1.15,10,10,0,0,1-2.1-10.08,25.46,25.46,0,0,1,4.81-8c.34-.43.7-.85,1.24-1.5-1.09.14-1.92.29-2.76.36a21.1,21.1,0,0,1-11.23-1.73c-3.5-1.66-5-4.53-4.69-8.77a8,8,0,0,1,5.78-7.33,34.51,34.51,0,0,1,11.75-1.19,113.92,113.92,0,0,1,19.4,2.12c1.18.25,1.68-.69,2.29-1.35.82-.92,1.37-1.13,2.11-.19a28,28,0,0,1,2.44,4.06c.31.58.07,1-.68,1.2C144.88,190.89,143.9,191.15,142.84,191.41Zm-16.55,7.78c.63,1.35.49,2.15-.49,2.95a39.18,39.18,0,0,0-8.11,9.26c-1.11,1.74-2,3.56-1.62,5.73a7.16,7.16,0,0,0,11.46,4.46,20.47,20.47,0,0,0,4.61-5.28,78.71,78.71,0,0,0,9.07-22.87c.84-3.43.65-3.61-2.79-4.19-7.82-1.31-15.65-2.43-23.62-1.78-3,.24-5.92.55-8.48,2.24a5.25,5.25,0,0,0-.81,8.36,8.85,8.85,0,0,0,2.79,1.82,21.49,21.49,0,0,0,16.48-.08Zm18-12.32-2,2.18c.74-.11,1.16-.15,1.57-.24C145.27,188.52,145.36,188.16,144.25,186.87Z"/><path class="cls-1" d="M209,200a23,23,0,0,1,5.75,9.09,16.46,16.46,0,0,1,.81,3.6c.42,4-1.49,6.7-4.87,8.44a8,8,0,0,1-9.58-1.15,36,36,0,0,1-7-8.76,114.16,114.16,0,0,1-9-17.46c-.46-1.15-1.51-1-2.38-1.19-1.34-.27-1.7-.57-1.27-1.89a21.1,21.1,0,0,1,1.74-3.77c.43-.76,1.1-1,1.83-.15s1.34,1.28,2.05,2a89.67,89.67,0,0,1,24.2-6.22,29.37,29.37,0,0,1,9.89.32c8.11,1.83,7.78,9.63,4,13.83-2.51,2.81-5.77,3.6-9.3,3.64C213.7,200.34,211.48,200.14,209,200Zm7.5-1.34c.76,0,1.52.06,2.28,0a7,7,0,0,0,4.49-1.74,7.27,7.27,0,0,0-2.27-12,6.19,6.19,0,0,0-1.94-.58,63,63,0,0,0-8.35-.19,80.27,80.27,0,0,0-22.41,5.38c-1.5.59-1.76,1.22-1.17,2.7s1.22,2.78,1.85,4.17c3.09,6.83,6.54,13.45,11.36,19.25a15.05,15.05,0,0,0,5.4,4.49,5.3,5.3,0,0,0,7.45-3.74,6.79,6.79,0,0,0,.06-3.07,35.53,35.53,0,0,0-2.15-6.2,20.39,20.39,0,0,0-7.59-8.31c-.95-.62-1-1.12.08-1.55a3.59,3.59,0,0,1,2.15-.11A38.81,38.81,0,0,0,216.53,198.69Zm-34-8.62,3,.45c-.49-.53-.76-.83-1-1.11C183.38,188.32,183,188.42,182.55,190.07Z"/><path class="cls-1" d="M117.65,160.38c-.94-.92-1.9-1.74-2.71-2.69a19.87,19.87,0,0,1-5-9.7c-.61-3.62,1-6.32,3.84-8.3s6.14-2.44,9.1-.39a34.89,34.89,0,0,1,6.36,5.78,97.7,97.7,0,0,1,12.38,18.64,2.78,2.78,0,0,0,2.77,1.69c1.45,0,1.8.24,1.53,1.66a18.86,18.86,0,0,1-1.45,4.14c-.33.73-1,1-1.71.24s-1.44-1.16-2.25-1.8a87.58,87.58,0,0,1-19.93,7.55c-4.42,1.14-8.89,2-13.51,1.37-5.91-.79-8.73-5.58-6.47-11.12,1.68-4.13,5-6.1,9.26-6.59C112.42,160.57,115,160.53,117.65,160.38Zm6.59,1.25a2.35,2.35,0,0,1-2.71,1.4,36.75,36.75,0,0,0-14.06-.29,6,6,0,0,0-5,4.58c-.75,2.74-.6,5.33,1.62,7.43a9.55,9.55,0,0,0,7.59,2.32c9.92-.69,19.11-3.95,28-8.28a1.51,1.51,0,0,0,.72-2.22A28,28,0,0,0,139,164c-3.76-6.81-7.76-13.46-13.22-19.07a30.06,30.06,0,0,0-5.6-4.44,4.88,4.88,0,0,0-6,.27,5.51,5.51,0,0,0-2.13,5.86A21.16,21.16,0,0,0,123,161Zm18.2,6.15-.19.33a15.38,15.38,0,0,0,2,1.22c.1,0,.57-.77,1-1.38Z"/><path class="cls-1" d="M184.37,163.07c1.24-9.83,3.38-19.43,8-28.3a21.9,21.9,0,0,1,4.29-5.69c3.3-3.1,7.73-2.69,10.72.73a9.75,9.75,0,0,1,2,10.6,73.58,73.58,0,0,1-4,7.49,13.32,13.32,0,0,1-.82,1.19c.63-.14,1-.22,1.42-.32a21.81,21.81,0,0,1,12.4.3c3.71,1.23,5.67,4.12,5.77,8.23a8.27,8.27,0,0,1-5.29,8.08,32.23,32.23,0,0,1-10.16,2.08,114.55,114.55,0,0,1-20.95-.29c-1.14-.12-1.44.85-1.94,1.46-.9,1.12-1.44,1.31-2.45.25a17.17,17.17,0,0,1-2.34-3.15c-.61-1-.35-1.45.77-1.81C182.67,163.65,183.51,163.36,184.37,163.07Zm15.83-9.29a2.14,2.14,0,0,1,.32-3.05,37.61,37.61,0,0,0,7.76-11.17c1.46-3.33.6-6.17-2.41-8.43-2.78-2.09-6-2.19-8.56.17a19.55,19.55,0,0,0-4.15,5.34,78.89,78.89,0,0,0-7.5,25.77c-.19,1.47.32,2.07,1.8,2.23s3.18.27,4.78.39a85.19,85.19,0,0,0,20.68-.62,19.34,19.34,0,0,0,7.24-2.39c4-2.51,3.86-7.42-.23-9.73a10.23,10.23,0,0,0-2.55-1,21.8,21.8,0,0,0-15.93,1.88ZM185,165.63l-.17-.34a16.3,16.3,0,0,0-2.17,1.09,8.88,8.88,0,0,0,.65,1.51Z"/><path class="cls-3" d="M176.52,123.51c-.14,2.68-1.52,6.18-3,9.65a113,113,0,0,1-10.05,18c-1,1.52-1.67,1.64-3.14.57a82.54,82.54,0,0,1-18.59-18.06,15.16,15.16,0,0,1-3.24-7.38c-.35-3.39,1.21-5.88,4.5-7.23s5.89-.73,8,2a36.91,36.91,0,0,1,6.2,12.09c.11.34.14.82.38,1a14.64,14.64,0,0,0,1.85,1,5.86,5.86,0,0,0,.39-1.49,21.63,21.63,0,0,1,6.05-15.1c2.34-2.54,5-3.21,7.53-2.07C175.62,117.38,176.7,119.45,176.52,123.51Z"/><path class="cls-3" d="M163,154l1.15,2.58a4,4,0,0,1-1.57-.16c-.2-.11-.14-.76-.11-1.16a8.78,8.78,0,0,1,.25-1.24Z"/><path class="cls-3" d="M164.9,221.46c-.28,1.68-.44,3.15-.77,4.59a21.61,21.61,0,0,1-6.61,11.18,7.4,7.4,0,0,1-5.34,2.36,5.22,5.22,0,0,1-5.21-4.94,15.81,15.81,0,0,1,1.54-7.32c2.94-7.08,7.25-13.32,11.9-19.35.8-1,1.57-2.12,2.43-3.12.64-.74,1.44-1.26,2.38-.45,7.52,6.45,14.14,13.66,18.71,22.55a10.62,10.62,0,0,1,1.24,6.38c-.41,3-2.24,4.75-5,5.61-3,.91-5.51.35-7.24-1.95a33.52,33.52,0,0,1-5.59-13c-.19-.86-.28-1.77-1.23-2.18A11.47,11.47,0,0,0,164.9,221.46Z"/><path class="cls-3" d="M163.33,202.34l-1-2.68A5.09,5.09,0,0,1,164,200c.17.1,0,.77-.06,1.17a10,10,0,0,1-.37,1.09Z"/><path class="cls-3" d="M126.29,199.19l-1.51.62a21.49,21.49,0,0,1-16.48.08,8.85,8.85,0,0,1-2.79-1.82,5.25,5.25,0,0,1,.81-8.36c2.56-1.69,5.52-2,8.48-2.24,8-.65,15.8.47,23.62,1.78,3.44.58,3.63.76,2.79,4.19a78.71,78.71,0,0,1-9.07,22.87,20.47,20.47,0,0,1-4.61,5.28,7.16,7.16,0,0,1-11.46-4.46c-.43-2.17.51-4,1.62-5.73a39.18,39.18,0,0,1,8.11-9.26C126.78,201.34,126.92,200.54,126.29,199.19Z"/><path class="cls-3" d="M144.25,186.87c1.11,1.29,1,1.65-.39,1.94-.41.09-.83.13-1.57.24Z"/><path class="cls-3" d="M216.53,198.69a38.81,38.81,0,0,1-10.76-1.53,3.59,3.59,0,0,0-2.15.11c-1.05.43-1,.93-.08,1.55a20.39,20.39,0,0,1,7.59,8.31,35.53,35.53,0,0,1,2.15,6.2,6.79,6.79,0,0,1-.06,3.07,5.3,5.3,0,0,1-7.45,3.74,15.05,15.05,0,0,1-5.4-4.49c-4.82-5.8-8.27-12.42-11.36-19.25-.63-1.39-1.29-2.76-1.85-4.17s-.33-2.11,1.17-2.7a80.27,80.27,0,0,1,22.41-5.38,63,63,0,0,1,8.35.19,6.19,6.19,0,0,1,1.94.58,7.27,7.27,0,0,1,2.27,12,7,7,0,0,1-4.49,1.74C218.05,198.75,217.29,198.69,216.53,198.69Z"/><path class="cls-3" d="M182.55,190.07c.48-1.65.83-1.75,1.92-.66.28.28.55.58,1,1.11Z"/><path class="cls-3" d="M124.24,161.63,123,161a21.16,21.16,0,0,1-10.94-14.3,5.51,5.51,0,0,1,2.13-5.86,4.88,4.88,0,0,1,6-.27,30.06,30.06,0,0,1,5.6,4.44c5.46,5.61,9.46,12.26,13.22,19.07a28,28,0,0,1,1.36,2.53,1.51,1.51,0,0,1-.72,2.22c-8.86,4.33-18,7.59-28,8.28a9.55,9.55,0,0,1-7.59-2.32c-2.22-2.1-2.37-4.69-1.62-7.43a6,6,0,0,1,5-4.58,36.75,36.75,0,0,1,14.06.29A2.35,2.35,0,0,0,124.24,161.63Z"/><path class="cls-3" d="M142.44,167.78l2.83.17c-.44.61-.91,1.42-1,1.38a15.38,15.38,0,0,1-2-1.22Z"/><path class="cls-3" d="M200.2,153.78l1.25-.63a21.8,21.8,0,0,1,15.93-1.88,10.23,10.23,0,0,1,2.55,1c4.09,2.31,4.2,7.22.23,9.73a19.34,19.34,0,0,1-7.24,2.39,85.19,85.19,0,0,1-20.68.62c-1.6-.12-3.19-.21-4.78-.39s-2-.76-1.8-2.23a78.89,78.89,0,0,1,7.5-25.77,19.55,19.55,0,0,1,4.15-5.34c2.57-2.36,5.78-2.26,8.56-.17,3,2.26,3.87,5.1,2.41,8.43a37.61,37.61,0,0,1-7.76,11.17A2.14,2.14,0,0,0,200.2,153.78Z"/><path class="cls-3" d="M185,165.63l-1.69,2.26a8.88,8.88,0,0,1-.65-1.51,16.3,16.3,0,0,1,2.17-1.09Z"/></svg>