<svg id="Camada_1" data-name="Camada 1" xmlns="http://www.w3.org/2000/svg" viewBox="0 0 134.11 132.62"><defs><style>.cls-1{fill:#4d352d;}.cls-2{fill:#f6c26e;}</style></defs><title>boneca</title><path class="cls-1" d="M0,50.78c.47-.43.45-1.07.64-1.61,1.64-4.6,5-7,9.73-7.5a37.78,37.78,0,0,1,12.84.92c.37.09.75.14,1.32.25a27.91,27.91,0,0,1-6.41-12.08,15.2,15.2,0,0,1-.51-6.28c.71-4.39,4.11-7.4,8.79-8,5.36-.7,9.74,1,13.08,5.26a65.7,65.7,0,0,1,8.21,14.68,141.1,141.1,0,0,1,6.4,17.25c.32,1.14,1.41,1.23,2.27,1.38q4.32.76,1.8,4.39A6.64,6.64,0,0,1,56,61.88c-2.34,1.25-4,1-5.62-1.11A1.76,1.76,0,0,0,48.22,60a113.43,113.43,0,0,1-29.41,3.43A38.69,38.69,0,0,1,8.19,61.85c-4-1.24-7.12-3.38-8.19-7.71Z"/><path class="cls-1" d="M134.11,81.73c-.36.11-.27.46-.34.7-1.7,5.6-5.45,8.41-11.49,8.66A41.88,41.88,0,0,1,110.63,90a9.81,9.81,0,0,0-1-.13A27.31,27.31,0,0,1,115.73,101a16.77,16.77,0,0,1,.79,6.85c-.55,4.29-3.65,7.36-8.2,8.16-5.56,1-10.18-.61-13.69-5.11a65.66,65.66,0,0,1-8.27-14.79,135.85,135.85,0,0,1-6.3-17c-.3-1.1-1.24-1.09-2-1.46a2.28,2.28,0,0,0-.7-.11c-2.44-.41-3.09-2.15-1.62-4.14.78-1.06,1.35-2.22,2.65-2.82,2.14-1,3.78-.79,5.15,1.09a2.2,2.2,0,0,0,2.73.87,114.3,114.3,0,0,1,27.38-3.38,45.19,45.19,0,0,1,10.68,1.19c4.54,1.12,8.35,3.12,9.75,8Z"/><path class="cls-1" d="M68,114.77A27.88,27.88,0,0,1,60.09,127c-2.22,2-4.69,3.64-7.85,3.65a9.7,9.7,0,0,1-7.6-3.75c-3.4-4-4.54-8.53-2.72-13.6a55.41,55.41,0,0,1,7.67-13.62,143.57,143.57,0,0,1,13-15.85c.8-.83.27-1.7.11-2.55-.09-.46-.36-.89-.45-1.36a2,2,0,0,1,1.65-2.5c1.94-.16,3.91-.25,5.59,1.12s2.1,2.72,1.29,4.5a2.45,2.45,0,0,0,.65,3.11,109.2,109.2,0,0,1,17.72,24.18,32.5,32.5,0,0,1,3.79,10.91c.53,4.06-.33,7.59-4.06,9.86a11.12,11.12,0,0,1-12.09-.64c-2.79-2.12-4.4-5.13-5.93-8.16A39.65,39.65,0,0,1,68,114.77Z"/><path class="cls-1" d="M66.09,17.8a27.71,27.71,0,0,1,8.81-13C79,1.37,83.34,1,87.2,3.67a13.71,13.71,0,0,1,5.66,9.11c.6,3.27-.41,6.24-1.74,9.13A65.92,65.92,0,0,1,84.46,33,139.32,139.32,0,0,1,72.05,48.17c-1.14,1.18-1,2.27-.48,3.54.67,1.7.35,3-1.08,3.34-2,.48-5.17.27-6.73-1.89A3.56,3.56,0,0,1,63.49,49a1.62,1.62,0,0,0-.41-2.19A112.24,112.24,0,0,1,45.58,23.4a34.74,34.74,0,0,1-4.36-11.83c-.68-4.79.78-8.32,4.23-10.21A11.12,11.12,0,0,1,57.9,2.57c2.62,2.28,4.2,5.3,5.67,8.36A47.64,47.64,0,0,1,66.09,17.8Z"/><path class="cls-1" d="M108.61,41.21a27.56,27.56,0,0,1,16.58,1.56c5.54,2.38,7.58,7.37,5.43,13-2.25,5.93-6.76,8.68-12.94,9.16-7.26.56-14.43-.24-21.59-1.33A100.18,100.18,0,0,1,84.46,61.4c-1.06-.29-1.53.64-2.19,1.14a9.77,9.77,0,0,0-.76.92c-1.09,1.08-2.62,1.1-3.4-.18-.92-1.49-1.92-3-1.64-5,.3-2.16,1.26-3.41,3.4-3.62a2.21,2.21,0,0,0,2.18-1.88A110.46,110.46,0,0,1,93.33,26.5c2.35-3.92,5-7.62,8.76-10.37,3.6-2.63,7.45-2.93,10.6-.87a11,11,0,0,1,4.45,13.21,35.8,35.8,0,0,1-7.32,11.43C109.48,40.28,109.13,40.65,108.61,41.21Z"/><path class="cls-1" d="M25.08,91.64a1.36,1.36,0,0,0-1,0A27,27,0,0,1,9.49,90.11c-4.72-1.79-7.1-5.22-6.79-9.73a13.75,13.75,0,0,1,3.79-8.47c3-3.31,7-4.09,11.18-4.32a100.6,100.6,0,0,1,21.22,1.54c3.63.58,7.25,1.16,10.81,2.08,1,.26,1.44-.64,2.07-1.09.35-.25.53-.71.84-1a2.15,2.15,0,0,1,3.42.28c.84,1.45,1.8,2.89,1.61,4.76-.21,2.17-1.2,3.49-3.38,3.76a2.36,2.36,0,0,0-2.24,2,108.16,108.16,0,0,1-12.2,27.71,30.63,30.63,0,0,1-8.17,9.13c-3.76,2.59-7.66,2.64-10.9.19a11,11,0,0,1-3.82-12.73,36,36,0,0,1,7.62-11.78l.56-.63S25.09,91.71,25.08,91.64Z"/><path class="cls-2" d="M20.85,61.84a29.28,29.28,0,0,1-8.45-.77c-3.38-1-6.2-2.73-7.11-6.41A9.44,9.44,0,0,1,15.58,43.17a41.05,41.05,0,0,1,12.81,3.32,7.19,7.19,0,0,0,4,.44c.35,0,.76-.14.89-.51s-.31-.59-.58-.8a26.06,26.06,0,0,1-9.75-16,13.58,13.58,0,0,1-.17-5.24,8,8,0,0,1,4.46-5.87,3.54,3.54,0,0,1,3.93.25,17.59,17.59,0,0,1,4.39,4.55c4.14,5.85,6.92,12.39,9.56,19,1.49,3.74,2.76,7.56,4,11.4.83,2.59.24,3.72-2.37,4.47A105.8,105.8,0,0,1,26.83,61.6C24.84,61.78,22.84,61.82,20.85,61.84Z"/><path class="cls-2" d="M113.32,70.71c3,.12,5.94.05,8.71,1,3.47,1.11,6.17,3,6.89,6.89a9.37,9.37,0,0,1-8.86,10.89,35.81,35.81,0,0,1-14.25-3.27,6.72,6.72,0,0,0-4-.5c-.37.07-.88.08-1,.52s.37.66.67.89a26.19,26.19,0,0,1,9.75,16.41c.5,2.78.41,5.5-1.22,8a8.17,8.17,0,0,1-3.62,2.87,3.1,3.1,0,0,1-2.87-.11,14.54,14.54,0,0,1-4.72-4.51c-3.78-5.18-6.39-11-8.83-16.83-1.89-4.57-3.52-9.25-5-14-.81-2.59-.24-3.65,2.4-4.44a99.36,99.36,0,0,1,18.35-3.31C108.31,70.89,110.9,70.79,113.32,70.71Z"/><path class="cls-2" d="M90.24,119.19c0,5.08-3.13,8.43-8.1,8.85A8.58,8.58,0,0,1,73,122.9a40.57,40.57,0,0,1-3.87-13.63,6,6,0,0,0-1.41-3.11c-.27-.32-.56-.8-1.06-.62s-.34.67-.39,1a25.29,25.29,0,0,1-4.78,11.74,23.73,23.73,0,0,1-6.75,6.38c-3,1.78-6,2-9,.09a3.79,3.79,0,0,1-1.88-4.06c.46-3.71,2.16-6.93,4-10A130.84,130.84,0,0,1,65.51,87.78c1.48-1.58,2.66-1.68,4.13-.24A93.5,93.5,0,0,1,88.9,113.61,14.24,14.24,0,0,1,90,116.78,9.45,9.45,0,0,1,90.24,119.19Z"/><path class="cls-2" d="M43.87,13.17c0-4.1,2-6.86,5.8-8.1C53.86,3.71,57.82,4.78,60,8a29.94,29.94,0,0,1,4.22,11A38.56,38.56,0,0,1,65,23.29a6,6,0,0,0,1.37,3.13c.27.34.56.77,1.07.63s.36-.68.42-1A25.74,25.74,0,0,1,73,13.8a23.07,23.07,0,0,1,6.4-5.9c3.13-1.84,6.24-2,9.34.14a3.55,3.55,0,0,1,1.59,3.49C90,14.9,88.52,17.81,87,20.69c-3.57,6.56-8.19,12.39-13,18.1-1.56,1.87-3.22,3.65-4.82,5.49s-3,2.66-5.3.31a97.28,97.28,0,0,1-18.42-25A13.48,13.48,0,0,1,43.87,13.17Z"/><path class="cls-2" d="M115,60.86a145.46,145.46,0,0,1-26.56-3.45c-.82-.18-1.64-.34-2.44-.59-1.76-.56-2.32-1.59-1.91-3.4a97.51,97.51,0,0,1,7.16-19.63A52.42,52.42,0,0,1,97.9,22.71,11,11,0,0,1,105,18.4c5-.68,8.91,4.18,9.7,7.76a7.93,7.93,0,0,1-1.19,5.95,37.28,37.28,0,0,1-10.11,10.75,6.18,6.18,0,0,0-2.27,3.28c-.09.31-.21.64.06.9s.53,0,.77-.07a25.78,25.78,0,0,1,9.67-2c4.7,0,9.23.86,13.21,3.52a7.72,7.72,0,0,1,3.53,7.3,3.56,3.56,0,0,1-2.1,3.22,17.29,17.29,0,0,1-6.34,1.6C118.21,60.73,116.49,60.77,115,60.86Z"/><path class="cls-2" d="M19.47,71.84a138.2,138.2,0,0,1,26.79,3.51c3.91.85,4.41,1.53,3.36,5.31a96.88,96.88,0,0,1-12,27.31,15.23,15.23,0,0,1-5.16,5.09c-4.6,2.65-9.83.76-12.33-4.42a8,8,0,0,1,.33-8,37.22,37.22,0,0,1,10.08-10.8,6,6,0,0,0,2.33-3.23c.09-.33.34-.71,0-1s-.68,0-1,.11a25.21,25.21,0,0,1-10.77,1.94c-4.27-.23-8.4-1.08-12-3.59a7.77,7.77,0,0,1-3.41-7.24,3.53,3.53,0,0,1,2-3.15,15.74,15.74,0,0,1,5.5-1.54A47.9,47.9,0,0,1,19.47,71.84Z"/></svg>