<?xml version="1.0" encoding="utf-8"?>
<!-- Generator: Adobe Illustrator 24.0.1, SVG Export Plug-In . SVG Version: 6.00 Build 0)  -->
<svg version="1.1" id="Camada_1" xmlns="http://www.w3.org/2000/svg" xmlns:xlink="http://www.w3.org/1999/xlink" x="0px" y="0px"
	 viewBox="0 0 343.4 244.9" style="enable-background:new 0 0 343.4 244.9;" xml:space="preserve">
<style type="text/css">
	.st0{fill:#CBD5BF;}
</style>
<path class="st0" d="M182.6,244.9c-6.9,0-13.2,0.2-19.4-0.2c-0.8-0.1-2.1-2.9-2.1-4.5c-0.2-16.1-0.1-32.3-0.1-48.4
	c0-1.3,0-2.6,0-3.5c-15.7-3.3-31.1-6.5-47.3-9.8c-6.3,16.6-13,34.2-19.9,52.4c-6.7-2.5-13.2-4.9-20-7.5c6.8-18.2,13.6-36,20.2-53.8
	c-13.7-8.7-27.2-17.3-41-26.1c-12,13.4-24.3,27.1-36.9,41.1c-5.5-4.9-10.6-9.6-15.9-14.4c12.3-13.7,24.4-27.2,37.4-41.8
	c-12-11.3-23.9-22.5-36.5-34.4c11.9-11.9,22.4-23.1,33.6-33.4C55.2,41.3,78,25,104.3,13.9c47.6-20.2,94.6-18,140.9,4.4
	c34.1,16.4,62.6,40.3,88.7,67.2c2.5,2.6,5,5.3,7.4,7.8c-11.2,12.2-22.2,24.2-33.7,36.8c10.9,12.2,23.3,26,35.9,40.2
	c-5.4,4.9-10.6,9.5-15.9,14.3c-12.8-14.2-25.3-28.2-37.9-42.1c-13.6,8.6-26.9,16.9-40.7,25.6c6.7,17.9,13.7,36.3,20.8,55.2
	c-6.6,2.5-12.9,5-19.9,7.7c-6.9-18.2-13.8-36.2-20.5-53.9c-15.6,3.6-30.7,7.1-46.8,10.9C182.6,206.1,182.6,225.4,182.6,244.9z
	 M311.9,94.1c-1.3-1.4-2-2.3-2.8-3.1c-21-20.4-43.7-38.5-69.9-51.8c-42.8-21.6-86.2-24.1-130.2-3.8C81.4,48,57.9,66.5,36.7,88
	c-1.8,1.8-3.6,3.7-5.5,5.7c21,21.7,43.4,40.8,69.9,54.5c37.3,19.3,76,23.2,116,9.3c25.6-8.9,48.2-23.3,68.9-40.5
	C294.8,109.6,303.1,101.8,311.9,94.1z"/>
</svg>
