<?xml version="1.0" encoding="utf-8"?>
<!-- Generator: Adobe Illustrator 24.0.1, SVG Export Plug-In . SVG Version: 6.00 Build 0)  -->
<svg version="1.1" id="Camada_1" xmlns="http://www.w3.org/2000/svg" xmlns:xlink="http://www.w3.org/1999/xlink" x="0px" y="0px"
	 viewBox="0 0 338.7 187.3" style="enable-background:new 0 0 338.7 187.3;" xml:space="preserve">
<style type="text/css">
	.st0{fill:#CBD5BF;}
</style>
<path class="st0" d="M0,92.8C10,82.7,20.1,72,30.7,62C57,37.4,86.2,17.5,121.1,7c36.4-11,72.3-8.7,107.6,5.1
	c39.6,15.5,71.7,41.7,101.1,71.6c2.9,3,5.8,6,8.6,9c0.2,0.2,0.2,0.6,0.2,0.4c-9.9,10.2-19.1,20.7-29.4,30.1
	c-23.1,21.2-48.5,38.9-77.7,50.9c-51.3,20.9-100.9,16.6-148.8-10.2c-31.8-17.8-58-42.2-82-69.3C0.5,94.3,0.4,94,0,92.8z M169.8,29.2
	c-36.1,0-64.9,28.6-64.9,64.6c0,35.5,28.9,64.2,64.7,64.2c35.6,0,64.2-28.8,64.2-64.6C233.8,58,205.1,29.2,169.8,29.2z M104,36.9
	C75.1,50.6,51.1,70.5,29.3,93.4c17.6,20.5,53.8,49.2,74.8,56.8C74.7,114.2,78.4,67.8,104,36.9z M237.1,39.8
	c12,16.1,18.4,33.9,18.4,53.9c0,19.9-6.4,37.7-18.2,53.8c27.3-13.6,50.7-32.3,72.2-53.9C287.5,71.9,264.4,53.2,237.1,39.8z"/>
<path class="st0" d="M185.3,46.6c-14.8,12.1-11.8,26.9-3.8,35.1c9.8,10,23.3,8.5,34.8-3.8c8.4,15.5,0.8,42-15.7,54.9
	c-19.7,15.4-46.5,14.4-65-2.4c-17.5-15.8-21.1-43.3-8.4-63.4C139.6,47.4,164.9,38.3,185.3,46.6z"/>
</svg>
