<?xml version="1.0" encoding="utf-8"?>
<!-- Generator: Adobe Illustrator 24.0.1, SVG Export Plug-In . SVG Version: 6.00 Build 0)  -->
<svg version="1.1" id="Camada_1" xmlns="http://www.w3.org/2000/svg" xmlns:xlink="http://www.w3.org/1999/xlink" x="0px" y="0px"
	 viewBox="0 0 53 67" style="enable-background:new 0 0 53 67;" xml:space="preserve">
<style type="text/css">
	.st0{fill:#65B6DB;}
</style>
<path class="st0" d="M4.9,6.6c0-3.9,3-6.8,6.5-6.6c0.9,0,1.8,0.3,2.6,0.7s1.5,1,2,1.7c0.6,0.8,1,1.6,1.1,2.5c0.2,0.9,0.2,1.8,0,2.7
	c-0.4,1.9-1.4,3.5-2.9,4.6c-0.9,0.7-2,1.1-3.2,1.1c-1.1,0-2.3-0.4-3.1-1.1C7,11.5,6.3,10.7,5.8,9.7C5.3,8.8,5,7.7,4.9,6.6z"/>
<path class="st0" d="M48,6.3c-0.2,2.6-1.3,4.8-3.6,6.2c-2,1.2-3.9,1-5.7-0.4c-2.1-1.7-3.2-3.9-3-6.6c0.2-1.5,0.9-2.9,2-3.9
	s2.5-1.6,4-1.6s2.9,0.5,4.1,1.4c1.1,1,1.9,2.3,2.1,3.8C48,5.6,48,5.9,48,6.3z"/>
<path class="st0" d="M46.7,27.7c-0.9,0.2-1.8,0.3-2.7,0.4c-0.7,0-1.3,0-2,0h-0.1c0,0-0.1,0-0.1-0.1c-1.4-1.9-3.3-3.4-5.4-4.3
	c-0.1,0-0.1-0.1-0.2-0.1c0-0.1-0.1-0.1,0-0.2c0-0.5,0-1.1,0-1.6c0-0.1,0-0.2,0-0.2c0-0.1-0.1-0.1-0.1-0.2s-0.1-0.1-0.2-0.1
	c-0.1,0-0.1,0-0.2,0c-0.1,0-0.1,0-0.2,0c-0.1,0-0.1,0.1-0.2,0.1c-0.1,0.1-0.1,0.1-0.1,0.2s0,0.1,0,0.2c0,0.5,0,0.9,0,1.4l-2-0.6
	l0.1-0.2c2-2.1,3.2-4.8,3.4-7.6c0-0.1,0-0.2,0.2-0.2c0.7-0.1,1.3-0.2,2-0.3c0.1,0,0.2,0,0.3,0.1c0.9,0.4,1.8,0.7,2.8,0.7
	s1.9-0.2,2.8-0.6c0.1,0,0.1-0.1,0.2-0.1c2.5,0.3,4.7,1.1,6.4,2.9c0.6,0.5,1,1.2,1.3,1.9c0.3,0.7,0.4,1.5,0.4,2.3s-0.2,1.5-0.6,2.2
	c-0.3,0.7-0.8,1.3-1.4,1.8c-0.9,0.8-2,1.5-3.1,1.9h-0.1v-5.5c0-0.1,0-0.2,0-0.2c0-0.1-0.1-0.3-0.2-0.4c-0.1-0.1-0.2-0.2-0.4-0.2
	s-0.3,0.1-0.4,0.2c-0.1,0.1-0.2,0.2-0.2,0.4c0,0.1,0,0.1,0,0.2V27.7L46.7,27.7z"/>
<path class="st0" d="M18,23.3v-1.2c0-0.1,0-0.2,0-0.3c0-0.1,0-0.2,0-0.2c0-0.1-0.1-0.1-0.1-0.2c-0.1-0.1-0.1-0.1-0.2-0.1
	s-0.1,0-0.2,0s-0.1,0-0.2,0s-0.1,0.1-0.2,0.1c-0.1,0-0.1,0-0.1,0.1s0,0.1,0,0.2c0,0.6,0,1.2,0,1.8c0,0.1,0,0.1,0,0.2
	s-0.1,0.1-0.2,0.1c-1.9,0.9-3.6,2.3-4.9,4.1L11.8,28h-0.1c-1.2,0-2.5,0-3.7-0.1c-0.5-0.1-1-0.1-1.6-0.3v-5.9c0-0.1,0-0.2,0-0.2
	c0-0.1-0.1-0.2-0.2-0.3c-0.1-0.1-0.2-0.1-0.3-0.1c-0.1,0-0.3,0-0.3,0.1c-0.1,0.1-0.2,0.2-0.2,0.3c0,0.1,0,0.2,0,0.2v5.6
	c-0.4-0.2-0.7-0.3-1-0.4c-1.2-0.5-2.2-1.4-3-2.4C0.4,23.6,0,22.3,0,21s0.5-2.6,1.4-3.5c1.2-1.3,2.7-2.3,4.5-2.7
	c0.7-0.2,1.4-0.3,2.1-0.4c0.1,0,0.2,0,0.3,0c0.9,0.4,1.9,0.6,2.8,0.6c1,0,1.9-0.2,2.8-0.7c0.1,0,0.2-0.1,0.3-0.1
	c0.7,0.1,1.4,0.2,2.1,0.3c0.1,0,0.2,0.1,0.2,0.2c0.2,2.9,1.4,5.6,3.5,7.7l0.1,0.2L18,23.3z"/>
<path class="st0" d="M18.6,14.7c0-5,3.9-8.7,8.4-8.4c1.1,0.1,2.1,0.4,3.1,0.9s1.8,1.2,2.5,2c0.7,0.8,1.2,1.8,1.5,2.8
	s0.4,2.1,0.2,3.2c-0.1,1.3-0.6,2.6-1.2,3.8c-0.7,1.2-1.6,2.1-2.6,2.9c-1.1,0.9-2.5,1.4-4,1.4s-2.8-0.5-4-1.4
	c-1.2-0.8-2.1-1.9-2.8-3.2C19.1,17.5,18.7,16.1,18.6,14.7z"/>
<path class="st0" d="M35,40.9v-6.8c0-0.2,0-0.4-0.1-0.5c-0.1-0.2-0.2-0.3-0.4-0.3c-0.1,0-0.2-0.1-0.4,0c-0.1,0-0.2,0.1-0.3,0.1
	c-0.1,0.1-0.2,0.2-0.2,0.3c-0.1,0.1-0.1,0.2-0.1,0.3s0,0.2,0,0.3c0,2.3,0,4.7,0,7c0,0.2-0.1,0.3-0.2,0.3c-1.3,0.3-2.6,0.5-4,0.5
	h-4.9c-1.5,0-3-0.2-4.4-0.6h-0.1l-0.1-0.1c0,0,0-0.1-0.1-0.1v-0.1c0-2.3,0-4.6,0-6.9c0-0.2,0-0.4-0.1-0.5c-0.1-0.2-0.2-0.3-0.4-0.3
	c-0.1-0.1-0.3-0.1-0.4-0.1s-0.3,0.1-0.4,0.1c-0.1,0.1-0.2,0.2-0.3,0.3c0-0.1-0.1,0-0.1,0.2c0,0.3,0,0.5,0,0.8v5.9
	c-0.1,0-0.1,0-0.1,0c-1.8-0.8-3.3-2.1-4.4-3.8c-1.7-2.8-1.5-6,0.6-8.6c1.3-1.6,3.1-2.8,5-3.5c0.8-0.3,1.7-0.5,2.6-0.7
	c0.1,0,0.2,0,0.2,0c0.1,0,0.2,0,0.2,0.1c3,1.7,5.9,1.7,8.9,0c0.2-0.1,0.4-0.2,0.6-0.1c2.3,0.3,4.5,1.2,6.4,2.7
	c1.5,1.1,2.6,2.6,3.1,4.4c0.6,2.3,0.1,4.4-1.3,6.3c-1.2,1.5-2.7,2.7-4.5,3.4C35.1,40.8,35.1,40.9,35,40.9z"/>
<g>
	<path class="st0" d="M8.3,58.9l2.3,0.7c-0.3,1.3-0.9,2.2-1.7,2.8C8,63.1,7,63.4,5.8,63.4c-1.5,0-2.8-0.5-3.8-1.6
		c-1-1.1-1.5-2.5-1.5-4.3C0.5,55.5,1,54,2,52.9s2.3-1.6,3.9-1.6c1.4,0,2.6,0.4,3.5,1.3c0.5,0.5,0.9,1.2,1.2,2.1l-2.3,0.6
		c-0.1-0.6-0.4-1.1-0.9-1.4s-1-0.5-1.6-0.5c-0.9,0-1.6,0.3-2.1,0.9c-0.5,0.6-0.8,1.6-0.8,3c0,1.5,0.3,2.5,0.8,3.1s1.2,0.9,2.1,0.9
		c0.6,0,1.2-0.2,1.6-0.6S8.1,59.7,8.3,58.9z"/>
	<path class="st0" d="M10.8,58.8c0-0.7,0.2-1.5,0.5-2.1s0.9-1.2,1.5-1.6c0.7-0.4,1.4-0.5,2.2-0.5c1.3,0,2.3,0.4,3.1,1.2
		s1.2,1.9,1.2,3.1c0,1.3-0.4,2.3-1.2,3.2c-0.8,0.8-1.9,1.3-3.1,1.3c-0.8,0-1.5-0.2-2.2-0.5c-0.7-0.3-1.2-0.9-1.6-1.5
		S10.8,59.8,10.8,58.8z M13.1,59c0,0.8,0.2,1.5,0.6,1.9c0.4,0.4,0.9,0.7,1.5,0.7c0.6,0,1.1-0.2,1.5-0.7c0.4-0.4,0.6-1.1,0.6-1.9
		c0-0.8-0.2-1.5-0.6-1.9c-0.4-0.4-0.9-0.7-1.5-0.7c-0.6,0-1.1,0.2-1.5,0.7C13.3,57.5,13.1,58.1,13.1,59z"/>
	<path class="st0" d="M19.8,54.7h2.1v1.1c0.7-0.9,1.6-1.3,2.6-1.3c0.5,0,1,0.1,1.4,0.3c0.4,0.2,0.7,0.6,1,1c0.4-0.4,0.8-0.8,1.2-1
		c0.4-0.2,0.9-0.3,1.4-0.3c0.6,0,1.1,0.1,1.6,0.4c0.4,0.3,0.7,0.6,1,1.1c0.2,0.4,0.2,0.9,0.2,1.7v5.4h-2.2v-4.8
		c0-0.8-0.1-1.4-0.2-1.6c-0.2-0.3-0.5-0.5-1-0.5c-0.3,0-0.6,0.1-0.9,0.3c-0.3,0.2-0.5,0.5-0.6,0.8c-0.1,0.4-0.2,0.9-0.2,1.7v4h-2.2
		v-4.6c0-0.8,0-1.3-0.1-1.6c-0.1-0.2-0.2-0.4-0.4-0.5s-0.4-0.2-0.7-0.2c-0.3,0-0.7,0.1-0.9,0.3c-0.3,0.2-0.5,0.5-0.6,0.8
		C22,57.7,22,58.3,22,59.1v4.1h-2.2V54.7z"/>
	<path class="st0" d="M38.6,63.2v-1.3c-0.3,0.4-0.7,0.8-1.2,1.1c-0.5,0.3-1,0.4-1.6,0.4c-0.6,0-1.1-0.1-1.5-0.4
		c-0.4-0.2-0.8-0.6-1-1S33,60.9,33,60.1v-5.3h2.2v3.9c0,1.2,0,1.9,0.1,2.2c0.1,0.3,0.2,0.5,0.4,0.6c0.2,0.2,0.5,0.2,0.8,0.2
		c0.4,0,0.7-0.1,1-0.3c0.3-0.2,0.5-0.5,0.6-0.8c0.1-0.3,0.2-1.1,0.2-2.3v-3.6h2.2v8.4H38.6z"/>
	<path class="st0" d="M49.3,63.2h-2.2v-4.3c0-0.9,0-1.5-0.1-1.8c-0.1-0.3-0.3-0.5-0.5-0.6c-0.2-0.1-0.5-0.2-0.8-0.2
		c-0.4,0-0.7,0.1-1,0.3c-0.3,0.2-0.5,0.5-0.6,0.8s-0.2,1-0.2,1.9v3.8h-2.2v-8.4h2.1V56c0.7-1,1.7-1.4,2.8-1.4c0.5,0,0.9,0.1,1.3,0.3
		c0.4,0.2,0.7,0.4,0.9,0.7c0.2,0.3,0.4,0.6,0.4,0.9s0.1,0.8,0.1,1.5V63.2z"/>
	<path class="st0" d="M50.3,63.2v-2.2h2.2v2.2H50.3z"/>
</g>
</svg>
