<?xml version="1.0" encoding="utf-8"?>
<!-- Generator: Adobe Illustrator 24.0.1, SVG Export Plug-In . SVG Version: 6.00 Build 0)  -->
<svg version="1.1" id="Camada_1" xmlns="http://www.w3.org/2000/svg" xmlns:xlink="http://www.w3.org/1999/xlink" x="0px" y="0px"
	 viewBox="0 0 48 67" style="enable-background:new 0 0 48 67;" xml:space="preserve">
<style type="text/css">
	.st0{fill:#65B6DB;}
</style>
<path class="st0" d="M46,35.2H28.6c0.3-0.5,0.6-0.9,1-1.4c0.4-0.4,0.8-0.7,1.3-0.9s1.1-0.3,1.6-0.3c3.2,0,6.4,0,9.7,0
	c0.7,0,1.5,0.2,2.1,0.5c0.6,0.4,1.2,0.9,1.5,1.6c0.1,0.1,0.1,0.2,0.2,0.4V35.2z"/>
<path class="st0" d="M37.4,36.2h9c1.1,0,1.7,0.5,1.7,1.7c0,0.8,0,1.7,0,2.5c0,0.2,0,0.4-0.1,0.6c-0.1,0.2-0.2,0.4-0.3,0.5
	s-0.3,0.3-0.5,0.3C46.9,42,46.7,42,46.5,42c-6.1,0-12.2,0-18.2,0c-0.2,0-0.4,0-0.6-0.1s-0.4-0.2-0.5-0.3s-0.3-0.3-0.3-0.5
	c-0.1-0.2-0.1-0.4-0.1-0.6c0-0.9,0-1.8,0-2.7c0-0.2,0-0.4,0.1-0.6c0.1-0.2,0.2-0.4,0.3-0.5c0.1-0.1,0.3-0.3,0.5-0.3
	c0.2-0.1,0.4-0.1,0.6-0.1C31.3,36.2,34.3,36.2,37.4,36.2z"/>
<path class="st0" d="M27.9,27.4l-2.4-2.3l9.4-9.4c0.8,0.8,1.6,1.6,2.4,2.4c0.8-0.6,1.6-0.9,2.4-0.4c0.6,0.4,1.2,0.9,1.6,1.5
	c0.4,0.5,0.2,1.2-0.3,1.7c-0.8,0.8-1.5,1.5-2.3,2.3l-8,8c-0.9,0.9-1.6,0.9-2.4,0c-0.7-0.6-1.2-1.3-1-2.3
	C27.5,28.3,27.7,27.9,27.9,27.4z"/>
<path class="st0" d="M16.5,16.1l-2.4-2.4c-1.9,1.3-3.1,0.2-4-1c-0.4-0.6-0.3-1.2,0.3-1.8L16.2,5c1.5-1.5,3-3,4.5-4.5
	c0.8-0.8,1.5-0.8,2.3,0l0.2,0.2c1.2,1.2,1.3,2.1,0.3,3.5l2.4,2.4L16.5,16.1z"/>
<path class="st0" d="M26.7,7.6l7.4,7.4l-9.3,9.3l-7.3-7.4L26.7,7.6z"/>
<path class="st0" d="M0,37.1c0.3-1.2,1-2.1,1.9-2.9C3,33.1,4,32.1,5.1,31c1.3-1.3,2.9-2.4,4.5-3.3c1.5-0.8,2.9-1.8,4.1-3
	c1.5-1.5,3.1-3.1,4.6-4.6c0.1-0.1,0.2-0.2,0.3-0.3l3.1,3.1c-0.1,0.1-0.2,0.2-0.3,0.3c-1.7,1.7-3.3,3.3-5,5c-1,1-1.9,2.3-2.5,3.6
	c-0.9,1.9-2.2,3.7-3.8,5.2c-1,1-2.1,2.1-3.1,3.2c-2.4,2.6-6.4,1.2-6.9-1.8c0-0.1,0-0.1-0.1-0.2L0,37.1z"/>
<path class="st0" d="M26.7,7.6l-9.3,9.3l7.3,7.4L34,15L26.7,7.6z M16.5,16.1l9.4-9.4l-2.4-2.4c0.9-1.4,0.8-2.3-0.3-3.5L23,0.6
	c-0.7-0.7-1.5-0.7-2.3,0c-1.5,1.5-3,3-4.5,4.5l-5.8,5.8c-0.6,0.6-0.7,1.2-0.3,1.8c0.9,1.2,2.1,2.3,4,1L16.5,16.1z M27.9,27.4
	c-0.2,0.4-0.4,0.9-0.5,1.4c-0.2,1,0.3,1.7,1,2.3c0.9,0.9,1.6,0.9,2.4,0l8-8c0.8-0.8,1.5-1.5,2.3-2.3c0.5-0.5,0.7-1.2,0.3-1.7
	c-0.5-0.6-1-1.1-1.6-1.5c-0.8-0.5-1.7-0.2-2.4,0.4c-0.8-0.8-1.6-1.6-2.4-2.4L25.6,25L27.9,27.4z M37.4,36.2c-3,0-6.1,0-9.1,0
	c-0.2,0-0.4,0-0.6,0.1s-0.4,0.2-0.5,0.3s-0.3,0.3-0.3,0.5c-0.1,0.2-0.1,0.4-0.1,0.6c0,0.9,0,1.8,0,2.7c0,0.2,0,0.4,0.1,0.6
	c0.1,0.2,0.2,0.4,0.3,0.5c0.1,0.1,0.3,0.3,0.5,0.3C27.8,42,28,42,28.2,42c6.1,0,12.2,0,18.2,0c0.2,0,0.4,0,0.6-0.1
	c0.2-0.1,0.4-0.2,0.5-0.3s0.3-0.3,0.3-0.5c0.1-0.2,0.1-0.4,0.1-0.6c0-0.8,0-1.7,0-2.5c0-1.1-0.6-1.7-1.7-1.7L37.4,36.2z M46,35.2
	c0-0.1,0-0.1,0-0.2c0-0.1-0.1-0.2-0.2-0.3c-0.3-0.6-0.9-1.2-1.5-1.6s-1.4-0.6-2.1-0.5c-3.2,0-6.4,0-9.7,0c-0.5,0-1.1,0.1-1.6,0.3
	s-1,0.5-1.3,0.9c-0.4,0.4-0.7,0.9-1,1.4L46,35.2z"/>
<g>
	<path class="st0" d="M9.7,64.2V52.6h2.3v9.6h5.8v2H9.7z"/>
	<path class="st0" d="M23.8,61.5l2.2,0.4c-0.3,0.8-0.7,1.4-1.4,1.9c-0.6,0.4-1.4,0.6-2.3,0.6c-1.5,0-2.5-0.5-3.3-1.4
		c-0.6-0.8-0.8-1.7-0.8-2.9c0-1.4,0.4-2.5,1.1-3.3s1.7-1.2,2.8-1.2c1.3,0,2.2,0.4,3,1.2c0.7,0.8,1.1,2.1,1,3.8h-5.6
		c0,0.7,0.2,1.2,0.5,1.5c0.3,0.4,0.8,0.6,1.3,0.6c0.3,0,0.6-0.1,0.9-0.3S23.7,61.9,23.8,61.5z M23.9,59.2c0-0.6-0.2-1.1-0.5-1.5
		c-0.3-0.3-0.7-0.5-1.2-0.5c-0.5,0-0.9,0.2-1.2,0.5c-0.3,0.4-0.5,0.8-0.5,1.4H23.9z"/>
	<path class="st0" d="M27.3,54.6v-2.1h2.2v2.1H27.3z M27.3,64.2v-8.4h2.2v8.4H27.3z"/>
	<path class="st0" d="M30.4,61.8l2.2-0.3c0.1,0.4,0.3,0.8,0.6,1c0.3,0.2,0.7,0.3,1.2,0.3c0.6,0,1-0.1,1.3-0.3
		c0.2-0.1,0.3-0.3,0.3-0.6c0-0.2-0.1-0.3-0.2-0.4c-0.1-0.1-0.4-0.2-0.7-0.3c-1.8-0.4-2.9-0.8-3.4-1.1c-0.7-0.5-1-1.1-1-1.9
		c0-0.7,0.3-1.3,0.9-1.8c0.6-0.5,1.5-0.7,2.7-0.7c1.2,0,2,0.2,2.6,0.6c0.6,0.4,0.9,0.9,1.2,1.7l-2.1,0.4c-0.1-0.3-0.3-0.6-0.5-0.8
		s-0.6-0.3-1.1-0.3c-0.6,0-1,0.1-1.3,0.2c-0.2,0.1-0.3,0.3-0.3,0.5c0,0.2,0.1,0.3,0.2,0.4c0.2,0.1,0.9,0.4,2.1,0.6
		c1.2,0.3,2,0.6,2.5,1c0.5,0.4,0.7,0.9,0.7,1.7c0,0.8-0.3,1.4-1,2c-0.6,0.6-1.6,0.8-2.9,0.8c-1.1,0-2.1-0.2-2.7-0.7
		C31,63.2,30.6,62.6,30.4,61.8z"/>
</g>
</svg>
