<?xml version="1.0" encoding="utf-8"?>
<!-- Generator: Adobe Illustrator 24.0.1, SVG Export Plug-In . SVG Version: 6.00 Build 0)  -->
<svg version="1.1" id="Camada_1" xmlns="http://www.w3.org/2000/svg" xmlns:xlink="http://www.w3.org/1999/xlink" x="0px" y="0px"
	 viewBox="0 0 57 68" style="enable-background:new 0 0 57 68;" xml:space="preserve">
<style type="text/css">
	.st0{fill:#65B6DB;}
</style>
<path class="st0" d="M32.7,33.3c0,0.7,0,1.4,0,2.2c0,0.2,0,0.4-0.1,0.6s-0.2,0.3-0.3,0.5c-0.1,0.1-0.3,0.3-0.5,0.3
	C31.6,37,31.4,37,31.2,37c-1.5,0-3,0-4.5,0c-0.2,0-0.4,0-0.6-0.1s-0.3-0.2-0.5-0.3c-0.1-0.1-0.2-0.3-0.3-0.5
	c-0.1-0.2-0.1-0.4-0.1-0.6c0-1.5,0-2.9,0-4.4c0-0.2,0-0.4,0.1-0.6s0.2-0.3,0.3-0.5c0.1-0.1,0.3-0.2,0.5-0.3c0.2-0.1,0.4-0.1,0.6-0.1
	c1.5,0,3,0,4.5,0c0.2,0,0.4,0,0.6,0.1s0.3,0.2,0.5,0.3c0.1,0.1,0.2,0.3,0.3,0.5s0.1,0.4,0.1,0.6V33.3L32.7,33.3z"/>
<path class="st0" d="M25.3,21.5c0-0.7,0-1.4,0-2.1c0-0.2,0-0.4,0.1-0.6s0.2-0.4,0.3-0.5c0.1-0.1,0.3-0.3,0.5-0.3
	c0.2-0.1,0.4-0.1,0.6-0.1c1.5,0,3,0,4.4,0c0.2,0,0.4,0,0.6,0.1s0.4,0.2,0.5,0.3c0.1,0.1,0.2,0.3,0.3,0.5s0.1,0.4,0.1,0.6
	c0,1.4,0,2.9,0,4.3c0,0.2,0,0.4-0.1,0.6s-0.2,0.4-0.3,0.5s-0.3,0.3-0.5,0.3c-0.2,0.1-0.4,0.1-0.6,0.1c-1.5,0-2.9,0-4.4,0
	c-0.2,0-0.4,0-0.6-0.1s-0.3-0.2-0.5-0.3c-0.1-0.1-0.2-0.3-0.3-0.5s-0.1-0.4-0.1-0.6C25.3,23,25.3,22.3,25.3,21.5z"/>
<path class="st0" d="M40.2,25.3c-0.7,0-1.4,0-2.1,0c-0.2,0-0.4,0-0.6-0.1c-0.2-0.1-0.4-0.2-0.5-0.3c-0.1-0.1-0.3-0.3-0.3-0.5
	c-0.1-0.2-0.1-0.4-0.1-0.6c0-1.4,0-2.9,0-4.3c0-0.2,0-0.4,0.1-0.6s0.2-0.4,0.3-0.5s0.3-0.3,0.5-0.3c0.2-0.1,0.4-0.1,0.6-0.1
	c1.4,0,2.9,0,4.3,0c0.2,0,0.4,0,0.6,0.1c0.2,0.1,0.4,0.2,0.5,0.3c0.1,0.1,0.3,0.3,0.3,0.5c0.1,0.2,0.1,0.4,0.1,0.6
	c0,1.5,0,2.9,0,4.4c0,0.2,0,0.4-0.1,0.6s-0.2,0.4-0.3,0.5s-0.3,0.3-0.5,0.3c-0.2,0.1-0.4,0.1-0.6,0.1c-0.4,0-0.7,0-1.1,0h-1.1V25.3z
	"/>
<path class="st0" d="M36.5,33.3c0-0.7,0-1.4,0-2.1c0-0.2,0-0.4,0.1-0.6s0.2-0.4,0.3-0.5s0.3-0.3,0.5-0.3c0.2-0.1,0.4-0.1,0.6-0.1
	c1.4,0,2.9,0,4.3,0c0.2,0,0.4,0,0.6,0.1c0.2,0.1,0.4,0.2,0.5,0.3c0.1,0.1,0.3,0.3,0.3,0.5c0.1,0.2,0.1,0.4,0.1,0.6
	c0,1.5,0,2.9,0,4.4c0,0.2,0,0.4-0.1,0.6c-0.1,0.2-0.2,0.3-0.3,0.5c-0.1,0.1-0.3,0.3-0.5,0.3s-0.3,0-0.5,0c-1.5,0-2.9,0-4.4,0
	c-0.2,0-0.4,0-0.6-0.1c-0.2-0.1-0.3-0.2-0.5-0.3c-0.1-0.1-0.2-0.3-0.3-0.5s-0.1-0.4-0.1-0.6L36.5,33.3L36.5,33.3z"/>
<path class="st0" d="M17.8,29.6c0.7,0,1.4,0,2.1,0c0.2,0,0.4,0,0.6,0.1s0.4,0.2,0.5,0.3c0.1,0.1,0.3,0.3,0.3,0.5
	c0.1,0.2,0.1,0.4,0.1,0.6c0,1.4,0,2.8,0,4.2c0,0.2,0,0.4-0.1,0.6c-0.1,0.2-0.2,0.4-0.3,0.5c-0.1,0.1-0.3,0.3-0.5,0.3
	C20.4,37,20.2,37,20,37c-1.4,0-2.9,0-4.3,0c-0.2,0-0.4,0-0.6-0.1s-0.4-0.2-0.5-0.3s-0.3-0.3-0.3-0.5c-0.1-0.2-0.1-0.4-0.1-0.6
	c0-1.4,0-2.8,0-4.2c0-0.2,0-0.4,0.1-0.6s0.2-0.4,0.3-0.5s0.3-0.3,0.5-0.3c0.2-0.1,0.4-0.1,0.6-0.1C16.4,29.6,17.1,29.6,17.8,29.6z"
	/>
<path class="st0" d="M42.5,4.3c0,0.8,0,1.6,0,2.3c0,0.2,0,0.5-0.1,0.7C42.3,7.6,42.2,7.8,42,8s-0.4,0.3-0.6,0.4
	c-0.2,0.1-0.5,0.1-0.7,0.1s-0.5,0-0.7-0.1S39.6,8.2,39.4,8c-0.2-0.2-0.3-0.4-0.4-0.6c-0.1-0.2-0.1-0.5-0.1-0.7c0-1.6,0-3.1,0-4.7
	c0-0.2,0-0.5,0.1-0.7s0.2-0.4,0.4-0.6s0.4-0.3,0.6-0.4c0.2-0.1,0.5-0.1,0.7-0.1s0.5,0,0.7,0.1s0.4,0.2,0.6,0.4
	c0.2,0.2,0.3,0.4,0.4,0.6c0.1,0.2,0.1,0.5,0.1,0.7C42.5,2.7,42.5,3.5,42.5,4.3z"/>
<path class="st0" d="M15.5,4.3c0-0.8,0-1.6,0-2.4c0-0.2,0-0.5,0.1-0.7s0.2-0.4,0.4-0.6c0.2-0.2,0.4-0.3,0.6-0.4
	C16.8,0,17.1,0,17.3,0c0.2,0,0.5,0.1,0.7,0.1c0.2,0.1,0.4,0.2,0.6,0.4s0.3,0.4,0.4,0.6s0.1,0.5,0.1,0.7c0,1.6,0,3.2,0,4.8
	c0,0.2,0,0.5-0.1,0.7s-0.2,0.4-0.4,0.6c-0.2,0.2-0.4,0.3-0.6,0.4s-0.5,0.1-0.7,0.1s-0.5,0-0.7-0.1c-0.2,0-0.4-0.1-0.6-0.3
	c-0.2-0.2-0.3-0.4-0.4-0.6c-0.1-0.2-0.1-0.5-0.1-0.7V6.6V4.3z"/>
<path class="st0" d="M13.6,4.3c0,0.9,0,1.7,0,2.6c0,1,0.5,1.9,1.2,2.6s1.7,1,2.6,1c1,0,1.9-0.4,2.6-1.1c0.6-0.8,1-1.7,1-2.7
	c0-0.8,0-1.6,0-2.4h16c0,0.2,0,0.3,0,0.5c0,0.8,0,1.6,0.1,2.5s0.6,1.8,1.3,2.4s1.6,0.9,2.6,0.8c0.9-0.1,1.8-0.5,2.5-1.1
	c0.7-0.7,1-1.6,1.1-2.5c0-0.8,0-1.7,0-2.5c1.3,0,2.6-0.1,3.9,0C49.8,4.6,50.9,6,51,7.5c0,0.2,0,0.3,0,0.5v32.5c0,1.8-1,3.1-2.5,3.5
	c-0.3,0.1-0.6,0.1-1,0.1h-37c-0.5,0-0.9-0.1-1.4-0.2c-0.4-0.2-0.8-0.4-1.1-0.7s-0.6-0.7-0.8-1.1C7.1,41.5,7,41,7,40.6
	c0-11,0-21.9,0-32.9c0-0.5,0.1-0.9,0.2-1.3C7.4,6,7.7,5.6,8,5.3C8.3,5,8.7,4.7,9.1,4.6c0.4-0.2,0.9-0.3,1.3-0.2
	C11.5,4.3,12.5,4.3,13.6,4.3z M29,13.6c-6.2,0-12.4,0-18.6,0c-0.4,0-0.5,0.1-0.5,0.5c0,8.3,0,16.7,0,25c0,1.3,0.7,2,2,2h34.4
	c1.3,0,2-0.7,2-2c0-8.3,0-16.7,0-25c0-0.4-0.1-0.5-0.5-0.5C41.4,13.7,35.2,13.7,29,13.6L29,13.6z"/>
<g>
	<path class="st0" d="M12.3,64.2H9.7l-1-2.6H4.1l-1,2.6H0.6l4.5-11.6h2.5L12.3,64.2z M8,59.6l-1.6-4.3l-1.6,4.3H8z"/>
	<path class="st0" d="M12.7,64.7l2.5,0.3c0,0.3,0.1,0.5,0.3,0.6c0.2,0.2,0.5,0.2,1,0.2c0.6,0,1-0.1,1.3-0.3c0.2-0.1,0.3-0.3,0.4-0.6
		c0.1-0.2,0.1-0.5,0.1-1v-1.2c-0.7,0.9-1.5,1.4-2.5,1.4c-1.1,0-2-0.5-2.7-1.4c-0.5-0.8-0.8-1.7-0.8-2.8c0-1.4,0.3-2.5,1-3.2
		s1.5-1.1,2.5-1.1c1,0,1.9,0.5,2.6,1.4v-1.2h2.1v7.6c0,1-0.1,1.7-0.2,2.2c-0.2,0.5-0.4,0.9-0.7,1.2c-0.3,0.3-0.7,0.5-1.2,0.7
		c-0.5,0.2-1.1,0.2-1.9,0.2c-1.4,0-2.4-0.2-3-0.7s-0.9-1.1-0.9-1.9C12.7,64.9,12.7,64.8,12.7,64.7z M14.7,59.8c0,0.9,0.2,1.5,0.5,2
		s0.8,0.6,1.3,0.6c0.5,0,1-0.2,1.4-0.6c0.4-0.4,0.6-1.1,0.6-1.9c0-0.9-0.2-1.5-0.5-1.9s-0.8-0.6-1.4-0.6c-0.5,0-1,0.2-1.3,0.6
		S14.7,58.9,14.7,59.8z"/>
	<path class="st0" d="M27,61.5l2.2,0.4c-0.3,0.8-0.7,1.4-1.4,1.9c-0.6,0.4-1.4,0.6-2.3,0.6c-1.5,0-2.5-0.5-3.3-1.4
		c-0.6-0.8-0.8-1.7-0.8-2.9c0-1.4,0.4-2.5,1.1-3.3s1.7-1.2,2.8-1.2c1.3,0,2.2,0.4,3,1.2c0.7,0.8,1.1,2.1,1,3.8h-5.6
		c0,0.7,0.2,1.2,0.5,1.5c0.3,0.4,0.8,0.6,1.3,0.6c0.3,0,0.6-0.1,0.9-0.3S26.9,61.9,27,61.5z M27.1,59.2c0-0.6-0.2-1.1-0.5-1.5
		c-0.3-0.3-0.7-0.5-1.2-0.5c-0.5,0-0.9,0.2-1.2,0.5c-0.3,0.4-0.5,0.8-0.5,1.4H27.1z"/>
	<path class="st0" d="M38.2,64.2h-2.2v-4.3c0-0.9,0-1.5-0.1-1.8c-0.1-0.3-0.3-0.5-0.5-0.6c-0.2-0.1-0.5-0.2-0.8-0.2
		c-0.4,0-0.7,0.1-1,0.3c-0.3,0.2-0.5,0.5-0.6,0.8s-0.2,1-0.2,1.9v3.8h-2.2v-8.4h2.1V57c0.7-1,1.7-1.4,2.8-1.4c0.5,0,0.9,0.1,1.3,0.3
		c0.4,0.2,0.7,0.4,0.9,0.7c0.2,0.3,0.4,0.6,0.4,0.9s0.1,0.8,0.1,1.5V64.2z"/>
	<path class="st0" d="M47.5,64.2h-2.1v-1.2c-0.3,0.5-0.7,0.8-1.2,1.1c-0.5,0.2-0.9,0.4-1.4,0.4c-1,0-1.8-0.4-2.5-1.2
		c-0.7-0.8-1-1.9-1-3.3c0-1.4,0.3-2.5,1-3.3c0.7-0.7,1.5-1.1,2.5-1.1c0.9,0,1.8,0.4,2.4,1.2v-4.2h2.2V64.2z M41.6,59.8
		c0,0.9,0.1,1.5,0.4,2c0.4,0.6,0.9,0.9,1.5,0.9c0.5,0,0.9-0.2,1.3-0.7c0.4-0.4,0.5-1.1,0.5-2c0-1-0.2-1.7-0.5-2.1
		c-0.3-0.4-0.8-0.6-1.3-0.6c-0.5,0-1,0.2-1.3,0.6S41.6,58.9,41.6,59.8z"/>
	<path class="st0" d="M50.7,58.3l-2-0.4c0.2-0.8,0.6-1.4,1.2-1.8c0.6-0.4,1.4-0.6,2.5-0.6c1,0,1.7,0.1,2.2,0.4
		c0.5,0.2,0.8,0.5,1,0.9s0.3,1,0.3,2l0,2.6c0,0.7,0,1.3,0.1,1.6s0.2,0.7,0.4,1.1h-2.2C54.1,64,54,63.8,54,63.5
		c0-0.1-0.1-0.2-0.1-0.3c-0.4,0.4-0.8,0.6-1.2,0.8c-0.4,0.2-0.9,0.3-1.4,0.3c-0.9,0-1.6-0.2-2-0.7c-0.5-0.5-0.7-1.1-0.7-1.8
		c0-0.5,0.1-0.9,0.3-1.3c0.2-0.4,0.5-0.7,1-0.9s1-0.4,1.8-0.5c1-0.2,1.8-0.4,2.2-0.5v-0.2c0-0.4-0.1-0.7-0.3-0.9
		c-0.2-0.2-0.6-0.3-1.2-0.3c-0.4,0-0.7,0.1-0.9,0.2C51,57.6,50.9,57.9,50.7,58.3z M53.7,60.1c-0.3,0.1-0.7,0.2-1.4,0.3
		c-0.6,0.1-1,0.3-1.2,0.4c-0.3,0.2-0.4,0.5-0.4,0.8c0,0.3,0.1,0.6,0.3,0.8c0.2,0.2,0.5,0.3,0.9,0.3c0.4,0,0.8-0.1,1.1-0.4
		c0.3-0.2,0.4-0.4,0.5-0.7c0.1-0.2,0.1-0.6,0.1-1.1V60.1z"/>
</g>
</svg>
