<?xml version="1.0" encoding="utf-8"?>
<!-- Generator: Adobe Illustrator 24.0.1, SVG Export Plug-In . SVG Version: 6.00 Build 0)  -->
<svg version="1.1" id="Camada_1" xmlns="http://www.w3.org/2000/svg" xmlns:xlink="http://www.w3.org/1999/xlink" x="0px" y="0px"
	 viewBox="0 0 46 69" style="enable-background:new 0 0 46 69;" xml:space="preserve">
<style type="text/css">
	.st0{fill:#65B6DB;}
</style>
<path class="st0" d="M15.4,59.9h-2.9v-1.5H15c0.4,0,0.8-0.1,1.1-0.2c0.3-0.1,0.5-0.3,0.6-0.5c0.2-0.2,0.2-0.5,0.2-0.8
	c0-0.4-0.1-0.7-0.2-0.9s-0.3-0.4-0.6-0.5c-0.3-0.1-0.7-0.2-1.1-0.2h-1.8V65h-2.1V53.6H15c0.6,0,1.2,0.1,1.7,0.2
	c0.5,0.1,0.9,0.3,1.3,0.6s0.6,0.6,0.8,1c0.2,0.4,0.3,0.8,0.3,1.4c0,0.5-0.1,0.9-0.3,1.3c-0.2,0.4-0.5,0.7-1,1
	c-0.4,0.2-1,0.4-1.7,0.4L15.4,59.9z M15.4,65H12l0.9-1.7h2.5c0.4,0,0.8-0.1,1.1-0.2c0.3-0.1,0.5-0.3,0.6-0.6s0.2-0.5,0.2-0.9
	s-0.1-0.7-0.2-0.9c-0.1-0.3-0.3-0.5-0.6-0.6c-0.3-0.1-0.6-0.2-1-0.2h-2.2v-1.5h2.8l0.5,0.6c0.7,0,1.2,0.1,1.6,0.4
	c0.4,0.3,0.7,0.6,0.9,1c0.2,0.4,0.3,0.8,0.3,1.3c0,0.7-0.2,1.3-0.5,1.8s-0.8,0.9-1.4,1.1C16.9,64.9,16.2,65,15.4,65z M20.7,60.9
	v-0.2c0-0.6,0.1-1.2,0.3-1.7c0.2-0.5,0.4-1,0.8-1.4c0.3-0.4,0.8-0.7,1.2-0.9c0.5-0.2,1-0.3,1.7-0.3c0.6,0,1.2,0.1,1.7,0.3
	s0.9,0.5,1.3,0.9c0.3,0.4,0.6,0.8,0.8,1.4c0.2,0.5,0.3,1.1,0.3,1.7v0.2c0,0.6-0.1,1.2-0.3,1.7c-0.2,0.5-0.4,1-0.8,1.4
	c-0.3,0.4-0.8,0.7-1.2,0.9c-0.5,0.2-1,0.3-1.7,0.3c-0.6,0-1.2-0.1-1.7-0.3c-0.5-0.2-0.9-0.5-1.3-0.9c-0.3-0.4-0.6-0.8-0.8-1.4
	C20.8,62,20.7,61.5,20.7,60.9z M22.8,60.7v0.2c0,0.4,0,0.7,0.1,1s0.2,0.6,0.3,0.9c0.2,0.2,0.3,0.4,0.6,0.6c0.2,0.1,0.5,0.2,0.9,0.2
	c0.3,0,0.6-0.1,0.9-0.2c0.2-0.1,0.4-0.3,0.6-0.6c0.2-0.2,0.3-0.5,0.3-0.9c0.1-0.3,0.1-0.7,0.1-1v-0.2c0-0.4,0-0.7-0.1-1
	s-0.2-0.6-0.3-0.9c-0.2-0.3-0.3-0.4-0.6-0.6C25.3,58.1,25,58,24.7,58s-0.6,0.1-0.9,0.2c-0.2,0.1-0.4,0.3-0.6,0.6
	c-0.2,0.2-0.3,0.5-0.3,0.9C22.8,60,22.8,60.3,22.8,60.7z M34.1,56.5V58h-4.8v-1.5H34.1z M30.6,54.5h2.1v8.1c0,0.3,0,0.4,0.1,0.6
	c0.1,0.1,0.2,0.2,0.3,0.3c0.1,0,0.3,0.1,0.5,0.1c0.1,0,0.3,0,0.4,0c0.1,0,0.2,0,0.3,0v1.5c-0.2,0.1-0.4,0.1-0.6,0.1
	c-0.2,0-0.5,0.1-0.7,0.1c-0.5,0-0.9-0.1-1.2-0.2c-0.3-0.2-0.6-0.4-0.8-0.8c-0.2-0.4-0.3-0.8-0.3-1.4v-8.4H30.6z"/>
<g>
	<g>
		<g>
			<path class="st0" d="M45.6,18.7c-0.7-3.5-2.1-6.8-4.3-9.6c-2.1-2.8-4.9-5.1-8.1-6.7S26.6,0,23,0c-4.2,0-8.3,1.1-11.9,3.3
				s-6.5,5.3-8.5,9C0.7,16-0.2,20.2,0,24.3c0.2,4.2,1.6,8.2,4,11.7l-4,8.5l10.9-2c3,1.9,6.4,3,10,3.4c3.5,0.3,7.1-0.2,10.4-1.5
				s6.3-3.3,8.7-6c2.4-2.6,4.1-5.8,5.1-9.2S46.3,22.2,45.6,18.7z M36.7,19.2c-0.6,2-1.5,4-2.7,5.8c-2.5,3.6-5.3,7-8,10.4
				c-0.2,0.2-0.3,0.4-0.3,0.6c0,0.2,0,0.5,0.1,0.7c0.1,0.3,0.1,0.5,0,0.8c0,0.3-0.2,0.5-0.3,0.8c-0.2,0.2-0.4,0.4-0.6,0.5
				S24.4,39,24.1,39c-0.2,0-0.4,0-0.5,0c-1.4,0-1.5-0.1-1.1-1.4c0.1-0.4,0.2-0.9,0.3-1.1c-1.7-1.7-3.3-3.2-4.8-4.9
				c-2.8-3.2-5.4-6.6-7.1-10.5c-0.4-0.9-0.6-1.8-0.8-2.7c-0.5-3.4,1.2-5.6,4.5-6.1c0.3-0.1,0.5-0.1,0.8-0.2h1.1
				c0.2,0.1,0.5,0.2,0.7,0.2c0.7,0.1,1.4,0.3,2,0.7s1.1,0.9,1.5,1.5c0.9,1.4,1.5,3,2.2,4.5c0.1,0.2,0.2,0.5,0.3,0.8
				c1.2-1.5,2.2-3,3.5-4.4c1.2-1.4,2.9-2.3,4.7-2.5C35.1,12.3,37.9,15.4,36.7,19.2z"/>
		</g>
	</g>
</g>
</svg>
