<?xml version="1.0" encoding="utf-8"?>
<!-- Generator: Adobe Illustrator 24.0.1, SVG Export Plug-In . SVG Version: 6.00 Build 0)  -->
<svg version="1.1" id="Camada_1" xmlns="http://www.w3.org/2000/svg" xmlns:xlink="http://www.w3.org/1999/xlink" x="0px" y="0px"
	 viewBox="0 0 490.2 793.6" style="enable-background:new 0 0 490.2 793.6;" xml:space="preserve">
<style type="text/css">
	.st0{fill:#FFFFFF;}
</style>
<g>
	<path class="st0" d="M120.9,403.4c0,7.3,0.6,14.7,1.6,21.9c9.4,64.3,69.5,111.1,134,104.6c64.9-6.6,112.8-59.4,112.9-124.8
		c0.1-93.3,0.1-186.6,0-279.9c0-7.1-0.7-14.3-1.8-21.4C355.5,26.3,271.3-20.8,198.9,9.1c-48,19.8-78,64.4-78.1,116.4
		c-0.1,47.3,0,94.6,0,142C120.8,312.7,120.7,358,120.9,403.4z"/>
	<path class="st0" d="M490,302.1c0-2.8-0.3-5.7-1-8.4c-3.9-14.2-17.6-23.4-31.9-21.5c-15.2,1.9-26.1,14.2-26.1,29.9
		c-0.1,28.3,0,56.7-0.1,85c0,11.3,0.6,22.7-0.5,34c-5.5,55.9-30.4,101.3-75.9,134.5C306,590.7,252,600.2,194.5,584.2
		c-80.5-22.4-135-95.3-135.2-178.9c-0.1-34.2,0-68.3,0-102.5c0-13.4-7.1-24.3-18.6-28.8c-19.9-7.8-40.5,6.3-40.6,28.1
		c-0.2,35.5-0.4,71,0.2,106.5C0.6,422.8,2,437,4.6,450.9c18.1,98.6,96.2,176.8,194.4,195.3c5.5,1,11,2,16.4,2.9
		c0,42.9,0,63.4,0,106.1c0,0,0.3,13.5,0.3,8.9c0,0.6,0,1.1,0,1.6c0,0.2,0,0.3,0,0.5c0,0.4,0.1,0.8,0.1,1.1c0,0.2,0,0.4,0.1,0.6
		c0,0.4,0.1,0.7,0.2,1.1c0,0.2,0.1,0.4,0.1,0.5c0.1,0.4,0.1,0.7,0.2,1.1c0,0.2,0.1,0.3,0.1,0.5c0.1,0.4,0.2,0.8,0.3,1.2
		c0,0.1,0.1,0.2,0.1,0.3c0.1,0.5,0.3,1,0.5,1.4c0,0,0,0,0,0c4.1,11.4,15,19.6,27.8,19.6c12.8,0,23.7-8.2,27.8-19.6c0,0,0,0,0,0
		c0.2-0.5,0.3-1,0.5-1.4c0-0.1,0.1-0.2,0.1-0.3c0.1-0.4,0.2-0.8,0.3-1.2c0-0.2,0.1-0.3,0.1-0.5c0.1-0.4,0.2-0.7,0.2-1.1
		c0-0.2,0.1-0.4,0.1-0.5c0.1-0.4,0.1-0.7,0.2-1.1c0-0.2,0.1-0.4,0.1-0.6c0-0.4,0.1-0.8,0.1-1.1c0-0.2,0-0.3,0-0.5c0-0.5,0-1.1,0-1.6
		c0,4.7,0.3-7.4,0.3-7.4c0-42.9,0-65,0-107.8c34.8-4.5,66.5-16.7,96.5-33.2c37.5-20.7,61.1-51.9,63.7-55.4
		c3.4-4.5,6.9-8.9,10.2-13.6c27.1-38.8,42.8-81.7,44.2-129.1C490.7,379.1,490,340.6,490,302.1z"/>
</g>
</svg>
