<svg id="Camada_1" data-name="Camada 1" xmlns="http://www.w3.org/2000/svg" viewBox="0 0 395.71 93.24"><defs><style>.cls-1{fill:#4d352d;}.cls-2{fill:#5bbed4;}.cls-3{fill:#fab958;}.cls-4{fill:#e291a3;}.cls-5{fill:#78c19e;}</style></defs><title>nome_valente</title><path class="cls-1" d="M120.43,82.68c-5,7.37-12,9.31-20,7.77-8.4-1.61-11.88-7.65-13-16.08-.3.8-.44,1.09-.53,1.4-.53,1.9-.9,3.85-1.6,5.69A18.11,18.11,0,0,1,60.59,91.54c-4.75-2.14-7.11-6-8.17-10.93-.08-.38-.15-.77-.24-1.15,0,0-.07-.08-.27-.3l-2.22,2.13c-4.1,3.89-8.68,6.8-14.48,7.42-6.92.73-12.74-1.57-17.71-6.3A42.31,42.31,0,0,1,7.72,67.32,105.69,105.69,0,0,1,0,26.2a30.13,30.13,0,0,1,1.28-8.15A16.83,16.83,0,0,1,17.49,5.73a25,25,0,0,1,6.05.5c4.26.95,7.08,3.73,8.83,7.69,1.89,4.31,2.4,8.9,3,13.49a63.35,63.35,0,0,0,1.34,7.7c.93-4.21,1.71-8.46,2.84-12.62a75.93,75.93,0,0,1,3.75-11.17c2.56-5.69,7.39-7.95,13.5-7.68,5.84.26,10.14,3,12.38,8.42a81.48,81.48,0,0,1,2.48,8.34c5.38-6.9,12.2-11.27,21.17-11.64,9.36-.39,15.78,4.39,20.76,12,.56-1.6,1-3,1.54-4.33,3.33-8.19,11.41-12.21,19.67-9.75,5.9,1.75,8.69,6.32,10.32,11.8,1.84,6.16,1.65,12.51,1.38,18.83-.15,3.54-.58,7.08-.88,10.62,0,.66-.09,1.31-.16,2.23a29,29,0,0,1,17.87-2.37c.06-1.24.14-2.29.16-3.34a100.83,100.83,0,0,1,2-18.65c2.26-10.95,9-17.35,19.72-19.79a84.11,84.11,0,0,1,27.75-1.66c5.1.55,9.62,2.46,12.64,7.15a16.1,16.1,0,0,1,9.21-2.94,18.88,18.88,0,0,1,15.35,6.93c2.76,3.31,5.05,7,7.54,10.55.12-1,.25-2.21.4-3.43.53-4.23,1.73-8.18,4.84-11.3a13.06,13.06,0,0,1,17.55-.29c4.68-6,11.24-8.74,18.46-9.88A101,101,0,0,1,314.07,0a66.48,66.48,0,0,1,12.25,1.27c6.35,1.15,11.87,3.93,15.57,9.56C350.94,5,361.05,4.17,371.26,4A53.4,53.4,0,0,1,384,5.12c11.14,2.6,15.48,16.44,7.86,24.76-1.74,1.9-4.18,3.14-6.33,4.71,4.12,2.09,7.3,5.33,7.36,10.68s-2.92,8.8-7.45,11.36a5.69,5.69,0,0,0,.67.37c7.68,2.63,10,9.06,9,16.36-.76,5.51-4.15,9-9,11.19s-10.14,3.08-15.41,3.64c-6.52.69-13.08,1-19.56-.27a37.61,37.61,0,0,1-7.55-2.37c-6.67-2.89-9.55-8.59-10.9-15.33-1.69-8.37-1.38-16.84-1.37-25.31V38.54l-5.79.9c.73,2.93,1.53,5.79,2.16,8.68,1.43,6.57,2.53,13.18,2.24,19.95a25.68,25.68,0,0,1-2.39,10.31,13.41,13.41,0,0,1-10.15,7.89c-6.92,1.18-13.56.53-19.09-4.39-4.31-3.84-5.84-9-6.27-14.54-.7-8.92,1.67-17.32,4.52-25.63.18-.53.37-1.06.61-1.74l-7.69-1c.18,3.31.38,6.55.51,9.8.32,8.36.29,16.71-1.76,24.9A29.91,29.91,0,0,1,285.88,80c-3.64,7.12-9.82,9.56-17.45,9-7.3-.49-12.93-4-17.28-9.73-1.49-2-2.79-4.07-4.33-6.34-.26,1.22-.46,2.26-.7,3.27-1.52,6.21-4.79,10.89-11.44,12.18-5.37,1-10.45.36-14.65-3.66a1.79,1.79,0,0,0-1.57-.27c-7.27,3-14.92,3.92-22.68,4.11a78.17,78.17,0,0,1-11.14-.47c-5.34-.65-10.31-2.43-14.38-6.35-6.72,7.22-15.32,9.68-24.74,10S127.38,89.88,120.43,82.68Zm-33.27-35a6.06,6.06,0,0,0,3.6-.12,5,5,0,0,0,2.18-1.36c2-2.23,1.86-4.9,1.21-7.52-.72-3-3.55-3.8-5.87-1.82A9.69,9.69,0,0,0,85,44.57,3.29,3.29,0,0,0,87.16,47.72Z"/><path class="cls-2" d="M57,7.39q5.58,0,8.06,4.33t2.48,13.09A60.51,60.51,0,0,1,66.49,35,97.17,97.17,0,0,1,63.27,47.7a107.53,107.53,0,0,1-5.22,13.14,74.85,74.85,0,0,1-6.9,11.75,35.85,35.85,0,0,1-8.44,8.5,16.89,16.89,0,0,1-9.85,3.2,15.81,15.81,0,0,1-9.44-3,29.72,29.72,0,0,1-7.43-8,54.69,54.69,0,0,1-5.53-11.18A105,105,0,0,1,6.71,49.45,118,118,0,0,1,4.55,37a94.66,94.66,0,0,1-.68-10.41q0-9,3.53-13t10-4.07c3.52,0,6.08,1.18,7.7,3.55s2.77,6.34,3.48,11.91q.63,4.84,1.63,11.18t2.21,13.4q1.21,7.06,2.48,14.38h.42q1.36-5.35,2.8-11c.94-3.74,1.88-7.42,2.79-11s1.76-7.09,2.53-10.46,1.44-6.46,2-9.28Q47.1,14.51,49.51,11T57,7.39Z"/><path class="cls-3" d="M115.19,56.46q-.63-6.18-1.85-12.22a99.37,99.37,0,0,0-3-11.49q-3.16-10-8.28-15.1a15.93,15.93,0,0,0-11.54-5.1,20.9,20.9,0,0,0-8.85,1.85A24.41,24.41,0,0,0,74,20.33,66.18,66.18,0,0,0,66.38,31a126.66,126.66,0,0,0-6,11.59A106.55,106.55,0,0,0,55.94,54,82.31,82.31,0,0,0,53.26,64.7a52.79,52.79,0,0,0-.9,9.18q0,8.25,2.79,11.39c1.87,2.09,4.55,3.14,8.07,3.14a14.06,14.06,0,0,0,7-1.54,11.15,11.15,0,0,0,4.37-4.7A27.8,27.8,0,0,0,77,74.6c.42-2.18.78-4.56,1.1-7.11.43.05.84.11,1.27.15a57.83,57.83,0,0,0,9.07.21c.52,0,1-.08,1.49-.12.06,1.73.17,3.44.35,5.12q.73,7.22,3.85,10.36a11.4,11.4,0,0,0,8.48,3.14q6.23,0,9.7-4.12t3.48-13.61A120,120,0,0,0,115.19,56.46ZM93.05,50c-1.9,1.89-4.6,2.83-8.12,2.83a8.57,8.57,0,0,1-6.27-2.22,7.63,7.63,0,0,1-2.26-5.72A16.56,16.56,0,0,1,77.24,40a21.61,21.61,0,0,1,2.32-5,12.87,12.87,0,0,1,3.53-3.82,7.64,7.64,0,0,1,4.48-1.44,6.54,6.54,0,0,1,3.48,1,8.46,8.46,0,0,1,2.69,2.73,13.16,13.16,0,0,1,1.63,4,19.79,19.79,0,0,1,.53,4.58Q95.9,47.19,93.05,50Z"/><path class="cls-4" d="M165.47,58q-3.27-3.14-9.49-3.14A28,28,0,0,0,148.24,56a32.33,32.33,0,0,0-7.86,3.51,29.79,29.79,0,0,0-5.24,4.11q.77-4.26,1.34-8.9.74-6,1.22-12.32t.47-12.32a44.19,44.19,0,0,0-1-10,16.38,16.38,0,0,0-3.48-7.21,8.58,8.58,0,0,0-6.75-2.74A10.2,10.2,0,0,0,119.46,13q-3,2.94-4.38,10-.52,3.2-.94,8c-.29,3.19-.5,6.51-.64,9.94s-.21,6.67-.21,9.69q0,12.48,3,20.62t9.17,12.11q6.17,4,15.55,4a41.73,41.73,0,0,0,9.85-1.19,31,31,0,0,0,9-3.66A19.36,19.36,0,0,0,166.32,76a17.31,17.31,0,0,0,2.42-9.27Q168.74,61.1,165.47,58Z"/><path class="cls-5" d="M217.92,63.78q-3.54-2.18-10.6-2.17-3.37,0-7.32.36c-2.64.24-5.2.59-7.7,1a56.09,56.09,0,0,0-5.86,1.36,14.81,14.81,0,0,0,.85-3.57,23.31,23.31,0,0,0,0-5.41,14.52,14.52,0,0,0-.71-3.16c2.49.33,5,.63,7.46.84q4.85.4,9.17.41,8.64,0,12.23-2.47c2.39-1.65,3.58-3.65,3.58-6a6.56,6.56,0,0,0-3.16-5.52Q212.7,37.3,205,37.29q-3.06,0-6.85.3t-7.27.78c-1.57.21-3,.44-4.27.7a18.7,18.7,0,0,0,.89-5.19,16.56,16.56,0,0,0-.63-5.17c2.81.23,5.55.39,8.17.48q4.49.16,8,.16,9.58,0,14.13-2.68a8.84,8.84,0,0,0,4.53-8.14,9.26,9.26,0,0,0-3.9-8q-3.9-2.79-13.6-2.79a103,103,0,0,0-13.23.83,43.66,43.66,0,0,0-11.28,2.88A18.21,18.21,0,0,0,172,17.08a22.62,22.62,0,0,0-3.16,6.39,50.85,50.85,0,0,0-2.11,10.47A146.07,146.07,0,0,0,166,50.27a106.17,106.17,0,0,0,1,16.55,29.68,29.68,0,0,0,3.11,9.74,14.55,14.55,0,0,0,7.54,5.67,37.85,37.85,0,0,0,13.12,2,86.34,86.34,0,0,0,8.91-.46,75.81,75.81,0,0,0,8.49-1.34,34.52,34.52,0,0,0,6.74-2.11A11.77,11.77,0,0,0,220,76.4a9.66,9.66,0,0,0,1.48-5.51Q221.45,65.94,217.92,63.78Z"/><path class="cls-2" d="M233.68,12.34A13.87,13.87,0,0,1,241,14.45a24.33,24.33,0,0,1,6.9,7,91.73,91.73,0,0,1,7.28,13q3.84,8.14,8.48,20.1H264c-.36-2-.67-4.19-1-6.59s-.55-4.85-.79-7.32-.44-4.81-.58-7-.21-4.06-.21-5.57q0-8.76,2.42-12.62A7.83,7.83,0,0,1,271,11.62a7,7,0,0,1,5.38,2.16,18.57,18.57,0,0,1,3.48,6.29,64.51,64.51,0,0,1,3.27,14.18,145.34,145.34,0,0,1,1.26,19.84q0,15.55-3.21,23T269.73,84.6a16.2,16.2,0,0,1-8.12-2.22,24.74,24.74,0,0,1-7.43-7,67.57,67.57,0,0,1-7-12.42,181.06,181.06,0,0,1-7.06-18.7h-.43q.42,2.56.69,6.23t.47,7.53c.14,2.57.22,5,.22,7.16q0,10.31-2.75,14.69t-8.53,4.38q-6.22,0-8.86-4.59t-2.64-14q0-4.64.27-10.41t.84-11.9q.59-6.14,1.21-11.7,1.17-9.69,4.17-14.53A9.82,9.82,0,0,1,233.68,12.34Z"/><path class="cls-3" d="M336.83,11.41a16.36,16.36,0,0,0-6.49-4.79,33.47,33.47,0,0,0-8.9-2.32,77.58,77.58,0,0,0-9.65-.62,85.61,85.61,0,0,0-11.54.78,39.07,39.07,0,0,0-10.39,2.78,19.61,19.61,0,0,0-7.48,5.46,13.41,13.41,0,0,0-2.85,8.82,8.6,8.6,0,0,0,4.22,7.78q4.22,2.63,14.34,2.63a36.28,36.28,0,0,0,5.11-.42l.19,0c-.51,1.23-1,2.52-1.51,3.9-1.12,3.13-2.13,6.37-3,9.74A97.73,97.73,0,0,0,296.82,55a57,57,0,0,0-.74,8.51q0,9.48,3.8,14.12t11.28,4.64q6.52,0,9.38-4.44t2.85-12.67a74.49,74.49,0,0,0-.53-8.1q-.53-4.68-1.48-10.05T319,36.41q-.74-2.7-1.58-5.16h.05a36.91,36.91,0,0,0,4.22.25q8.85,0,13.23-3.24a10.32,10.32,0,0,0,4.37-8.71A12.67,12.67,0,0,0,336.83,11.41Z"/><path class="cls-4" d="M386.58,63.78q-3.52-2.18-10.59-2.17-3.37,0-7.33.36c-2.63.24-5.2.59-7.69,1a55.72,55.72,0,0,0-5.87,1.36,14.36,14.36,0,0,0,.86-3.57,23.31,23.31,0,0,0,0-5.41,14.51,14.51,0,0,0-.72-3.16c2.49.33,5,.63,7.47.84,3.23.27,6.28.41,9.17.41q8.64,0,12.23-2.47c2.38-1.65,3.58-3.65,3.58-6a6.56,6.56,0,0,0-3.16-5.52q-3.16-2.2-10.86-2.21-3.06,0-6.85.3t-7.28.78c-1.57.21-3,.44-4.26.7a19.07,19.07,0,0,0,.89-5.19,16.57,16.57,0,0,0-.64-5.17q4.23.34,8.18.48c3,.11,5.64.16,8,.16q9.58,0,14.12-2.68a8.85,8.85,0,0,0,4.54-8.14,9.26,9.26,0,0,0-3.91-8q-3.9-2.79-13.59-2.79a103,103,0,0,0-13.23.83,43.45,43.45,0,0,0-11.28,2.88,18.31,18.31,0,0,0-7.65,5.67,22.89,22.89,0,0,0-3.16,6.39,51.52,51.52,0,0,0-2.11,10.47,148.53,148.53,0,0,0-.74,16.33,106,106,0,0,0,1,16.55,29.44,29.44,0,0,0,3.11,9.74,14.48,14.48,0,0,0,7.53,5.67,37.91,37.91,0,0,0,13.13,2,86.34,86.34,0,0,0,8.91-.46,75.63,75.63,0,0,0,8.48-1.34,34.64,34.64,0,0,0,6.75-2.11,11.83,11.83,0,0,0,5.06-3.87,9.73,9.73,0,0,0,1.47-5.51C390.11,67.59,388.94,65.22,386.58,63.78Z"/></svg>