<svg width="44" height="44" viewBox="0 0 44 44" fill="none" xmlns="http://www.w3.org/2000/svg">
<path d="M22 44C34.1503 44 44 34.1503 44 22C44 9.84974 34.1503 0 22 0C9.84974 0 0 9.84974 0 22C0 34.1503 9.84974 44 22 44Z" fill="#70B9D6"/>
<path d="M30.569 7.55246H16.1782C15.3006 7.55337 14.4592 7.9024 13.8386 8.52295C13.2181 9.14351 12.869 9.98491 12.8681 10.8625V15.147H15.4461V10.8625C15.4463 10.6684 15.5235 10.4823 15.6607 10.3451C15.798 10.2078 15.9841 10.1306 16.1782 10.1304H30.569C30.7631 10.1306 30.9492 10.2078 31.0865 10.3451C31.2237 10.4823 31.3009 10.6684 31.3011 10.8625V33.1762C31.3009 33.3703 31.2237 33.5563 31.0865 33.6936C30.9492 33.8309 30.7631 33.9081 30.569 33.9083H16.1782C15.9841 33.9081 15.798 33.8309 15.6607 33.6936C15.5235 33.5563 15.4463 33.3703 15.4461 33.1762V28.7868H12.8681V33.1796C12.869 34.0572 13.2181 34.8986 13.8386 35.5192C14.4592 36.1397 15.3006 36.4887 16.1782 36.4897H30.569C31.4466 36.4887 32.288 36.1397 32.9086 35.5192C33.5291 34.8986 33.8782 34.0572 33.8791 33.1796V10.8625C33.8782 9.98491 33.5291 9.14351 32.9086 8.52295C32.288 7.9024 31.4466 7.55337 30.569 7.55246Z" fill="white"/>
<path d="M16.631 25.6185C16.5126 25.7396 16.4191 25.8828 16.3559 26.0399C16.2928 26.1971 16.2612 26.3651 16.263 26.5345C16.2648 26.7039 16.2999 26.8712 16.3664 27.027C16.4328 27.1828 16.5294 27.3239 16.6504 27.4424C16.8948 27.6817 17.2243 27.8141 17.5663 27.8105C17.7357 27.8087 17.903 27.7736 18.0588 27.7071C18.2146 27.6406 18.3558 27.5441 18.4743 27.4231L22.9212 22.8739C22.9487 22.8456 22.9745 22.8155 22.9994 22.788L23.0174 22.7639C23.0346 22.7416 23.0518 22.7184 23.0673 22.6952C23.0827 22.672 23.0827 22.6728 23.0896 22.6608C23.0965 22.6488 23.118 22.6135 23.1308 22.5895C23.1369 22.5783 23.1437 22.5671 23.1489 22.556C23.1626 22.5285 23.1755 22.501 23.1876 22.47V22.4615C23.1936 22.4468 23.1987 22.4322 23.2039 22.4176C23.209 22.403 23.2194 22.3747 23.2262 22.3523C23.2331 22.33 23.2348 22.324 23.2383 22.3094C23.2417 22.2947 23.2512 22.2578 23.2563 22.232C23.2563 22.2217 23.2606 22.2114 23.2632 22.2011C23.2692 22.1641 23.2744 22.128 23.2778 22.0911C23.2778 22.0834 23.2778 22.0756 23.2778 22.0679C23.2778 22.0378 23.2778 22.0077 23.2778 21.9777C23.2778 21.9665 23.2778 21.9553 23.2778 21.9441C23.2778 21.9158 23.2778 21.8883 23.2735 21.8582V21.8281C23.2692 21.7912 23.2632 21.7551 23.2563 21.7199C23.2563 21.7104 23.252 21.7018 23.2494 21.6924C23.2434 21.6657 23.2374 21.6391 23.2297 21.6125C23.2254 21.5987 23.2211 21.585 23.2159 21.5712C23.2108 21.5575 23.2005 21.5265 23.1919 21.5042L23.1764 21.4647C23.1626 21.432 23.1472 21.4002 23.1308 21.3693C23.1248 21.359 23.1188 21.3495 23.1137 21.3392C23.0999 21.316 23.0862 21.2928 23.0716 21.2704L23.0484 21.2361C23.032 21.2129 23.0148 21.1905 22.9977 21.1682L22.9779 21.1441C22.9547 21.1166 22.9298 21.0891 22.904 21.0634L18.5696 16.7178C18.3265 16.483 18.0009 16.3531 17.663 16.3561C17.325 16.359 17.0017 16.4946 16.7628 16.7335C16.5238 16.9725 16.3882 17.2958 16.3853 17.6338C16.3823 17.9717 16.5123 18.2973 16.7471 18.5404L18.8884 20.6818H4.83275C4.49089 20.6818 4.16304 20.8176 3.92131 21.0594C3.67959 21.3011 3.54379 21.6289 3.54379 21.9708C3.54379 22.3126 3.67959 22.6405 3.92131 22.8822C4.16304 23.1239 4.49089 23.2597 4.83275 23.2597H18.9374L16.631 25.6185Z" fill="white"/>
</svg>
