<?xml version="1.0" encoding="utf-8"?>
<!-- Generator: Adobe Illustrator 24.0.1, SVG Export Plug-In . SVG Version: 6.00 Build 0)  -->
<svg version="1.1" id="Camada_1" xmlns="http://www.w3.org/2000/svg" xmlns:xlink="http://www.w3.org/1999/xlink" x="0px" y="0px"
	 viewBox="0 0 1080.3 1924" style="enable-background:new 0 0 1080.3 1924;" xml:space="preserve">
<style type="text/css">
	.st0{fill:#F9F5EA;}
	.st1{opacity:0.3;clip-path:url(#SVGID_2_);}
	.st2{opacity:0.5;}
	.st3{fill:#4D352D;}
</style>
<title>Tela-inicial</title>
<g>
	<g id="Camada_1_1_">
		<rect y="0" class="st0" width="1080" height="1924"/>
		<g>
			<defs>
				<rect id="SVGID_1_" y="0" width="1080" height="1924"/>
			</defs>
			<clipPath id="SVGID_2_">
				<use xlink:href="#SVGID_1_"  style="overflow:visible;"/>
			</clipPath>
			<g class="st1">
				<g class="st2">
					<path class="st3" d="M1705.7,1965.1c-1.4-8.1-3.4-16-5.3-23.6c-0.8-3.3-1.7-6.6-2.5-9.9l-8.6-21.3l-1-2
						c-1.5-2.3-2.9-4.7-4.3-7.1c-3.3-5.7-7-11.3-10.9-16.6c-25.6-33.4-61.4-51.6-106.3-54.1c-18.5-1-37.3,0.5-58.4,5
						c17.2-21.3,27.5-43.1,31.8-67.1c11.7-65.2-8.4-122.6-59.8-170.5c-28-26.2-63.2-39.3-107.5-40c-36.3-0.6-70.3,7.8-98.8,16.1
						c-42.4,12.2-82.4,31.7-118.2,57.7c2.4-8.5,4.7-17.1,6.8-25.8c12.6-53,18.6-102.3,18.3-150.7c-0.2-38.5-9.7-72.7-28-101.8
						c-30.5-48.2-72.7-92.4-129.3-92.5c-132-0.1-175.6,89.9-175.6,89.9s-28.3-67.7-140.1-75.2c-59-4-114.7,38.4-131.1,70.9
						c-7.4,10.4-13.8,21.4-19.1,33.1c-31.7,69.9-45.5,144.7-41,222.3c0.1,1.9,0.3,3.8,0.4,5.7c-38.1-43.4-78.2-79-122.1-108.3
						c-29.9-20-58.6-30-87.8-30.8c-53.1-1.4-100.6,18.8-141.2,60c-52,52.8-60.7,124.8-23.1,192.7c8.6,15.3,18.5,29.8,29.7,43.4
						c-36.6-7.5-69.8-1.8-98.8,17c-52.5,34.2-79.2,86.3-79.3,155c0,36.9,12,72.6,36.8,109c43.8,64.5,97.2,113.4,159.1,145.9
						c-54.8,13.3-104.1,32.9-149.6,59.4c-25,14.6-43.7,31.4-57.2,51.7c-30.5,45.6-40.8,99.4-30.8,159.9c1.3,7.7,3.1,15.1,4.9,22.3
						c0.8,3.2,1.6,6.4,2.3,9.5l9.9,24.4l2.2,3.9c1.3,2,2.5,4,3.7,6c22,37,54.9,59.5,97.8,66.6c23.8,4,48.2,3,77-3.1
						c-17.8,22.3-28.7,46.2-33.2,72.5c-11.4,66.9,21,140.5,78.8,179.1c28.3,18.9,61.5,27.4,101.4,26.1c32.4-1.1,63.4-9.1,89.4-16.7
						c41.5-12.2,80.6-31.4,115.5-56.8c-1.4,4.9-2.7,9.8-3.9,14.7c-14.1,56.1-21,108.5-20.9,160.3c0,36.6,7.7,67.7,23.3,94.9
						c31.5,54.8,78.5,89,139.9,101.6c25.5,5.3,50.1,2.9,73.2-6.9c28.3-12.1,50.7-32.8,68.5-63.3c9.6-16.4,17.3-34.2,23.7-55.2
						c10.2,30.1,26.6,54.6,48.9,72.7c38.6,31.4,88.4,40.8,133.8,29.8c32.5-7.8,61.6-25.8,83.1-51.5c21.6-25.9,37.4-57.6,49.6-99.8
						c18-61.9,24.4-118.7,19.8-173.4c37.4,42.6,77.1,77.9,120.4,107.1c30.8,20.8,60.3,31.2,90.2,31.9c50.1,1.2,95.6-17.4,135.4-55
						c25.6-24.2,41.2-50.6,47.8-80.9c8.8-40.3,1.4-80.4-22.8-122.5c-7.7-13.3-16.5-25.9-26.3-37.7c33.9,6.9,64,2.6,91.5-13.1
						c54.8-31.2,83.8-82.6,86.5-152.9c1.4-38.8-10.6-76.4-36.8-115c-43.8-64.6-97.3-113.6-159.3-146c53.7-13,102.2-32.2,147.5-58.1
						c28.7-16.5,49.7-36.2,64.2-60.4C1706.5,2073.3,1715.3,2021.8,1705.7,1965.1z M1045.5,1315.7c30.4,10.2,52.6,26.7,67.7,50.5
						c11.9,18.6,17.7,40.8,18.5,69.9c1,39.4-4.8,78-9.9,107.2c-10,57.4-28.1,115.5-54.3,173.7c-2.2,4.8-6.8,14.7,0,25.4
						c5.5,8.7,12.8,18,25.3,20.8c7.8,1.7,15.1-3.6,19-8.5c18.8-24,40.1-46,63.7-65.4c37.9-30.9,81.8-53.6,129-66.3
						c27.5-7.6,52.2-13.8,77.6-13.2c14.4,0.2,28.8,2,42.8,5.2c29.4,7,50.1,27.6,61.8,61.3c15,43.7,8,84.3-20.9,120.6
						c-16.6,20.9-37.2,36.9-63,54.4c-34.3,23.3-75.5,46.5-110.3,62c-56.8,25.8-105.3,45.3-157.1,63.3c-41.3,14.4-79,26.8-115.2,38
						c-26.9,8.3-54.8,15.3-81.1,21.7c-11,2.6-13.1,2.6-16.9-11.8l-1-3.6c-0.3-1.2-0.7-2.4-1-3.7c-17-67.6-25.7-136-31.9-194.1
						c-9.7-90-13.4-164.3-11.4-233.8c1.2-44.1,4.4-102,18.4-158.3c8.2-32.7,18.6-57,33-76.7C958.6,1312.8,998,1299.8,1045.5,1315.7z
						 M178.5,1600.2c7.3-26.1,22.9-47.9,47.7-66.8c13.4-10.2,26.9-17,40.8-20.3c24-5.8,48.8-1.2,75,13.6
						c36.3,20.5,67.8,49,93.8,74.1c39.8,38.4,75.3,82.9,108.4,135.9c8,12.8,18.9,11.9,23.3,10.9c6.5-1.4,12.8-3.5,18.8-6.3
						c8.4-3.8,14.7-13.7,10.1-27.1c-12.6-36.2-20.7-73.8-24.3-111.9c-5-53.5,1.6-109.5,20-171.1c9-30.1,21-54.9,36.8-75.8
						c38.2-50.6,91.7-31.6,107.2-24.6c28.3,12.8,47.7,34,61.2,66.7c8.2,20.7,13.2,47.1,15.6,83.2c4.1,61.2,1.2,126.3-9,205
						c-14.8,113.7-34.3,217.1-59.9,316c-1.8,7.6-4.1,15.2-6.7,22.5c-3.5,9.1-5,8.6-10.5,6.8l-16.2-5.2
						c-19.8-6.3-40.3-12.8-59.8-20.6c-96.5-38.9-187.2-85-269.5-137c-57.7-36.4-99.5-68.6-135.4-104.2c-18.2-18-38.6-40-52.3-66.9
						l0,0C174.9,1660.9,170.1,1630.1,178.5,1600.2L178.5,1600.2z M66.4,2532.5c-33-10.5-55.2-33.1-67.8-69
						c-10.4-29.7-12.5-57.4-6.5-84.8c5.8-26.4,20.9-48.1,46-66.1c18.4-13.2,38.8-22.9,58.2-31.4c31.5-13.9,64.2-24.9,97.6-32.9
						c32.6-7.8,65.8-13,99.3-15.6l3.4-0.3c2.9-0.3,5.8-0.5,8.7-0.5c9.9,0.3,17.7-5.2,21.6-15c1.8-4.2,3.1-8.6,3.8-13.1
						c2.6-20-2.8-28.4-20.7-32.1c-66.7-13.9-124.9-42.9-173-86.3c-37.2-33.5-61.8-62.3-79.9-93.5c-14.5-24.9-21.7-46.5-22.8-68
						c-1.1-23,6.3-44.2,22.6-64.6c24-29.9,55.3-43,92.9-38.8c27.5,3,53,15,74.3,26.3c52.5,27.8,104.9,64.8,165.2,116.3
						c85.4,73.1,160,145.6,228.3,221.6c4.9,5.3,9.5,10.9,13.7,16.7c5.4,7.8,4.5,9.2-0.4,14.6c-14.9,16.3-27.6,29.4-40.1,41.3
						c-45.6,43.4-98.4,86.4-161.4,131.3c-31.8,22.7-66.3,45.5-105.4,69.7c-19.7,12.2-40.9,22.9-61.5,33.3l-12.3,6.3
						c-28.6,14.5-58.7,25.9-89.7,33.9C124.1,2541.4,94.5,2541.5,66.4,2532.5z M781.5,2836.8c-1.1,64.7-7.3,116.6-19.3,163.5
						c-8.3,32.4-19.3,56.7-34.6,76.7c-28.6,37.4-64.3,49.4-109.1,36.7c-32.6-9.3-56.5-26.1-73-51.6c-11.2-17.3-17.1-37.8-18.6-64.6
						c-1.7-30.5,1.5-60.4,6.8-95.9c9.6-64.2,28.9-128.6,57.5-191.5c6.2-13.6,1.7-23.2-3.1-28.9c-3.9-4.7-8.3-9-13.1-12.7
						c-5.7-4.2-11.1-5.7-16.2-4.4c-4.4,1.1-8.5,4.1-12.5,9.1c-19.5,25.2-41.9,48-66.7,67.9c-34.5,27.6-74,48.3-116.4,60.9
						c-25.6,7.5-53,15-81.4,16.1c-23,0.9-41.7-1.8-59-8.6c-22.1-8.7-37.9-25.3-48.3-50.8c-18.8-46.1-13.1-87.6,17.3-126.9
						c16.1-20.8,36.5-36.8,62.2-54.3c30.5-20.7,62.4-39.1,95.7-55.1c6.5-3.1,13.2-6.1,19.8-9.1l20.4-9.4l-0.4-1
						c9.3-3.7,18.7-7.4,28.1-11.2c29.5-11.8,60.1-24,90.3-35.3c74.6-27.7,142-48.8,207.5-64.2c5-1,10.1-1.3,15.2-0.8
						c0.9,0.1,1.6,0.4,2,1.8l3.3,12c4.2,15.1,8.6,30.8,11.5,46.2C772.2,2583,783.7,2712.6,781.5,2836.8L781.5,2836.8z M819.2,2615.8
						c-4.2-39.8-9.2-76.1-15.2-110.4c-5.5-31.6-12.3-62.7-18.8-91.9c-1.4-5.9-3.2-11.6-5.3-17.3c7.2-3.9,12.2-9.8,15.4-13.8
						c5.5-6.5,12.7-12,20.4-17.7l5.6-4.3c8.6-6.6,11.1-15.8,6.9-25.9s-11.5-24.2-27.1-32.4c-2.3-1.5-4.5-3.2-6.4-5.1
						c-1.9-1.7-3.8-3.4-5.7-5l-2.4-1.9c-3.5-2.9-7.5-6.2-12.8-8.2c-14.5-5.5-30-6.7-46.1-3.5c-13.4,2.7-21,11.8-22,25.7
						c-0.7,10.5-3.8,20.6-9.1,29.7c-1.3,2.2-2.2,4.5-2.8,7c-41,8.6-85,21.3-137.7,39.5c-20.3,7-40.6,14.2-60.9,21.4
						c54.9-42.2,101-82.6,142.5-124.7c6.3-6.6,12.3-13.5,17.9-20.6c4.6,3.4,10,5.7,15.6,6.4c5,0.8,10.4,3,16.8,5.7
						c5.1,2.1,10.1,4.7,15,7.2l4.5,2.3c8.6,4.3,17.5,1.8,23.2-6.6c6.8-9.9,14.5-23.7,12.8-42.4c-0.4-4,0.6-9.1,1.5-13
						c2.8-11.9,2-22.7-2.2-32.2c-4.3-9.7-9-20-15-29.8c-8.5-13.9-21.2-17.8-35.6-11c-8.7,4.2-18.4,6.1-28,5.4
						c-2.3-0.1-4.5,0.1-6.7,0.8c-27.3-33.1-59.4-67.1-102.9-109.2c-15.3-14.8-30.8-29.5-46.3-44.1c29.1,14.2,56.5,26.5,83.4,37.6
						c25.9,10.7,53,20.9,82.9,31.4c10,3.5,20.2,5.8,30.2,8.1l0.6,0.1c-0.4,7.3,1.2,14.3,3.2,21c2.5,8.1,3.4,17.1,4.4,26.6
						c0.3,3,0.6,6,1,9c1.6,13.5,6.7,18.9,19.4,20.5c14.8,1.8,27.4-1.1,38.4-9c2.2-1.3,4.6-2.4,7.1-3.3c2.3-0.9,4.7-1.8,6.9-2.9
						l2.5-1.2c3.9-1.8,8.7-3.9,13-7.7c10.9-9.8,19.3-23.2,24.9-39.9c4.7-13.9,1.3-25.3-10-34c-8.2-6.3-14.9-14.5-19.4-23.8
						c-1.1-2.2-2.6-4.3-4.3-6.1c19.7-68.7,34-139.8,46.5-210.5c5.3,50.2,12,95.8,20.4,139.6c4.4,22.9,10,45.7,15.5,67.8l1.3,5.4
						c0.6,2.3,1.3,4.5,2.1,6.7c-7,4-12.2,10.2-16.6,15.4s-10.4,9.7-16.7,14.4c-2.1,1.6-4.3,3.2-6.3,4.8
						c-11.5,8.9-13.3,16.1-7.6,29.7c5.8,13.8,14.5,23.7,26.7,30.3c2,1.3,3.8,2.7,5.4,4.4c2,1.9,4.1,3.7,6.3,5.4c1,0.7,2,1.5,2.9,2.3
						c4.4,3.5,9.9,7.8,16.8,9.1c11.9,2.3,24.1,3.3,36.3,2.8c16.6-0.7,25.7-10.4,27.3-29c0.7-8.9,3.4-17.6,7.8-25.4
						c1.5-2.7,2.6-5.5,3.4-8.5c67-15.3,132.9-36.8,197.1-59.8c-54.6,42.1-100.5,82.5-141.9,124.4c-5.9,6.2-11.5,12.7-16.7,19.4
						c-4.8-3.6-11.1-6.3-19.5-7c-2.4-0.2-5.8-1.8-9.2-3.3l-2-0.9c-3-1.4-6-2.9-9.1-4.4c-4.3-2.2-8.6-4.3-12.9-6.1
						c-7.1-3-16.7-0.4-21.5,5.8c-6.7,8.8-15.5,22.6-13.7,42.1c0.4,3.4,0.2,6.8-0.6,10.1c-4.1,13.9-3.1,28,3.1,42
						c3.8,8.7,8.4,17,13.7,24.9c8.9,13.3,20.9,16.6,35.4,9.8c8-3.8,16.8-5.5,25.6-5.1c2.8,0.1,5.6-0.2,8.4-0.9
						c46.6,54.7,97.2,104.9,148.3,153c-60-29.2-115.5-52.2-168.9-69.8c-8.8-2.7-17.7-5-26.7-6.8c0.5-6.3-0.8-12.1-2.4-17.4
						c-2.1-6.9-3.2-14.4-4.4-22.3c-0.5-3.2-1-6.4-1.5-9.5c-0.4-2.3-0.7-4.7-0.7-7c0-11.6-6.6-19.4-17.8-20.9
						c-16-2.1-29.3,1-40.6,9.4c-1.7,1-3.5,1.8-5.4,2.4c-2.3,0.8-4.6,1.8-6.8,2.9l-3.4,1.6c-4.8,2.3-10.2,4.9-15,9.2
						c-9.7,8.9-17.2,20.9-22.8,36.5c-5.4,15.3-2.1,26.9,10.4,36.4c7.2,5.5,13,12.6,17.8,21.9c1.4,2.6,3.1,5,5,7.1
						C846.1,2473.8,831.7,2545,819.2,2615.8z M1471.4,2848.9c-12.7,24-31.4,42.9-55.8,56.2c-25.8,14.1-52.3,15.9-78.5,5.4
						c-13.2-5.2-25.8-11.9-37.6-19.8c-41.6-28.2-80.2-63.3-117.9-107.2c-23.5-27.4-45.8-57.7-68.2-92.9
						c-3.7-5.8-11.9-11.3-19.8-10.2c-7.4,1.1-14.6,3.2-21.5,6.2c-8.2,3.5-14.9,13.4-10.3,26.8c18.4,53,26.8,103.2,25.8,153.4
						c-1.3,62.4-14.3,120.9-38.6,173.7c-5.5,11.9-13.4,23.2-19.7,31.7c-19.1,25.8-44,36.7-76.2,33.3c-43-4.5-81.2-37.8-94.9-82.8
						c-10.7-35.1-13.5-71-14.3-114.2c-1.5-73.7,7.4-146.3,15.3-201.2c14.4-100.7,32.2-191.7,54.5-278.4c2-7.6,3.8-14.8,6.2-21.8
						c1.3-3.5,2.9-6.8,5-9.9c0.5-0.8,0.8-1.1,1.1-1.1c0.3,0,0.6,0,0.9,0.1l5.6,1.5c13.7,3.7,27.9,7.6,41.3,12.3
						c66.3,23.1,130.5,54.5,184.7,82.2c72.1,36.9,133.3,74.3,187,114.6c40.9,30.6,71.2,58.7,95.3,88.2c6.5,8,12.5,16.4,17.9,25.2
						l0,0c3.5,5.6,6.5,11.6,9.7,17.9c1.4,2.7,2.8,5.4,4.2,8.1C1488,2784.7,1487.6,2818.3,1471.4,2848.9L1471.4,2848.9z M1623.2,2113
						c-18,13.4-38.1,23.1-55.4,31c-65.3,29.8-137.1,47.2-213.4,51.7c-12.8,0.8-21.5,8-25.2,21.5c-0.6,2.1-1.2,4.3-1.6,6.4
						c-3.3,18.9,2.8,28.6,20.5,32.2c98.2,20.3,180.3,76,244,165.5c13.4,18.6,23.2,39.6,28.9,61.8c7.8,30.7,1.4,58.5-19.6,85
						c-24,30.3-55.5,43.4-93.7,39c-28.6-3.3-55.3-16.1-79.8-29.4c-50.6-27.5-101.2-63.5-159.3-113.2
						c-87.1-74.6-162.4-147.9-230.3-224.1c-5.6-6.4-10.6-13.4-14.8-20.8c-0.9-1.6-0.6-2.5,0.3-3.4l8.7-9.5
						c11.4-12.4,23.1-25.3,35.3-36.8c52.4-49.4,112.6-97.4,189.4-151.2c38.5-27.1,78.6-51.7,120.1-73.8
						c47.3-25.1,85.9-40.7,123-49.6c4.7-1.1,9.3-2.1,13.9-3.1c31.7-6.3,59.8-4.3,86,6c23.1,9.1,40.2,25.2,52.4,49.1
						c10.7,21,16.3,44.4,16.8,69.6C1670.2,2057.9,1655.1,2089.2,1623.2,2113z"/>
					<path class="st3" d="M2545.9,251.6c-1.4-8.1-3.4-16-5.3-23.5c-0.9-3.3-1.7-6.6-2.5-9.9l-8.6-21.3l-1.1-2
						c-1.5-2.3-2.9-4.7-4.4-7.1c-3.3-5.7-7-11.3-10.9-16.6c-25.6-33.4-61.4-51.6-106.3-54.1c-18.5-1-37.3,0.5-58.4,5
						c17.2-21.3,27.5-43.1,31.8-67.1c11.7-65.2-8.4-122.6-59.8-170.5c-28-26.1-63.2-39.2-107.5-40c-36.3-0.6-70.3,7.8-98.8,16.1
						c-42.4,12.2-82.4,31.7-118.1,57.7c2.4-8.5,4.7-17.1,6.8-25.8c12.6-53,18.6-102.3,18.3-150.7c-0.2-38.5-9.7-72.7-28-101.8
						c-30.4-48.2-72.7-92.4-129.3-92.5c-132-0.1-175.6,89.9-175.6,89.9s-28.3-67.7-140.1-75.2c-59-4-114.7,38.4-131.1,70.9
						c-7.4,10.4-13.8,21.4-19.1,33.1c-31.7,69.9-45.5,144.6-41,222.3c0.1,1.9,0.3,3.8,0.4,5.7c-38.1-43.4-78.2-79-122.2-108.3
						c-29.9-20-58.6-30-87.8-30.8c-53.1-1.4-100.6,18.8-141.2,60C954.1-132.4,945.5-60.3,983,7.6c8.6,15.3,18.5,29.9,29.7,43.4
						c-36.6-7.5-69.8-1.8-98.8,17c-52.5,34.2-79.2,86.3-79.3,155c0,36.9,12,72.5,36.8,109c43.8,64.4,97.3,113.4,159.2,145.9
						c-54.8,13.3-104.1,32.9-149.7,59.4c-25,14.5-43.7,31.5-57.2,51.7c-30.5,45.6-40.8,99.4-30.8,159.9c1.3,7.7,3.1,15.1,4.9,22.3
						c0.8,3.2,1.6,6.4,2.3,9.5l9.9,24.5l2.2,3.9c1.3,2,2.5,4,3.7,6c22,37,54.9,59.5,97.7,66.6c23.8,4,48.2,3,77-3.1
						c-17.8,22.3-28.7,46.2-33.2,72.5c-11.4,66.9,21,140.5,78.8,179.1c28.3,18.9,61.5,27.4,101.4,26.1c32.4-1.1,63.4-9.1,89.4-16.7
						c41.5-12.2,80.6-31.4,115.5-56.8c-1.4,4.9-2.7,9.8-3.9,14.7c-14.1,56.1-21,108.5-20.9,160.3c0,36.6,7.7,67.7,23.3,95
						c31.5,54.8,78.5,89,139.9,101.7c25.5,5.3,50.1,2.9,73.2-6.9c28.3-12.1,50.7-32.8,68.5-63.3c9.6-16.4,17.3-34.2,23.7-55.2
						c10.2,30.2,26.6,54.6,48.9,72.7c38.6,31.3,88.4,40.8,133.8,29.8c32.5-7.8,61.6-25.8,83.1-51.5c21.6-25.9,37.4-57.6,49.6-99.8
						c18-61.9,24.4-118.7,19.8-173.4c37.4,42.6,77.1,77.9,120.4,107.2c30.8,20.8,60.3,31.2,90.2,31.9c50.1,1.2,95.6-17.4,135.4-55
						c25.6-24.2,41.2-50.6,47.8-80.8c8.8-40.3,1.4-80.4-22.8-122.5c-7.7-13.3-16.5-25.9-26.3-37.7c33.9,6.9,64,2.6,91.5-13.1
						c54.8-31.2,83.8-82.6,86.5-152.9c1.4-38.8-10.6-76.4-36.8-115c-43.8-64.6-97.3-113.6-159.3-146c53.7-13,102.2-32.2,147.5-58.1
						c28.7-16.5,49.7-36.2,64.2-60.4C2546.8,359.7,2555.5,308.3,2545.9,251.6z M1885.7-397.8c30.4,10.2,52.6,26.7,67.7,50.5
						c11.9,18.6,17.7,40.9,18.5,69.9c1,39.4-4.8,78-9.9,107.2c-10,57.4-28.1,115.5-54.3,173.7c-2.2,4.8-6.8,14.7,0,25.4
						c5.5,8.7,12.8,18,25.3,20.8c7.7,1.7,15.1-3.5,19-8.5c18.8-24,40.1-46,63.7-65.4c37.9-31,81.9-53.6,129.1-66.4
						c27.5-7.6,52.2-13.8,77.6-13.2c14.4,0.2,28.8,2,42.9,5.2c29.4,7,50.1,27.6,61.8,61.3c15,43.7,8,84.3-20.9,120.6
						c-16.6,20.9-37.2,36.8-63,54.4c-34.3,23.3-75.5,46.5-110.3,62c-56.9,25.8-105.3,45.3-157.1,63.3c-41.3,14.4-79,26.8-115.2,38
						c-26.9,8.3-54.8,15.3-81.1,21.7c-11,2.5-13.1,2.6-16.9-11.8l-1-3.6c-0.3-1.2-0.7-2.5-1-3.7c-17-67.6-25.7-136-31.9-194.1
						c-9.7-90-13.4-164.4-11.4-233.8c1.2-44.1,4.4-102,18.4-158.4c8.2-32.7,18.6-57,33-76.7C1798.8-400.7,1838.2-413.7,1885.7-397.8
						z M1018.7-113.4c7.3-26,22.9-47.9,47.7-66.8c13.4-10.2,27-17,40.8-20.3c24-5.8,48.8-1.2,75,13.6c36.3,20.5,67.8,49,93.8,74.1
						c39.8,38.4,75.3,82.9,108.4,135.9c8,12.8,18.9,11.9,23.3,10.9c6.5-1.4,12.8-3.5,18.8-6.3c8.4-3.8,14.7-13.7,10.1-27.1
						c-12.6-36.2-20.7-73.8-24.3-111.9c-4.9-53.5,1.6-109.5,20-171.1c9-30.1,21-54.9,36.8-75.8c38.2-50.6,91.7-31.6,107.2-24.6
						c28.3,12.8,47.7,34,61.2,66.6c8.2,20.7,13.2,47.1,15.6,83.2c4.1,61.2,1.2,126.3-9,205c-14.8,113.7-34.3,217.1-59.9,316
						c-1.8,7.6-4.1,15.2-6.7,22.5c-3.4,9.1-5,8.6-10.5,6.8l-16.2-5.1c-19.8-6.3-40.3-12.8-59.8-20.6c-96.6-38.9-187.2-85-269.5-137
						c-57.7-36.4-99.5-68.6-135.4-104.2c-18.2-18-38.6-40-52.3-66.9l0,0C1015.1-52.7,1010.3-83.5,1018.7-113.4L1018.7-113.4z
						 M906.6,819c-33-10.5-55.2-33.1-67.8-69c-10.4-29.7-12.5-57.4-6.5-84.8c5.8-26.4,20.9-48,46-66.1
						c18.4-13.2,38.8-22.9,58.2-31.3c31.5-13.9,64.1-24.9,97.6-32.9c32.6-7.8,65.8-13,99.3-15.6l3.4-0.3c2.9-0.3,5.8-0.5,8.7-0.5
						c9.9,0.3,17.7-5.2,21.6-15c1.8-4.2,3.1-8.6,3.8-13.1c2.6-20-2.8-28.4-20.7-32.1c-66.7-13.9-125-42.9-173-86.3
						c-37.1-33.5-61.7-62.3-79.8-93.5c-14.5-24.9-21.7-46.5-22.8-68c-1.1-23.1,6.3-44.2,22.6-64.6c24-29.9,55.3-43,92.9-38.8
						c27.5,3,53,15,74.3,26.3c52.5,27.8,104.9,64.8,165.2,116.4c85.4,73.1,160.1,145.6,228.3,221.6c4.9,5.3,9.5,10.9,13.7,16.8
						c5.4,7.8,4.6,9.2-0.4,14.6c-14.9,16.3-27.6,29.4-40.1,41.3c-45.6,43.4-98.4,86.3-161.4,131.3c-31.8,22.7-66.3,45.5-105.4,69.7
						c-19.7,12.2-40.9,22.9-61.5,33.3l-12.3,6.3c-28.6,14.5-58.7,25.9-89.7,33.9C964.3,827.8,934.8,827.9,906.6,819z M1621.7,1123.3
						c-1.2,64.7-7.3,116.7-19.3,163.5c-8.3,32.4-19.3,56.7-34.6,76.7c-28.6,37.4-64.3,49.4-109.1,36.7c-32.6-9.3-56.5-26.1-73-51.6
						c-11.2-17.3-17.1-37.8-18.6-64.6c-1.7-30.5,1.5-60.4,6.8-95.9c9.6-64.2,28.9-128.6,57.5-191.5c6.2-13.7,1.7-23.2-3.2-28.9
						c-3.8-4.7-8.2-9-13-12.7c-5.7-4.2-11.1-5.7-16.2-4.4c-4.4,1.1-8.5,4.1-12.5,9.1c-19.5,25.2-41.9,48-66.7,67.9
						c-35.3,28.1-74.5,48.6-116.4,60.9c-25.6,7.5-53,15-81.4,16.1c-23,0.9-41.7-1.8-59-8.6c-22.1-8.7-37.9-25.3-48.3-50.8
						c-18.8-46.1-13.1-87.6,17.3-126.9c16.1-20.8,36.5-36.8,62.2-54.3c30.5-20.7,62.4-39.1,95.7-55c6.5-3.2,13.2-6.1,19.8-9.1
						l20.4-9.3l-0.4-1c9.3-3.7,18.7-7.4,28-11.2c29.6-11.8,60.1-24,90.3-35.3c74.6-27.7,142-48.8,207.5-64.2c5-1,10.1-1.3,15.2-0.8
						c0.9,0.1,1.6,0.4,2,1.8l3.3,12c4.2,15.2,8.6,30.8,11.5,46.2C1612.4,869.5,1624,999.1,1621.7,1123.3L1621.7,1123.3z
						 M1659.4,902.3c-4.2-39.9-9.2-76-15.3-110.4c-5.6-31.6-12.3-62.7-18.8-91.9c-1.4-5.9-3.2-11.6-5.3-17.3
						c7.2-3.9,12.2-9.8,15.4-13.8c5.5-6.5,12.7-12,20.4-17.7l5.6-4.3c8.6-6.6,11.1-15.8,6.9-25.9s-11.4-24.2-27.1-32.4
						c-2.3-1.5-4.5-3.2-6.4-5.1c-1.9-1.7-3.8-3.4-5.7-5l-2.4-1.9c-3.5-2.9-7.6-6.2-12.8-8.2c-14.5-5.5-30-6.7-46.1-3.5
						c-13.4,2.7-21,11.8-22,25.7c-0.7,10.5-3.8,20.6-9.1,29.7c-1.3,2.2-2.2,4.5-2.8,7c-41,8.7-85,21.3-137.7,39.5
						c-20.3,7-40.6,14.2-60.9,21.4c54.9-42.2,101-82.6,142.5-124.7c6.3-6.6,12.3-13.5,17.8-20.6c4.6,3.4,10,5.7,15.6,6.5
						c5,0.8,10.4,3,16.8,5.7c5.1,2.1,10.1,4.7,15,7.2l4.5,2.3c8.6,4.3,17.5,1.8,23.2-6.6c6.8-9.9,14.5-23.7,12.8-42.4
						c-0.4-4,0.6-9.1,1.5-13c2.8-11.9,2-22.7-2.2-32.2c-4.3-9.7-9-20-15-29.8c-8.5-13.9-21.2-17.8-35.6-11c-8.7,4.2-18.4,6.1-28,5.4
						c-2.3-0.1-4.5,0.1-6.7,0.8c-27.3-33.1-59.4-67.1-102.9-109.2c-15.3-14.8-30.8-29.5-46.3-44.1c29.1,14.2,56.5,26.5,83.4,37.6
						c25.9,10.7,53,20.9,82.9,31.4c10,3.5,20.2,5.8,30.2,8.1l0.6,0.1c-0.4,7.3,1.2,14.3,3.2,21c2.5,8.1,3.4,17.1,4.4,26.6
						c0.3,3,0.6,6,1,9c1.6,13.5,6.7,18.9,19.4,20.5c14.8,1.8,27.4-1.1,38.4-9c2.2-1.3,4.6-2.4,7.1-3.3c2.3-0.9,4.7-1.8,6.9-2.9
						l2.6-1.2c3.9-1.8,8.7-3.9,13-7.7c10.9-9.8,19.3-23.2,24.9-39.9c4.7-13.9,1.3-25.3-10-34c-8.2-6.3-14.8-14.5-19.3-23.8
						c-1.1-2.2-2.6-4.3-4.3-6.1c19.7-68.6,34-139.8,46.5-210.5c5.3,50.2,12,95.8,20.4,139.6c4.4,22.9,10,45.7,15.4,67.8l1.3,5.4
						c0.6,2.3,1.3,4.5,2.1,6.7c-7,4-12.2,10.2-16.6,15.4s-10.4,9.7-16.7,14.4c-2.1,1.6-4.3,3.2-6.3,4.8
						c-11.5,8.9-13.3,16.1-7.6,29.7c5.8,13.8,14.6,23.7,26.7,30.3c2,1.3,3.8,2.7,5.4,4.4c2,1.9,4.1,3.7,6.3,5.4c1,0.7,2,1.5,2.9,2.3
						c4.4,3.5,9.9,7.8,16.8,9.1c11.9,2.3,24.1,3.3,36.3,2.8c16.6-0.7,25.7-10.4,27.3-29c0.7-8.9,3.4-17.6,7.8-25.4
						c1.5-2.7,2.6-5.5,3.4-8.5c67-15.3,132.9-36.8,197.2-59.8c-54.7,42.1-100.6,82.5-141.9,124.4c-5.9,6.2-11.5,12.7-16.7,19.5
						c-4.8-3.6-11.1-6.3-19.6-7c-2.3-0.2-5.8-1.8-9.2-3.3l-2-0.9c-3-1.4-6.1-2.9-9.1-4.4c-4.3-2.2-8.6-4.3-12.9-6.1
						c-7.1-3-16.7-0.4-21.5,5.8c-6.7,8.8-15.5,22.6-13.7,42.1c0.4,3.4,0.2,6.8-0.6,10.1c-4.1,13.9-3.1,28,3.1,42
						c3.8,8.7,8.4,17.1,13.8,25c8.9,13.3,20.9,16.6,35.4,9.8c8-3.8,16.8-5.5,25.6-5c2.8,0.1,5.6-0.2,8.4-0.9
						c46.6,54.7,97.2,104.9,148.3,153c-60-29.2-115.5-52.2-168.9-69.8c-8.8-2.7-17.7-5-26.7-6.8c0.5-6.3-0.8-12.1-2.4-17.4
						c-2.1-6.9-3.2-14.4-4.4-22.3c-0.5-3.2-0.9-6.4-1.5-9.5c-0.4-2.3-0.7-4.7-0.7-7c0-11.6-6.6-19.4-17.8-20.9
						c-15.9-2.1-29.3,1-40.6,9.4c-1.7,1-3.5,1.8-5.4,2.4c-2.3,0.8-4.6,1.8-6.8,2.9l-3.4,1.6c-4.8,2.3-10.2,4.8-15,9.2
						c-9.7,9-17.2,20.9-22.8,36.5c-5.4,15.3-2.1,26.9,10.4,36.4c7.2,5.5,13,12.6,17.8,21.9c1.4,2.6,3.1,5,5,7.1
						C1686.3,760.2,1671.9,831.4,1659.4,902.3L1659.4,902.3z M2311.6,1135.4c-12.6,24-31.4,42.9-55.8,56.2
						c-25.9,14.1-52.3,16-78.6,5.4c-13.2-5.2-25.8-11.9-37.6-19.8c-41.6-28.2-80.2-63.3-117.9-107.2c-23.5-27.3-45.8-57.7-68.2-92.9
						c-3.7-5.8-11.9-11.3-19.8-10.2c-7.4,1.1-14.7,3.2-21.5,6.2c-8.2,3.5-14.9,13.3-10.3,26.8c18.4,53,26.8,103.2,25.8,153.4
						c-1.3,62.4-14.3,120.8-38.6,173.7c-5.5,11.9-13.4,23.2-19.7,31.7c-19.1,25.8-44,36.7-76.2,33.3c-43-4.5-81.2-37.8-94.9-82.8
						c-10.7-35.1-13.5-71-14.3-114.2c-1.5-73.7,7.4-146.3,15.3-201.2c14.4-100.7,32.2-191.7,54.4-278.4c2-7.6,3.8-14.8,6.2-21.8
						c1.2-3.5,2.9-6.8,5-9.9c0.5-0.8,0.8-1.1,1.1-1.1c0.3,0,0.6,0,0.9,0.1l5.6,1.5c13.7,3.7,27.9,7.6,41.3,12.3
						c66.3,23.1,130.6,54.5,184.7,82.2c72.1,36.9,133.3,74.3,187,114.6c40.9,30.6,71.2,58.7,95.3,88.2c6.5,8,12.5,16.4,17.9,25.2
						l0,0c3.5,5.6,6.5,11.5,9.7,17.9c1.4,2.7,2.8,5.4,4.2,8.1C2328.2,1071.1,2327.8,1104.8,2311.6,1135.4L2311.6,1135.4z
						 M2463.4,399.5c-18,13.4-38.1,23.1-55.4,31c-65.3,29.8-137.1,47.2-213.4,51.7c-12.8,0.8-21.5,8-25.2,21.5
						c-0.6,2.1-1.2,4.3-1.6,6.5c-3.3,18.9,2.8,28.6,20.5,32.2c98.2,20.3,180.3,76,244,165.5c13.4,18.6,23.2,39.6,28.9,61.8
						c7.8,30.7,1.4,58.5-19.5,85c-24,30.3-55.5,43.4-93.7,39c-28.6-3.3-55.3-16.1-79.8-29.5c-50.6-27.5-101.2-63.5-159.3-113.2
						c-87.1-74.6-162.4-147.9-230.3-224c-5.6-6.4-10.6-13.4-14.8-20.8c-1-1.6-0.6-2.5,0.3-3.4l8.7-9.5
						c11.4-12.4,23.1-25.3,35.3-36.8c52.4-49.4,112.6-97.4,189.4-151.2c38.5-27,78.6-51.7,120.1-73.8c47.3-25.1,85.9-40.7,123-49.6
						c4.7-1.1,9.3-2.1,13.9-3.1c31.7-6.3,59.8-4.3,85.9,6.1c23.1,9.1,40.2,25.2,52.4,49.1c10.7,21,16.3,44.4,16.8,69.6
						C2510.4,344.3,2495.3,375.7,2463.4,399.5L2463.4,399.5z"/>
					<path class="st3" d="M716.6,249.6c-1.4-8.1-3.4-16-5.3-23.6c-0.9-3.3-1.7-6.6-2.5-9.9l-8.6-21.3l-1-2c-1.5-2.3-2.9-4.7-4.3-7.1
						c-3.3-5.7-7-11.3-10.9-16.6c-25.6-33.4-61.4-51.6-106.3-54.1c-18.5-1-37.3,0.5-58.4,5C536.4,98.8,546.7,77,551,53
						c11.7-65.2-8.5-122.6-59.8-170.5c-28-26.2-63.2-39.3-107.5-40c-36.3-0.6-70.3,7.8-98.8,16.1c-42.4,12.2-82.4,31.7-118.2,57.7
						c2.4-8.5,4.7-17.1,6.8-25.8c12.6-53,18.6-102.3,18.3-150.7c-0.2-38.5-9.7-72.7-28-101.8c-30.4-48.2-72.7-92.4-129.3-92.5
						c-132-0.1-175.6,89.9-175.6,89.9s-28.3-67.7-140.1-75.2c-59-4-114.7,38.4-131.1,70.9c-7.4,10.4-13.8,21.4-19.1,33.1
						c-31.7,69.9-45.5,144.6-41,222.3c0.1,1.9,0.3,3.8,0.4,5.7c-38.1-43.4-78.2-79-122.1-108.3c-29.9-20-58.6-30-87.8-30.8
						c-53.1-1.4-100.6,18.8-141.2,60c-52,52.8-60.7,124.8-23.1,192.7c8.6,15.3,18.5,29.8,29.7,43.3c-36.6-7.5-69.8-1.8-98.8,17.1
						c-52.5,34.2-79.2,86.3-79.3,155c0,36.9,12,72.6,36.8,109c43.9,64.5,97.3,113.5,159.2,146c-54.8,13.3-104.1,32.9-149.7,59.4
						c-25,14.5-43.7,31.5-57.2,51.7c-30.5,45.6-40.8,99.4-30.8,159.9c1.3,7.7,3.1,15.1,4.9,22.3c0.8,3.2,1.6,6.4,2.3,9.5l9.9,24.4
						l2.2,3.9c1.2,2,2.5,4,3.7,6c22,37,54.9,59.5,97.8,66.6c23.8,4,48.2,3,77-3.1c-17.8,22.3-28.7,46.2-33.2,72.5
						c-11.4,66.9,21,140.5,78.8,179.1c28.3,18.9,61.5,27.4,101.4,26.1c32.4-1.1,63.4-9.1,89.4-16.7c41.5-12.2,80.6-31.4,115.5-56.8
						c-1.4,4.9-2.7,9.8-3.9,14.7c-14.1,56.1-21,108.5-20.9,160.3c0,36.6,7.7,67.7,23.3,94.9c31.5,54.8,78.5,89,139.9,101.7
						c25.5,5.3,50.1,3,73.2-6.9c28.3-12.1,50.7-32.8,68.5-63.3c9.6-16.4,17.3-34.2,23.7-55.2c10.2,30.2,26.6,54.6,48.9,72.7
						c38.6,31.3,88.4,40.8,133.8,29.8c32.5-7.8,61.6-25.8,83.1-51.5c21.6-25.9,37.4-57.6,49.6-99.8c18-61.9,24.5-118.7,19.8-173.4
						c37.4,42.6,77.1,77.9,120.4,107.2c30.8,20.8,60.3,31.2,90.2,31.9c50.1,1.2,95.6-17.4,135.4-55c25.5-24.2,41.2-50.6,47.8-80.8
						c8.8-40.3,1.4-80.4-22.8-122.5c-7.7-13.3-16.5-25.9-26.3-37.7c33.9,6.9,64,2.6,91.5-13.1c54.7-31.2,83.8-82.6,86.4-152.9
						c1.5-38.8-10.6-76.4-36.8-115c-43.8-64.6-97.3-113.7-159.2-146.1c53.7-13,102.2-32.2,147.5-58.1c28.7-16.5,49.7-36.2,64.2-60.4
						C717.5,357.8,726.2,306.4,716.6,249.6z M56.5-399.7c30.4,10.2,52.6,26.7,67.7,50.5c11.9,18.6,17.7,40.9,18.5,69.9
						c1,39.4-4.8,78-9.9,107.2c-10,57.4-28.1,115.5-54.3,173.7c-2.2,4.8-6.8,14.7,0,25.4c5.5,8.7,12.8,18,25.3,20.8
						c7.7,1.7,15.1-3.5,19-8.5c18.8-24,40.1-46,63.7-65.4c37.9-31,81.8-53.6,129-66.4c27.5-7.6,52.2-13.8,77.6-13.2
						c14.4,0.2,28.8,2,42.9,5.2c29.4,7,50.1,27.6,61.8,61.3c15,43.7,8,84.3-20.9,120.6c-16.6,20.9-37.2,36.9-63,54.4
						c-34.3,23.3-75.5,46.5-110.3,62c-56.9,25.8-105.3,45.3-157.1,63.4c-41.3,14.4-79,26.8-115.2,38c-26.9,8.3-54.8,15.3-81,21.7
						c-11,2.5-13.1,2.6-16.9-11.8l-1-3.6c-0.4-1.2-0.7-2.5-1-3.7c-17-67.6-25.7-136-31.9-194.1c-9.8-90.1-13.5-164.4-11.5-233.9
						c1.2-44.1,4.4-102,18.4-158.3c8.1-32.7,18.6-57,33-76.7C-30.5-402.7,9-415.6,56.5-399.7z M-810.5-115.3
						c7.3-26,22.9-47.9,47.7-66.8c13.4-10.2,27-17,40.8-20.3c24-5.8,48.8-1.2,75,13.6c36.3,20.5,67.8,49,93.8,74.1
						c39.8,38.4,75.3,82.9,108.4,135.9c8,12.8,18.9,11.9,23.3,10.9c6.5-1.5,12.8-3.6,18.8-6.3c8.4-3.8,14.7-13.7,10.1-27.1
						c-12.6-36.2-20.8-73.8-24.3-111.9c-4.9-53.5,1.6-109.5,20-171.1c9-30.1,21-54.9,36.8-75.8c38.3-50.6,91.8-31.6,107.2-24.6
						c28.3,12.8,47.7,34,61.2,66.6c8.2,20.7,13.2,47.1,15.6,83.2c4.1,61.2,1.2,126.3-9,205c-14.8,113.7-34.3,217.1-59.9,316
						c-1.8,7.6-4,15.2-6.7,22.5c-3.4,9.1-5,8.6-10.5,6.8l-16.2-5.1c-19.8-6.3-40.4-12.8-59.8-20.6c-96.5-38.9-187.2-85-269.5-137
						c-57.7-36.4-99.5-68.6-135.4-104.2c-18.2-18-38.6-40-52.3-66.9l0,0C-814.2-54.6-818.9-85.4-810.5-115.3L-810.5-115.3z
						 M-922.6,817c-33-10.5-55.2-33.1-67.8-69c-10.4-29.7-12.5-57.4-6.5-84.8c5.8-26.4,20.9-48,46-66.1
						c18.4-13.2,38.8-22.9,58.2-31.3c31.5-13.9,64.1-24.9,97.6-32.9c32.6-7.8,65.9-13,99.3-15.6l3.4-0.3c2.9-0.3,5.8-0.5,8.7-0.5
						c9.9,0.3,17.7-5.2,21.6-15c1.8-4.2,3.1-8.6,3.8-13.1c2.6-20-2.8-28.4-20.7-32.1c-66.7-13.9-125-42.9-173-86.3
						c-37.1-33.5-61.7-62.3-79.8-93.5c-14.5-24.9-21.7-46.5-22.8-68c-1.1-23.1,6.3-44.2,22.6-64.6c24-29.9,55.3-43,92.9-38.8
						c27.5,3,53,15,74.3,26.3c52.5,27.8,105,64.8,165.2,116.4c85.4,73.1,160,145.6,228.3,221.6c4.9,5.3,9.5,10.9,13.7,16.7
						c5.4,7.8,4.6,9.2-0.4,14.6c-14.9,16.3-27.7,29.4-40.1,41.3c-45.6,43.4-98.4,86.3-161.4,131.3c-31.8,22.7-66.3,45.5-105.4,69.7
						c-19.7,12.2-40.9,22.9-61.5,33.3l-12.3,6.3c-28.6,14.5-58.7,25.9-89.7,33.9C-864.9,825.9-894.5,826-922.6,817z M-207.5,1121.3
						c-1.1,64.7-7.3,116.7-19.3,163.5c-8.3,32.4-19.3,56.7-34.6,76.7c-28.6,37.4-64.3,49.4-109.1,36.8c-32.6-9.3-56.5-26.1-73-51.6
						c-11.2-17.3-17.1-37.8-18.6-64.6c-1.7-30.5,1.5-60.4,6.8-95.9c9.5-64.2,28.9-128.6,57.5-191.5c6.2-13.6,1.7-23.2-3.1-28.9
						c-3.9-4.7-8.2-9-13-12.7c-5.7-4.2-11.1-5.7-16.2-4.4c-4.4,1.1-8.6,4.1-12.5,9.1c-19.5,25.2-41.9,48-66.7,67.9
						c-34.5,27.7-74,48.3-116.4,60.9c-25.6,7.5-53,15-81.4,16.1c-23,0.9-41.8-1.8-59-8.6c-22.1-8.7-38-25.3-48.3-50.8
						c-18.8-46.1-13.1-87.7,17.3-126.9c16.1-20.8,36.5-36.8,62.2-54.3c30.5-20.8,62.4-39.2,95.7-55.1c6.5-3.1,13.2-6.1,19.8-9.1
						l20.4-9.3l-0.4-1c9.3-3.7,18.7-7.4,28-11.2c29.5-11.8,60.1-24,90.3-35.3c74.6-27.7,142-48.8,207.5-64.2c5-1,10.1-1.3,15.2-0.8
						c0.9,0.1,1.6,0.4,2,1.8l3.3,12c4.2,15.2,8.6,30.8,11.5,46.2C-216.8,867.5-205.3,997.1-207.5,1121.3L-207.5,1121.3z
						 M-169.8,900.3c-4.2-39.8-9.2-76-15.3-110.3c-5.6-31.6-12.3-62.7-18.8-91.9c-1.4-5.9-3.2-11.6-5.4-17.3
						c7.2-3.9,12.2-9.8,15.4-13.8c5.4-6.5,12.7-12,20.4-17.7l5.6-4.3c8.6-6.6,11.1-15.8,6.9-25.9s-11.5-24.2-27.2-32.4
						c-2.3-1.5-4.5-3.2-6.4-5.1c-1.9-1.7-3.8-3.4-5.7-5l-2.4-1.9c-3.6-2.9-7.6-6.2-12.8-8.2c-14.5-5.5-30-6.7-46.1-3.5
						c-13.4,2.7-21,11.8-22,25.7c-0.7,10.5-3.8,20.6-9.1,29.7c-1.3,2.2-2.2,4.5-2.8,7c-41,8.7-85,21.3-137.7,39.5
						c-20.3,7-40.6,14.2-60.9,21.4c54.9-42.2,101-82.6,142.5-124.7c6.3-6.6,12.3-13.4,17.9-20.6c4.6,3.4,10,5.7,15.6,6.5
						c5,0.8,10.4,3,16.8,5.7c5.1,2.1,10.1,4.7,15,7.2l4.5,2.3c8.6,4.3,17.5,1.8,23.2-6.6c6.8-9.9,14.5-23.7,12.8-42.4
						c-0.4-4,0.6-9.1,1.5-13c2.8-11.9,2-22.7-2.1-32.2c-4.3-9.7-9-20-15-29.8c-8.5-13.9-21.2-17.8-35.6-11c-8.7,4.2-18.4,6.1-28,5.4
						c-2.2-0.1-4.5,0.1-6.7,0.8c-27.3-33.1-59.4-67.1-102.9-109.2c-15.3-14.8-30.7-29.5-46.2-44.1c29.1,14.2,56.5,26.5,83.4,37.6
						c25.9,10.7,53,20.9,82.9,31.4c10,3.5,20.3,5.8,30.2,8.1l0.6,0.1c-0.4,7.3,1.2,14.3,3.2,21c2.5,8.1,3.4,17.1,4.4,26.6
						c0.3,3,0.6,6,1,9c1.6,13.5,6.7,18.9,19.4,20.5c14.8,1.8,27.4-1.1,38.4-9c2.2-1.4,4.6-2.5,7.1-3.3c2.3-0.9,4.6-1.8,6.9-2.9
						l2.5-1.2c3.9-1.8,8.7-3.9,13-7.7c10.9-9.8,19.3-23.2,24.9-39.9c4.7-13.9,1.3-25.3-10-34c-8.2-6.3-14.8-14.5-19.4-23.8
						c-1.1-2.2-2.6-4.3-4.3-6.1c19.6-68.6,34-139.8,46.5-210.5c5.3,50.2,12,95.8,20.4,139.6c4.4,22.9,10,45.7,15.4,67.8l1.3,5.4
						c0.6,2.3,1.3,4.5,2.1,6.7c-7,4-12.2,10.2-16.6,15.4s-10.4,9.7-16.7,14.4c-2.1,1.6-4.3,3.2-6.4,4.8
						c-11.5,8.9-13.3,16.1-7.6,29.7c5.8,13.8,14.5,23.7,26.7,30.3c2,1.3,3.8,2.7,5.4,4.4c2,1.9,4.1,3.7,6.3,5.4
						c1,0.7,1.9,1.5,2.9,2.3c4.4,3.5,9.9,7.8,16.8,9.1c11.9,2.3,24.1,3.3,36.3,2.8c16.6-0.7,25.7-10.4,27.4-29
						c0.7-8.9,3.4-17.6,7.8-25.4c1.5-2.7,2.6-5.5,3.4-8.5c67-15.3,132.9-36.8,197.1-59.8C117.8,354,71.9,394.4,30.6,436.3
						c-5.9,6.2-11.5,12.7-16.8,19.5c-4.8-3.6-11.1-6.3-19.5-7c-2.4-0.2-5.8-1.8-9.2-3.3l-2-0.9c-3-1.4-6.1-2.9-9.1-4.4
						c-4.3-2.2-8.6-4.3-12.9-6.1c-7.1-3-16.7-0.4-21.5,5.8c-6.7,8.8-15.5,22.6-13.7,42.1c0.4,3.4,0.2,6.8-0.6,10.1
						c-4.1,13.9-3.1,28,3.1,42c3.8,8.7,8.4,17.1,13.8,25c8.9,13.3,20.9,16.6,35.4,9.8c8-3.8,16.8-5.5,25.6-5.1
						c2.8,0.1,5.6-0.2,8.4-0.9c46.6,54.7,97.2,104.9,148.3,153C99.7,686.7,44.2,663.7-9.2,646c-8.8-2.7-17.7-5-26.7-6.8
						c0.5-6.3-0.8-12.1-2.4-17.4c-2-6.9-3.2-14.4-4.3-22.3c-0.5-3.2-1-6.4-1.5-9.5c-0.4-2.3-0.7-4.7-0.7-7
						c0-11.6-6.6-19.4-17.8-20.9c-16-2.1-29.3,1-40.6,9.4c-1.7,1-3.5,1.8-5.4,2.4c-2.3,0.8-4.6,1.8-6.8,2.9l-3.4,1.6
						c-4.8,2.3-10.2,4.8-15,9.2c-9.7,8.9-17.2,20.9-22.8,36.5c-5.4,15.3-2.1,26.9,10.4,36.4c7.2,5.5,13,12.6,17.8,21.9
						c1.4,2.6,3.1,5,5,7.1C-143,758.3-157.3,829.5-169.8,900.3L-169.8,900.3z M482.4,1133.4c-12.6,24-31.4,42.9-55.8,56.2
						c-25.9,14.1-52.3,16-78.5,5.4c-13.2-5.2-25.8-11.9-37.6-19.8c-41.6-28.2-80.2-63.3-117.9-107.2c-23.5-27.3-45.8-57.7-68.2-92.9
						c-3.7-5.8-11.9-11.3-19.8-10.2c-7.4,1.1-14.7,3.2-21.5,6.2c-8.2,3.5-14.9,13.3-10.3,26.8c18.4,53,26.8,103.2,25.8,153.4
						c-1.3,62.4-14.3,120.9-38.6,173.7c-5.5,11.9-13.4,23.2-19.7,31.7c-19.1,25.8-44,36.7-76.2,33.3c-43-4.5-81.1-37.8-94.9-82.8
						c-10.7-35.1-13.5-71-14.3-114.2c-1.5-73.7,7.4-146.3,15.3-201.2c14.4-100.7,32.2-191.7,54.4-278.4c2-7.6,3.8-14.8,6.2-21.8
						c1.2-3.5,2.9-6.8,5-9.9c0.5-0.8,0.8-1.1,1.1-1.2c0.3,0,0.6,0,0.9,0.1l5.6,1.5c13.7,3.7,27.9,7.6,41.3,12.3
						C51,717.6,115.3,749,169.4,776.6c72.1,36.8,133.3,74.3,187,114.6c40.9,30.6,71.2,58.7,95.3,88.2c6.5,8,12.5,16.4,17.9,25.2l0,0
						c3.5,5.6,6.5,11.5,9.7,17.9c1.4,2.7,2.8,5.4,4.2,8.1C498.9,1069.2,498.5,1102.8,482.4,1133.4L482.4,1133.4z M634.1,397.5
						c-18,13.4-38,23.1-55.4,31c-65.3,29.8-137.1,47.1-213.4,51.7c-12.8,0.8-21.5,8-25.2,21.5c-0.6,2.1-1.2,4.3-1.5,6.5
						c-3.4,18.9,2.8,28.5,20.5,32.2c98.2,20.3,180.3,76,244,165.5c13.4,18.6,23.2,39.6,29,61.8c7.8,30.7,1.4,58.5-19.5,85
						c-24,30.3-55.5,43.4-93.7,39c-28.6-3.3-55.3-16.1-79.8-29.5c-50.7-27.6-101.3-63.6-159.3-113.3
						c-87.1-74.6-162.4-147.9-230.3-224c-5.6-6.4-10.6-13.4-14.8-20.8c-0.9-1.6-0.6-2.5,0.3-3.4l8.7-9.5
						c11.4-12.5,23.1-25.3,35.3-36.8c52.4-49.4,112.6-97.4,189.4-151.2c38.5-27,78.6-51.7,120.1-73.8c47.3-25.1,85.9-40.7,123-49.6
						c4.7-1.1,9.3-2.1,13.9-3.1c31.7-6.3,59.8-4.3,86,6.1c23.1,9.1,40.2,25.2,52.4,49.1c10.7,21,16.3,44.4,16.8,69.6
						C681.1,342.4,666,373.8,634.1,397.5z"/>
				</g>
			</g>
		</g>
	</g>
</g>
</svg>
