<svg id="Camada_1" data-name="Camada 1" xmlns="http://www.w3.org/2000/svg" xmlns:xlink="http://www.w3.org/1999/xlink" viewBox="0 0 196.7 235.96"><defs><style>.cls-1{fill:url(#Gradiente_sem_nome_159);}.cls-2{fill:#4d352d;}.cls-3{fill:url(#Gradiente_sem_nome_159-2);}.cls-4{fill:url(#Gradiente_sem_nome_154);}.cls-5{fill:url(#Gradiente_sem_nome_154-2);}.cls-6{fill:url(#Gradiente_sem_nome_63);}.cls-7{fill:#70b9d6;}</style><linearGradient id="Gradiente_sem_nome_159" x1="334.29" y1="22.71" x2="408.27" y2="-41.16" gradientTransform="translate(-202.25 -37.41) rotate(21.71)" gradientUnits="userSpaceOnUse"><stop offset="0" stop-color="#aa1733"/><stop offset="0.01" stop-color="#af203d"/><stop offset="0.06" stop-color="#be3c5d"/><stop offset="0.12" stop-color="#cb547a"/><stop offset="0.18" stop-color="#d56890"/><stop offset="0.25" stop-color="#dd77a2"/><stop offset="0.34" stop-color="#e381ae"/><stop offset="0.46" stop-color="#e687b5"/><stop offset="0.76" stop-color="#e789b7"/></linearGradient><linearGradient id="Gradiente_sem_nome_159-2" x1="365.98" y1="57.11" x2="376.62" y2="57.11" xlink:href="#Gradiente_sem_nome_159"/><linearGradient id="Gradiente_sem_nome_154" x1="-296.02" y1="158.89" x2="-231.22" y2="102.95" gradientTransform="translate(223.63 -153.67) rotate(-26.64)" gradientUnits="userSpaceOnUse"><stop offset="0" stop-color="#f07f19"/><stop offset="0" stop-color="#f0811b"/><stop offset="0.06" stop-color="#f19836"/><stop offset="0.12" stop-color="#f2ab4c"/><stop offset="0.19" stop-color="#f3ba5d"/><stop offset="0.28" stop-color="#f4c468"/><stop offset="0.41" stop-color="#f4ca6f"/><stop offset="0.76" stop-color="#f4cc71"/></linearGradient><linearGradient id="Gradiente_sem_nome_154-2" x1="-268.26" y1="189.01" x2="-258.94" y2="189.01" xlink:href="#Gradiente_sem_nome_154"/><linearGradient id="Gradiente_sem_nome_63" x1="49.94" y1="77.21" x2="141.54" y2="-1.88" gradientUnits="userSpaceOnUse"><stop offset="0" stop-color="#489dd7"/><stop offset="0.61" stop-color="#70b9d6"/></linearGradient></defs><title>boneca</title><path class="cls-1" d="M159.48,83.34c5-2.67,17-9.09,26.36-4.09A19.94,19.94,0,0,1,193.42,87a17.74,17.74,0,0,1,1.77,9.91,18.15,18.15,0,0,1-3,7.86c-12,18.23-57.65,40.9-64.43,43.63a5.9,5.9,0,0,1-3.37.43,6.63,6.63,0,0,1-3.13-1.83c-4.17-4.27-26.67-65.25-16.06-86.57a17.23,17.23,0,0,1,6.53-7.52c4.77-2.83,9.85-2.17,11.77-1.92a21.41,21.41,0,0,1,13.12,6.79c2.84,3.27,4.29,7.26,5,14.62a87.63,87.63,0,0,1-3.07,32.28A52.16,52.16,0,0,1,159.48,83.34Z"/><path class="cls-2" d="M160.65,83.82c5.2-2.78,10.8-5.47,16.79-5.76,6.17-.31,11.48,3.29,14.43,8.59a17,17,0,0,1-.6,17.07A47.1,47.1,0,0,1,182.16,114c-8.45,7.54-18.14,13.72-27.88,19.46-7.85,4.62-15.88,9-24.11,12.87-1,.49-2.07,1-3.12,1.41a4.4,4.4,0,0,1-2.33.55,4.61,4.61,0,0,1-2.41-1.6,25.07,25.07,0,0,1-2.77-5.34A198.42,198.42,0,0,1,111,117.22,183.65,183.65,0,0,1,104.34,86a78.48,78.48,0,0,1-.44-14.21,30.43,30.43,0,0,1,2.59-11,18.27,18.27,0,0,1,4.73-6.25,14.93,14.93,0,0,1,10.49-3.11,19.75,19.75,0,0,1,13.21,6c4.15,4.46,5,10.73,5.45,16.57a84.53,84.53,0,0,1-.68,18.4,98.87,98.87,0,0,1-2.55,12c-.22.78,2.38,1.18,2.72.55a52.22,52.22,0,0,1,20.79-21.21c.56-.31-.06-.76-.39-.91a2.47,2.47,0,0,0-1.94,0,53,53,0,0,0-21.11,21.47l2.72.55a92.65,92.65,0,0,0,3.46-23.58c.06-6-.18-12.61-2.34-18.28-2.25-5.92-7.5-9.92-13.43-11.75-5.27-1.62-11.51-1.81-16.47.82-9,4.77-10.38,16.17-10.18,25.25.24,11,2.49,21.88,5.24,32.45a226.36,226.36,0,0,0,9.23,28.26,57.4,57.4,0,0,0,3.55,7.68,8,8,0,0,0,10.12,3.06,200.36,200.36,0,0,0,21.07-10.71,221.15,221.15,0,0,0,30.32-19.76,70,70,0,0,0,11.21-10.76,24.23,24.23,0,0,0,4.18-7.32,17.39,17.39,0,0,0-.21-11.11,19.15,19.15,0,0,0-9.58-10.57c-6.49-3.11-14-1.75-20.44.8a70.48,70.48,0,0,0-7.34,3.5c-.57.3.05.76.38.9A2.45,2.45,0,0,0,160.65,83.82Z"/><path class="cls-3" d="M120.57,147.66c-1,.08-.83,1.84-2.72,3.45-.71.6-1.19,1.43-1.91,2a.72.72,0,0,0-.29.48.7.7,0,0,0,.17.43,6.55,6.55,0,0,0,2.08,2.2,18.89,18.89,0,0,0,1.95.71c1.58.63,1.59,1.13,2.56,1.36a3.17,3.17,0,0,0,3-.65c.59-.72,0-1.36.23-3.27.22-2.38,1.22-3,.72-3.85s-1.7-.22-3.6-1.28C121.34,148.49,121.28,147.61,120.57,147.66Z"/><path class="cls-2" d="M121.51,146.88a4.62,4.62,0,0,0-2.38,1.36,4.23,4.23,0,0,0-.79,1.24,15.79,15.79,0,0,1-2.77,3.44c-.37.42-1.21.9-1.1,1.53a2.67,2.67,0,0,0,.55.91,8.44,8.44,0,0,0,.76.92c1.15,1.17,2.86,1.21,4.18,2.11a4.58,4.58,0,0,0,1.17.68,4.24,4.24,0,0,0,1.84.1,6.11,6.11,0,0,0,2.54-1.15,3.1,3.1,0,0,0,1.32-1.52,4.05,4.05,0,0,0,0-1.3,8.5,8.5,0,0,1,.14-2.36,10.68,10.68,0,0,1,.5-1.64,2.22,2.22,0,0,0,.22-1c-.14-1.14-1.84-1-2.64-1.21a4.86,4.86,0,0,1-2.2-1.31c-.33-.34-.63-.79-1.15-.78a3.2,3.2,0,0,0-1.58.76c-.08.07-1,.85-.63.85s.55.23.79.48a5.43,5.43,0,0,0,1.39,1.13,6,6,0,0,0,1.75.61,9,9,0,0,1,1.26.22c.73.25.67.91.46,1.5a10.27,10.27,0,0,0-.72,3.2,10.35,10.35,0,0,1,0,2.49h0c-.19.24,0,.14.47-.28,1-.63.61-.33.33-.29a4.68,4.68,0,0,1-.84.07,3,3,0,0,1-1.37-.33c-.33-.2-.63-.45-1-.65a9.38,9.38,0,0,0-1.91-.79,4.35,4.35,0,0,1-1.78-1,8.19,8.19,0,0,1-1.27-1.61s-.28-.48-.14-.47c-.21.18-.25.22-.12.11l.28-.25c.31-.29.59-.61.87-.93.5-.6,1.09-1.1,1.6-1.68a7.73,7.73,0,0,0,1.09-1.63c.1-.21.19-.42.3-.63l.1-.19.1-.14q-2.5,1.14-1.47,1a3.86,3.86,0,0,0,1.69-.95C121.48,147.35,122.08,146.81,121.51,146.88Z"/><path class="cls-4" d="M49.21,68.11c1.16-4.81,3.95-16.41,12.67-19.62A17.52,17.52,0,0,1,71.37,48a15.52,15.52,0,0,1,7.51,4.61,15.82,15.82,0,0,1,3.37,6.56c5,18.44-6.79,61.52-8.94,67.55a5.19,5.19,0,0,1-1.69,2.45,5.62,5.62,0,0,1-3,1c-5.22.24-58.22-20.53-66-39.88a15.16,15.16,0,0,1-1.11-8.65,15.82,15.82,0,0,1,5.59-8.82,18.77,18.77,0,0,1,12.08-4.63c3.8,0,7.25,1.42,12.49,5.22A76.89,76.89,0,0,1,51,94.25,45.76,45.76,0,0,1,49.21,68.11Z"/><path class="cls-2" d="M50.44,68.29c2.17-9.05,6.47-20.48,17.66-20.14a13.6,13.6,0,0,1,11.52,7.3c2,3.85,2.45,8.46,2.59,12.74.31,9.9-1.21,19.88-3,29.59-1.55,8.19-3.43,16.34-5.71,24.36-.62,2.14-1.15,5.62-3.18,6.86a4.36,4.36,0,0,1-2.19.64l-.14,0-.57-.1-.36-.08-.55-.14c-.56-.14-1.11-.3-1.66-.47A152.17,152.17,0,0,1,45,121a169.48,169.48,0,0,1-24.67-13.66C14.23,103.16,7.39,98.07,4.18,91.2,1.75,86,2,80.26,5.69,75.73A19.42,19.42,0,0,1,16,69.17C22,67.74,27,70.9,31.69,74.41a72.36,72.36,0,0,1,11.52,11,83.54,83.54,0,0,1,6.57,8.86c.34.52,2.71.9,2.41,0a45.79,45.79,0,0,1-1.75-26c.16-.7-2.27-1.13-2.45-.35a46.47,46.47,0,0,0,1.79,26.28l2.41,0A81.7,81.7,0,0,0,38.9,78.36c-4.07-3.73-8.74-7.61-14-9.55A18.78,18.78,0,0,0,8.62,70.56C4.89,72.86,1.56,76.39.44,80.72c-2.32,9,5,16.87,11.32,22.09,7.59,6.29,16.27,11.24,25.05,15.65a195.38,195.38,0,0,0,23.77,10.19,40.85,40.85,0,0,0,7,2A7.29,7.29,0,0,0,72,130a5.87,5.87,0,0,0,2.71-3.69,204.61,204.61,0,0,0,5.56-21.69c2.24-10.46,4.1-21.15,4.36-31.87a49.59,49.59,0,0,0-1.08-13A16.39,16.39,0,0,0,72.12,47.67c-4.84-1.41-10.68-.74-14.75,2.32s-6.32,7.76-7.86,12.43c-.6,1.81-1.08,3.66-1.52,5.52C47.82,68.63,50.25,69.07,50.44,68.29Z"/><path class="cls-5" d="M68.65,131c-.55.73.72,1.61.67,3.79,0,.81.25,1.61.22,2.42a.62.62,0,0,0,.14.47.66.66,0,0,0,.38.14,5.77,5.77,0,0,0,2.65-.08,16.5,16.5,0,0,0,1.6-.87c1.34-.66,1.67-.38,2.38-.87A2.77,2.77,0,0,0,78,133.68c-.13-.8-.86-.82-2-2.05-1.42-1.53-1.28-2.57-2.1-2.71s-1.13,1-2.92,1.61C69.64,131,69,130.52,68.65,131Z"/><path class="cls-2" d="M67.68,131.49c-.45.65,0,1.32.24,2a5.48,5.48,0,0,1,.36,1.64c0,.77.14,1.52.2,2.29a2.43,2.43,0,0,0,.08.89c.17.28.58.28.87.31a5.92,5.92,0,0,0,2.22-.06,9.25,9.25,0,0,0,2.12-1,4.39,4.39,0,0,1,1.26-.44c1.56-.37,5.68-3.16,3.39-4.91a8.66,8.66,0,0,1-2.5-2.75c-.36-.66-.66-1.35-1.54-1.16a5,5,0,0,0-2,1.15l-.53.44c-.1.08,0,0,0,0-.2.16,0,0,0,0l-.12,0a7.88,7.88,0,0,1-1.81.24,4.15,4.15,0,0,0-2.26,1.4c-.34.4.47.11.57.06a4.08,4.08,0,0,0,1.37-1c-1,1.16-2,.92-1.08.91l.56,0a5.71,5.71,0,0,0,1.89-.55,10.43,10.43,0,0,0,1.7-1l.56-.44.21-.18c.06,0,.36-.26.08-.08l-.37.24c-.47.17-.6.23-.41.19,0,0,.12,0,.09,0a1.11,1.11,0,0,1,.36.13,2,2,0,0,1,.46.68,8,8,0,0,0,2,2.54c.57.47,1.41.85,1.31,1.72a1.81,1.81,0,0,1-.21.67c-.12.23-.4.43-.49.65h0l.21-.15.46-.24c-.09,0-.1,0,0,0a4.31,4.31,0,0,0-.49.11,7.77,7.77,0,0,0-1.51.55c-.52.24-1.08.66-1.53.84a4,4,0,0,1-1.82.07c-.22,0-.63,0-.81-.17s-.13-.56-.14-.81c0-.73-.2-1.43-.21-2.16a5.41,5.41,0,0,0-.26-1.64c-.14-.44-.78-1.44-.49-1.86s-.43-.13-.56-.07A3.61,3.61,0,0,0,67.68,131.49Z"/><path class="cls-6" d="M107.46,22.3C112,17,122.84,4.05,135.9,5.52A24.77,24.77,0,0,1,148.18,11a21.9,21.9,0,0,1,6.57,10.59A22.53,22.53,0,0,1,154.86,32c-5.42,26.46-47.58,73.46-54.13,79.71a7.33,7.33,0,0,1-3.68,2,8.21,8.21,0,0,1-4.45-.67c-6.74-3-60.57-62.85-58.13-92.23A21.47,21.47,0,0,1,38.55,9.18c4.18-5.45,10.33-7,12.66-7.6C53.38,1,61.45-.73,69.41,3.38c4.77,2.46,8.26,6.39,12.47,14.52A108.2,108.2,0,0,1,93.13,56.44C94.07,48.49,97,34.67,107.46,22.3Z"/><path class="cls-2" d="M109,22.7c4.29-5.08,8.91-10.06,14.74-13.4a21.18,21.18,0,0,1,10.93-3.15,20.15,20.15,0,0,1,10.69,3.91,20.51,20.51,0,0,1,8.45,16.69c0,6.12-2.46,12.17-5,17.63C142.83,57.1,134.52,68.76,126,79.88c-7.13,9.32-14.64,18.38-22.59,27-1.07,1.15-2.15,2.3-3.25,3.43-1.36,1.38-2.93,2.93-5,2.71a6.35,6.35,0,0,1-1.65-.47c-.26-.1.25.13.09,0s-.32-.19-.48-.3a8.49,8.49,0,0,1-1-.73c-1.12-.91-2.18-1.89-3.21-2.88A226.68,226.68,0,0,1,68.35,85.58,235.53,235.53,0,0,1,46,52.7a105.08,105.08,0,0,1-7.4-16.28A40.33,40.33,0,0,1,36,22.06a23.14,23.14,0,0,1,2.38-9.88,19,19,0,0,1,9.35-8.46c6-2.65,13.35-3.16,19.45-.47C74.35,6.4,78.28,13.61,81.52,20.32A105,105,0,0,1,89,41.61a120.18,120.18,0,0,1,2.5,14.61c.1,1,3.11,1.47,3.23.45A64.65,64.65,0,0,1,109,22.7c.63-.76-2.41-1.59-3.07-.81a65.42,65.42,0,0,0-14.4,34.33l3.23.45a115.35,115.35,0,0,0-6.49-27.91c-2.62-7-5.89-14.4-10.75-20.16C71.91,2,63.08-.68,54.6.15,48,.79,41.14,3.41,37,8.77c-7.75,10.08-3.47,24.08,1.14,34.48,5.55,12.52,13.29,24.08,21.45,35a273.58,273.58,0,0,0,23.15,27.5,60.85,60.85,0,0,0,7.42,6.85,10.63,10.63,0,0,0,6.42,1.9,9.09,9.09,0,0,0,6.36-3.11,290.71,290.71,0,0,0,20.26-23.25c9.28-11.55,18.22-23.59,25.37-36.6A77.5,77.5,0,0,0,156,34.35a24.88,24.88,0,0,0,.36-12.76,22.22,22.22,0,0,0-5.87-10,25,25,0,0,0-17.88-6.9c-8.07.32-15,5.11-20.62,10.58-2.14,2.09-4.11,4.33-6,6.62C105.29,22.64,108.33,23.48,109,22.7Z"/><path class="cls-7" d="M92.15,114.12c-1.16.57-.11,2.49-1.55,5.21-.54,1-.71,2.2-1.27,3.2a1,1,0,0,0-.12.69,1,1,0,0,0,.4.41,8.14,8.14,0,0,0,3.4,1.58c.85.09,1.71-.09,2.57-.08,2.1,0,2.35.58,3.56.4s2.74-.88,3.14-2.12-.57-1.59-1.24-3.87c-.83-2.84,0-4.06-.94-4.76s-2,.53-4.72.19C93.42,114.71,93,113.73,92.15,114.12Z"/><path class="cls-2" d="M92.33,113.61a4.22,4.22,0,0,0-2,1.86,7,7,0,0,0-.22,1.77,7.75,7.75,0,0,1-.78,2.75c-.46.94-.69,2-1.12,2.9-.14.32-.4.66-.35,1s.62.73,1,1a7.26,7.26,0,0,0,2.72,1.22,23.38,23.38,0,0,0,3.13,0,11.72,11.72,0,0,1,2,.33c1.55.36,3.2-.42,4.48-1.22s3-2,2.47-3.61c-.2-.62-.58-1.18-.83-1.78a10.66,10.66,0,0,1-.75-2.83c-.1-.89.25-2.48-.63-3.08a2,2,0,0,0-1.61-.14,9.68,9.68,0,0,1-2.39.37,6.48,6.48,0,0,1-2.73-.68,1.82,1.82,0,0,0-1.71-.13A6.08,6.08,0,0,0,91,114.54c-.36.37-.31.66.27.41.21-.09-.16-.09,0,0a1.22,1.22,0,0,0,.26.06,4.18,4.18,0,0,1,.61.27,6.28,6.28,0,0,0,1.93.6,7.11,7.11,0,0,0,2.16,0c.54-.08,1.06-.27,1.6-.35.86-.12,1.3.47,1.36,1.27a15.44,15.44,0,0,0,.58,4.1,14.43,14.43,0,0,0,.77,1.76,2.48,2.48,0,0,1,.39,1.23,2,2,0,0,1-.26.74c-.08.15-.31.27,0,0l.33-.22a5.08,5.08,0,0,1-1.42.19c-.43,0-.86-.2-1.29-.28a9.43,9.43,0,0,0-2.43-.08,6.57,6.57,0,0,1-2.5-.16A9,9,0,0,1,91,122.75a.68.68,0,0,1-.27-1c.18-.43.38-.83.53-1.27.33-1,.77-1.86,1.13-2.81a8.45,8.45,0,0,0,.47-2.38c0-.32,0-.64.09-1,.14-.9.55-.54-1,.29a5.78,5.78,0,0,0,1-.71c.09-.07.52-.41.52-.58C93.53,112.92,92.44,113.55,92.33,113.61Z"/><path class="cls-2" d="M93.35,126.53c5.11,14.55,5.94,30.38,1,45.1-2.14,6.39-4.66,12.59-5.91,19.25a68.29,68.29,0,0,0-1,17.07,95.23,95.23,0,0,0,6.11,26.84c.68,1.83,5.63,1.44,4.84-.69-5-13.28-7.56-27.61-5.24-41.73,1.07-6.47,3.42-12.5,5.56-18.65a68.27,68.27,0,0,0,3.93-23.52,77.31,77.31,0,0,0-4.51-24.36c-.65-1.84-5.6-1.47-4.84.69Z"/><path class="cls-2" d="M117.53,157a259.6,259.6,0,0,1-15.27,29.61,66.57,66.57,0,0,0-4.38,8.26,57.57,57.57,0,0,0-3.62,12.87,87.25,87.25,0,0,0-.66,21,3.94,3.94,0,0,0,1.82,2.94c.58.36,2.09.71,2-.5-.83-10.77-.3-22,3.72-32.11a58.47,58.47,0,0,1,4.32-8.45c2.18-3.67,4.33-7.36,6.37-11.11q5.1-9.42,9.35-19.26c.71-1.63-2.84-5.08-3.64-3.24Z"/><path class="cls-2" d="M74.35,138.61c7.66,10.07,12.49,22.45,10.8,35.26-.82,6.23-2.73,12.22-3.13,18.52a61.48,61.48,0,0,0,.85,14.78,80.84,80.84,0,0,0,7.65,22.17,4.6,4.6,0,0,0,2.67,2.32c.9.24,1.51-.26,1-1.2-5.44-10.78-8.9-22.7-8.22-34.86.36-6.42,2.29-12.5,3.15-18.84A45.35,45.35,0,0,0,87,156.32a61.55,61.55,0,0,0-9.5-17.52c-.62-.81-1.71-2-2.84-1.94s-.81,1.13-.34,1.75Z"/></svg>