<svg id="Camada_1" data-name="Camada 1" xmlns="http://www.w3.org/2000/svg" viewBox="0 0 379.11 300"><defs><style>.cls-1{fill:#4d352d;}</style></defs><title>app valente</title><path class="cls-1" d="M189.38,300q-54,0-107.93,0c-22.28,0-39.32-18.45-37.08-40.53.74-7.32,2.61-14.52,4-21.77,3.74-19,7.46-38.06,11.3-57.07,3-15.11,12.16-24.41,27.25-27.71,6.21-1.36,12.44-2.57,18.65-3.9a33.43,33.43,0,0,0,26.64-35.39c-.54-7.54-1-15.08-1.74-22.6-.23-2.36.31-3.46,2.56-4.37,33.7-13.66,67.81-15.52,102.42-3.81,3.9,1.31,7.71,2.9,11.59,4.28,1.38.49,1.74,1.28,1.63,2.71-.64,7.61-1.13,15.23-1.76,22.85-1.48,17.78,9.51,32.69,26.91,36.39,6.21,1.32,12.45,2.54,18.64,3.92,14.31,3.19,23.56,11.9,26.56,26.22q8.13,38.67,15.31,77.54A36.59,36.59,0,0,1,298.09,300Q243.73,300.06,189.38,300Z"/><path class="cls-1" d="M189,0c32.92-.36,65.52,2.43,97.55,10.41,19,4.74,37.38,11.21,53.64,22.41,20.63,14.21,34.24,33.18,38.2,58.38,2.28,14.57-1,28.11-7.48,41.09a88.34,88.34,0,0,1-13.41,19.12C351.6,158,344.37,160,336.06,158a53.27,53.27,0,0,1-12-4.43c-17.9-9.46-35.64-19.21-53.49-28.77-5.16-2.76-7.47-7.1-7.13-12.66a72.47,72.47,0,0,1,2.1-12.38c1.2-5,3-9.85,4.2-14.85,1.39-5.81.28-7.68-4.76-10.78-8.3-5.1-17.69-7-26.92-9.21a197.27,197.27,0,0,0-84.8-2.4C143,64.41,133,67.08,122.94,69.73c-3.17.84-6.16,2.57-9.09,4.15a8.35,8.35,0,0,0-4.46,9.1,53.07,53.07,0,0,0,2.22,9.48c2.2,6.44,4.19,12.88,4.11,19.8-.06,5.27-2.14,9.25-6.79,11.85C98.45,130,88.18,136.25,77.45,141.62,66,147.33,54.24,152.3,42.51,157.35c-7.31,3.15-13.73,1.62-19.53-4C10.69,141.34,3.73,126.77,1,110-2.48,88.8,3.24,70.2,16.82,53.66,31.66,35.58,50.4,23.72,72.49,16.4,108,4.62,144.55.12,181.78,0Z"/></svg>