<?xml version="1.0" encoding="utf-8"?>
<!-- Generator: Adobe Illustrator 24.0.1, SVG Export Plug-In . SVG Version: 6.00 Build 0)  -->
<svg version="1.1" id="Camada_1" xmlns="http://www.w3.org/2000/svg" xmlns:xlink="http://www.w3.org/1999/xlink" x="0px" y="0px"
	 viewBox="0 0 47 70" style="enable-background:new 0 0 47 70;" xml:space="preserve">
<style type="text/css">
	.st0{fill:#FFFFFF;}
</style>
<g>
	<g>
		<g>
			<path class="st0" d="M44.3,22.2H2.6c0.1-0.1,0.2-0.2,0.2-0.3l20-19.5c0.4-0.4,0.4-0.4,0.8,0l20.2,19.3
				C43.9,21.9,44.1,22,44.3,22.2z"/>
			<path class="st0" d="M23.4,23.8h17.5c0.5,0,0.5,0,0.5,0.5c0,7.2,0,14.4,0,21.6c0,0.4-0.1,0.5-0.5,0.5c-1,0-1.9,0-2.9,0
				c-0.4,0-0.5-0.1-0.5-0.5c0-6.4,0-12.8,0-19.2c0-0.6,0-0.6-0.5-0.6c-4.3,0-8.6,0-12.9,0c-0.4,0-0.5,0.1-0.5,0.5
				c0,6.4,0,12.8,0,19.2c0,0.5,0,0.6-0.5,0.6c-5.8,0-11.5,0-17.3,0c-0.4,0-0.5-0.1-0.5-0.5c0-7.2,0-14.4,0-21.6c0-0.5,0-0.5,0.5-0.5
				L23.4,23.8z M14.4,28.6c-1.7,0-3.5,0-5.2,0c-0.4,0-0.5,0.1-0.5,0.5c0,3.4,0,6.8,0,10.2c0,0.3,0.1,0.5,0.5,0.5c3.5,0,7,0,10.5,0
				c0.4,0,0.5-0.1,0.4-0.5c0-3.4,0-6.9,0-10.3c0-0.3-0.1-0.4-0.4-0.4C17.9,28.6,16.1,28.6,14.4,28.6z"/>
			<path class="st0" d="M25.3,37c0-2.9,0-5.8,0-8.7c0-0.4,0.1-0.5,0.5-0.5c3.3,0,6.5,0,9.7,0c0.4,0,0.5,0.1,0.5,0.5
				c0,5.8,0,11.6,0,17.4c0,0.4-0.1,0.5-0.5,0.5c-3.2,0-6.5,0-9.7,0c-0.4,0-0.5-0.1-0.5-0.5C25.3,42.8,25.3,39.9,25.3,37z"/>
			<path class="st0" d="M12,34.8c0.5,0,0.9,0,1.4,0c0.3,0,0.3,0.1,0.3,0.4c0,0.9,0,1.8,0,2.7c0,0.2-0.1,0.3-0.3,0.3
				c-0.9,0-1.9,0-2.8,0c-0.2,0-0.3-0.1-0.3-0.3c0-0.9,0-1.8,0-2.7c0-0.2,0.1-0.3,0.3-0.3C11,34.7,11.5,34.7,12,34.8L12,34.8z"/>
			<path class="st0" d="M18.5,36.4c0,0.5,0,0.9,0,1.4c0,0.2-0.1,0.3-0.3,0.3c-0.8,0-1.7,0-2.5,0c-0.2,0-0.4-0.1-0.4-0.3
				c0-0.9,0-1.8,0-2.7c0-0.3,0.1-0.4,0.4-0.3c0.8,0,1.6,0,2.5,0c0.3,0,0.4,0.1,0.4,0.4C18.5,35.6,18.5,36.1,18.5,36.4L18.5,36.4z"/>
			<path class="st0" d="M12,30.1c0.5,0,0.9,0,1.4,0c0.3,0,0.4,0.1,0.3,0.4c0,0.8,0,1.6,0,2.4c0,0.3-0.1,0.4-0.3,0.4
				c-0.9,0-1.8,0-2.7,0c-0.3,0-0.4-0.1-0.4-0.4c0-0.8,0-1.6,0-2.3c0-0.3,0.1-0.4,0.4-0.4C11.1,30.1,11.6,30.1,12,30.1L12,30.1z"/>
			<path class="st0" d="M16.9,33.2c-0.4,0-0.8,0-1.3,0c-0.3,0-0.3-0.1-0.3-0.4c0-0.8,0-1.6,0-2.4c0-0.3,0.1-0.4,0.3-0.4
				c0.8,0,1.7,0,2.5,0c0.2,0,0.4,0.1,0.3,0.4c0,0.8,0,1.6,0,2.4c0,0.3-0.1,0.4-0.4,0.4C17.7,33.2,17.3,33.2,16.9,33.2z"/>
		</g>
	</g>
</g>
<g>
	<path class="st0" d="M2.8,66.2V54.5h2.3v4.6h4.6v-4.6H12v11.6H9.8V61H5.2v5.1L2.8,66.2L2.8,66.2z"/>
	<path class="st0" d="M13.4,61.8c0-0.7,0.2-1.5,0.5-2.1s0.9-1.2,1.5-1.6c0.7-0.4,1.4-0.5,2.2-0.5c1.3,0,2.3,0.4,3.1,1.2
		s1.2,1.9,1.2,3.1c0,1.3-0.4,2.3-1.2,3.2c-0.8,0.8-1.9,1.3-3.1,1.3c-0.8,0-1.5-0.2-2.2-0.5s-1.2-0.9-1.6-1.5S13.4,62.8,13.4,61.8z
		 M15.7,62c0,0.8,0.2,1.5,0.6,1.9s0.9,0.7,1.5,0.7s1.1-0.2,1.5-0.7c0.4-0.4,0.6-1.1,0.6-1.9c0-0.8-0.2-1.5-0.6-1.9s-0.9-0.7-1.5-0.7
		s-1.1,0.2-1.5,0.7C15.9,60.5,15.7,61.1,15.7,62z"/>
	<path class="st0" d="M23,57.7h2v1.1c0.7-0.9,1.6-1.3,2.6-1.3c0.5,0,1,0.1,1.4,0.3s0.7,0.6,1,1c0.4-0.4,0.8-0.8,1.2-1
		c0.4-0.2,0.9-0.3,1.4-0.3c0.6,0,1.1,0.1,1.6,0.4c0.4,0.3,0.7,0.6,1,1.1c0.2,0.4,0.2,0.9,0.2,1.7v5.4h-2.2v-4.8
		c0-0.8-0.1-1.4-0.2-1.6c-0.2-0.3-0.5-0.5-1-0.5c-0.3,0-0.6,0.1-0.9,0.3s-0.5,0.5-0.6,0.8c-0.1,0.4-0.2,0.9-0.2,1.7v4h-2.2v-4.6
		c0-0.8,0-1.3-0.1-1.6c-0.1-0.2-0.2-0.4-0.4-0.5c-0.2-0.1-0.4-0.2-0.7-0.2c-0.3,0-0.7,0.1-0.9,0.3c-0.3,0.2-0.5,0.5-0.6,0.8
		s-0.2,0.9-0.2,1.7V66H23V57.7z"/>
	<path class="st0" d="M41.8,63.5l2.2,0.4c-0.3,0.8-0.7,1.4-1.4,1.9c-0.6,0.4-1.4,0.6-2.3,0.6c-1.5,0-2.5-0.5-3.3-1.4
		c-0.6-0.8-0.8-1.7-0.8-2.9c0-1.4,0.4-2.5,1.1-3.3s1.7-1.2,2.8-1.2c1.3,0,2.2,0.4,3,1.2c0.7,0.8,1.1,2.1,1,3.8h-5.6
		c0,0.7,0.2,1.2,0.5,1.5c0.3,0.3,0.8,0.6,1.3,0.6c0.3,0,0.6-0.1,0.9-0.3C41.5,64.2,41.7,63.9,41.8,63.5z M41.9,61.2
		c0-0.6-0.2-1.1-0.5-1.5c-0.3-0.3-0.7-0.5-1.2-0.5s-0.9,0.2-1.2,0.5c-0.3,0.4-0.5,0.8-0.5,1.4L41.9,61.2L41.9,61.2z"/>
</g>
</svg>
