<?xml version="1.0" encoding="utf-8"?>
<!-- Generator: Adobe Illustrator 24.0.1, SVG Export Plug-In . SVG Version: 6.00 Build 0)  -->
<svg version="1.1" id="Camada_1" xmlns="http://www.w3.org/2000/svg" xmlns:xlink="http://www.w3.org/1999/xlink" x="0px" y="0px"
	 viewBox="0 0 54.8 54.8" style="enable-background:new 0 0 54.8 54.8;" xml:space="preserve">
<style type="text/css">
	.st0{fill:#4D352D;}
</style>
<path class="st0" d="M27.4,0C12.3,0,0,12.3,0,27.4s12.3,27.4,27.4,27.4c15.1,0,27.4-12.3,27.4-27.4S42.5,0,27.4,0z M47.9,24.1h-8
	c-0.1-6-1.5-11.3-2.9-15.1C42.7,11.9,46.8,17.5,47.9,24.1z M33.3,24.1H21.5c0.2-8.5,5.4-17.5,5.9-17.5C27.9,6.6,33,15.6,33.3,24.1z
	 M17.8,9c-1.4,3.8-2.8,9.1-2.9,15.1h-8C7.9,17.5,12.1,11.9,17.8,9z M6.9,30.7h8.3c0.6,6,2.1,11.6,3.2,15.4
	C12.4,43.2,8,37.5,6.9,30.7z M21.8,30.7h11.1c-0.9,7.9-5.1,17.5-5.5,17.5S22.8,38.6,21.8,30.7z M36.3,46.1c1.2-3.8,2.6-9.4,3.2-15.4
	h8.3C46.8,37.5,42.3,43.2,36.3,46.1z"/>
</svg>
