<?xml version="1.0" encoding="utf-8"?>
<!-- Generator: Adobe Illustrator 24.0.1, SVG Export Plug-In . SVG Version: 6.00 Build 0)  -->
<svg version="1.1" id="Camada_1" xmlns="http://www.w3.org/2000/svg" xmlns:xlink="http://www.w3.org/1999/xlink" x="0px" y="0px"
	 viewBox="0 0 75.5 54.8" style="enable-background:new 0 0 75.5 54.8;" xml:space="preserve">
<style type="text/css">
	.st0{fill:#4D352D;}
</style>
<g>
	<path class="st0" d="M44.5,31.2c-1.3-1.2-2.9-2-4.7-2.3c-1.8-0.3-3.6-0.1-5.3,0.5c-1.7,0.7-3.1,1.7-4.2,3.1c-1,1.4-1.6,3-1.6,4.7
		c0,2.2,0.9,4.3,2.6,6c1.7,1.6,3.9,2.5,6.4,2.5c1.8,0,3.5-0.5,5.1-1.4c1.6-1,3-2.3,3.6-3.9c0.7-1.6,0.9-3.3,0.5-4.8
		S45.8,32.4,44.5,31.2z"/>
	<path class="st0" d="M75.3,16.7C74.6,12,72,8.6,67.8,6c-3.3-2-6.9-3.1-10.7-4c-6.4-1.4-12.9-2.1-19.4-2h-1.4
		c-7.4,0-14.7,0.9-22,3.3C10.1,4.4,6.2,6.8,3.3,10c-2.7,3-3.8,6.4-3.1,10.3c0.5,3,2.1,5.9,4.4,7.9c1.2,1,2.5,1.3,3.9,0.8
		c2.2-0.9,4.7-1.8,6.9-2.9c2.1-1,4.2-2.2,6.2-3.3c0.4-0.3,0.8-0.5,1-0.9c0.3-0.4,0.4-0.9,0.4-1.3c0-1.3-0.3-2.5-0.8-3.6
		c-0.1-0.5-0.3-1-0.4-1.7c-0.1-0.3,0-0.7,0.1-0.9s0.4-0.5,0.8-0.7c0.5-0.4,1.2-0.7,1.8-0.8c2-0.5,3.9-0.9,6-1.3
		c5.6-1,11.4-0.9,16.9,0.4c1.8,0.4,3.6,0.8,5.3,1.7c0.9,0.5,1.2,0.9,0.9,2c-0.1,0.9-0.5,1.8-0.8,2.7c-0.1,0.7-0.3,1.4-0.4,2.2
		c-0.1,0.4,0,0.9,0.3,1.3c0.3,0.4,0.7,0.7,1.2,0.9c3.5,1.7,7.2,3.5,10.7,5.2c0.7,0.4,1.6,0.7,2.3,0.8c0.8,0.3,1.6,0.3,2.3,0
		c0.8-0.3,1.4-0.7,2-1.2c1-1,1.8-2.2,2.6-3.5C75.2,21.9,75.7,19.3,75.3,16.7z"/>
	<path class="st0" d="M63.8,32.6c-0.7-2.6-2.5-4.3-5.3-4.8c-1.3-0.1-2.5-0.4-3.8-0.7c-1.6-0.3-3-1.2-4-2.3c-1-1.3-1.4-2.7-1.3-4.3
		c0.1-1.4,0.3-2.7,0.4-4.2c0.1,0,0-0.1,0-0.3c0,0-0.1-0.1-0.3-0.1c-0.8-0.3-1.6-0.5-2.3-0.8c-6.9-2.2-13.8-1.8-20.4,0.7
		c-0.1,0-0.1,0.1-0.3,0.1c0,0-0.1,0-0.1,0.1c-0.1,0.1-0.1,0.1-0.1,0.3s0,0.1,0,0.3c0.1,1.4,0.3,2.7,0.4,4.2c0.1,1.6-0.3,3-1.3,4.2
		c-1,1.2-2.5,2.1-4,2.3c-1.3,0.1-2.5,0.4-3.8,0.7c-3,0.7-4.8,2.3-5.3,5.1c-0.8,3.5-1.4,6.9-2.2,10.4c-0.3,1.3-0.7,2.6-0.8,3.9
		c-0.1,0.9,0,1.8,0.3,2.7c0.4,0.9,0.9,1.8,1.6,2.5c0.7,0.7,1.6,1.2,2.5,1.6c0.9,0.4,2,0.5,3,0.5c7.2,0,14.3,0,21.5,0
		s14.4,0,21.7,0.1c1,0,2.2-0.3,3.1-0.7c0.9-0.5,1.8-1,2.5-1.8c0.7-0.8,1.2-1.7,1.4-2.6c0.3-0.9,0.3-2,0.1-2.9
		C65.8,42,64.8,37.3,63.8,32.6z M50.1,39.4c-0.5,2.1-1.7,4.2-3.4,5.7c-1.8,1.6-4,2.7-6.4,3.1c-2.5,0.4-4.9,0.3-7.2-0.7
		c-2.3-0.9-4.3-2.3-5.6-4.2s-2.1-4-2.1-6.2c0-1.4,0.3-3,1-4.3c0.7-1.3,1.6-2.6,2.7-3.6c1.2-1,2.5-2,4-2.5c1.4-0.7,3.1-0.9,4.7-0.9
		c2.5,0,4.8,0.7,6.9,2c2.1,1.3,3.6,3,4.6,5.1C50.4,35,50.6,37.2,50.1,39.4z"/>
</g>
</svg>
