<?xml version="1.0" encoding="utf-8"?>
<!-- Generator: Adobe Illustrator 24.0.1, SVG Export Plug-In . SVG Version: 6.00 Build 0)  -->
<svg version="1.1" id="Camada_1" xmlns="http://www.w3.org/2000/svg" xmlns:xlink="http://www.w3.org/1999/xlink" x="0px" y="0px"
	 viewBox="0 0 1080.7 1924.7" style="enable-background:new 0 0 1080.7 1924.7;" xml:space="preserve">
<style type="text/css">
	.st0{fill:#F9F5EA;}
	.st1{fill:#F4CB71;}
	.st2{fill:url(#SVGID_3_);}
	.st3{fill:#70B9D6;}
	.st4{fill:#4D352D;}
	.st5{fill:#E787B5;}
</style>
<g>
	<g>
		<rect id="SVGID_236_" x="0.3" y="0.3" class="st0" width="1080" height="1924"/>
	</g>
	<g>
		<g>
			<g>
				<defs>
					<rect id="SVGID_1_" x="0.3" y="0.3" width="1080" height="1924"/>
				</defs>
				<clipPath id="SVGID_2_">
					<use xlink:href="#SVGID_1_"  style="overflow:visible;"/>
				</clipPath>
			</g>
		</g>
	</g>
</g>
<g>
	<path class="st1" d="M965.1,583.8c-0.1,0-0.2,0-0.3,0c-20.7,1.9-41.2,5-60.2,14.3c0,0,0,0-0.1,0c0,0,0,0,0,0
		c-12.1,6-22,13.6-29.7,22.8c-9.4,11.3-15.5,25-17.9,41.2c0,0.1,0,0.1,0,0.2c-0.3,2.2-0.6,4.3-0.8,6.5c-1.8,21.3,4,40.5,20.5,56.1
		c0,0,0,0,0,0c11.9,11.3,25.7,19.7,40.9,25.5c0,0,0.1,0,0.1,0c54.2,20.8,108.5,26.2,162.8,14.5v0V585.3c-21.5-2.1-42.9-3.4-64.4-3.5
		C999,581.6,982.1,582.3,965.1,583.8z"/>
	<path class="st1" d="M936.1,359.6C936.1,359.6,936.1,359.6,936.1,359.6c-10.3-0.1-20.8,1.1-30.9,3.2c-22.3,4.6-39.2,17.4-50.9,36.9
		c-10.7,17.7-16.2,36.9-15.5,57.6c0.8,26.3,13.3,46,33.1,61.4c0.9,0.7,1.9,1.4,2.8,2.2c0.7,0.5,1.4,1,2.1,1.5c6,3.3,11.9,7,18.2,9.9
		c1.3,0.6,2.6,1.2,3.9,1.7c4.4,1.9,8.8,3.6,13.3,5.1c1,0.3,2,0.7,3.1,1c28.9,8.9,58.7,12.4,88.8,14c12.7,0.6,25.4,1,38,1
		c12.7,0,25.5-0.3,38.2-0.9v0v-167v0c-11.6-4.2-23.3-8.1-35.3-11.4C1009.4,365.7,973.1,359.8,936.1,359.6z"/>
	<path class="st1" d="M838.7,229.2c7.2,4.5,15,6.9,22.9,8.2c1.2,0.2,2.5,0.4,3.7,0.5c1.3,0.2,2.6,0.3,3.8,0.4
		c29.9,3.1,59.6,0.5,89.1-5.1c6-1.2,6.9-2.7,5.5-8.5c-4.7-19.8-10-39.4-18.1-58c-4.7-10.8-10-21.4-16.1-31.5
		c-3.1-5.2-7.8-9.9-12.8-13.4c-3.7-2.6-7.7-3.8-11.7-3.8c-4.1,0-8.2,1.3-12.2,3.6c-7.6,4.4-9.8,11.5-9.1,19.8
		c0.1,1.2,0.2,2.4,0.4,3.6c2.8,17.4,10,32.6,22.8,45c1.2,1.2,2.6,2.3,3.6,3.6c1.9,2.6,0.9,5.1-0.6,7.4c-0.8,1.2-1.7,1.6-2.7,1.6
		c-1,0-2.1-0.4-3.1-0.8c-1.1-0.4-2.2-1-3.3-1.5c-11.7-5.5-23.8-9.4-36.6-11c-0.8-0.1-1.7-0.2-2.5-0.3c-4.9-0.5-9.9-0.6-14.7,0.3
		c-9.7,1.7-15.9,7.9-18.1,17.5C826.8,216.5,831.4,223.6,838.7,229.2z"/>
	<path class="st1" d="M974.8,236.6c0-0.5-1.2-1.4-1.2-1.4c-1.2,1-2.3,2-3.5,3c1.1,0.6,1.9,0.8,2.5,0.8
		C974,239.1,974.6,238,974.8,236.6z"/>
	<path class="st1" d="M922.5,849.5c-0.6-0.3-1.4-0.6-2.3-0.8c-26.7-7.8-53.7-14.5-81.6-15.6c-6.3-0.3-12.6-0.3-18.8,0.6
		c-4.9,0.7-10,2.2-14.3,4.6c-7.8,4.3-11.4,11.6-11.2,20.5c0.1,3.8,1.1,7,2.8,9.6c2.2,3.4,5.7,6,10.1,7.9c17.7,7.7,35.8,9.1,54.4,3.7
		c7.1-2,7.9-1.5,10.5,6.4c-1.1,0.8-2.1,1.5-3.1,2.3c-1.8,1.3-3.5,2.6-5.2,3.9c-12.9,9.7-24.3,20.6-32.1,34.9c-3.9,7.3-4,15.4-0.7,22
		c0.2,0.3,0.3,0.6,0.5,0.9c0.1,0.2,0.2,0.5,0.4,0.7c0.3,0.4,0.5,0.8,0.8,1.2c0.1,0.1,0.1,0.2,0.2,0.3c0.3,0.4,0.6,0.8,0.9,1.1
		c0.1,0.1,0.2,0.2,0.3,0.4c0.3,0.3,0.6,0.6,0.9,0.9c0.2,0.2,0.3,0.3,0.4,0.5c0,0,0,0,0.1,0.1c7.3,7.1,17.5,8.2,27.3,1.9
		c5.8-3.7,11.1-8.6,15.6-13.8c12.7-15,22.3-32.1,30.5-49.9c5.5-11.8,10.1-24,14.8-36.1C925.4,853,925.2,850.9,922.5,849.5z"/>
	<path class="st1" d="M934.5,844.8c-0.1-0.1-1.6,0.5-1.7,0.7c0,0,0,0,0,0c0.4,1.5,1,3,1.6,4.5c0.8-0.4,1.6-0.7,2.5-1
		c0,0,0-0.1,0-0.1C936.1,847.5,935.4,846.1,934.5,844.8z"/>
	<path class="st1" d="M1060,837.5c-13.4,14.5-25.9,30-37.4,46.5c-8.9,12.7-17.3,25.7-23.4,39.9c-5.2,12-7.9,23.9-7.9,35.5
		c0,15,4.4,29.6,13.5,43.9c0,0,0,0,0,0c9.3,14.7,21.3,26.8,36.5,35.5c0,0,0,0,0,0c12.4,7.1,25.4,10.7,39,10.5V816.9
		c-2.2,2.1-4.4,4.2-6.6,6.4C1069,828,1064.5,832.7,1060,837.5z"/>
	<path class="st1" d="M1065.7,109.3c-22.6,11.4-36.1,29.4-39.1,54.6c-1.1,9-1.8,18.2-1,27.1c3.6,41.3,16.5,79.9,37.1,115.7
		c5.3,9.3,11.2,18.1,17.6,26.5V103.6C1075.3,105.1,1070.4,106.9,1065.7,109.3z"/>
</g>
<linearGradient id="SVGID_3_" gradientUnits="userSpaceOnUse" x1="921.2803" y1="1097.6271" x2="1499.6193" y2="1097.6271" gradientTransform="matrix(1 0 0 -1 0 3001.8896)">
	<stop  offset="0" style="stop-color:#AA002F"/>
	<stop  offset="1.929442e-02" style="stop-color:#B10F3E"/>
	<stop  offset="6.880178e-02" style="stop-color:#BF2F5E"/>
	<stop  offset="0.1244" style="stop-color:#CC4B7A"/>
	<stop  offset="0.1865" style="stop-color:#D66291"/>
	<stop  offset="0.2582" style="stop-color:#DE74A2"/>
	<stop  offset="0.3452" style="stop-color:#E480AE"/>
	<stop  offset="0.4637" style="stop-color:#E787B5"/>
	<stop  offset="0.7561" style="stop-color:#E889B7"/>
</linearGradient>
<path class="st2" d="M1073.2,1891.9c-20.3,8.9-40.4,18.1-60.2,27.8c10-3.6,20.2-6.6,30.6-8.8c11.3-2.4,24.8-3.8,36.7-1.1v-21
	C1077.9,1889.8,1075.6,1890.9,1073.2,1891.9z"/>
<g>
	<path class="st3" d="M769.6,622.3c-2.9-8.9-10-13.2-18.9-14c-5.1-0.4-10.4,0.1-15.3,1.2c-5.7,1.3-11.3,3.4-16.7,5.7
		c-2.6,1.1-5.2,2.3-7.7,3.5c-13.5,6.5-26.2,14.4-38.4,23.1c-0.7,0.5-1.4,1-2.1,1.5c-1.4,1-2.8,2.1-4.2,3.2
		c-4.9,3.7-9.8,7.5-14.6,11.3c-2.8,2.2-5.6,4.5-8.4,6.8c-0.8,0.6-1.4,1.2-2,1.7c-3.6,3.5-3.1,5.6,1.4,10.1
		c5.5,5.7,10.9,11.3,16.6,16.7c16.5,15.8,33.9,30.5,53.9,41.8c6.9,3.9,14,7.1,22.1,7.4c6.7,0.2,12.2-1.9,16.5-5.9
		c2-1.8,3.7-4.1,5.2-6.7c4.5-7.9,2.4-15.2-2.5-22c-1.6-2.2-3.2-4.3-5-6.3c-11.2-12.2-24.8-20.7-41-24.6c-6.7-1.6-7.6-2.6-6.4-9.4
		c0.1-0.5,0.2-0.9,0.3-1.5c3-0.3,5.7-0.6,8.4-1c12.8-1.3,25.3-3.9,37.1-9c5.3-2.3,10.7-5.1,15.1-8.8c0.5-0.4,0.9-0.8,1.3-1.2
		C770.8,639.5,772.5,631.2,769.6,622.3z"/>
	<path class="st3" d="M626.1,670.7C626.1,670.7,626.1,670.7,626.1,670.7c0.1,0.2,1.8,0.6,1.8,0.5c0.6-1.5,1-3.1,1.4-4.6
		c-0.8-0.2-1.7-0.5-2.6-0.7C626.4,667.5,626.2,669.1,626.1,670.7z"/>
	<path class="st3" d="M397.5,1261.4L397.5,1261.4c-1.6-3-3.3-6.2-5.7-8.5c0,0,0,0,0,0c-6.8-6.7-14-12.9-20.4-18.8
		c-12.1-6.6-23-13.4-34.4-18.9c-14-6.6-28.4-12.2-42.7-17.9c-3.5-1.4-5.5-1.5-6.9-0.1c-0.2,0.2-0.3,0.4-0.5,0.6
		c-0.1,0.2-0.2,0.3-0.3,0.5c0,0.1-0.1,0.1-0.1,0.2c-0.3,0.6-0.6,1.3-0.9,2.1c-0.1,0.3-0.2,0.5-0.3,0.8c0,0,0,0,0,0
		c-8.3,28.3-15.3,56.9-15.8,86.6c-0.1,6.3,0.1,12.9,1.5,19c0.1,0.4,0.2,0.7,0.3,1.1c0.2,0.8,0.5,1.7,0.7,2.5c0.7,2,1.5,4,2.5,5.8
		c0.5,0.9,1,1.8,1.5,2.6c0.4,0.5,0.7,1,1.1,1.5c0.2,0.3,0.4,0.6,0.6,0.8c0,0,0,0,0,0c4.4,5.3,10.4,7.8,16.4,7.8
		c7.7-0.1,15.2-4.4,18.9-12.5c6.9-14.8,9.4-30.4,6.4-46.6c-0.8-4.4-2-8.6-3.1-12.9c-0.1-0.6-0.2-1.2-0.2-1.7
		c0.1-2.3,1.7-3.7,3.8-4.8c0,0,0,0,0,0c0,0,0,0,0,0c2.8-1.7,4.6-0.3,6.2,1.9c0,0,0,0,0,0c1,1.4,1.9,2.8,2.9,4.2
		c7.4,10.5,16.2,19.7,26.3,27.6c4,3.1,8.6,5.7,13.3,7.7c9.3,3.9,19.6,1.4,26.3-5.9c3.3-3.6,5.1-8.1,5.2-13
		C400.4,1269.4,399.5,1265.4,397.5,1261.4C397.5,1261.4,397.5,1261.4,397.5,1261.4z"/>
	<path class="st3" d="M287.2,1186.4c-0.2-0.7-0.4-1.4-0.6-2.1c-1.9-0.1-4.1-0.8-5.1,2c0,0,0,0,0,0c-0.2,0.4,0.7,1.7,0.9,1.7
		C284,1187.6,285.6,1187,287.2,1186.4z"/>
	<path class="st3" d="M455.7,883.6c-17-16.5-35.4-31.2-55.3-43.9c-16.9-10.8-33.8-21.9-51.5-31.4c-26.5-14.1-53.4-27.7-80.7-40.1
		c-11.2-5.1-22.5-10.1-33.8-14.9c-2.8-1.2-5.6-2.4-8.4-3.5c0,0,0,0,0,0c1.6,5,1.9,10.4,0.4,16.2c-5.5,21.2-29.7,33.6-50.4,29.3
		c-11.5-2.4-22.5-8.6-32.3-14.9c-5.1-3.2-9.9-6.8-14.5-10.6c3.5,11,5.1,22.5,4.5,34.3c0,0,0,0,0,0.1c0,0,0,0.1,0,0.1
		c-0.3,4.3-0.6,8.6-1.3,12.9c-1.7,10.4-5,21.1-12.7,28.7c-7.9,7.9-20.4,11-31.4,10.1c-12.3-1-23.5-7.7-29.3-18.7
		c-4.3-8.3-6.4-17.8-7.9-26.9c-0.3-1.5-0.5-3.1-0.7-4.6c0,0,0-0.1,0-0.1c-8.7,43.2-15.5,86.7-20.9,130.5c-0.4,3.3-0.8,6.7-1.2,10
		c-3.5,29.5-5.7,59.1-5.8,88.8c0,17.8,0.8,35.6,2.6,53.4c0.1,0.7,0.1,1.3,0.2,2c1.8,16.1,4.6,32,10.6,47.1c1.1,2.7,2.3,5.4,3.6,8.1
		c13.4,26.9,35.1,43.3,64.7,48c18.2,2.9,36,0.8,51.9-10c14.9-10.2,24.9-24.5,32.8-40.4c13.1-26.2,19.5-54.5,23.6-83.2
		c5.9-40.9,1.7-80.8-10.5-119.5c-2.1-6.6-4.4-13.2-7-19.7c-1.1-2.9-1.8-4.9-1.7-6.5c0.2-2.6,2.3-4.1,7.6-6.3
		c2.1-0.9,4.5-1.3,6.8-1.6c3.2-0.5,5.7,0.4,7.5,3.4c1.7,2.7,3.7,5.2,5.6,7.8c27.9,37.8,60.2,71.2,97.7,99.2c2.5,1.9,5,3.7,7.6,5.5
		c13.3,9.5,26.9,18.6,41.7,25.4c15.6,7.1,31.6,10.7,48.1,8.6c4.6-0.6,9.2-1.6,13.9-3.1c20.5-6.7,36.8-19.3,50-36.1
		c16.9-21.6,22.3-45.7,14.8-72.4C487.8,920.4,473.5,900.9,455.7,883.6z"/>
	<path class="st3" d="M53.1,669.1C53.1,669.1,53.2,669,53.1,669.1C53.2,669,53.2,669,53.1,669.1c0,0-0.1,0-0.1,0.1
		C53,669.2,53,669.2,53.1,669.1z"/>
	<path class="st3" d="M53.2,669C53.2,669,53.2,669,53.2,669c0.1,0,0.1,0,0.1-0.1C53.3,669,53.2,669,53.2,669
		C53.2,669,53.2,669,53.2,669C53.1,669,53.1,669,53.2,669C53.2,669,53.3,669,53.2,669z"/>
	<path class="st3" d="M53.4,668.9c0.1-0.1,0.2-0.1,0.2-0.1C53.5,668.9,53.4,668.9,53.4,668.9z"/>
	<path class="st3" d="M69.7,678.5c-0.3,0.6-0.8,1.2-1.4,1.9c-0.1,0.1-0.2,0.2-0.3,0.3c2.6-0.1,5.3,0,8,0.3
		c-0.7-5.4-1.4-10.8-2.3-16.2c-0.2-1.2-1.8-3-3-3.2c-3.7-0.6-7.3-0.7-10.8,0c-2.1,0.4-4.1,1.1-6,2.2c-1,0.5-2,1.1-2.9,1.6
		c-4.4,2.4-8.9,4.9-13.7,7.5c0.7,0.6,1.5,1.4,2.3,2c1.2,0.7,2.3,1.5,3.4,2.4c0,0,0,0,0,0c1.1-1.6,2.7-3.1,4-4.3
		c1.5-1.4,3.2-2.7,5.1-3.5c0.3-0.2,0.6-0.3,0.9-0.4c0,0,0,0,0.1,0c0.9-0.8,1.7-1.5,2.6-2.2c1.4-1.1,2.9-2,4.7-2.4
		c1.2-0.4,2.5-0.5,3.8-0.5c1.4,0,1.6,0.7,1.8,1.9c0.4,1.7,1,3.3,1.3,4.9c0.3,1.5,1.1,2.9,1.9,4.3c0.7,0.9,1,1.7,0.7,2.7
		C70,678,69.9,678.2,69.7,678.5z"/>
	<path class="st3" d="M53.5,668.8c-0.1,0.1-0.2,0.1-0.3,0.2c0,0,0.1,0,0.1,0C53.4,668.9,53.4,668.9,53.5,668.8z"/>
	<path class="st3" d="M114.6,594.7c0.1,0.1,0.2,0.3,0.3,0.5c0.4,0.7,0.5,1.5,0.7,2.4c2.8-3.8,6.5-7.3,9.8-10.3c0,0,0.1,0,0.1-0.1
		c-0.1-0.9-0.3-1.9-0.4-2.8c0,0-0.1,0-0.1,0c-6.7-2.8-13.5-5.5-20.4-8.5c-2-0.9-3.5-0.8-4.8,1c-3.4,4.4-6.1,9.2-6.3,15
		c-0.3,6.4-0.3,12.9-0.5,19.4c-0.2,0,0.2,0.1,0.7,0.1c0.8-0.2,1.7-0.5,2.4-0.9c0,0,0-0.1,0-0.1c0-0.4-0.1-0.7-0.1-1.1
		c-0.1-2,0-4.1,0.5-6.1c0.1-0.3,0.2-0.6,0.3-0.9c0,0,0,0,0-0.1c0-0.1,0.1-0.3,0.1-0.4c0-1-0.1-2,0-2.9c0.1-1.8,0.4-3.5,1.1-5.2
		c0.5-1.2,1.2-2.3,2-3.3c0.9-1.1,1.5-0.8,2.6-0.2c-0.1-0.1-0.2-0.1-0.3-0.2c1.7,0.8,3.4,1.3,5,2.2c-0.1-0.1-0.2-0.1-0.3-0.2
		c1.6,0.9,3.2,1.2,5,1.4C113.1,593.6,114,593.8,114.6,594.7z"/>
	<path class="st3" d="M62.9,492.3C62.9,492.3,62.8,492.2,62.9,492.3c-0.4-0.2-0.7-0.4-1.1-0.5c-0.9-0.3-2.4-0.2-3.1,0.4
		c-5.5,4.1-10.9,8.4-16.4,12.5c-1.8,1.4-2.7,2.9-1.5,4.7c1.6,2.6,3.1,5.4,4.9,7.9c1,1.5,2.2,2.8,3.5,3.9c5.4,4.4,11.9,7.6,18.2,11.4
		c0.1-0.8,0.4-1.5,0.5-2.3c0-0.4,0.1-0.8,0-1.2c0.1-2.9,0.5-5.6,1.1-8.3c-1.2-0.4-2.4-0.9-3.4-1.4c-1.9-0.8-3.7-1.9-5.2-3.3
		c-0.3-0.3-0.4-0.4-0.6-0.6c-1-0.5-2.1-1-3.1-1.6c-1.5-0.9-2.9-2-4-3.4c-0.7-1-1.4-2.1-1.9-3.3c-0.6-1.3,0-1.7,1-2.4
		c-0.1,0.1-0.2,0.1-0.3,0.2c1.5-1,2.8-2.3,4.3-3.3c-0.1,0.1-0.2,0.1-0.3,0.2c1.5-1,2.6-2.2,3.6-3.7c0.7-1,1.3-1.7,2.5-1.8
		c0.2,0,0.3,0,0.5,0c0.7,0,1.3,0.1,1.8,0.4c0.3,0.1,0.6,0.2,0.9,0.3C64.1,495.5,63.4,493.9,62.9,492.3z"/>
	<path class="st3" d="M64.1,516.8C64.1,516.8,64.1,516.7,64.1,516.8c-0.1,0-0.1,0-0.2-0.1C64,516.7,64,516.7,64.1,516.8z"/>
	<path class="st3" d="M59.8,515.5C59.8,515.5,59.7,515.4,59.8,515.5C59.4,515.3,59.6,515.4,59.8,515.5z"/>
	<path class="st3" d="M364.2,103.7c20-4.8,40-10.2,58.9-18.4c11-4.8,21.7-10.2,32-16.4c5.3-3.1,10.1-7.9,13.7-13
		c4.4-6.3,4.9-13.1,2.4-19.9c-0.6-1.5-1.3-3-2.2-4.5c-4.5-7.7-11.6-10-20.1-9.3c-1.3,0.1-2.5,0.2-3.7,0.4
		c-17.8,2.8-33.2,10.2-45.8,23.2c-1.2,1.2-2.3,2.6-3.6,3.6c-2.6,1.9-5.2,0.9-7.5-0.6c-1.2-0.8-1.6-1.8-1.6-2.8c0-1,0.4-2,0.8-3.1
		c0.4-1.1,1-2.2,1.5-3.3c5.6-11.8,9.6-24.2,11.2-37.2c0.1-1,0.3-2.1,0.4-3.1h0h-49.1c-0.2,1.5-0.5,2.9-0.6,4.4
		c-1.2,9.9-1.7,19.8-1.8,29.6c0,21.7,2.5,43.3,6.6,64.8C356.7,104.2,358.3,105.1,364.2,103.7z"/>
	<path class="st3" d="M352.1,114.7c0.4,0,1.4-1.2,1.4-1.2c-0.9-1.3-2-2.4-3-3.6C348.7,113.3,350,114.4,352.1,114.7z"/>
	<path class="st3" d="M587.3,365.6c-11.4-9-25.6-14.7-42.6-17c-20.8-2.8-40.9,0.2-60.8,5.8c-36.5,10.3-70.2,26.7-102.8,45.6
		c-68.5,39.7-131.8,86.5-190.8,139c0.3-0.2,0.6-0.4,0.9-0.6c11.2-6.7,22.8-12.7,34.9-17.4c17.4-6.6,41.5-11.4,54.6,6
		c13.2,17.6,7.7,44.2-8.5,57.7c-9,7.5-20.8,12.3-31.8,16c-5.7,1.9-11.5,3.5-17.4,4.7c10.7,4.1,20.6,9.9,29.3,17.6
		c0.1,0,0.3,0.1,0.4,0.2c3.2,2.9,6.4,5.9,9.3,9.1c7.1,7.8,13.4,17.1,14.6,27.8c1.2,11.2-4.1,22.9-11.7,30.9
		c-3.4,3.6-7.4,6.4-11.8,8.4c0,0,0,0-0.1,0c5,4.1,9.9,8.1,14.9,12.1c4.6,3.7,9.1,7.3,13.7,10.9c21.8,17.1,43.9,33.8,65.8,50.7
		c0.2-0.3,0.4-0.6,0.5-1c0.1,0,0.1,0.1,0.2,0.1c6.2,4.3,12.4,8.7,18.6,12.9c22.1,14.8,45,28.1,69,39.5c0.1,0.1,0.2,0.1,0.3,0.2
		c18.4,8.8,37.2,16.9,57.6,19.8c36.5,5.2,66.2-6.5,87.5-36.9c11.2-16,16-33.8,11.8-53.5c-3.3-15.4-10.3-29.1-19.1-42
		c-11.8-17.1-26.6-31.4-41.8-45.4c-7.6-6.9-15.4-13.4-23.6-19.3c-18.1-13.1-37.6-23.8-58.7-32.1c-0.6-0.3-1.3-0.5-1.9-0.7
		c-1.7-0.7-3.4-1.3-5.1-1.9c-0.3-0.1-0.6-0.2-0.9-0.3c-0.1,0-0.2-0.1-0.3-0.1c-6-2.2-12.1-4.1-18.3-5.9c-13-3.7-26.3-6.6-39.8-8.5
		c-1.4-0.2-2.5-0.5-3.4-0.8c-1.9-0.9-2.5-2.4-2.3-5.6c0.2-3.5,1.1-7,2-10.4c1.1-3.8,3.8-5.4,7.9-5.8c46.1-4.3,90.9-14.4,133.9-31.9
		c20.5-8.3,40.7-17.3,59-29.9c14-9.6,25.8-21.3,32.7-37.1c9.8-22.4,9-45.3,1.8-68.1C609.4,390.1,600.1,375.8,587.3,365.6z"/>
	<path class="st3" d="M48.2,388c0-0.5,0-1.1,0-1.6c0.1-7.7,0.6-15.5,1.6-23.1c2.4-18.5,9.6-42.1,31.1-45.3
		c21.7-3.3,42.6,14.1,46.8,34.8c2.3,11.5,0.9,24.1-1,35.6c-1,5.9-2.4,11.7-4,17.4c8.7-7.6,18.7-13.6,29.7-17.6
		c0.1,0,0.2-0.1,0.3-0.1c4-1.4,8-2.7,12.2-3.7c10.2-2.5,21.4-3.7,31.4,0.4c10.4,4.2,18.1,14.4,21.6,24.9c3.5,10.6,2.4,22.3-3.7,31.5
		c24-8.8,47.8-18.1,71.4-27.8c42.2-17.4,83.5-36.5,122.1-61c22.4-14.2,44.1-29.3,61.6-49.8c22.6-26.4,27.6-64.5,12-95.5
		c-11.6-23-29.9-36.7-55.5-39.8c-6.7-0.8-13.6-1.4-20.4-1.3c-2.4,0-4.8,0.1-7.1,0.3c-42,3.7-81.2,16.7-117.6,37.7
		c-31.4,18.1-57.7,42.3-80.1,70.7c-1,1.3-2.1,2.2-3.3,2.5c-1.2,0.3-2.4,0.1-3.6-0.8c-3.6-2.7-7.2-5.8-10.1-9.3
		c-1.1-1.4-1.1-4.6-0.3-6.4c10.9-24.3,20.3-49,27.4-74.6c10.2-36.3,16.2-73.1,16.4-110.8c0-10.5-1.2-21.1-3.3-31.4
		c-3.8-18.5-13.1-33.3-27.1-44.6H74.9h0C70.7,3.4,66.7,8,63,13c-0.5,0.7-1,1.4-1.5,2.1c-3.4,6.1-7.1,12.1-10.3,18.4
		c-3.1,6.7-5.7,13.6-7.9,20.6c-9,29.4-12.6,59.7-14.2,90.3c-2.6,51.6,0.3,103.1,6.3,154.4C38.9,328.7,42.9,358.5,48.2,388z"/>
</g>
<g>
	<path class="st1" d="M212,744c-0.9-1.7-2-3.3-3.2-4.8c-9.6-12.3-25.2-20-39.1-26.2c-2.9-1.3-5.8-2.5-8.7-3.7
		c-14.5-5.9-29.5-10.6-44.5-14.7c-7.9-2.1-15.9-4.1-24-5.8c-5.2-1.1-10.5-2-15.8-2.8c0,0-0.1,0-0.1,0c-0.7-0.1-1.5-0.2-2.2-0.3
		c-2.2-0.3-4.3-0.4-6.5-0.6c1.1,0.1,0.5,0.1-0.1,0.1c-0.4,0.4-2.4,1.7-2.9,2.2c-1.9,2.4-2.5,6.5-2.8,10.2c0,0,0,0,0,0
		c-0.1,1.7-0.2,3.3-0.3,4.7c-2.3,21.7-3.9,44.1-3.5,66.3c0,0.1,0,0.1,0,0.2c0.3,14.6,1.5,29.2,4,43.4c3,16.3,10.5,40.3,31.4,38.8
		c23.2-1.7,27.8-28.2,29-46.7c1-18.4-3.5-36.2-12.4-52.3c-0.1-0.1-0.2-0.2-0.2-0.3c0,0,0.1,0,0.1,0c0-0.1-0.1-0.1-0.1-0.2
		c-2-3.5,8.7-3.6,10.5-1.6c10.1,11,21.5,20.7,34.2,28.6c9.2,5.7,21.4,13.7,32.6,12.6c10.4-1,19.5-9.1,24.7-17.8
		C217.8,763.8,217,753.2,212,744C212,744,212,744,212,744z"/>
	<path class="st1" d="M58.7,683.5c0.4-0.4,0.8-0.7,1.2-1c0,0,0.1-0.1,0.2-0.1c0.2-0.1,0.3-0.3,0.5-0.4c-0.1-0.1-0.1-0.2-0.2-0.2
		c-0.9-1.5-1.3-3.1-1.6-4.8c0,0,0,0.1,0,0.1c-0.3-1.6-0.9-3-1.2-4.5c-0.1-0.3-0.3-0.6-0.5-0.7c-0.8-0.1-1.6,0-2.4,0.1
		c-0.5,0-1,0.1-1.4,0.2c-0.3,0.2-0.5,0.4-0.7,0.6c-0.9,0.8-1.9,1.5-2.9,2.2c0,0.2,0,0.4,0,0.6c0.2,0.9,0.7,1.3,1.5,1.8
		c1.2,0.6,2.4,1.2,3.5,2.1c1.1,0.9,2.1,1.9,3,3.1c0.2,0.3,0.4,0.6,0.7,0.8C58.5,683.3,58.6,683.4,58.7,683.5z"/>
	<path class="st1" d="M56.3,427.1c0.6,6.6,1.5,13.3,2.4,19.9c2,14.2,4.4,28.4,8.3,42.2c0.5,1.9,1.2,3.7,1.8,5.5c0,0,0,0,0,0.1
		c0,0.1,0.1,0.2,0.1,0.2c0,0.1,0.1,0.3,0.2,0.5c0.5,0.2,2.5,1.6,3.1,1.8c0.9,0.3,1.9,0.3,3,0.3c0,0,0,0,0,0c4-0.2,8.7-2.2,11.9-3.3
		c34.4-10.7,70.2-23.6,100.5-43.4c0.1-0.1,0.3-0.2,0.4-0.3c0,0,0,0,0,0c13.8-9.1,32.9-25.5,23.3-44.1c-10.6-20.6-36.8-14.4-54.3-8.3
		c-17.5,6.4-32.1,17.7-43.2,32.5c-2.4,3.2-6.6-6.4-5.6-9c-0.1-0.1-0.1-0.2-0.2-0.3c0.2-0.3,0.4-0.5,0.6-0.8
		c5.8-13.4,10.1-27.3,12.4-41.7c1.6-10.6,4.1-25.1-1.3-34.9c-5-9.2-16.1-14.4-26.1-15.8c-13-1.8-23.9,5.2-30.1,16.4
		c-7.6,13.7-8.6,31-8.8,46.3c-0.2,11.3,0.3,22.7,1.4,34C56.1,425.6,56.2,426.4,56.3,427.1z"/>
	<path class="st1" d="M68.9,495C68.8,494.7,68.8,494.8,68.9,495L68.9,495z"/>
	<path class="st1" d="M61.7,514.1c-0.1-0.1-0.2-0.1-0.3-0.2C61.5,514,61.6,514,61.7,514.1C61.7,514.1,61.7,514.1,61.7,514.1z"/>
	<path class="st1" d="M64.2,516.8c0,0-0.1,0-0.1,0c0,0,0,0,0,0C64.1,516.8,64.2,516.8,64.2,516.8z"/>
	<path class="st1" d="M66.4,516.4c0.7-0.6,1-1.2,1.1-2.2c0.2-1.4,0.2-2.8,0.6-4.1c0.4-1.4,1-2.7,1.7-4c0.3-0.5,0.6-0.9,0.7-1.4
		c0-0.1,0.1-0.2,0.1-0.3c-0.3-0.1-0.6-0.3-0.9-0.4c-0.1-0.1-0.3-0.1-0.4-0.2c-0.3-0.2-0.6-0.3-0.9-0.5c-0.1,0.2-0.2,0.4-0.4,0.5
		c-1,1.3-2.2,2.3-3.5,3.1c-1.4,1-2.6,2.3-4.1,3.2c0.1-0.1,0.2-0.1,0.3-0.2c-0.3,0.2-0.5,0.4-0.6,0.7c0.2,0.8,0.7,1.5,1.1,2.3
		c0.3,0.4,0.5,0.8,0.8,1.2c0.1,0.1,0.3,0.2,0.5,0.3c0.1,0.1,0.2,0.1,0.3,0.2c1.1,0.6,2.2,1.2,3.2,1.9
		C66.2,516.5,66.3,516.4,66.4,516.4z"/>
	<path class="st1" d="M75.1,506.2c0.4,0.1,0.6,0.2,0.8,0.3c0,0,0,0,0,0c0,0,0,0,0,0c-0.2-0.1-0.3-0.1-0.5-0.2
		C75.3,506.3,75.2,506.2,75.1,506.2z"/>
	<path class="st1" d="M248.9,524.3c-15.6-0.2-31.3,7.2-44.9,14.2c-13.2,6.8-25.8,14.8-38,23.3c-0.3,0.2-0.6,0.5-1,0.7
		c-2.9,2-5.7,4-8.5,6.1c-10.4,7.7-20.8,15.7-30.3,24.5c0,0,0,0-0.1,0.1c-1,0.9-1.9,1.8-2.8,2.7c-1.5,1.5-3,3.1-4.5,4.7
		c0.8-0.8,0.3-0.3-0.1,0.1c0.1,0.6-0.2,2.9,0,3.6c0,0.2,0.1,0.3,0.1,0.5c0,0,0,0.1,0,0.1c1.3,4.2,6.7,8.2,9.5,11.1
		c2.5,2.4,4.9,4.8,7.4,7.3c10.2,9.9,20.9,19.6,32,28.8c14.8,12.2,30.4,23.3,46.9,32.2c8.7,4.7,20.7,9.9,31.4,9.5c0,0,0.1,0,0.1,0
		c7.1-0.3,13.7-2.9,18.4-9.8c13.2-19.1-4.7-39.2-18.4-51.7c-13.7-12.3-30.4-19.8-48.8-23c-0.1,0-0.1,0-0.2,0c0,0,0,0,0-0.1
		c-0.1,0-0.2,0-0.2,0c-4-0.6,2.6-9,5.3-9.2c14.9-1.1,29.6-3.9,43.7-8.9c10.1-3.6,24-8.2,30.1-17.6c5.7-8.7,5.1-20.9,1.5-30.4
		C273,530.7,261.7,524.4,248.9,524.3z"/>
	<path class="st1" d="M99.3,608.8C99.3,608.8,99.3,608.8,99.3,608.8c0.1,0.1,0.2,0.1,0.2,0.1c0.9,0.5,1.7,0.4,2.5,0
		c1.2-0.5,2.4-1.1,3.8-1.4s2.8-0.4,4.3-0.4c0.4,0,0.9,0,1.3,0c0.1,0,0.3,0,0.4-0.1c0-0.5,0-1,0-1.5c0,0,0-0.1,0-0.1c0,0,0-0.1,0-0.1
		c0,0,0,0,0,0c0-0.3,0-0.5,0-0.8c-0.1,0-0.2,0-0.3,0c-1.7-0.2-3.2-0.9-4.7-1.7c0.1,0.1,0.2,0.1,0.3,0.2c-1.6-0.8-3.3-1.2-4.8-2.1
		c0.1,0.1,0.2,0.1,0.3,0.2c-0.3-0.2-0.6-0.2-0.9-0.1c-0.6,0.7-1,1.4-1.5,2.1c-0.3,0.4-0.5,0.8-0.7,1.2c0,0,0,0,0,0.1
		c0,0.3,0,0.5,0,0.8C99.5,606.3,99.4,607.5,99.3,608.8C99.3,608.8,99.3,608.8,99.3,608.8z"/>
	<path class="st1" d="M750.4,1848.7c0.1,0,0.2-0.1,0.2-0.1C750.5,1848.7,750.4,1848.7,750.4,1848.7z"/>
	<path class="st1" d="M750.9,1848.5C750.9,1848.5,750.9,1848.5,750.9,1848.5C750.9,1848.5,750.9,1848.5,750.9,1848.5
		C750.9,1848.5,750.9,1848.5,750.9,1848.5z"/>
	<path class="st1" d="M764.9,1841.8c-1.8,1.7-4.1,3-6.1,4.1c-2.1,1.1-4.3,2-6.6,2.4c-0.4,0.1-0.7,0.1-1.1,0.2h0c0,0,0,0,0,0
		c0,0,0,0-0.1,0c0.1,0,0,0,0,0c-1.1,0.5-2.3,1.1-3.4,1.6c-1.9,0.8-3.8,1.3-5.9,1.3c-1.5,0-3-0.2-4.4-0.6c-1.5-0.4-1.5-1.2-1.4-2.6
		c0,0.1,0,0.3,0,0.4c0.1-2.1-0.2-4.1,0-6.2c0,0.1,0,0.3,0,0.4c0.2-2.1-0.3-4-0.9-5.9c-0.4-1.4-0.6-2.4,0-3.4
		c0.1-0.2,0.2-0.4,0.4-0.6c0.6-0.7,1.4-1.2,2.2-1.8c-2.8-0.6-5.7-1.5-8.4-2.5c0,0-0.1,0-0.1-0.1c-0.8,6.1-1.5,12.3-1.9,18.4
		c-0.1,1.4,1.2,3.8,2.5,4.4c5.7,2.6,11.8,3.8,18,2.6c0.4-0.1,0.8-0.2,1.3-0.3c6.9-1.7,13.8-3.6,21.1-5.5c-0.7-0.9-1.3-2-2.2-2.9
		C766.8,1844.1,765.8,1843,764.9,1841.8z"/>
	<path class="st1" d="M683.9,1910.3c0,0.1,0,0.2-0.1,0.3C684,1910,684,1910.1,683.9,1910.3z"/>
	<path class="st1" d="M683.8,1910.5c0,0.1-0.1,0.2-0.1,0.3C683.7,1910.7,683.8,1910.6,683.8,1910.5z"/>
	<path class="st1" d="M690.9,1901.1C690.9,1901.1,691,1901.1,690.9,1901.1C690.9,1901.1,690.9,1901.1,690.9,1901.1z"/>
	<path class="st1" d="M690.1,1900.9c-1,0-2,0.1-2.9,0.3c-0.1,0-0.2,0-0.3,0.1c0,0,0,0,0,0c-0.1,0.4-0.1,0.8-0.2,1.2
		c-0.4,2.3-1,4.6-2.2,6.7c-0.1,0.3-0.3,0.6-0.5,0.9c0,0.2-0.1,0.4-0.2,0.5c-0.2,1.1-0.5,2.2-0.8,3.3c-0.6,2-1.4,3.9-2.7,5.5
		c-0.9,1.2-2,2.2-3.2,3.1c-1.3,0.9-1.9,0.5-2.9-0.5c0.1,0.1,0.2,0.2,0.3,0.3c-1.6-1.4-3.4-2.5-4.9-3.9c0.1,0.1,0.2,0.2,0.3,0.3
		c-1.6-1.4-3.3-2.2-5.2-2.9c-1.2-0.5-2.1-1-2.5-2.1c-0.1-0.2-0.2-0.4-0.3-0.7c-0.2-0.7-0.2-1.4-0.1-2.1c0-0.3,0-0.6,0-0.9
		c-4.1,3.4-9.2,6.3-13.7,8.7c0,0-0.1,0-0.1,0.1c-0.1,1.1-0.2,2.2-0.3,3.3c1,0.7,2,1.5,3,2.2c0.2,0.1,0.4,0.3,0.7,0.4l32.6,0l0.3-0.4
		c0.2-0.6,0.5-1.2,0.6-1.8c2.1-7.1,4-14.2,6-21.4C690.8,1901.1,690.5,1901,690.1,1900.9C690.1,1900.9,690.1,1900.9,690.1,1900.9z"/>
	<path class="st1" d="M855.9,1874.3c0.1,0.1,0.1,0.1,0.2,0.1c0,0,0,0,0,0C856.1,1874.4,856,1874.4,855.9,1874.3
		C856,1874.4,856,1874.4,855.9,1874.3z"/>
	<path class="st1" d="M856.8,1875.5c-0.2-0.3-0.4-0.6-0.6-0.9c0,0-0.1-0.1-0.1-0.1c0.2,0.2-0.1,0-0.3-0.2c-0.9-0.6-1.8-1.3-2.7-2
		c-1.6-1.3-3-2.8-4-4.6c-0.7-1.2-1.3-2.7-1.6-4.1c-0.4-1.5,0.2-1.9,1.4-2.4c1.7-0.8,3.3-2,4.9-2.7c1.8-0.9,3.3-2.1,4.6-3.6
		c0.9-0.9,1.7-1.5,2.9-1.6c0.2-0.1,0.5-0.1,0.8,0.1c0.8,0.1,1.6,0.5,2.4,0.8c-0.8-2.9-1.4-6-1.8-9.1c-0.8-0.6-1.6-1.2-2.4-1.7
		c-0.1,0-0.1-0.1-0.2-0.1c-0.9-0.6-2.5-0.9-3.4-0.5c-7.3,3-14.4,6.3-21.7,9.3c-2.5,1.1-3.9,2.7-3,5.2c2,5.5,3.4,11.5,6.8,16.1
		c1.7,2.3,3.6,4.4,5.6,6.4c3.4,3.4,7.2,6.7,10.7,10.3c0.5-1.3,1.3-2.9,1.7-4.6c0.8-2.4,1.7-4.7,2.8-7
		C858.7,1877.6,857.6,1876.6,856.8,1875.5z"/>
	<path class="st1" d="M757,1634.4c-26.2-4.6-38.8,23.6-45.3,43.8c-6.3,20.2-6.2,41.3-0.7,61.9c0,0.1,0.1,0.1,0.1,0.2c0,0,0,0-0.1,0
		c0,0.1,0,0.1,0.1,0.2c1.2,4.4-10.7,1.5-12.2-1.2c-8.3-15.1-18.2-29.1-30.1-41.4c-8.5-8.9-20-21.2-32.7-23.1
		c-11.8-1.7-24.3,4.7-32.5,12.9c-8.9,9-11.1,20.8-8.2,32.3c0,0.1,0.1,0.3,0.1,0.4c0.6,2.1,1.3,4.1,2.2,6.2
		c7.2,16.4,22.3,29.3,36.1,40.1c3.6,2.9,7.4,5.6,11.1,8.4c13.7,9.9,28.1,18.7,42.9,26.9c8.3,4.6,16.7,9.2,25.3,13.3
		c5.5,2.7,11,5.2,16.7,7.4c0,0,0.1,0,0.1,0c0.7,0.3,1.5,0.6,2.2,0.9c2.4,0.9,4.7,1.7,7.1,2.5c-1.2-0.4-0.5-0.2,0.2,0
		c0.5-0.4,3.2-1.3,3.8-1.7c2.9-2.2,4.6-6.7,6-10.8c0,0,0,0,0,0c0.6-1.8,1.1-3.5,1.6-4.9c8.5-23.1,16.5-47.3,22.2-71.8
		c0.1-0.4,0.2-0.9,0.3-1.3c3.8-16.4,6.5-32.9,7.7-49.4C782.4,1667.4,780.7,1638.5,757,1634.4z"/>
	<path class="st1" d="M752.2,1844.5c0.1-0.1,0.3-0.1,0.4-0.2c1.2-0.7,2.5-1.2,3.9-1.6c0.1-0.2,0.1-0.4,0.1-0.6
		c0-1.1-0.4-1.7-1.2-2.4c-1.2-1-2.3-2-3.3-3.3c-1.1-1.3-1.8-2.8-2.5-4.3c-0.1-0.3-0.2-0.6-0.4-0.9c-0.1-0.2-0.2-0.4-0.4-0.6
		c-0.5,0.3-1,0.5-1.5,0.7c-0.4,0.2-0.7,0.3-1.1,0.5c0,0,0,0,0,0c0,0.1,0.1,0.2,0.1,0.3c0.5,1.9,0.6,3.6,0.4,5.6
		c0,1.8,0.3,3.7,0.1,5.5c0,0.4,0.1,0.7,0.4,0.9c0.8,0.3,1.8,0.4,2.7,0.5c0.5,0,1.1,0.1,1.6,0.1
		C751.7,1844.6,752,1844.5,752.2,1844.5z"/>
	<path class="st1" d="M1047.4,1778.2c-8.4-25.3-39.2-22.9-60.1-19.1c-20.9,4.1-39.5,14.3-54.9,29.1c-3.3,3.2-6.3-8.4-4.8-11.2
		c0-0.1-0.1-0.2-0.1-0.3c0.3-0.2,0.5-0.5,0.8-0.7c9-14.1,16.5-29.2,21.6-45.2c3.7-11.8,9.2-27.7,4.8-39.8
		c-4-11.3-15.6-19.2-26.7-22.5c-14.5-4.4-28.1,1.6-37.1,13.2c-8.3,10.6-12.7,24.3-15.7,37.8c-0.1,0.5-0.2,1-0.3,1.4
		c-0.8,3.9-1.6,7.8-2.2,11.6c-3.7,21.2-5.2,42.8-5.5,64.3c-0.2,16.4-0.1,33,1.9,49.3c0.2,1.4,0.4,2.7,0.6,4.1c0,0,0,0.1,0,0.1
		c0.2,1.1,0.4,2.2,0.6,3.3c-0.3-1.3-0.2-0.6,0,0.1c0.5,0.2,2.6,2.2,3.3,2.5c0.4,0.2,0.8,0.3,1.3,0.5c0.1,0,0.1,0,0.2,0.1
		c4.7,1.3,11.6-0.6,15.9-1.2c31.2-4.4,63.5-10.3,93.9-20.5c0.2-0.1,0.4-0.1,0.6-0.2c9.4-3.2,18.6-6.7,27.6-10.7
		C1030.4,1816.2,1055,1801,1047.4,1778.2z"/>
	<path class="st1" d="M858.5,1872.7c0.3,0.2,0.6,0.4,0.9,0.6c0,0-0.1-0.1-0.1-0.1C859.1,1873.1,858.9,1873,858.5,1872.7z"/>
	<path class="st1" d="M870.3,1863.7c-0.3-0.2-0.5-0.4-0.8-0.5c-0.3-0.2-0.6-0.5-1-0.7c0,0-0.1,0.1-0.1,0.1c0,0,0,0,0,0
		c-1.4,1.3-2.9,2.2-4.6,3c-1.7,0.8-3.2,1.9-4.9,2.7c-0.3,0.2-0.5,0.4-0.6,0.7c0.2,0.9,0.5,1.9,0.9,2.8c0.1,0.5,0.3,1,0.6,1.5
		c0.1,0.1,0.3,0.4,0.4,0.5c0.1,0.1,0.3,0.2,0.4,0.3c0.4,0.3,0.7,0.6,1.1,0.9c0.1,0,0.1,0.1,0.2,0.1c0.7,0.6,1.4,1.2,2.1,1.8
		c0.2,0,0.4-0.1,0.6-0.2c-0.1,0.1-0.3,0.1-0.4,0.2c1.2-0.5,1.6-1.3,1.9-2.4c0.4-1.5,0.8-3,1.4-4.5s1.6-2.9,2.6-4.2
		c0.2-0.3,0.4-0.5,0.6-0.8c0.2-0.2,0.3-0.5,0.4-0.8c-0.2-0.1-0.4-0.3-0.6-0.4C870.4,1863.8,870.3,1863.8,870.3,1863.7z"/>
	<path class="st1" d="M648.9,1911.8c1.3-0.7,2.5-1.4,3.7-2.1c2.1-1.3,4.2-2.6,6.3-4c-1.1,0.7-0.4,0.3,0.2-0.1c0.1-0.6,1-3.3,1-4
		c0-0.2,0-0.4,0-0.6c0,0,0,0,0,0c-0.2-5-5.1-11.1-7.5-15.1c-1.9-3.2-3.9-6.4-5.9-9.6c-9-14.6-18.7-29.1-29.1-43.1
		c-12.7-17.1-26.6-33.2-41.9-47.3c-8.4-7.7-20.2-16.8-32.2-19.4c0,0-0.1,0-0.1,0c-8-1.7-16.1-0.5-23.2,5.8c-20,17.6-5.7,45,6,62.7
		c12,17.7,28.6,30.8,48.3,39.2c4.2,1.8-5.4,9.3-8.5,8.8c-0.1,0-0.1,0-0.2,0c0,0,0,0,0,0c0,0-0.1,0-0.1-0.1
		c-16.8-2.9-33.8-3.8-50.8-2.2c-12.3,1.2-29.1,2.4-38.5,11.2c-8.5,7.9-11.3,21.1-10.3,32.4h147.9h0.3h9.2
		C632,1920.5,640.5,1916.4,648.9,1911.8C648.8,1911.8,648.8,1911.8,648.9,1911.8z"/>
	<path class="st1" d="M681.7,1908.4c0-0.1,0.1-0.3,0.1-0.4c-0.1,0.2-0.1,0.4-0.2,0.6C681.6,1908.5,681.7,1908.4,681.7,1908.4z"/>
	<path class="st1" d="M682,1906.8c0.3-1.4,0.7-2.7,1.2-4c-0.1-0.2-0.3-0.4-0.4-0.5c-0.1-0.1-0.1-0.1-0.2-0.1c0,0,0,0,0,0
		c-0.7-0.6-1.5-0.6-2.5-0.4c-1.6,0.2-3.1,0.5-4.7,0.5c-1.6-0.1-3.3-0.4-4.9-0.8c-0.5-0.1-1-0.3-1.5-0.3c-0.1,0-0.2,0-0.3,0
		c-0.1,0.4-0.2,0.8-0.3,1.3c0,0,0,0.1,0,0.1c0,0,0,0,0,0.1c0,0.1,0,0.1,0,0.2c-0.1,0.5-0.2,0.9-0.4,1.4c0.1,0,0.2,0.1,0.4,0.1
		c1.9,0.7,3.3,1.8,4.8,3.2c-0.1-0.1-0.2-0.2-0.3-0.3c1.5,1.3,3.3,2.3,4.7,3.7c-0.1-0.1-0.2-0.2-0.3-0.3c0.4,0.3,0.7,0.4,1.2,0.3
		c0.8-0.5,1.5-1.2,2.1-1.8c0.4-0.4,0.8-0.8,1.1-1.2c0.1-0.1,0.2-0.4,0.3-0.6C681.9,1907.1,682,1906.9,682,1906.8z"/>
	<path class="st1" d="M632.5,1930.6C632.5,1930.5,632.1,1930.4,632.5,1930.6L632.5,1930.6z"/>
	<path class="st1" d="M1082.9,786.8c-0.9,0.1-1.8,0.3-2.6,0.4v2.2c0.2-0.2,0.5-0.4,0.7-0.6C1081.4,788.4,1081.8,787.9,1082.9,786.8z
		"/>
	<path class="st1" d="M1080.3,1049.4L1080.3,1049.4c0.2,0,0.5,0,0.7,0C1080.8,1049.4,1080.5,1049.4,1080.3,1049.4z"/>
	<path class="st1" d="M1080.3,103.6L1080.3,103.6c7.1-2,14.4-3,21.7-3.2C1094.7,100.6,1087.4,101.6,1080.3,103.6z"/>
	<path class="st1" d="M1081,1049.4c4.6-0.1,9.2-0.7,13.9-1.6C1090.2,1048.7,1085.6,1049.3,1081,1049.4z"/>
	<path class="st1" d="M1080.3,1288.5L1080.3,1288.5c8.3,1.9,16.2,4.9,23.8,8.7C1096.5,1293.3,1088.6,1290.4,1080.3,1288.5z"/>
	<path class="st1" d="M1080.7,1922.2c-3.4-1.7-7.6-3.1-11.6-3.7c-15.2-2.5-32.8,1.6-47.5,6.2h59.1V1922.2z"/>
</g>
<g>
	<path class="st4" d="M617.7,666.9c-0.8,8,5,13.6,12.8,12.1c3-0.5,5.1-0.1,7.3,2.1c8.9,9.1,17.6,18.5,27.2,26.8
		c12.8,11,26.1,21.5,39.7,31.5c8.3,6.1,17.6,10.8,28,12.4c10.6,1.7,19.2-1.6,25.6-10.6c6.2-8.7,7.3-18,4.1-28
		c-3.2-9.9-9-18.1-16.4-25c-5.7-5.3-12-9.9-18.7-15.3c4.2-1.2,7.8-2,11.3-3.1c6.9-2.6,13.9-5.1,20.4-8.4c8-4.1,13.2-10.9,15.4-19.7
		c2.3-9.3,1.5-18.5-2.4-27.3c-4.4-9.9-12.1-15.7-22.8-15.8c-7,0-14.3,0.8-20.9,3c-9.9,3.4-19.7,7.6-28.9,12.7
		c-23.9,13.1-46.2,28.7-66,48.1c-4.1-1.3-8.2-2.7-12.3-4C618.2,662.1,618.2,662.1,617.7,666.9z M641.3,666.3c0.6-0.5,1.2-1.1,2-1.7
		c2.8-2.3,5.6-4.5,8.4-6.8c4.8-3.9,9.7-7.7,14.6-11.3c1.4-1.1,2.8-2.1,4.2-3.2c0.7-0.5,1.4-1,2.1-1.5c12.2-8.7,24.9-16.7,38.4-23.1
		c2.6-1.2,5.1-2.4,7.7-3.5c5.4-2.3,11-4.4,16.7-5.7c4.9-1.1,10.2-1.6,15.3-1.2c8.9,0.8,16,5.1,18.9,14c2.9,8.9,1.2,17.2-5.3,23.6
		c-0.5,0.4-0.9,0.9-1.4,1.3c-4.3,3.7-9.8,6.5-15.1,8.8c-11.8,5.1-24.3,7.7-37.1,9c-2.6,0.3-5.3,0.6-8.3,0.9c-0.1,0.5-0.2,1-0.3,1.5
		c-1.2,6.9-0.4,7.9,6.4,9.4c16.2,3.9,29.8,12.4,41,24.6c1.8,2,3.4,4.1,5,6.3c4.9,6.8,7,14.1,2.5,22c-1.5,2.6-3.2,4.9-5.2,6.7
		c-4.3,4.1-9.8,6.2-16.6,6c-8.1-0.3-15.2-3.5-22.1-7.4c-19.9-11.3-37.4-26-53.9-41.8c-5.7-5.4-11.1-11.1-16.6-16.7
		C638.1,671.9,637.6,669.9,641.3,666.3z M626.7,665.9c0.9,0.2,1.8,0.5,2.6,0.7c-0.4,1.5-0.8,3.1-1.4,4.7c0,0-1.8-0.4-1.8-0.5
		c0,0,0-0.1,0-0.1c0,0,0,0,0,0C626.2,669.1,626.4,667.5,626.7,665.9z"/>
	<path class="st4" d="M264.3,1261.6c-2.3,11.8-3,23.9-3.1,35.9c-0.1,7.2,1.4,14.7,3.7,21.6c3.5,10.6,11.8,15.9,22.9,16.6
		c11.6,0.8,20.5-4.4,27.2-13.4c9-12,13.1-25.7,13.9-40.5c0.2-2.2,0.3-4.5,0.5-8c2.2,2.1,3.2,3.2,4.3,4.1
		c7.1,5.9,13.9,12.4,21.6,17.6c13.9,9.4,32.4,6,44.6-7.4c11.8-12.9,11.8-26.2,0-41c-0.7-1-1.5-2-2.4-2.8c-7.7-6.4-14.9-13.7-23.3-19
		c-25.3-16-52.1-29.2-81.7-37.4c-0.9-4.1-1.8-8.3-3-14.3c-3.5,1.1-6.5,1.8-9.4,3c-6.8,3.1-8.7,11.3-3.8,16.9
		c2.2,2.5,2.6,4.6,1.8,7.9C273.2,1221.4,268.1,1241.4,264.3,1261.6z M281.5,1186.3C281.5,1186.3,281.5,1186.3,281.5,1186.3
		c1-2.9,3.2-2.1,5.1-2c0.2,0.7,0.4,1.4,0.6,2.1c-1.6,0.6-3.2,1.2-4.8,1.6C282.2,1188,281.3,1186.7,281.5,1186.3z M285.4,1201.3
		C285.4,1201.3,285.4,1201.3,285.4,1201.3c0.1-0.3,0.2-0.6,0.3-0.8c0.3-0.8,0.6-1.5,0.9-2.1c0-0.1,0.1-0.1,0.1-0.2
		c0.1-0.2,0.2-0.3,0.3-0.5c0.1-0.2,0.3-0.4,0.5-0.6c1.4-1.4,3.4-1.2,6.9,0.1c14.4,5.7,28.8,11.3,42.7,17.9
		c11.5,5.5,22.3,12.2,34.4,18.9c6.4,5.9,13.6,12.1,20.4,18.8c0,0,0,0,0,0c2.4,2.3,4.2,5.5,5.7,8.5l0,0l0,0c0,0,0,0,0,0
		c2,3.9,2.9,7.9,2.8,11.7c-0.1,4.9-1.9,9.4-5.2,13c-6.7,7.3-17,9.8-26.3,5.9c-4.7-2-9.3-4.6-13.3-7.7c-10.1-7.9-18.9-17.1-26.3-27.6
		c-1-1.4-1.9-2.8-2.9-4.2c0,0,0,0,0,0c-1.6-2.2-3.4-3.5-6.2-1.9c0,0,0,0,0,0c0,0,0,0,0,0c-2,1.2-3.7,2.6-3.8,4.8
		c0,0.5,0,1.1,0.2,1.7c1.1,4.3,2.3,8.5,3.1,12.9c3,16.2,0.5,31.8-6.4,46.6c-3.7,8.1-11.2,12.4-18.9,12.5c-6,0.1-12-2.4-16.4-7.8
		c0,0,0,0,0,0c-0.2-0.3-0.4-0.5-0.6-0.8c-0.4-0.5-0.8-1-1.1-1.5c-0.5-0.8-1.1-1.7-1.5-2.6c-1-1.9-1.8-3.8-2.5-5.8
		c-0.3-0.8-0.5-1.7-0.7-2.5c-0.1-0.4-0.2-0.7-0.3-1.1c-1.4-6.1-1.6-12.7-1.5-19C270.1,1258.2,277.1,1229.6,285.4,1201.3z"/>
	<path class="st4" d="M838.1,239.8c7.9,4.5,16.6,6.5,25.5,7.5c33.9,3.9,67.3,0.8,101.2-6.7c1,0.9,2.7,2.3,4.1,3.9
		c1.6,1.7,3,3.6,4.3,5.3c4.2-0.2,5.6-3.2,7.4-5.7c4.5-6.3,2.1-14.1-5.2-16.6c-2.7-1-4.2-2.3-5.1-5.3c-5.1-17.8-10-35.8-16-53.3
		c-4.1-11.8-9.7-23.1-15.2-34.4c-3.5-7.1-8.2-13.6-14.5-18.7c-11.1-9.1-23.8-8.9-34.9,0.4c-7.2,6-10,14-10.7,22.9
		c-1.1,13.8,2.1,26.8,8.3,39.1c1,2,2,4,3.1,6.4c-9.8-1.8-18.5-3.7-27.3-5c-9.7-1.4-18.8,0.3-26.6,6.7c-1.1,0.8-2.5,1.3-3.8,1.9
		c-2.2,3.1-4.4,6.3-6.4,9.6c-0.7,3.1-1.4,6.1-2.2,9.1C820.3,221.6,824.9,232.3,838.1,239.8z M973.6,235.2c0.1,0,1.3,1,1.2,1.4
		c-0.2,1.4-0.7,2.5-2.2,2.4c-0.6,0-1.5-0.3-2.5-0.8C971.2,237.2,972.4,236.2,973.6,235.2z M828.9,206.8c2.2-9.6,8.4-15.8,18.1-17.5
		c4.8-0.9,9.8-0.8,14.7-0.3c0.9,0.1,1.7,0.2,2.6,0.3c12.8,1.6,25,5.5,36.6,11c1.1,0.5,2.2,1,3.3,1.5c1,0.4,2.1,0.8,3,0.8
		c1,0,1.9-0.4,2.7-1.6c1.5-2.3,2.5-4.8,0.6-7.4c-1-1.3-2.4-2.4-3.6-3.6c-12.8-12.4-20-27.6-22.8-45c-0.2-1.2-0.3-2.4-0.4-3.6
		c-0.7-8.3,1.5-15.4,9.1-19.8c4-2.3,8.1-3.6,12.2-3.6c4.1,0,8.1,1.2,11.8,3.8c5,3.5,9.7,8.2,12.8,13.4c6,10.1,11.4,20.7,16.1,31.5
		c8.1,18.7,13.4,38.3,18.1,58c1.4,5.8,0.5,7.4-5.5,8.5c-29.6,5.6-59.2,8.3-89.2,5.1c-1.3-0.1-2.6-0.3-3.8-0.4
		c-1.2-0.1-2.5-0.3-3.7-0.5c-8-1.3-15.8-3.6-22.9-8.2C831.4,223.6,826.8,216.5,828.9,206.8z"/>
	<path class="st4" d="M801.5,878.4c11.7,8.4,25,12.2,39.3,13c2,0.1,4.1,0.3,7.1,0.5c-2.2,2.4-3.7,3.9-5.1,5.5
		c-4.6,5.3-9.5,10.3-13.6,16c-10.9,15.1-10,30.4,1.9,44.4c12.1,14.2,26.7,16.1,41.4,4.5c6.4-5,12.5-11,17-17.6
		c8.2-12.2,15.9-24.8,22.7-37.8c8.6-16.2,15.9-33,20.3-51.4c2.4-0.6,4.5-1.2,6.6-1.7c2.1-0.4,4.2-0.6,6-0.9c2.2-4.2-0.2-7.1-1.6-10
		c-3-6.3-10.6-7.8-16.1-3.3c-2.3,1.9-4.4,2.8-7.8,1.9c-18-4.6-36-9.4-54.2-12.8c-12.9-2.4-26.3-3.1-39.5-4
		c-7.7-0.6-15.4,0.7-22.7,3.7c-9.5,4.1-14.8,11.3-15.7,21.6C786.4,862.3,791.9,871.5,801.5,878.4z M934.5,844.7
		c0.9,1.4,1.6,2.8,2.4,4.2c0,0,0,0,0,0c0,0,0,0.1,0,0.1c-0.9,0.3-1.7,0.6-2.5,1c-0.6-1.5-1.2-3-1.6-4.5c0,0,0,0,0,0c0,0,0-0.1,0-0.1
		C932.8,845.4,934.4,844.6,934.5,844.7z M805.4,838.2c4.3-2.4,9.4-3.9,14.3-4.6c6.2-0.9,12.6-0.9,18.8-0.6
		c28,1.1,54.9,7.8,81.6,15.6c0.9,0.3,1.7,0.6,2.4,0.9c2.7,1.4,2.9,3.4,1.1,8.2c-4.7,12.1-9.3,24.3-14.8,36.1
		c-8.2,17.8-17.8,34.9-30.5,49.9c-4.5,5.2-9.8,10.1-15.6,13.8c-9.8,6.3-20,5.2-27.3-1.9c0,0,0,0-0.1-0.1c0,0,0,0,0,0
		c-0.1-0.1-0.3-0.3-0.4-0.4c-0.3-0.3-0.6-0.6-0.9-0.9c-0.1-0.1-0.2-0.2-0.3-0.4c-0.3-0.4-0.6-0.7-0.9-1.1c-0.1-0.1-0.1-0.2-0.2-0.3
		c-0.3-0.4-0.6-0.8-0.8-1.2c-0.1-0.2-0.3-0.5-0.4-0.7c-0.2-0.3-0.3-0.6-0.5-0.9c-3.3-6.7-3.3-14.9,0.6-22.1
		c7.8-14.3,19.2-25.3,32.1-34.9c1.7-1.3,3.5-2.5,5.3-3.8c1-0.7,2.1-1.5,3.1-2.3c-2.6-7.9-3.4-8.4-10.5-6.4
		c-18.6,5.4-36.7,4-54.4-3.7c-4.4-1.9-7.9-4.5-10.1-7.9c-1.8-2.7-2.8-5.9-2.9-9.7C794,849.8,797.6,842.5,805.4,838.2z"/>
	<path class="st4" d="M681.9,1129.6c5.7-12.4,9.9-25.7,13.4-39c2.1-7.9,2.5-16.7,1.9-25c-0.9-12.8-8.8-21-20.9-24.9
		c-12.7-4.1-24-0.8-34,7.3c-13.2,10.8-21.6,25-26.7,41.2c-0.8,2.5-1.6,4.9-2.8,8.8c-1.9-3-2.6-4.5-3.6-5.8
		c-6.3-8.7-12-17.8-19.1-25.7c-12.8-14.3-34.3-15.7-51.6-4.2c-16.7,11.1-20.4,25.9-11.4,45.6c0.6,1.2,1.1,2.6,1.9,3.7
		c6.8,9.3,12.7,19.4,20.6,27.7c23.8,25,49.9,47.1,80.5,64.5c-0.2,4.7-0.4,9.7-0.7,16.7c4.2-0.2,7.7-0.2,11.1-0.8
		c8.5-1.6,12.8-10.1,9-17.7c-1.7-3.4-1.6-5.8,0.2-9.3C660.8,1171.8,672,1151,681.9,1129.6z M641.9,1208.8c-2,2.8-4.2,1.3-6.3,0.7
		c0-0.9-0.1-1.7-0.1-2.5c1.4-0.1,2.9-0.4,4.4-0.4c0.5,0,1,0,1.4,0c0.2,0,0.7,1.3,0.7,1.9C642,1208.6,641.9,1208.7,641.9,1208.8z
		 M641.7,1190.8c-3.2,5.4-5.4,6-11,1.9c-14.4-10.3-28.8-20.6-42.5-31.8c-11.2-9.2-21.4-19.8-33-30.6c-5.5-8.3-11.7-17.3-17.5-26.4
		c-2-3.3-3.1-7.3-3.9-11.1c-1.2-5.8-0.9-11.2,0.8-15.8c0.1-0.3,0.2-0.5,0.3-0.8c0.1-0.3,0.2-0.5,0.3-0.8c1.8-3.9,4.5-7.2,8.2-9.7
		c9.5-6.2,21.7-6.2,30.9,0.8c4.7,3.5,9,7.7,12.6,12.3c9,11.6,16.3,24.3,21.5,38c0.7,1.8,1.4,3.7,2.1,5.5c1.1,2.9,2.8,4.9,6.3,3.9
		c2.2-0.6,4.1-1.5,5.1-3.2c0.4-0.8,0.6-1.7,0.6-2.8c0-5.1-0.1-10.2,0.2-15.2c0.8-14,5-26.8,12-38.4c2.4-4.1,5.2-8.1,8.2-11.9
		c11.3-14,32.8-11.7,40.6,4.6c2.5,5.4,3.7,11.9,3.6,17.9c-0.1,7.2-1.7,14.5-3.6,21.5c-2.8,10.3-6.2,20.3-10.2,30.1
		C664.7,1150.3,653.6,1170.7,641.7,1190.8z"/>
	<path class="st4" d="M53.1,669C53.2,669,53.2,669,53.1,669C53.3,669,53.2,669,53.1,669z"/>
	<path class="st4" d="M-0.4,498.7v8.1C0.8,503.5,0.8,501-0.4,498.7z"/>
	<path class="st4" d="M1065.6,109.3c4.8-2.4,9.7-4.3,14.7-5.7V89.2c-34.5,12.7-62.6,43.3-69.3,80.5c-4.4,24-1.6,47.6,4.2,71
		c9.3,37.2,23.6,72.2,46.7,103.2c5,6.7,10.2,13.2,15.8,20.4c-2.2-0.6-3.8-1.1-5.4-1.6c-41.3-13-83.6-20.5-127-20.6
		c-21.2,0-41.6,3.7-60.1,14.8c-29.6,17.8-48.1,44.1-58,76.7c-5.8,19.2-7.4,38.7-1.1,58.1c8.5,26.3,27.2,43.3,51.1,55.4
		c16.9,8.5,35.1,13.5,53.6,17.1c1.6,0.4,3.3,0.7,4.9,1c-5,1.7-9.8,2.7-14.6,3.9c-26.1,6.7-48.4,19.3-62.2,43.2
		c-21.1,36.5-19.4,73.5,0.6,109.7c12.7,22.9,33.3,37.4,57,47.1c50.5,20.8,102.8,28.4,157.1,19.2c2.1-0.4,4.2-0.7,6.7-1.1v-22.1
		c-54.3,11.7-108.6,6.3-162.8-14.5c0,0-0.1,0-0.1,0c-15.2-5.8-29-14.2-40.9-25.5c0,0,0,0,0,0c-16.5-15.6-22.3-34.8-20.5-56.1
		c0.2-2.1,0.4-4.3,0.8-6.5c0-0.1,0-0.1,0-0.2c2.5-16.2,8.5-29.9,17.9-41.2c7.7-9.3,17.6-16.9,29.7-22.8c0,0,0,0,0,0c0,0,0,0,0.1,0
		c18.9-9.3,39.5-12.4,60.2-14.3c0.1,0,0.2,0,0.3,0c17-1.5,33.9-2.2,50.8-2.1c21.5,0.1,43,1.4,64.4,3.5v-31.1
		c-12.7,0.6-25.4,0.9-38.2,0.9c-12.7,0-25.4-0.3-38.1-1c-30.1-1.6-59.9-5.1-88.8-14c-1-0.3-2-0.7-3-1c-4.5-1.5-9-3.2-13.3-5.1
		c-1.3-0.6-2.7-1.1-4-1.7c-6.2-2.9-12.1-6.6-18.1-9.9c-0.7-0.5-1.4-1-2.1-1.5c-1-0.7-1.9-1.4-2.8-2.2
		c-19.8-15.5-32.3-35.2-33.2-61.4c-0.7-20.7,4.9-39.9,15.5-57.6c11.7-19.5,28.6-32.3,50.9-36.9c10.1-2.1,20.6-3.3,30.9-3.2
		c0,0,0,0,0,0c0,0,0,0,0.1,0c37,0.2,73.3,6.1,108.9,16.1c12,3.3,23.7,7.2,35.3,11.4v-53.8c-6.4-8.4-12.3-17.3-17.7-26.6
		c-20.6-35.9-33.4-74.4-37.1-115.7c-0.8-9-0.1-18.2,1-27.1C1029.5,138.7,1043,120.7,1065.6,109.3z"/>
	<path class="st4" d="M996.8,891.7c-9.5,16.7-16.1,34.3-16.5,53.8c-0.7,34.6,11.8,64.1,34.4,89.7c4.8,5.4,10.4,10.3,15.6,15.4
		c3.8,2.6,7.5,5.2,11.3,7.8c5.4,2.5,10.8,5.4,16.4,7.3c7.6,2.6,15,4,22.3,4.5v-20.8c-13.6,0.2-26.6-3.3-39-10.5c0,0,0,0,0,0
		c-15.2-8.7-27.2-20.8-36.5-35.5c0,0,0,0,0,0c-9-14.3-13.5-28.9-13.5-43.9c0-11.7,2.7-23.5,7.9-35.5c6.1-14.2,14.5-27.2,23.4-39.9
		c11.5-16.5,24-31.9,37.4-46.5c4.5-4.8,9.1-9.6,13.7-14.2c2.2-2.2,4.4-4.3,6.6-6.4v-27.5C1047.4,819.4,1019,853,996.8,891.7z"/>
	<path class="st4" d="M968.5,1924.3h32.5h2.7h0.1h7.7l10.1,0.4c14.8-4.6,32.3-8.7,47.5-6.2c4,0.7,7.8,1.9,11.2,3.5v-12.3
		c-11.9-2.7-25.4-1.3-36.7,1.1c-10.4,2.2-20.6,5.2-30.6,8.8c-0.2,0.1-0.3,0.1-0.5,0.2c20-9.9,40.4-19.1,60.8-28.1c2.3-1,4.7-2,7-3.1
		v-19.9c-33.6,14.6-66.6,30.4-98.8,48.1C977.1,1919.3,972.8,1921.8,968.5,1924.3z"/>
	<path class="st4" d="M1059.3,1628.7c2.4,4.1,5.1,8,8.2,11.6c0.6,0.7,1.2,1.2,1.8,1.5c1.9,0.9,4.1,0.3,6.5-1.5
		c1.5-1.2,3-2.3,4.5-3.4v-43.4c-6.3,8.8-12.9,17.5-19.7,26C1058.1,1622.5,1057.5,1625.6,1059.3,1628.7z"/>
	<path class="st4" d="M968.6,1302.4c-14.6,16.3-25.9,34.7-35.4,54.3c-1.7,3.5-3.4,7-5.4,11.2c0-9.2,0.3-17.5,0-25.8
		c-1.3-31.1-11.4-58.8-35.3-79.5c-36.4-31.5-78.5-38.8-124.1-24.9c-27.7,8.4-48.7,27-65.5,49.8c-37.4,50.7-60.7,107-66.1,170.2
		c-0.4,4-0.8,8.1-1.2,13c-0.8-1.4-1.1-1.8-1.4-2.3c-25.1-46.9-55.7-89.6-94.3-126.4c-14.1-13.4-29.8-24.6-48.5-30.7
		c-40.7-13.4-79.7-8-117.3,11.3c-7.2,3.7-13.9,8.3-20.9,12.5c-4.7,4.1-9.4,8.2-13.7,12c-1.5,1.9-3.1,3.9-4.7,5.8
		c-20.6,24.4-26.7,52.6-21.6,83.5c4.4,26.9,16.6,50.6,31.3,73.2c3,4.6,6.1,9.1,9.2,13.6c-5.3-2.4-10-5.4-14.9-8.2
		c-22.8-13-46.9-20.5-73.5-17.4c-51,6-91.1,48.1-102.7,94.7c-6.8,27.1-2.8,53.4,6.6,79.2c8.4,22.9,20.7,43.6,34.1,63.9
		c19.6,29.8,43.5,55.6,71.8,77.3c6.9,5.3,14.1,10.2,21.8,15.7c-2,0.1-3.3,0.2-4.5,0.2c-12.4,0-24.8-0.3-37.2,0.1
		c-40.9,1.5-81,7.2-120.2,19.3c-22.9,7-43.3,18.4-59.1,36.7c-10.8,12.5-19.2,25.7-25.3,39.6h12.1c3-6.5,6.8-12.8,11.5-18.9
		c12.1-15.7,28.5-25.3,46.7-32.1c23.9-8.9,48.9-13.2,74-16.8c52.7-7.4,105.4-6.2,157.9,1.9c4.7,0.7,8.2-0.3,10.4-4.3
		c2-3.5,3.9-7.2,5.1-11c0.4-1.2,0.6-2.2,0.6-3.1c0-2.6-1.6-3.9-5.2-5.4c-24.4-10.1-47.5-22.7-69-38.1c-30.6-22-56.4-48.7-77.2-80.2
		c-13.1-19.8-25.5-39.8-33.8-62.2c-5.8-15.7-9.6-31.8-9.6-48.7c0-1.2,0-2.3,0.1-3.5c0.8-23,11.2-41.5,28.1-56.2
		c32.2-27.9,68.5-32.6,107.6-16.6c21.9,9,40.5,23.1,58.5,38.1c23.6,19.5,45.5,40.8,66,63.5c5.8,6.5,11.5,13.1,17.3,19.7
		c0.2,0,0.4-0.1,0.6-0.3c0.2-0.1,0.4-0.3,0.5-0.4c23.8,30.2,48,60.1,71.2,90.7c4.4,5.9,8.8,11.7,13.2,17.6c0,0-0.1,0-0.1,0
		c-5.4,1-10.6,3.1-15.3,6.1c-10.7,6.8-19.9,18.3-21.7,31.1c-1.7,12.3,2.7,24.4,8.4,35.1c2.3,4.4,5,8.6,7.8,12.7
		c0.1,0.2,0.3,0.3,0.4,0.4c7.5,10.9,16.9,20.1,27.5,27.5c-6.8-0.2-13.7-0.1-20.5,0.5c-13.3,1.1-27.7,3.1-39.8,8.9
		c-16.4,7.9-28.1,25.7-28.8,43.9h5.3h5.6c-1-11.3,1.7-24.5,10.3-32.4c9.4-8.8,26.2-10,38.5-11.2c17-1.6,34-0.6,50.8,2.2
		c0,0,0.1,0,0.1,0.1c0,0,0,0,0,0c0.1,0,0.1,0,0.2,0c3.1,0.5,12.7-7,8.5-8.8c-19.7-8.4-36.3-21.5-48.3-39.2
		c-11.7-17.7-26-45.1-6-62.7c7.2-6.3,15.2-7.5,23.2-5.8c0,0,0.1,0,0.1,0c12,2.6,23.9,11.6,32.2,19.4c15.4,14.1,29.2,30.3,41.9,47.3
		c10.4,14,20,28.5,29.1,43.1c2,3.2,4,6.4,5.9,9.6c2.4,4,7.3,10.1,7.5,15.1c0,0,0,0,0,0c0,0.2,0,0.4,0,0.6c0,0.7-1,3.4-1,4
		c-0.5,0.4-1.2,0.8-0.2,0.1c-2.1,1.4-4.2,2.7-6.3,4c-1.2,0.7-2.5,1.4-3.7,2.1c0,0,0,0-0.1,0c-8.2,4.6-16.8,8.6-25.4,12.5h6.7h7.3
		h13.3c-1-0.7-2-1.5-3-2.2c0.1-1.1,0.2-2.2,0.3-3.3c0,0,0.1,0,0.1-0.1c4.4-2.4,9.5-5.2,13.7-8.7c0,0.3,0,0.6,0,0.9
		c-0.1,0.6-0.1,1.3,0.1,2.1c0,0.3,0.1,0.6,0.3,0.7c0.5,1.1,1.3,1.6,2.5,2.1c1.9,0.7,3.6,1.5,5.2,2.9c-0.1-0.1-0.2-0.2-0.3-0.3
		c1.5,1.4,3.3,2.5,4.9,3.9c-0.1-0.1-0.2-0.2-0.3-0.3c1,1,1.6,1.4,2.9,0.5c1.2-0.9,2.3-1.9,3.2-3.1c1.3-1.6,2.1-3.5,2.7-5.5
		c0.3-1.1,0.6-2.2,0.8-3.3c0.1-0.1,0.2-0.3,0.2-0.5c0.2-0.3,0.4-0.6,0.5-0.9c1.2-2.1,1.8-4.4,2.2-6.7c0.1-0.4,0.1-0.8,0.2-1.2
		c0,0,0,0,0,0c0.1,0,0.2,0,0.3-0.1c0.9-0.2,1.9-0.3,2.9-0.3c0,0,0,0,0,0c0,0,0.1,0,0.1,0c0.4,0,0.8,0.2,0.7,0.2c0.1,0,0,0,0,0
		c-2,7.2-3.9,14.4-5.9,21.4c-0.2,0.6-0.4,1.2-0.6,1.8h15.3c1.1-3.2,2.4-6.5,2.5-9.8c0.3-11.2-2.6-21.8-8-31.6c-3-5.5-6.9-7.3-13-6
		c-6.3,1.4-12.5,1.8-18.7,1.2c-7.5-12.8-16.1-25-24.5-37c-15.2-21.6-31.4-43-50.6-61.2c-4.7-4.5-9.7-8.9-15.1-12.7
		c-23.1-31.7-46.5-63.1-69.5-94.3c4.1,3.3,8.9,7.1,13.7,10.9c26.8,21.2,54,41.6,82,60.9c2.2,2.6,4.5,5,6.8,7.2
		c17.3,17.1,37.8,31,58.6,43.5c15,9.1,30.4,17.5,46.3,25c-0.9,2.7-1,5.7-0.4,9c1,5.4,0.6,11.1,0.3,16.7c-0.3,6-1.3,12-2,18
		c-0.4,2.9,1,4.5,3.6,5.4c9,3.1,17.9,4.5,27.2,0.6c4.1-1.7,8.8-2.3,13.2-2.5c6.4-0.3,12.3-2.1,17-6.4c5.9-5.5,11.9-11.1,17-17.4
		c5-6.1,4.7-11.2-0.5-17.1c-6.5-7.4-11-15.5-13.5-25c-0.5-2-2-3.6-3.5-5.5c0.8-2.6,1.6-5.1,2.4-7.7c19.7-33,36.8-68.1,52.8-103.7
		c17-37.7,33.1-75.8,50.3-113.8c-0.3,1.1-0.8,2.2-1,3.3c-7.4,47.6-13.2,95.4-15.6,143.6c-1.2,23.8-1.7,47.6-1.7,71.4
		c0,11.6,1.8,23.1,2.9,35.4c-7.6-1.9-13.3,1.2-19.6,5.7c-7.9,5.6-17.4,9-26.3,13.1c-5.3,2.5-5.8,3.1-4.6,8.9
		c1.8,8.8,5.4,16.1,12.6,21.8c3.6,2.9,6.1,7.3,9.3,10.8c2.7,2.9,5.1,6.2,8.3,8.2c9.2,5.9,19.7,8.4,30.5,8.9
		c6.9,0.4,10.5-2.2,12.6-8.8c3-9.3,8-17.3,14.8-24.3c0.5-0.5,0.9-1,1.3-1.7c11.4-1.6,22.7-3.9,33.9-6.3
		c49.6-1.3,99.1-5.9,148.8-11.6v-23.9c-18.2,2.2-36.4,4.3-54.6,6c0.1-0.1,0.2-0.1,0.4-0.2c5.4-2.9,10.6-6.3,15.2-10.4
		c10.6-9.5,14.9-23.9,12.6-37.8c-2.1-12.5-9-25.5-20.1-32.1c-10.6-6.4-23.5-7.1-35.5-6c-4.7,0.4-9.3,1.2-14,2c-0.2,0-0.4,0-0.5,0
		c-13.3,2.6-25.7,7.7-36.9,14.7c2.9-6.2,5.5-12.6,7.6-19.1c4.2-12.7,8.1-26.7,7.5-40.1c-1.1-24.2-21.6-47.6-46.8-47.8
		c-18.4-0.1-29.9,13.6-37.1,29c-0.1,0.2-0.2,0.4-0.3,0.6c5.2-57.8,13.9-115.2,26.5-172.1c10-45,22.6-89.3,42.2-131.3
		c9.9-21.1,21-41.5,37.3-58.5c20.2-21,43.6-36.2,74.1-36.4c7.8-0.1,15.2,0.8,22.4,2.5v-19.5
		C1039.6,1255.9,999.8,1267.7,968.6,1302.4z M681.7,1908.4c0,0.1,0,0.1-0.1,0.2c0-0.2,0.1-0.4,0.2-0.6
		C681.7,1908.1,681.7,1908.3,681.7,1908.4z M682,1906.8c0,0.1-0.1,0.3-0.1,0.4c-0.1,0.2-0.3,0.5-0.3,0.6c-0.3,0.4-0.7,0.8-1.1,1.2
		c-0.6,0.6-1.3,1.3-2.1,1.8c-0.4,0.1-0.8,0-1.2-0.3c0.1,0.1,0.2,0.2,0.3,0.3c-1.4-1.4-3.2-2.4-4.7-3.7c0.1,0.1,0.2,0.2,0.3,0.3
		c-1.5-1.4-2.9-2.5-4.8-3.2c-0.1,0-0.2-0.1-0.4-0.1c0.1-0.5,0.2-0.9,0.4-1.4c0-0.1,0-0.1,0-0.2c0,0,0,0,0-0.1c0,0,0-0.1,0-0.1
		c0.1-0.4,0.2-0.8,0.3-1.3c0.1,0,0.2,0,0.3,0c0.5,0,1.1,0.2,1.5,0.3c1.6,0.4,3.3,0.7,4.9,0.8c1.6,0,3.1-0.3,4.7-0.5
		c1-0.2,1.7-0.1,2.5,0.4c0,0,0,0,0,0c0.1,0,0.1,0.1,0.2,0.1c0.1,0.2,0.3,0.3,0.4,0.5C682.7,1904.1,682.3,1905.4,682,1906.8z
		 M683.7,1910.8c0-0.1,0-0.2,0.1-0.3C683.8,1910.6,683.7,1910.7,683.7,1910.8z M683.8,1910.6c0-0.1,0-0.2,0.1-0.3
		C684,1910.1,684,1910,683.8,1910.6z M750.9,1848.5C750.9,1848.5,750.9,1848.5,750.9,1848.5C750.9,1848.5,750.9,1848.5,750.9,1848.5
		C750.9,1848.5,750.9,1848.5,750.9,1848.5z M750.6,1848.6c-0.1,0-0.1,0-0.2,0.1C750.4,1848.7,750.5,1848.7,750.6,1848.6z
		 M644.9,1775.1c-3.8-2.7-7.5-5.5-11.1-8.4c-13.8-10.8-28.9-23.7-36.1-40.1c-0.9-2-1.6-4.1-2.2-6.2c0-0.1-0.1-0.3-0.1-0.4
		c-3-11.5-0.7-23.4,8.2-32.3c8.2-8.2,20.7-14.6,32.5-12.9c12.7,1.9,24.2,14.2,32.7,23.1c11.9,12.3,21.8,26.3,30.1,41.4
		c1.5,2.7,13.4,5.6,12.2,1.2c0-0.1,0-0.1-0.1-0.2c0,0,0,0,0.1,0c0-0.1-0.1-0.1-0.1-0.2c-5.5-20.7-5.6-41.8,0.7-61.9
		c6.5-20.2,19.1-48.4,45.3-43.8c23.7,4.1,25.4,33,24,51.9c-1.1,16.5-3.9,33-7.7,49.4c-0.1,0.4-0.2,0.9-0.3,1.3
		c-5.7,24.5-13.8,48.6-22.2,71.8c-0.5,1.4-1,3.1-1.6,4.9c0,0,0,0,0,0c-1.4,4.1-3.1,8.6-6,10.8c-0.6,0.4-3.3,1.3-3.8,1.7
		c-0.7-0.2-1.4-0.4-0.2,0c-2.4-0.8-4.7-1.6-7.1-2.5c-0.7-0.3-1.5-0.6-2.2-0.9c0,0-0.1,0-0.1,0c-5.6-2.3-11.2-4.8-16.7-7.4
		c-8.6-4.2-17-8.7-25.3-13.3C673.1,1793.8,658.6,1784.9,644.9,1775.1z M752.2,1844.5c-0.2,0-0.5,0.1-0.6,0.1c-0.5,0-1.1-0.1-1.6-0.1
		c-0.9-0.1-1.9-0.3-2.7-0.5c-0.3-0.2-0.3-0.5-0.4-0.9c0.1-1.8-0.1-3.7-0.1-5.5c0.2-1.9,0.1-3.7-0.4-5.6c0-0.1-0.1-0.2-0.1-0.3
		c0,0,0,0,0,0c0.4-0.2,0.7-0.3,1.1-0.5c0.5-0.2,1-0.5,1.5-0.7c0.1,0.2,0.3,0.4,0.4,0.6c0.1,0.3,0.3,0.6,0.4,0.9
		c0.7,1.5,1.4,3,2.5,4.3c1,1.3,2.1,2.3,3.3,3.3c0.8,0.7,1.2,1.4,1.2,2.4c0,0.2-0.1,0.4-0.1,0.6c-1.3,0.4-2.6,1-3.9,1.6
		C752.5,1844.4,752.3,1844.4,752.2,1844.5z M770,1848.1c-7.3,1.9-14.2,3.8-21,5.5c-0.5,0.1-0.9,0.2-1.4,0.3c-6.2,1.3-12.3,0-18-2.6
		c-1.3-0.6-2.6-3-2.5-4.4c0.5-6.1,1.1-12.3,1.9-18.4c0,0,0.1,0,0.1,0.1c2.8,1,5.6,1.9,8.4,2.5c-0.8,0.6-1.6,1.2-2.2,1.8
		c-0.2,0.2-0.3,0.4-0.4,0.6c-0.6,1.1-0.4,2.1,0,3.4c0.6,1.9,1.1,3.8,0.9,5.9c0-0.1,0-0.3,0-0.4c-0.2,2.1,0.1,4.1,0,6.2
		c0-0.1,0-0.3,0-0.4c-0.1,1.4-0.1,2.2,1.4,2.6c1.4,0.4,2.9,0.6,4.4,0.6c2.1,0,4-0.5,5.9-1.3c1.1-0.4,2.3-1,3.4-1.6c0.1,0,0.1,0,0,0
		c0,0,0,0,0.1,0c0,0,0,0,0,0h0c0.4-0.1,0.7-0.1,1.1-0.2c2.3-0.4,4.5-1.3,6.6-2.4c1.9-1.1,4.2-2.4,6.1-4.1c0,0,0,0,0,0
		c0.9,1.2,1.9,2.3,3,3.4C768.7,1846.1,769.4,1847.2,770,1848.1z M875.2,1719.5c3-13.5,7.4-27.2,15.7-37.8
		c9-11.6,22.6-17.6,37.1-13.2c11.1,3.3,22.7,11.2,26.7,22.5c4.4,12.1-1.1,28-4.8,39.8c-5.1,16-12.6,31-21.6,45.2
		c-0.3,0.2-0.5,0.5-0.8,0.7c0,0.1,0.1,0.2,0.1,0.3c-1.5,2.8,1.5,14.3,4.8,11.2c15.4-14.8,34-25,54.9-29.1
		c20.9-3.8,51.7-6.2,60.1,19.1c7.6,22.8-17,38-34.3,45.8c-8.9,4-18.2,7.6-27.6,10.7c-0.2,0.1-0.4,0.1-0.6,0.2
		c-30.4,10.1-62.7,16-93.9,20.5c-4.3,0.6-11.2,2.5-15.9,1.2c-0.1,0-0.1,0-0.2-0.1c-0.4-0.1-0.9-0.3-1.3-0.5
		c-0.7-0.3-2.8-2.3-3.3-2.5c-0.2-0.7-0.3-1.4,0-0.1c-0.2-1.1-0.4-2.2-0.6-3.3c0,0,0-0.1,0-0.1c-0.2-1.3-0.5-2.7-0.6-4.1
		c-2-16.3-2.1-32.9-1.9-49.3c0.3-21.5,1.8-43.1,5.5-64.3c0.7-3.8,1.4-7.7,2.2-11.6C875,1720.4,875.1,1720,875.2,1719.5z M870.5,1865
		c-0.2,0.3-0.4,0.5-0.6,0.8c-1,1.3-2,2.7-2.6,4.2s-1,3-1.4,4.5c-0.3,1.1-0.7,1.9-1.9,2.4c0.1-0.1,0.3-0.1,0.4-0.2
		c-0.2,0.1-0.4,0.1-0.6,0.2c-0.7-0.6-1.3-1.2-2.1-1.8c-0.1,0-0.1-0.1-0.2-0.1c-0.4-0.3-0.7-0.6-1.1-0.9c-0.1-0.1-0.3-0.2-0.4-0.3
		c-0.1-0.2-0.3-0.4-0.4-0.5c-0.3-0.5-0.5-1-0.6-1.5c-0.4-0.8-0.7-1.8-0.9-2.8c0.1-0.3,0.3-0.6,0.6-0.7c1.7-0.8,3.2-1.9,4.9-2.7
		c1.7-0.8,3.2-1.6,4.6-3c0,0,0,0,0,0c0,0,0.1-0.1,0.1-0.1c0.3,0.3,0.6,0.5,1,0.7c0.2,0.2,0.5,0.4,0.8,0.5c0,0,0.1,0.1,0.1,0.1
		c0.2,0.1,0.4,0.3,0.6,0.4C870.8,1864.5,870.7,1864.8,870.5,1865z M859.2,1873.2c0,0,0.1,0.1,0.1,0.1c-0.3-0.2-0.6-0.4-0.9-0.6
		C858.9,1873,859.1,1873.1,859.2,1873.2z M856,1874.4C856,1874.4,856.1,1874.4,856,1874.4C856.1,1874.4,856.1,1874.5,856,1874.4
		C856.1,1874.5,856,1874.4,856,1874.4C856,1874.4,856,1874.4,856,1874.4z M859.2,1824.8C859.5,1824.7,859.4,1824.8,859.2,1824.8
		L859.2,1824.8z M857.2,1885.6c-0.6,1.6-1.4,3.2-1.9,4.5c-3.6-3.6-7.3-6.9-10.7-10.3c-2-2-3.9-4.1-5.6-6.4
		c-3.4-4.6-4.8-10.6-6.8-16.1c-0.9-2.5,0.5-4.1,3-5.2c7.3-3,14.4-6.3,21.7-9.3c0.9-0.4,2.5-0.1,3.4,0.5c0.1,0.1,0.3,0.1,0.4,0.2
		c0.7,0.5,1.5,1,2.2,1.6c0,0,0,0,0,0.1c0.4,3.1,1,6.2,1.8,9.1c-0.8-0.3-1.6-0.7-2.4-0.8c-0.3-0.1-0.6-0.2-0.8-0.1
		c-1.1,0-2,0.7-2.9,1.6c-1.4,1.5-2.9,2.7-4.6,3.6c-1.7,0.8-3.2,1.9-4.9,2.7c-1.2,0.5-1.8,0.9-1.4,2.4c0.3,1.4,0.9,2.9,1.6,4.1
		c1,1.8,2.4,3.3,4,4.6c0.9,0.7,1.8,1.3,2.7,2c0.2,0.2,0.4,0.4,0.3,0.2c0,0,0.1,0.1,0.1,0.1c0.2,0.3,0.4,0.6,0.6,0.9
		c0.8,1.1,1.9,2.1,3,3c0,0,0.1,0.1,0.1,0.1C858.9,1880.9,858,1883.2,857.2,1885.6z M899.9,1389.4c-7.9,54.3-23.9,106.3-43.3,157.4
		c-19.4,51.2-40.7,101.5-64.2,150.7c0-0.3,0.1-0.7,0.1-1c0.2-1.6,0.3-3.2,0.5-4.8c0.9-10.6,1.2-21.7-1.3-32.1
		c-3.3-13.9-14-24.4-27.4-29c-12-4.1-26.7-4.1-37.8,2.4c-10.6,6.3-17.4,17.3-22.2,28.4c-2,4.6-3.6,9.3-5.1,14
		c-0.1,0.2-0.1,0.5,0,0.7c-3.8,12.7-5.2,25.7-4.4,38.7c-4.1-5.5-8.5-10.8-13.1-15.8c-9.2-9.7-19.7-19.8-31.8-25.6
		c-21.8-10.5-52.2-3.6-64.3,18.5c-3.2,5.9-4.4,11.9-4.1,17.8c0,0.1,0,0.2,0,0.3c-14.2-10.6-28.2-21.4-42.1-32.5
		c-26.9-21.5-53.1-44.1-78.6-67.2c-17-15.5-32.6-32.6-48.5-49.4c-18.6-19.7-35-41.2-49.2-64.3c-14.9-24.2-25.4-49.9-26.2-78.8
		c-0.8-31.8,11.9-57,36.8-76.4c19.3-15,41-24.5,65.7-26.1c2.4-0.2,4.8-0.2,7.2-0.2c22.8,0.2,42.7,9.4,60.6,23.6
		c14.3,11.7,26.9,25.6,39,39.9c37.3,43.8,66,92.8,87.9,145.9c1.4,3.4,2.9,6.7,4,10.2c1.2,3.8,3.7,5.5,7.4,5.9
		c0.4,0.1,0.9,0.1,1.3,0.1c2.1,0.2,4.2,0.3,6.3,0c10.4-1.7,11.4-3.3,10.2-12.6c-6.9-54.8-1.7-108.3,19.4-159.7
		c12.7-30.8,27.7-60.5,49.6-86c13.3-15.4,28.4-28.7,47.9-35.8c8.5-3.1,16.9-4.5,25.2-4.5c12.2,0,24.1,2.9,35.8,7.9
		c31.7,13.6,51.2,37.8,58.6,71.5C904.8,1344.2,903.2,1366.8,899.9,1389.4z"/>
	<path class="st4" d="M344.1,108.5c-1.8,1.6-3.7,3.1-5.4,4.4c0.2,4.2,3.3,5.7,5.8,7.5c6.4,4.5,14.4,2.1,16.9-5.3
		c1-2.8,2.3-4.3,5.4-5.2c18.1-5.1,36.4-10.1,54.2-16.2c12-4.1,23.5-9.8,35-15.4c7.3-3.5,13.9-8.3,19.1-14.7
		c9.2-11.3,9-24.3-0.4-35.5c-6.1-7.3-14.3-10.2-23.3-10.9c-14.1-1.2-27.3,2.1-39.8,8.4c-2,1-4.1,1.9-6.5,3.1
		c1.9-9.9,3.8-18.8,5.1-27.7c0.1-0.6,0.2-1.1,0.2-1.7h-9.9c-0.1,1-0.2,2.1-0.4,3.1c-1.6,13-5.6,25.4-11.2,37.2
		c-0.5,1.1-1.1,2.2-1.5,3.3c-0.4,1-0.8,2.1-0.8,3.1c0,1,0.4,1.9,1.6,2.7c2.4,1.6,4.9,2.6,7.5,0.6c1.3-1,2.4-2.4,3.6-3.6
		c12.6-12.9,28.1-20.4,45.8-23.2c1.2-0.2,2.5-0.3,3.7-0.4c8.5-0.7,15.6,1.6,20.1,9.3c0.9,1.5,1.6,3.1,2.2,4.6
		c2.5,6.7,2,13.6-2.4,19.9c-3.6,5.1-8.4,9.9-13.7,13c-10.3,6.2-21,11.6-32,16.4c-18.9,8.2-38.9,13.6-58.9,18.4
		c-5.9,1.4-7.5,0.5-8.6-5.6C351.5,76.6,349,55,349,33.3c0-9.9,0.6-19.8,1.8-29.7c0.2-1.4,0.4-2.9,0.6-4.3h-9.9
		c-0.1,0.7-0.2,1.5-0.3,2.2c-4,34.4-0.8,68.4,6.8,102.9C347.1,105.4,345.7,107.1,344.1,108.5z M350.5,109.9c1,1.2,2.1,2.3,3,3.6
		c0,0.1-1,1.3-1.4,1.2C350,114.4,348.7,113.3,350.5,109.9z"/>
	<path class="st4" d="M6.1,1112.7c1.9,7.8,3.5,14.9,5.5,21.8c7.6,26,22.1,47.3,46.7,59.7c37.5,18.9,74.6,16.2,110.2-5.3
		c21.6-13.1,35.4-33.2,44.8-56.1c20.8-50.8,28.6-103.3,19.7-157.9c-0.6-3.5-1.1-7-1.8-11.3c1,0.9,1.4,1.2,1.7,1.6
		c31.1,34.3,66.1,63.9,106.5,86.8c14.8,8.3,30.4,14.4,47.5,15.6c37.3,2.6,69.1-10.2,96.8-34.5c5.3-4.7,10-10,15-15
		c3-4.5,6.1-8.9,9.3-13.5c1-2,1.8-3.9,2.8-5.9c12.2-24.9,11.4-50,0.5-75.1c-9.4-21.8-24.8-39.2-42-55.2c-3.5-3.2-7.1-6.3-10.6-9.5
		c5,0.9,9.6,2.5,14.3,3.8c22,6.2,44,7.4,65.8-0.9c41.9-15.9,66.8-60,66.7-101.8c0-24.4-9-45.8-22.4-65.6
		c-11.9-17.6-26.8-32.5-42.4-46.8c-22.9-21-48.6-37.8-77.1-50.1c-6.9-3-14-5.6-21.7-8.6c1.6-0.5,2.7-0.8,3.7-1.1
		c10.5-2.7,21-5,31.4-8c34.2-9.9,67-23.3,97.5-41.8c17.9-10.8,32.7-24.8,42.2-43.6c18.7-37,19.1-74.8,4.2-113
		c-6-15.3-15.4-28.1-28.8-37.9c-17-12.4-36.2-17.6-57-17.8c-23-0.2-44.8,5.2-66.3,12.6c-1.3,0.4-2.6,0.8-4.7,1.5
		c6.6-6.6,12.9-12.3,18.5-18.6c14.2-15.8,23.4-34,25.4-55.5c4.8-52.9-35.1-104.7-87.9-114.3c-24.4-4.4-48.4-1.6-72.2,4.3
		c-37.9,9.4-73.5,24-105,47.5c-6.8,5.1-13.4,10.4-20.7,16.1c0.6-2.3,1.1-3.9,1.6-5.5c13.2-42.1,20.8-85,20.9-129.2
		c0.1-21.6-3.7-42.3-15-61.1C224.2,14.4,218,6.4,211-0.7h-14.1c14,11.3,23.3,26.1,27.2,44.6c2.1,10.3,3.4,20.9,3.3,31.4
		c-0.2,37.7-6.3,74.6-16.4,110.8c-7.2,25.6-16.5,50.4-27.4,74.6c-0.8,1.8-0.8,5.1,0.3,6.4c2.9,3.5,6.4,6.6,10.1,9.3
		c1.1,0.8,2.2,1,3.3,0.8c1.2-0.3,2.3-1.2,3.3-2.5c22.4-28.4,48.7-52.6,80.1-70.7c36.4-21,75.6-34,117.6-37.7
		c2.4-0.2,4.7-0.3,7.1-0.3c6.9-0.1,13.8,0.5,20.7,1.3c25.6,3.1,43.9,16.8,55.5,39.8c15.5,30.9,10.6,69.1-12,95.5
		c-17.5,20.5-39.2,35.6-61.6,49.8c-38.6,24.5-80,43.6-122.1,61c-23.8,9.8-47.7,19.2-71.8,28c0-0.1,0.1-0.1,0.1-0.2
		c6.1-9.2,7.3-20.9,3.7-31.5c-3.5-10.5-11.2-20.7-21.6-24.9c-10-4.1-21.2-2.9-31.4-0.4c-4.1,1-8.1,2.3-12.2,3.7
		c-0.1,0-0.2,0-0.3,0.1c-11,4-21,10-29.7,17.6c1.6-5.7,3-11.5,4-17.4c1.9-11.5,3.3-24.1,1-35.6c-4.2-20.7-25.1-38.1-46.8-34.8
		c-21.5,3.2-28.7,26.8-31.1,45.3c-1,7.6-1.5,15.4-1.6,23.1c0,0.5,0,1.1,0,1.6c-5.4-29.6-9.3-59.4-12.8-89.2
		c-6-51.3-8.9-102.8-6.3-154.4c1.6-30.6,5.2-60.9,14.2-90.3c2.2-7,4.8-13.9,7.9-20.6c3.2-6.3,6.9-12.3,10.3-18.4
		c0.5-0.7,1-1.4,1.5-2.1c3.7-5,7.6-9.6,11.8-13.7h-29c-3.5,5.1-6.7,10.5-9.6,16.2C27.6,32.7,22.5,51.1,18.9,70
		c-8.8,41.4-11.1,128.5,0,225.7c6,52,14.5,103.6,28.2,154.2c2.4,9,6.3,17.7,9.5,26.7c-0.2,0.1-1.1,0.3-2,0.3
		c-5.2,0.1-8.5,2.8-11.9,6.7c-4.9,5.6-11,10.3-16.7,15.3c-1.6,1.4-3.2,2.7-5,3.8c-3.1,1.8-3.5,3.9-2,7.1c3.5,7.5,8.3,13.4,16.2,16.8
		c3.3,1.5,5.9,4.3,9,6.3c3.6,2.3,7.1,5,11,6.3c8.2,2.6,16.8,2.4,25.2,0.9c6.9-1.3,9.5-4.2,9.9-11.2c0.5-7.9,2.8-15.1,6.7-22
		c0.8-1.4,1.2-3,1.6-4.7c9.9-3.2,19.8-7,29.5-10.6c1.8-0.7,3.5-1.4,5.3-2c57.4-16.5,113.6-38.3,169.9-60.1c-1,0.8-2.1,1.6-3.1,2.3
		c-36.7,26.1-72.5,53.4-106,83.5c-15.4,13.9-30.2,28.4-45,42.9c-4.8,4.8-8.6,10.7-13,16.3c0.4,0.1,0.1,0.1,0,0
		c-3.6-6.3-9.3-8-16.3-9.3c-8.4-1.6-16.5-5.5-24.5-8.8c-3.2-1.3-5-0.8-6.8,1.9c-4.6,6.6-7.6,13.6-6.7,22c0.4,4.1-0.8,8.3-1.1,12.4
		c-0.3,3.4-0.9,7-0.2,10.2c2.2,9.5,6.9,17.8,13.5,25c3.7,4,7.4,4.7,12.3,2.3c5.1-2.5,10.3-4.2,15.8-5c8.9,9,18.6,17.4,28.1,25.6
		c17.4,15,35.7,29.7,55.8,40.9c4.7,2.6,9.6,5.1,14.7,7.2c26.6,22.3,53.4,44.1,79.7,65.8c-4.2-1.9-9-4.1-13.9-6.3
		c-26.9-12.1-54.1-23.5-81.7-33.8c-2.6-1.9-5.3-3.6-7.9-5.1c-18.3-10.8-38.5-18.2-58.7-24.3c-14.6-4.4-29.4-8.3-44.5-11.3
		c0.2-2.5-0.4-5-1.6-7.6c-2-4.4-2.9-9.3-3.8-14.1c-0.9-5.2-1.5-10.5-2.1-15.7c-0.3-2.6-1.8-3.6-4.2-3.8c-8.3-0.8-16.1-0.1-23.1,5.2
		c-3,2.3-6.9,3.7-10.6,4.9c-5.4,1.6-10,4.4-13,9c-3.9,6-7.7,12-10.7,18.4c-2.9,6.2-1.6,10.4,4.1,14.3c7.1,4.8,12.5,10.7,16.7,18.2
		c0.8,1.5,2.4,2.6,4,3.8c-0.2,2.6-0.3,5.1-0.5,7.7c-9.6,31.9-16.4,65-22.3,98.2c-5.8,32.4-11,64.8-16.7,97.5
		c-0.6,3.1-3.3,19.1-4.1,25.4C-3,1017.5,3.3,1077.4,6.1,1112.7z M59.7,515.4C59.7,515.4,59.8,515.5,59.7,515.4
		C59.6,515.4,59.4,515.3,59.7,515.4z M56.1,424.9c-1-11.3-1.6-22.7-1.4-34c0.2-15.3,1.2-32.6,8.8-46.3c6.2-11.2,17.1-18.2,30.1-16.4
		c10,1.4,21.1,6.6,26.1,15.8c5.4,9.8,2.9,24.3,1.3,34.9c-2.2,14.5-6.6,28.3-12.4,41.7c-0.2,0.3-0.4,0.5-0.6,0.8
		c0.1,0.1,0.1,0.2,0.2,0.3c-1,2.6,3.3,12.2,5.6,9c11.1-14.8,25.7-26.1,43.2-32.5c17.5-6.1,43.7-12.3,54.3,8.3
		c9.6,18.6-9.5,35-23.3,44.1c0,0,0,0,0,0c-0.1,0.1-0.3,0.2-0.4,0.3c-30.3,19.8-66,32.8-100.5,43.4c-3.2,1-7.9,3-11.9,3.3
		c0,0,0,0,0,0c-1.1,0.1-2.1,0-3-0.3c-0.6-0.1-2.6-1.6-3.1-1.8c-0.1-0.2-0.1-0.4-0.2-0.5c0-0.1-0.1-0.2-0.1-0.2c0,0,0,0,0-0.1
		c-0.6-1.9-1.2-3.7-1.8-5.5c-3.9-13.8-6.3-28-8.3-42.2c-1-6.6-1.8-13.2-2.4-19.9C56.2,426.4,56.1,425.6,56.1,424.9z M68.1,510.1
		c-0.4,1.3-0.4,2.7-0.6,4.1c-0.1,0.9-0.4,1.6-1.1,2.2c-0.1,0.1-0.2,0.1-0.3,0.1c-1-0.7-2.1-1.3-3.2-1.9c-0.1-0.1-0.2-0.1-0.3-0.2
		c-0.1-0.1-0.4-0.3-0.5-0.3c-0.3-0.4-0.5-0.8-0.8-1.2c-0.4-0.8-0.9-1.5-1.1-2.3c0.1-0.3,0.3-0.5,0.6-0.7c-0.1,0.1-0.2,0.1-0.3,0.2
		c1.5-0.9,2.7-2.2,4.1-3.2c1.4-0.9,2.5-1.8,3.5-3.1c0.1-0.2,0.2-0.3,0.4-0.5c0.3,0.2,0.6,0.4,0.9,0.5c0.1,0.1,0.3,0.1,0.4,0.2
		c0.3,0.1,0.6,0.3,0.9,0.4c0,0.1,0,0.2-0.1,0.3c-0.1,0.5-0.4,1-0.7,1.4C69.1,507.4,68.5,508.7,68.1,510.1z M61.6,514.1
		c0,0-0.1-0.1-0.2-0.2C61.5,514,61.6,514,61.6,514.1C61.7,514.1,61.7,514.1,61.6,514.1z M68.9,495C68.8,494.8,68.8,494.7,68.9,495
		L68.9,495z M75.4,506.3c0.2,0.1,0.3,0.1,0.5,0.2c0,0,0,0,0,0c0,0,0,0,0,0c-0.2-0.1-0.4-0.2-0.8-0.3
		C75.2,506.2,75.3,506.3,75.4,506.3z M64.1,516.7c0,0,0.1,0,0.1,0C64.2,516.8,64.1,516.8,64.1,516.7c-0.1,0-0.1,0-0.2,0
		C64,516.7,64,516.7,64.1,516.7z M68,529.2c0,0.4-0.1,0.7-0.1,1.1c-0.1,0.8-0.3,1.6-0.5,2.3c-6.3-3.8-12.7-6.9-18.1-11.3
		c-1.4-1.1-2.6-2.5-3.6-4c-1.8-2.5-3.2-5.3-4.9-7.9c-1.2-1.8-0.3-3.3,1.5-4.7c5.5-4.1,10.9-8.4,16.4-12.5c0.7-0.6,2.2-0.7,3.1-0.4
		c0.4,0.1,0.7,0.3,1,0.4c0,0,0,0,0,0.1c0.6,1.6,1.2,3.2,1.9,4.7c-0.3-0.1-0.6-0.2-0.9-0.3c-0.5-0.2-1.2-0.4-1.8-0.4
		c-0.2,0-0.4,0-0.5,0c-1.2,0.1-1.8,0.8-2.5,1.8c-1,1.5-2.1,2.7-3.6,3.7c0.1-0.1,0.2-0.1,0.3-0.2c-1.5,1-2.8,2.3-4.3,3.3
		c0.1-0.1,0.2-0.1,0.3-0.2c-1,0.7-1.6,1.1-1,2.4c0.5,1.2,1.2,2.3,1.9,3.3c1.1,1.4,2.5,2.5,4,3.4c1,0.6,2.1,1.1,3.1,1.6
		c0.2,0.2,0.3,0.3,0.6,0.6c1.5,1.4,3.3,2.5,5.2,3.3c1,0.5,2.2,1,3.4,1.4c0,0,0.1,0,0.1,0C68.5,523.5,68.1,526.3,68,529.2z
		 M135.8,623.3c-2.5-2.4-5-4.8-7.4-7.3c-2.9-2.9-8.3-6.9-9.5-11.1c0,0,0-0.1,0-0.1c0-0.2-0.1-0.3-0.1-0.5c-0.1-0.6,0.1-3,0-3.6
		c0.4-0.4,0.8-0.9,0.1-0.1c1.5-1.6,3-3.2,4.5-4.7c0.9-0.9,1.9-1.8,2.8-2.7c0,0,0,0,0.1-0.1c9.5-8.9,19.9-16.8,30.3-24.5
		c2.8-2.1,5.6-4.1,8.5-6.1c0.3-0.2,0.6-0.5,1-0.7c12.2-8.5,24.9-16.5,38-23.3c13.6-7,29.3-14.4,44.9-14.2
		c12.8,0.1,24.1,6.4,28.7,18.7c3.6,9.5,4.2,21.7-1.5,30.4c-6.1,9.4-20,14-30.1,17.6c-14.1,5-28.8,7.8-43.7,8.9
		c-2.7,0.2-9.3,8.6-5.3,9.2c0.1,0,0.2,0,0.2,0c0,0,0,0,0,0.1c0.1,0,0.1,0,0.2,0c18.3,3.2,35.1,10.7,48.8,23
		c13.7,12.5,31.6,32.6,18.4,51.7c-4.7,6.9-11.3,9.6-18.4,9.8c0,0-0.1,0-0.1,0c-10.7,0.3-22.6-4.8-31.4-9.5
		c-16.5-8.9-32.1-20-46.9-32.2C156.7,642.9,146.1,633.1,135.8,623.3z M111.4,607.1c-0.4,0-0.8,0-1.3,0c-1.5,0-2.9,0.1-4.3,0.4
		s-2.6,0.9-3.8,1.4c-0.9,0.4-1.7,0.5-2.5,0c0,0-0.1,0-0.1-0.1c0,0-0.1,0-0.1-0.1c0,0,0,0,0,0c0.1-1.3,0.2-2.5,0.1-3.7
		c0-0.3,0-0.5,0-0.8c0,0,0-0.1,0-0.1c0.2-0.4,0.4-0.8,0.7-1.2c0.5-0.7,1-1.4,1.5-2.1c0.3-0.1,0.6-0.1,0.9,0.1
		c-0.1-0.1-0.2-0.1-0.3-0.2c1.5,0.9,3.2,1.3,4.8,2.1c-0.1-0.1-0.2-0.1-0.3-0.2c1.5,0.8,3,1.5,4.7,1.7c0.1,0,0.2,0,0.3,0
		c0,0.3,0,0.6,0,0.8c0,0,0,0,0,0c0,0,0,0.1,0,0.1c0,0,0,0.1,0,0.1c0,0.5,0,1,0,1.5C111.6,607,111.5,607.1,111.4,607.1z M93.6,611.4
		c-0.5,0-0.9-0.1-0.7-0.1c0.1-6.5,0.2-12.9,0.4-19.5c0.3-5.7,2.9-10.5,6.3-15c1.3-1.7,2.8-1.9,4.8-1c6.9,3,13.8,5.7,20.5,8.5
		c0,0,0,0,0,0.1c0,0,0.1,0,0.1,0c0.1,0.9,0.3,1.9,0.4,2.8c0,0-0.1,0-0.1,0.1c-3.2,3-7,6.5-9.8,10.3c-0.1-0.9-0.3-1.7-0.7-2.4
		c-0.1-0.2-0.2-0.4-0.3-0.5c-0.6-0.9-1.5-1.1-2.7-1.3c-1.8-0.2-3.4-0.5-5-1.4c0.1,0.1,0.2,0.1,0.3,0.2c-1.6-0.9-3.3-1.4-5-2.2
		c0.1,0.1,0.2,0.1,0.3,0.2c-1.1-0.6-1.7-0.9-2.6,0.2c-0.8,1-1.5,2.1-2,3.3c-0.7,1.7-1,3.4-1.1,5.2c-0.1,0.9,0,1.9,0,2.9
		c0,0.1-0.1,0.4-0.1,0.4c0,0,0,0,0,0.1c-0.1,0.3-0.2,0.6-0.3,0.9c-0.5,2-0.6,4.1-0.5,6.1c0,0.3,0,0.7,0.1,1.1c0,0,0,0.1,0,0.1
		C95.3,610.9,94.4,611.2,93.6,611.4z M281.8,722.6c-4.6-3.6-9.2-7.2-13.7-10.9c-5-4-10-8.1-14.9-12.1c0,0,0,0,0.1,0
		c4.4-2,8.4-4.9,11.8-8.4c7.6-8,12.9-19.7,11.7-30.9c-1.2-10.7-7.5-20-14.6-27.8c-2.9-3.2-6.1-6.2-9.3-9.1c-0.1-0.1-0.2-0.2-0.4-0.2
		c-8.7-7.7-18.7-13.5-29.3-17.6c5.9-1.3,11.7-2.8,17.4-4.7c11-3.7,22.8-8.5,31.8-16c16.2-13.5,21.7-40.1,8.5-57.7
		c-13.1-17.4-37.2-12.6-54.6-6c-12.1,4.7-23.7,10.7-34.9,17.4c-0.3,0.2-0.6,0.4-0.9,0.6c58.9-52.6,122.2-99.3,190.8-139
		c32.6-18.9,66.3-35.3,102.8-45.6c19.9-5.6,40-8.6,60.8-5.8c17.1,2.3,31.2,8.1,42.6,17c12.9,10.1,22.2,24.5,28,43
		c7.1,22.9,8,45.7-1.8,68.1c-6.9,15.8-18.7,27.5-32.7,37.1c-18.3,12.6-38.5,21.6-59,29.9c-43,17.4-87.8,27.6-133.9,31.9
		c-4.1,0.4-6.8,2-7.9,5.8c-1,3.4-1.8,6.9-2,10.4c-0.1,3.1,0.4,4.6,2.1,5.5c0.8,0.4,1.9,0.6,3.4,0.8c13.5,2,26.8,4.8,39.8,8.5
		c6.1,1.7,12.2,3.7,18.3,5.9c0.1,0,0.2,0.1,0.3,0.1c0.3,0.1,0.6,0.2,0.9,0.3c1.7,0.6,3.4,1.3,5.1,1.9c0.6,0.2,1.3,0.5,1.9,0.7
		c21.1,8.3,40.6,19,58.7,32.1c8.2,6,16.2,12.4,23.8,19.4c15.3,14,30.1,28.3,41.8,45.4c8.8,12.9,15.8,26.6,19.1,42
		c4.2,19.7-0.6,37.5-11.8,53.5c-21.3,30.4-51,42.1-87.5,36.9c-20.4-2.9-39.2-11-57.6-19.8c-0.2-0.1-0.4-0.2-0.5-0.3
		c-24-11.5-46.9-24.7-69-39.5c-6.2-4.2-12.4-8.6-18.6-12.9c-0.2,0.3-0.5,0.6-0.7,0.9C325.6,756.3,303.5,739.7,281.8,722.6z
		 M53.6,668.8c0,0-0.1,0.1-0.2,0.1C53.4,668.9,53.5,668.9,53.6,668.8z M53.3,668.9C53.3,669,53.3,669,53.3,668.9
		c0,0,0.1-0.1,0.2-0.1C53.4,668.9,53.4,668.9,53.3,668.9z M53.1,669C53.2,669,53.2,669,53.1,669c0.1-0.1,0.1-0.1,0.2-0.1
		c0,0,0,0-0.1,0.1C53.2,669,53.2,669,53.1,669C53.2,669,53.1,669.1,53.1,669c-0.1,0.1-0.2,0.1-0.2,0.1C53,669.1,53.1,669.1,53.1,669
		C53.1,669,53.1,669,53.1,669z M161,709.3c2.9,1.2,5.8,2.4,8.7,3.7c13.9,6.2,29.5,13.9,39.1,26.2c1.2,1.5,2.2,3.2,3.2,4.8
		c0,0,0,0,0,0c5.1,9.2,5.8,19.8,0.1,29.3c-5.2,8.7-14.3,16.8-24.7,17.8c-11.2,1.1-23.4-6.9-32.6-12.6c-12.7-7.9-24.1-17.6-34.2-28.6
		c-1.8-2-12.5-1.9-10.5,1.6c0,0.1,0.1,0.1,0.1,0.2c0,0-0.1,0-0.1,0c0.1,0.1,0.2,0.2,0.2,0.3c8.8,16.2,13.3,33.9,12.4,52.3
		c-1.2,18.5-5.8,45-29,46.7c-20.9,1.5-28.4-22.5-31.4-38.8c-2.5-14.2-3.7-28.7-4-43.4c0-0.1,0-0.1,0-0.2
		c-0.4-22.2,1.2-44.7,3.5-66.3c0.1-1.3,0.2-2.9,0.3-4.7c0,0,0,0,0,0c0.3-3.7,0.9-7.8,2.8-10.2c0.4-0.5,2.5-1.8,2.9-2.2
		c0.6,0,1.3,0.1,0.1-0.1c2.2,0.2,4.3,0.3,6.5,0.6c0.7,0.1,1.5,0.2,2.2,0.3c0,0,0.1,0,0.1,0c5.3,0.7,10.6,1.7,15.8,2.8
		c8.1,1.7,16.1,3.7,24,5.8C131.6,698.7,146.5,703.4,161,709.3z M53.3,672.1c0.4-0.1,0.9-0.2,1.4-0.2c0.8-0.1,1.6-0.2,2.4-0.1
		c0.3,0.2,0.4,0.4,0.5,0.7c0.3,1.5,0.9,2.9,1.2,4.5c0,0,0,0,0-0.1c0.3,1.7,0.7,3.3,1.6,4.8c0,0.1,0.1,0.2,0.2,0.2
		c-0.2,0.1-0.3,0.3-0.5,0.4c-0.1,0-0.1,0.1-0.2,0.1c-0.4,0.3-0.8,0.7-1.2,1c-0.1-0.1-0.2-0.2-0.3-0.3c-0.2-0.3-0.4-0.5-0.7-0.8
		c-0.9-1.2-1.9-2.2-3-3.1c-1.1-0.9-2.3-1.5-3.5-2.1c-0.8-0.4-1.3-0.9-1.5-1.8c0-0.2,0-0.4,0-0.6c1-0.7,2-1.4,2.9-2.2
		C52.8,672.5,53.1,672.3,53.3,672.1z M37.3,673c4.7-2.6,9.2-5.1,13.7-7.5c1-0.5,2-1.1,2.9-1.6c2-1,4-1.7,6-2.2
		c3.5-0.8,7.2-0.7,10.9,0c1.2,0.2,2.8,1.9,3,3.2c0.9,5.4,1.7,10.7,2.3,16.2c0,0-0.1,0-0.1,0c-2.6-0.3-5.4-0.4-8-0.3
		c0.1-0.1,0.2-0.2,0.3-0.3c0.6-0.7,1.1-1.3,1.4-1.9c0.2-0.3,0.3-0.5,0.2-0.7c0.2-1-0.1-1.8-0.7-2.7c-0.8-1.4-1.6-2.8-1.9-4.3
		c-0.3-1.7-0.9-3.3-1.3-4.9c-0.2-1.2-0.4-1.9-1.8-1.9c-1.3,0-2.6,0.1-3.8,0.5c-1.8,0.4-3.3,1.3-4.7,2.4c-0.9,0.6-1.7,1.4-2.6,2.2
		c0,0,0,0-0.1,0c-0.3,0.1-0.6,0.2-0.9,0.4c-1.9,0.8-3.6,2.1-5.1,3.5c-1.3,1.2-2.8,2.7-4,4.3c0,0,0,0,0,0c-1.1-0.8-2.2-1.6-3.4-2.4
		C38.8,674.4,38,673.6,37.3,673z M28.3,946c0.4-3.3,0.8-6.6,1.2-9.9c5.3-43.8,12.2-87.3,20.9-130.5c0,0,0,0.1,0,0.1
		c0.2,1.5,0.5,3.1,0.7,4.6c1.5,9.1,3.6,18.6,7.9,26.9c5.8,11,17,17.7,29.3,18.7c11,0.9,23.5-2.2,31.4-10.1
		c7.7-7.6,11-18.3,12.7-28.7c0.7-4.3,1-8.6,1.3-12.9c0,0,0-0.1,0-0.1c0,0,0,0,0-0.1c0.6-11.8-1-23.3-4.5-34.3
		c4.6,3.8,9.4,7.3,14.5,10.6c9.8,6.3,20.8,12.5,32.3,14.9c20.7,4.3,44.9-8.1,50.4-29.3c1.5-5.8,1.2-11.2-0.4-16.2c0,0,0,0,0,0
		c2.8,1.2,5.6,2.3,8.4,3.5c11.4,4.8,22.7,9.8,33.9,14.9c27.3,12.4,54.2,26,80.7,40.1c17.7,9.4,34.5,20.6,51.5,31.4
		c20,12.7,38.4,27.4,55.3,43.9c17.7,17.2,32.1,36.7,38.9,61c7.5,26.7,2.1,50.7-14.8,72.4c-13.2,16.9-29.5,29.5-50,36.1
		c-4.7,1.5-9.4,2.5-14,3.1c-16.5,2.1-32.4-1.5-48.1-8.6c-14.8-6.8-28.4-15.9-41.7-25.4c-2.5-1.8-5.1-3.7-7.6-5.5
		c-37.5-28-69.8-61.4-97.7-99.2c-1.9-2.6-3.9-5.1-5.6-7.8c-1.8-3-4.3-3.9-7.5-3.4c-2.3,0.3-4.7,0.7-6.8,1.6
		c-5.2,2.2-7.4,3.7-7.6,6.3c-0.1,1.6,0.6,3.6,1.7,6.4c2.5,6.6,4.9,13.2,7,19.8c12.3,38.7,16.4,78.6,10.5,119.5
		c-4.1,28.7-10.5,57-23.6,83.2c-7.9,15.9-17.9,30.2-32.8,40.4c-15.9,10.8-33.7,12.9-51.9,10c-29.6-4.7-51.3-21.1-64.7-48
		c-1.3-2.7-2.5-5.4-3.6-8.1c-6.1-15-8.9-30.9-10.6-47.1c-0.1-0.7-0.2-1.3-0.2-2c-1.8-17.8-2.6-35.6-2.6-53.4
		C22.5,1005.2,24.8,975.6,28.3,946z"/>
	<path class="st4" d="M116.7,1701.4c4.2-3.4,4.2-3.4,6.1-8.6c3.1-8.6-1.8-16.4-10.9-17c-3.4-0.2-5.7-1.3-7.5-4.4
		c-7.4-12.6-14.4-25.5-22.8-37.4c-11.2-15.9-23.1-31.3-35.4-46.2c-7.5-9.1-16.6-17-27.7-21.7c-6.3-2.7-12.3-3.5-18-2.3v11.1
		c1.5-0.3,3-0.4,4.5-0.4c2.5,0,5.1,0.4,7.9,1.2c8.9,2.5,16,8.1,22.5,14.4c19.1,18.2,34.4,39.4,48.3,61.6c4.8,7.6,9.3,15.4,13.8,23.2
		c4.2,7.2,3.7,9.3-4,13c-11.9,5.7-24,11.2-36.2,16.1c-18.4,7.3-37.3,13.4-56.8,16.9v11.3c5.6-1,11.2-2.2,16.7-3.6
		c30.3-8,59.4-19,86.9-35.1C108.3,1696.1,112.5,1698.8,116.7,1701.4z M112.3,1684.8c0.1-0.1,1.9,0.9,1.9,1c0,0,0,0,0,0.1
		c0,0,0,0,0,0c-0.5,1.8-1.3,3.4-2,5.2c-0.9-0.5-1.8-1-2.7-1.5C110.4,1688,111.3,1686.4,112.3,1684.8z"/>
	<path class="st4" d="M0.5,1666.8c6.1,0.2,12.1,0.9,18.1,1.8c2.9,0.5,6,0.9,9.4,1.4c0.3-0.5,0.5-1.1,0.7-1.5
		c3.3-7.3,2.6-8.6-4.5-12.4c-9.1-4.8-17-10.9-23.7-18v14.8c0.6,0.8,1.2,1.6,1.8,2.4c-0.6,0-1.2,0-1.8,0V1666.8z"/>
</g>
<g>
	<path class="st5" d="M537.8,1103.7c5.7,9.3,11.9,18.3,17.4,26.6c11.6,10.8,21.8,21.4,33.1,30.4c13.7,11.2,28.1,21.5,42.5,31.8
		c5.6,4.1,7.8,3.5,11-1.9c11.7-20.1,22.9-40.4,31.6-61.8c4-9.8,7.4-19.8,10.2-30.1c1.9-7,3.5-14.3,3.6-21.5c0.1-6-1.1-12.5-3.6-17.9
		c-7.8-16.3-29.3-18.6-40.6-4.6c-3.1,3.8-5.8,7.8-8.2,11.9c-6.8,11.6-11,24.2-11.9,38.2c-0.3,5.1-0.2,10.1-0.2,15.2
		c0,1.2-0.3,2.2-0.7,3c-1,1.7-2.9,2.6-5.1,3.2c-3.5,1-5.2-1-6.3-3.9c-0.7-1.8-1.4-3.7-2.1-5.5c-5.2-13.7-12.5-26.4-21.5-38
		c-3.6-4.6-7.9-8.8-12.6-12.3c-9.2-7-21.4-7-30.9-0.8c-3.7,2.4-6.5,5.7-8.2,9.7c-0.1,0.3-0.2,0.5-0.3,0.8c-0.1,0.3-0.2,0.5-0.3,0.8
		c-1.7,4.6-2,9.9-0.7,15.6C534.7,1096.4,535.8,1100.4,537.8,1103.7z"/>
	<path class="st5" d="M641.3,1206.6c-0.5,0-1,0-1.4,0c-1.5,0.1-2.9,0.2-4.4,0.4c0,0.8,0.1,1.6,0.1,2.4c2.2,0.7,4.4,2.2,6.3-0.7
		c0,0,0.1-0.1,0.1-0.2C642,1207.9,641.5,1206.6,641.3,1206.6z"/>
	<path class="st5" d="M516.7,1843.5c-0.2-0.1-0.3-0.2-0.4-0.4c-2.8-4.1-5.5-8.3-7.8-12.7c-5.7-10.7-10.1-22.8-8.4-35.1
		c1.8-12.8,11-24.3,21.7-31.1c4.7-3,9.9-5.1,15.3-6.1c0,0,0.1,0,0.1,0c-4.4-5.9-8.8-11.8-13.2-17.6c-23.2-30.6-47.4-60.5-71.2-90.7
		c-0.2,0.2-0.3,0.3-0.5,0.4c-0.2,0.1-0.4,0.2-0.6,0.3c-5.8-6.6-11.5-13.2-17.3-19.7c-20.5-22.7-42.4-44-66-63.5
		c-18-15-36.6-29.1-58.5-38.1c-39.1-16-75.4-11.3-107.6,16.6c-16.9,14.7-27.3,33.2-28.1,56.2c0,1.2-0.1,2.3-0.1,3.5
		c0,16.7,3.8,32.8,9.6,48.5c8.3,22.4,20.8,42.4,33.8,62.2c20.8,31.6,46.6,58.2,77.2,80.2c21.5,15.4,44.6,28,69,38.1
		c3.7,1.6,5.3,2.9,5.2,5.6c0,0.9-0.2,1.9-0.6,3.1c-1.2,3.8-3.1,7.5-5.1,11c-2.2,4-5.7,5-10.4,4.3c-52.5-8.1-105.2-9.3-157.9-1.9
		c-25.1,3.6-50.1,7.9-74,16.8c-18.2,6.8-34.6,16.4-46.7,32.1c-4.7,6.1-8.5,12.4-11.5,18.9h0.1h392.3c0.7-18.2,12.3-36,28.8-43.9
		c12.1-5.8,26.5-7.8,39.8-8.9c6.8-0.6,13.7-0.7,20.5-0.5C533.6,1863.6,524.3,1854.4,516.7,1843.5z"/>
	<path class="st5" d="M899.9,1321.7c-7.4-33.7-26.9-57.9-58.6-71.5c-11.6-5-23.6-7.9-35.8-7.9c-8.2,0-16.5,1.4-24.8,4.5
		c-19.6,7.1-34.6,20.4-47.9,35.8c-22,25.5-37,55.2-49.6,86c-21.1,51.3-26.3,104.9-19.4,159.7c1.2,9.3,0.1,10.9-10.2,12.6
		c-2.2,0.3-4.4,0.2-6.7,0c-0.5,0-0.9-0.1-1.3-0.1c-3.7-0.4-6.2-2.1-7.4-5.9c-1.1-3.5-2.6-6.8-4-10.2
		c-21.9-53.1-50.6-102.1-87.9-145.9c-12.1-14.3-24.7-28.2-39-39.9c-17.9-14.2-37.8-23.3-60.6-23.6c-2.2,0-4.5,0-6.8,0.2
		c-24.7,1.6-46.3,11.1-65.7,26.1c-24.9,19.3-37.7,44.6-36.8,76.4c0.7,28.9,11.3,54.6,26.2,78.8c14.2,23.1,30.6,44.6,49.2,64.3
		c15.8,16.8,31.4,33.9,48.5,49.4c25.5,23.1,51.7,45.7,78.6,67.2c13.7,10.9,27.6,21.7,41.6,32.1c-0.3-5.9,0.8-11.9,4.1-17.8
		c12.1-22.1,42.5-29,64.3-18.5c12.1,5.8,22.6,15.9,31.8,25.6c4.7,5,9.1,10.3,13.1,15.8c-0.8-13,0.6-26,4.4-38.7
		c-0.1-0.2-0.1-0.5,0-0.7c1.5-4.7,3.1-9.4,5.1-14c4.8-11.1,11.6-22.1,22.2-28.4c11.1-6.5,25.8-6.5,37.8-2.4
		c13.4,4.6,24.1,15.1,27.4,29c2.5,10.4,2.2,21.5,1.3,32.1c-0.1,1.6-0.3,3.2-0.5,4.8c0,0.3-0.1,0.7-0.1,1
		c23.5-49.3,44.7-99.6,64.2-150.7c19.4-51.1,35.4-103.1,43.3-157.4C903.2,1366.8,904.8,1344.2,899.9,1321.7z"/>
	<path class="st5" d="M1058.1,1286.1c-30.5,0.2-53.9,15.3-74.1,36.4c-16.3,16.9-27.4,37.4-37.3,58.5c-19.6,42-32.2,86.3-42.2,131.3
		c-12.6,56.6-21.2,113.8-26.4,171.4c7.2-15.4,18.8-29.1,37.1-29c25.2,0.2,45.7,23.6,46.8,47.8c0.6,13.4-3.3,27.4-7.5,40.1
		c-2.1,6.5-4.7,12.9-7.6,19.1c11.3-7,23.6-12.1,36.9-14.7c0.2,0,0.4,0,0.5,0c4.7-0.8,9.3-1.6,14-2c12-1.1,24.9-0.4,35.5,6
		c11.1,6.6,18,19.6,20.1,32.1c2.3,13.9-2,28.3-12.6,37.8c-4.6,4.1-9.8,7.5-15.2,10.4c-0.1,0.1-0.2,0.1-0.4,0.2
		c18.2-1.7,36.4-3.7,54.6-6v-0.1v-188.3c-1.4,1.1-2.9,2.2-4.3,3.3c-2.4,1.9-4.7,2.5-6.7,1.4c-0.6-0.3-1.2-0.8-1.8-1.5
		c-3.1-3.6-5.8-7.5-8.2-11.6c-1.8-3.1-1.2-6.2,1.3-9.3c6.8-8.5,13.4-17.2,19.7-26v-0.4v-304.6
		C1073.2,1286.9,1065.8,1286,1058.1,1286.1z"/>
	<path class="st5" d="M114.2,1685.9C114.2,1685.9,114.2,1685.9,114.2,1685.9c-0.2-0.2-1.9-1.1-1.9-1c-1,1.5-1.9,3.1-2.8,4.7
		c0.9,0.5,1.8,1,2.7,1.5C112.9,1689.3,113.7,1687.7,114.2,1685.9z"/>
	<path class="st5" d="M97.5,1674.9c-4.5-7.8-9-15.6-13.8-23.2c-13.9-22.2-29.2-43.4-48.3-61.6c-6.5-6.3-13.6-11.9-22.5-14.4
		c-2.7-0.8-5.3-1.2-7.9-1.2c-1.6,0-3.1,0.1-4.5,0.4v63.2c6.8,7.2,14.7,13.2,23.8,18c7,3.8,7.7,5,4.4,12.4c-0.2,0.5-0.5,1-0.7,1.5
		c-3.4-0.5-6.5-0.9-9.4-1.4c-6-0.9-12.1-1.5-18.1-1.8v0v54.1v0c19.5-3.5,38.4-9.6,56.8-16.9c12.2-4.9,24.3-10.4,36.2-16.1
		C101.2,1684.2,101.7,1682.1,97.5,1674.9z"/>
</g>
</svg>
