<svg width="80" height="80" viewBox="0 0 80 80" fill="none" xmlns="http://www.w3.org/2000/svg">
<g clip-path="url(#clip0_26_195)">
<path d="M0 30.2953C0.280367 30.0388 0.268436 29.6569 0.381776 29.3348C1.36008 26.5904 3.3644 25.1586 6.18597 24.8603C8.75169 24.6037 11.3424 24.7893 13.8454 25.4092C14.0661 25.4628 14.2927 25.4927 14.6328 25.5583C12.7803 23.5103 11.4663 21.0337 10.809 18.3514C10.4471 17.1375 10.3435 15.8612 10.5048 14.6048C10.9283 11.9857 12.9565 10.1899 15.7483 9.83197C18.9456 9.41435 21.5584 10.4286 23.5508 12.9701C25.5518 15.6675 27.1977 18.611 28.4483 21.7281C29.9434 25.0719 31.2187 28.5096 32.2661 32.0195C32.4569 32.6996 33.1072 32.7533 33.6202 32.8428C35.3382 33.145 35.6961 34.0181 34.6939 35.4618C34.392 36.0466 33.9491 36.5469 33.4054 36.9175C32.0095 37.6633 31.0193 37.5141 30.0529 36.2553C29.9285 36.0374 29.7301 35.8712 29.4938 35.7869C29.2574 35.7027 28.9987 35.7059 28.7644 35.7959C23.031 37.2417 17.1329 37.9297 11.2206 37.8423C9.0754 37.824 6.94317 37.5068 4.88554 36.8996C2.49944 36.1599 0.638282 34.8831 0 32.2999V30.2953Z" fill="#4D352D"/>
<path d="M80 48.76C79.7853 48.8256 79.8389 49.0344 79.7972 49.1776C78.7831 52.5185 76.5461 54.195 72.9431 54.3441C70.6076 54.4537 68.2683 54.2348 65.9936 53.6938C65.7962 53.6578 65.5971 53.6319 65.3971 53.6163C67.1146 55.5132 68.3612 57.788 69.0359 60.2564C69.4743 61.5713 69.6348 62.963 69.5071 64.3431C69.179 66.9025 67.3298 68.7341 64.6156 69.2114C61.2989 69.808 58.543 68.8474 56.4492 66.1628C54.4306 63.447 52.7724 60.4811 51.5159 57.3391C50.0388 54.0458 48.7833 50.6575 47.7578 47.1969C47.5789 46.5406 47.0181 46.5466 46.5648 46.3259C46.4298 46.2824 46.289 46.2602 46.1472 46.2602C44.6917 46.0156 44.3039 44.9775 45.1808 43.7903C45.6461 43.1579 45.9861 42.4659 46.7616 42.1079C48.0382 41.5113 49.0165 41.6366 49.8337 42.7582C49.9984 43.025 50.2532 43.224 50.5519 43.3192C50.8506 43.4144 51.1735 43.3995 51.4622 43.2772C56.8052 41.948 62.2894 41.2709 67.7951 41.2607C69.9394 41.2431 72.0782 41.4814 74.166 41.9707C76.8742 42.6389 79.147 43.8321 79.9821 46.7435L80 48.76Z" fill="#4D352D"/>
<path d="M40.5637 68.4716C39.6651 71.2789 38.0367 73.797 35.8452 75.768C34.5209 76.9612 33.0475 77.9396 31.1625 77.9456C30.2868 77.9401 29.4238 77.7359 28.6385 77.3483C27.8531 76.9608 27.166 76.4 26.6289 75.7083C24.6007 73.3219 23.9207 70.6193 25.0063 67.5946C26.1399 64.6834 27.6803 61.9476 29.5817 59.4689C31.938 56.1361 34.5296 52.976 37.3365 50.0128C37.8137 49.5177 37.4976 48.9986 37.4021 48.4915C37.3484 48.2171 37.1874 47.9605 37.1337 47.6801C37.0898 47.517 37.081 47.3464 37.108 47.1796C37.1349 47.0129 37.197 46.8537 37.29 46.7127C37.383 46.5717 37.505 46.4521 37.6477 46.3617C37.7904 46.2714 37.9507 46.2124 38.118 46.1886C39.2752 46.0932 40.4504 46.0395 41.4525 46.8568C42.4547 47.6742 42.7052 48.4796 42.2221 49.5415C42.0557 49.8464 42.0034 50.2006 42.0744 50.5406C42.1455 50.8806 42.3353 51.1842 42.6098 51.3969C46.7796 55.6967 50.3366 60.551 53.1802 65.8227C54.3163 67.8399 55.082 70.0444 55.4411 72.3316C55.7572 74.7538 55.2442 76.8598 53.0192 78.2141C51.9087 78.854 50.6365 79.1586 49.3567 79.0908C48.0768 79.023 46.8439 78.5859 45.8072 77.8322C44.1429 76.5674 43.1825 74.7717 42.2698 72.964C41.5501 71.5283 40.9784 70.0231 40.5637 68.4716Z" fill="#4D352D"/>
<path d="M39.4243 10.6195C40.3917 7.58144 42.2168 4.888 44.6797 2.86367C47.1255 0.817341 49.7144 0.5966 52.017 2.18952C52.9161 2.82202 53.6785 3.6293 54.2586 4.56313C54.8387 5.49696 55.2246 6.53816 55.3933 7.62453C55.7512 9.57541 55.1488 11.3473 54.3554 13.0715C53.2512 15.4018 51.9205 17.6179 50.3825 19.6877C48.1304 22.8746 45.6566 25.8989 42.9796 28.7381C42.2996 29.4421 42.3831 30.0924 42.6933 30.8501C43.093 31.8643 42.9021 32.6399 42.0491 32.8427C40.856 33.1291 38.965 33.0038 38.0344 31.7152C37.7502 31.3709 37.5816 30.9458 37.5527 30.5003C37.5238 30.0548 37.636 29.6114 37.8734 29.2333C38.0075 29.0256 38.0568 28.7744 38.0113 28.5313C37.9658 28.2883 37.8289 28.0719 37.6288 27.9268C33.5553 23.7463 30.0458 19.051 27.1896 13.9604C25.8995 11.7862 25.018 9.39419 24.5888 6.90265C24.1831 4.04494 25.0541 1.93895 27.1121 0.811375C28.2796 0.172809 29.6121 -0.0998172 30.9365 0.0289195C32.261 0.157656 33.5161 0.681805 34.5388 1.53326C36.1017 2.8935 37.0442 4.69523 37.9211 6.52082C38.5265 7.84647 39.0291 9.21672 39.4243 10.6195Z" fill="#4D352D"/>
<path d="M64.7886 24.5858C68.1025 23.8686 71.557 24.1937 74.679 25.5165C77.9837 26.9364 79.2006 29.9135 77.9181 33.2723C76.5759 36.8101 73.8856 38.4508 70.1991 38.7372C65.8683 39.0712 61.5912 38.594 57.3201 37.9437C54.9837 37.6433 52.6672 37.205 50.3825 36.6312C49.7502 36.4581 49.4698 37.013 49.0761 37.3113C48.914 37.4848 48.7626 37.6681 48.6228 37.8601C47.9726 38.5045 47.0599 38.5164 46.5946 37.7528C46.0458 36.8638 45.4492 35.963 45.6163 34.7698C45.7952 33.4811 46.3679 32.7354 47.6445 32.6101C47.9595 32.6093 48.2638 32.4958 48.5023 32.2901C48.7409 32.0843 48.8979 31.8 48.9449 31.4885C50.499 25.9927 52.7609 20.7224 55.6737 15.8099C57.0755 13.4712 58.6563 11.2638 60.8993 9.62314C63.0467 8.05409 65.3434 7.87511 67.2224 9.1041C68.507 9.90895 69.4733 11.1338 69.9572 12.5704C70.4411 14.0071 70.4128 15.567 69.877 16.9852C68.8695 19.5159 67.3874 21.8305 65.5104 23.8043C65.3076 24.031 65.0988 24.2517 64.7886 24.5858Z" fill="#4D352D"/>
<path d="M14.9609 54.6723C14.7692 54.5965 14.556 54.5965 14.3643 54.6723C11.4346 55.1772 8.4223 54.8612 5.66103 53.7595C2.84543 52.6916 1.4257 50.6452 1.61063 47.9546C1.75601 46.0591 2.55515 44.2729 3.87146 42.9014C5.66103 40.9266 8.04714 40.4613 10.5406 40.3241C14.7806 40.182 19.0238 40.49 23.1989 41.2428C25.3643 41.5889 27.5237 41.9349 29.6473 42.4838C30.2438 42.6389 30.5063 42.1019 30.8821 41.8335C31.0909 41.6843 31.1983 41.4099 31.3832 41.2369C31.5153 41.0888 31.6799 40.9734 31.8641 40.8998C32.0483 40.8261 32.2471 40.7962 32.4448 40.8124C32.6426 40.8286 32.8339 40.8904 33.0036 40.9931C33.1734 41.0957 33.3171 41.2364 33.4233 41.4039C33.9244 42.269 34.4971 43.1281 34.3837 44.2437C34.2585 45.5383 33.6679 46.3259 32.3675 46.4869C32.0409 46.4998 31.7289 46.6259 31.4851 46.8436C31.2413 47.0613 31.0809 47.357 31.0313 47.6801C29.3924 53.5047 26.9425 59.0698 23.7536 64.2119C22.5125 66.3373 20.8548 68.19 18.88 69.6588C16.6371 71.204 14.3106 71.2338 12.3779 69.7722C11.2218 68.9281 10.3734 67.7291 9.962 66.3579C9.5506 64.9868 9.59878 63.5187 10.0992 62.1775C11.1389 59.5594 12.6834 57.1714 14.6447 55.1495L14.9788 54.7737C14.9788 54.7737 14.9668 54.714 14.9609 54.6723Z" fill="#4D352D"/>
<path d="M12.4375 36.8937C10.7439 36.9861 9.04591 36.8314 7.39691 36.4343C5.38066 35.8377 3.69846 34.8056 3.15562 32.6101C2.95379 31.7312 2.96593 30.8167 3.19101 29.9435C3.41608 29.0703 3.84752 28.2639 4.44904 27.5922C5.05056 26.9204 5.80457 26.403 6.64765 26.0833C7.49074 25.7636 8.39825 25.6511 9.29386 25.7552C11.9314 25.9977 14.5121 26.6667 16.9353 27.7359C17.6895 28.0487 18.5173 28.1398 19.3214 27.9984C19.5302 27.9984 19.7748 27.9149 19.8524 27.6941C19.9299 27.4734 19.6674 27.3421 19.5064 27.2168C16.4515 24.8662 14.3787 21.4642 13.6903 17.6713C13.4537 16.6457 13.4193 15.5838 13.5888 14.5451C13.719 13.7908 14.0287 13.0788 14.4917 12.4693C14.9548 11.8598 15.5576 11.3706 16.2493 11.0431C16.611 10.833 17.0268 10.735 17.4442 10.7615C17.8615 10.7881 18.2616 10.938 18.5937 11.1922C19.6234 11.9314 20.5106 12.8511 21.2124 13.9067C23.682 17.3968 25.3404 21.2986 26.9152 25.2421C27.804 27.4734 28.5616 29.7524 29.3013 32.0433C29.7964 33.5885 29.4445 34.2627 27.8876 34.7101C24.0008 35.7679 20.0217 36.4512 16.0048 36.7505C14.8177 36.8579 13.6246 36.8817 12.4375 36.8937Z" fill="#FAB958"/>
<path d="M67.5983 42.1855C69.3878 42.2571 71.1416 42.2153 72.794 42.7821C74.8639 43.4443 76.4745 44.5719 76.904 46.8926C77.0332 47.6739 76.9948 48.4737 76.7916 49.2391C76.5883 50.0044 76.2248 50.7179 75.7251 51.3321C75.2254 51.9464 74.601 52.4475 73.893 52.8022C73.1851 53.1569 72.4099 53.3571 71.6188 53.3896C68.6813 53.3309 65.7875 52.6668 63.1183 51.4387C62.3722 51.0974 61.5394 50.9933 60.7322 51.1404C60.5115 51.1822 60.2073 51.1882 60.1357 51.4507C60.0641 51.7132 60.3564 51.8444 60.5354 51.9816C63.6365 54.3971 65.7133 57.8929 66.3515 61.7718C66.6498 63.4304 66.5961 65.0531 65.6238 66.5446C65.0836 67.3112 64.3339 67.9057 63.4643 68.2568C63.1948 68.3848 62.8984 68.4457 62.6003 68.4343C62.3021 68.4229 62.0112 68.3395 61.7523 68.1912C60.622 67.5194 59.6592 66.5993 58.9367 65.5006C56.6818 62.4102 55.1249 58.938 53.6694 55.4598C52.542 52.7333 51.5696 49.9413 50.6868 47.1074C50.2036 45.5622 50.5436 44.9298 52.1184 44.4585C55.6972 43.4586 59.3621 42.7974 63.0647 42.4838C64.6097 42.2929 66.1547 42.2332 67.5983 42.1855Z" fill="#FAB958"/>
<path d="M53.8304 71.1086C53.8304 74.1393 51.9633 76.1379 48.9986 76.3885C47.8787 76.5522 46.7361 76.34 45.7495 75.7852C44.763 75.2303 43.9882 74.3641 43.5463 73.322C42.3058 70.7678 41.5244 68.0153 41.2378 65.1903C41.143 64.5034 40.8508 63.8589 40.3967 63.3349C40.2356 63.144 40.0626 62.8576 39.7644 62.965C39.4661 63.0724 39.5615 63.3647 39.5317 63.5616C39.1912 66.1005 38.2099 68.5109 36.6803 70.5657C35.6019 72.0873 34.2336 73.3809 32.6538 74.372C30.8642 75.4339 29.0746 75.5652 27.2851 74.4257C26.8653 74.1932 26.5304 73.8332 26.3288 73.3977C26.1272 72.9623 26.0693 72.474 26.1636 72.0035C26.438 69.7901 27.4521 67.8691 28.5497 66.0375C31.5435 61.1064 35.0746 56.5224 39.0784 52.3694C39.9612 51.4268 40.6651 51.3672 41.542 52.2263C46.2479 56.7022 50.136 61.9657 53.0311 67.7796C53.3236 68.3819 53.5438 69.0167 53.6873 69.6708C53.7964 70.1419 53.8446 70.6252 53.8304 71.1086Z" fill="#FAB958"/>
<path d="M26.1696 7.8572C26.1696 5.41114 27.3626 3.76453 29.6294 3.02475C32.1289 2.21337 34.4911 2.85173 35.7915 4.77278C37.057 6.77197 37.9126 9.00268 38.3089 11.3354C38.5121 12.179 38.6674 13.0335 38.7741 13.8948C38.8599 14.5833 39.1438 15.232 39.5914 15.7621C39.7524 15.965 39.9254 16.2215 40.2297 16.138C40.5339 16.0545 40.4444 15.7323 40.4802 15.5414C40.8452 12.8789 41.9025 10.3589 43.5463 8.23305C44.5841 6.82809 45.8797 5.63352 47.3641 4.71312C49.2312 3.61538 51.0864 3.51993 52.9357 4.79665C53.2765 5.01644 53.5471 5.32949 53.7152 5.69859C53.8834 6.06769 53.942 6.47732 53.8841 6.87877C53.6873 8.88931 52.8044 10.6254 51.8977 12.3436C49.7681 16.2573 47.0122 19.7355 44.1429 23.142C43.2123 24.2577 42.2221 25.3196 41.2676 26.4174C40.3132 27.5151 39.478 28.0043 38.106 26.6023C33.6685 22.2512 29.9585 17.2154 27.118 11.6874C26.4888 10.5092 26.1628 9.19288 26.1696 7.8572Z" fill="#FAB958"/>
<path d="M68.6004 36.309C63.2671 36.1117 57.9634 35.4227 52.7567 34.2507C52.2675 34.1433 51.7784 34.0479 51.3012 33.8987C50.2513 33.5646 49.9172 32.9501 50.1618 31.8703C51.162 27.8248 52.5939 23.8986 54.4329 20.1591C55.4776 17.8005 56.81 15.5801 58.3998 13.5488C59.4214 12.171 60.9416 11.2481 62.6351 10.9774C65.6178 10.5717 67.9502 13.4712 68.4214 15.607C68.6647 16.8376 68.4094 18.1145 67.7116 19.1568C66.1487 21.6752 64.0982 23.8557 61.6807 25.5702C61.0255 26.0549 60.5493 26.743 60.3266 27.5271C60.2729 27.712 60.2013 27.9089 60.3624 28.064C60.5234 28.2191 60.6785 28.064 60.8217 28.0222C62.6497 27.2565 64.6084 26.8513 66.5901 26.8291C69.3938 26.8291 72.096 27.3421 74.4702 28.9291C75.1905 29.3883 75.769 30.0388 76.1408 30.8079C76.5127 31.577 76.6633 32.4344 76.5759 33.2842C76.5729 33.6908 76.4532 34.0879 76.2311 34.4284C76.0091 34.7689 75.694 35.0386 75.3232 35.2053C74.1348 35.7612 72.8511 36.0851 71.5413 36.1598C70.5152 36.2314 69.4892 36.2553 68.6004 36.309Z" fill="#FAB958"/>
<path d="M11.6144 42.8596C16.9969 43.0339 22.3495 43.7353 27.5953 44.9537C29.9277 45.4608 30.2259 45.8665 29.5996 48.1216C28.0688 53.8897 25.6541 59.3859 22.4413 64.4147C21.6746 65.66 20.6186 66.7017 19.3632 67.4514C16.6192 69.0324 13.4994 67.9048 12.0081 64.8145C11.6187 64.0717 11.4319 63.2395 11.4665 62.4017C11.5011 61.5638 11.7557 60.7498 12.2049 60.0417C13.7586 57.5137 15.8032 55.3228 18.2179 53.5984C18.8871 53.1331 19.3774 52.4533 19.6078 51.6714C19.6615 51.4745 19.8106 51.2478 19.6078 51.0748C19.405 50.9018 19.2022 51.0748 19.0113 51.1404C16.9803 51.992 14.7871 52.3872 12.5867 52.2978C10.0395 52.1606 7.57588 51.6535 5.42838 50.156C4.72942 49.6884 4.17085 49.0393 3.81252 48.2784C3.45419 47.5175 3.3096 46.6735 3.39423 45.8367C3.39772 45.4432 3.51133 45.0586 3.7222 44.7265C3.93306 44.3943 4.23275 44.1279 4.58728 43.9574C5.61574 43.4536 6.72767 43.1422 7.86817 43.0386C9.11163 42.897 10.3631 42.8372 11.6144 42.8596Z" fill="#FAB958"/>
</g>
<defs>
<clipPath id="clip0_26_195">
<rect width="80" height="79.1209" fill="white"/>
</clipPath>
</defs>
</svg>
